<svg id="Layer_1" data-name="Layer 1" xmlns="http://www.w3.org/2000/svg" xmlns:xlink="http://www.w3.org/1999/xlink" viewBox="0 0 588.34 400"><defs><style>.cls-1{fill:#06f;}.cls-2{fill:#a4c8ff;}.cls-3{fill:url(#linear-gradient);}.cls-4{fill:#1f1440;}.cls-5{fill:#fff;}.cls-6{fill:#0050c8;}.cls-7{fill:#6da8ff;}.cls-8{fill:#0981f3;}.cls-9{fill:#0057db;}.cls-10{fill:#00cfff;}.cls-11{fill:url(#linear-gradient-2);}.cls-12{fill:#d7d4ff;}.cls-13{fill:#ffadae;}.cls-14{fill:#ff9395;}.cls-15{fill:#2c2c75;}.cls-16{fill:#5652e5;}.cls-17{fill:#2e1d66;}.cls-18{fill:#ff2e57;}.cls-19{fill:#514b66;}.cls-20{fill:#7447fd;}.cls-21{fill:#8c6dfd;}.cls-22{fill:#6737bf;}.cls-23{fill:#aa1548;}.cls-24{fill:#352364;}.cls-25{fill:#452b96;}.cls-26{fill:#ac1548;}</style><linearGradient id="linear-gradient" x1="-4128.07" y1="434.89" x2="-4431.31" y2="56.55" gradientTransform="matrix(-1, 0, 0, 1, -3987.51, 0)" gradientUnits="userSpaceOnUse"><stop offset="0" stop-color="#fff"/><stop offset="1" stop-color="#dbe9ff"/></linearGradient><linearGradient id="linear-gradient-2" x1="201.97" y1="207.73" x2="363.57" y2="207.73" gradientUnits="userSpaceOnUse"><stop offset="0" stop-color="#fff"/><stop offset="1" stop-color="#fff"/></linearGradient></defs><title>Bao Mat</title><path class="cls-1" d="M29.51,106.3a.54.54,0,0,1-.37-.5c0-.42,0-.85,0-1.28a.55.55,0,0,1,.55-.53.53.53,0,0,1,.53.55c0,.41,0,.82,0,1.23a.54.54,0,0,1-.52.56A.58.58,0,0,1,29.51,106.3Z"/><path class="cls-1" d="M29.62,102.51a.53.53,0,0,1-.37-.55c.07-.85.17-1.7.29-2.55a.54.54,0,1,1,1.07.16c-.12.82-.22,1.65-.28,2.47a.55.55,0,0,1-.58.5A.28.28,0,0,1,29.62,102.51Zm.74-5a.54.54,0,0,1-.36-.63c.18-.82.39-1.66.62-2.48a.54.54,0,1,1,1,.29c-.23.8-.43,1.62-.6,2.42a.54.54,0,0,1-.64.42Zm1.37-4.87A.54.54,0,0,1,31.4,92c.28-.8.58-1.6.91-2.39a.54.54,0,0,1,.71-.29.55.55,0,0,1,.29.71c-.32.76-.62,1.55-.9,2.33A.53.53,0,0,1,31.73,92.64ZM33.68,88l-.06,0a.54.54,0,0,1-.25-.72c.37-.77.78-1.53,1.19-2.27a.55.55,0,0,1,.74-.21.54.54,0,0,1,.2.74c-.4.72-.8,1.47-1.16,2.21A.55.55,0,0,1,33.68,88Zm2.49-4.41-.12-.06a.55.55,0,0,1-.17-.75c.46-.71.95-1.43,1.45-2.11a.53.53,0,0,1,.75-.12.52.52,0,0,1,.12.75c-.48.67-1,1.37-1.41,2.07A.54.54,0,0,1,36.17,83.57Zm3-4.1a.56.56,0,0,1-.17-.09.54.54,0,0,1-.07-.76c.54-.66,1.1-1.31,1.68-1.94a.54.54,0,0,1,.76,0,.55.55,0,0,1,0,.77c-.56.6-1.11,1.24-1.64,1.88A.54.54,0,0,1,39.14,79.47Zm3.43-3.72a.46.46,0,0,1-.21-.14.54.54,0,0,1,0-.76c.62-.59,1.26-1.17,1.91-1.72a.55.55,0,0,1,.76.06A.56.56,0,0,1,45,74c-.63.53-1.26,1.09-1.86,1.67A.56.56,0,0,1,42.57,75.75Zm27.78,9-.44-.16A10.52,10.52,0,0,1,68.55,84a.54.54,0,1,1,.52-.94,11.54,11.54,0,0,0,1.23.57c.33.12.66.23,1,.32A.54.54,0,0,1,71,85Zm3.13.52a.54.54,0,0,1-.37-.51.55.55,0,0,1,.55-.54A9.42,9.42,0,0,0,76,84a.55.55,0,0,1,.66.4.54.54,0,0,1-.4.65,10.64,10.64,0,0,1-2.64.3A.47.47,0,0,1,73.48,85.31Zm-6.9-2.74a.52.52,0,0,1-.19-.11,10.83,10.83,0,0,1-1.71-2,.54.54,0,0,1,.91-.58,10,10,0,0,0,1.53,1.83.54.54,0,0,1-.54.9Zm11.77,1.56a.57.57,0,0,1-.31-.26.54.54,0,0,1,.22-.73,8.66,8.66,0,0,0,1.93-1.4.54.54,0,0,1,.76,0,.53.53,0,0,1,0,.76,9.42,9.42,0,0,1-2.16,1.57A.56.56,0,0,1,78.35,84.13ZM63.86,78.37a.55.55,0,0,1-.34-.33,13,13,0,0,1-.63-2.55.56.56,0,0,1,.46-.62.54.54,0,0,1,.61.46,11.88,11.88,0,0,0,.58,2.35.54.54,0,0,1-.33.69A.53.53,0,0,1,63.86,78.37ZM46.44,72.48a.55.55,0,0,1-.26-.19.54.54,0,0,1,.11-.76c.68-.51,1.39-1,2.11-1.46a.53.53,0,0,1,.74.16A.55.55,0,0,1,49,71c-.69.44-1.38.92-2,1.42A.54.54,0,0,1,46.44,72.48ZM82,80.66l-.11,0a.54.54,0,0,1-.19-.73,8.37,8.37,0,0,0,.77-1.68c.06-.17.11-.34.16-.51a.54.54,0,1,1,1,.27c-.05.2-.11.39-.17.59a10.5,10.5,0,0,1-.87,1.87A.53.53,0,0,1,82,80.66ZM50.69,69.73a.52.52,0,0,1-.3-.25.53.53,0,0,1,.21-.73c.75-.41,1.52-.81,2.29-1.16a.54.54,0,0,1,.72.26.55.55,0,0,1-.26.72c-.75.34-1.5.72-2.23,1.13A.54.54,0,0,1,50.69,69.73ZM63.12,73.4a.55.55,0,0,1-.37-.53,16.4,16.4,0,0,1,.28-2.6.55.55,0,0,1,.63-.43.54.54,0,0,1,.43.63,15.55,15.55,0,0,0-.26,2.43.54.54,0,0,1-.56.52Zm-7.84-5.79a.54.54,0,0,1,0-1c.8-.31,1.63-.58,2.44-.82a.55.55,0,0,1,.67.37.54.54,0,0,1-.37.67c-.79.23-1.58.49-2.36.79A.55.55,0,0,1,55.28,67.61Zm27.88,8.22a.52.52,0,0,1-.36-.47,7.15,7.15,0,0,0-.57-2.27.55.55,0,0,1,.29-.71.54.54,0,0,1,.71.29,8.12,8.12,0,0,1,.64,2.61.53.53,0,0,1-.49.58A.78.78,0,0,1,83.16,75.83ZM64.05,68.44a.54.54,0,0,1-.34-.69,16.57,16.57,0,0,1,1.07-2.39.25.25,0,0,1,0-.07.58.58,0,0,1,0-.19.55.55,0,0,1,.52-.56c.85,0,1.72,0,2.57,0a.53.53,0,0,1,.51.56.54.54,0,0,1-.56.52c-.67,0-1.35,0-2,0a.54.54,0,0,1-.07.27,14.94,14.94,0,0,0-1,2.23A.54.54,0,0,1,64.05,68.44Zm-3.92-2.23a.55.55,0,0,1-.35-.41.53.53,0,0,1,.42-.63c.83-.18,1.69-.32,2.53-.42a.54.54,0,0,1,.13,1.07c-.81.1-1.64.24-2.45.4A.53.53,0,0,1,60.13,66.21Zm21.13,5A.53.53,0,0,1,81,71a11.42,11.42,0,0,0-1.69-1.72.54.54,0,1,1,.69-.83,12.67,12.67,0,0,1,1.85,1.89.54.54,0,0,1-.09.75A.53.53,0,0,1,81.26,71.22Zm-11.07-5.4a.54.54,0,0,1,.24-1c.85.11,1.7.25,2.54.43a.54.54,0,1,1-.22,1.06c-.81-.17-1.64-.31-2.45-.42ZM77.42,68l-.1,0a14.8,14.8,0,0,0-2.21-1,.54.54,0,0,1,.37-1A15.47,15.47,0,0,1,77.85,67a.55.55,0,0,1,.21.74A.55.55,0,0,1,77.42,68Zm-11-4a.34.34,0,0,1-.12-.06.55.55,0,0,1-.16-.75c.48-.71,1-1.41,1.5-2.08a.54.54,0,1,1,.85.66c-.5.65-1,1.33-1.45,2A.52.52,0,0,1,66.39,64Zm3.1-4a.55.55,0,0,1-.19-.12.54.54,0,0,1,0-.76c.57-.63,1.18-1.25,1.8-1.83a.55.55,0,0,1,.77,0,.54.54,0,0,1,0,.76c-.6.56-1.19,1.16-1.75,1.77A.55.55,0,0,1,69.49,60Zm3.69-3.46a.59.59,0,0,1-.25-.17A.53.53,0,0,1,73,55.6c.66-.53,1.36-1.05,2.07-1.53a.54.54,0,1,1,.6.89c-.68.47-1.36,1-2,1.48A.53.53,0,0,1,73.18,56.53Zm4.18-2.85a.53.53,0,0,1-.1-1c.74-.43,1.5-.83,2.27-1.21a.54.54,0,1,1,.47,1c-.75.37-1.49.76-2.2,1.17A.53.53,0,0,1,77.36,53.68Zm4.54-2.21a.56.56,0,0,1-.33-.31.55.55,0,0,1,.3-.7c.78-.32,1.59-.61,2.41-.88a.53.53,0,0,1,.68.34.54.54,0,0,1-.34.68c-.8.26-1.58.55-2.34.86A.55.55,0,0,1,81.9,51.47Zm4.79-1.6a.54.54,0,0,1-.35-.37.55.55,0,0,1,.39-.66c.81-.22,1.65-.42,2.48-.59a.54.54,0,0,1,.22,1.06c-.81.17-1.63.36-2.42.57A.5.5,0,0,1,86.69,49.87Zm5-1a.52.52,0,0,1-.36-.43.53.53,0,0,1,.45-.61c.83-.13,1.68-.24,2.53-.33a.54.54,0,0,1,.11,1.08c-.83.08-1.67.19-2.48.31A.42.42,0,0,1,91.64,48.84Zm49.29,14.91a.52.52,0,0,1-.19-.11c-.61-.57-1.25-1.12-1.89-1.65a.55.55,0,0,1-.06-.76.54.54,0,0,1,.76-.07c.65.54,1.29,1.11,1.92,1.68a.54.54,0,0,1-.54.91ZM96.67,48.32a.53.53,0,0,1-.37-.48.54.54,0,0,1,.51-.57c.84,0,1.7-.07,2.55-.08a.54.54,0,1,1,0,1.08c-.84,0-1.68,0-2.5.08A.64.64,0,0,1,96.67,48.32ZM137.05,60.5a.55.55,0,0,1-.15-.08c-.66-.5-1.34-1-2-1.48a.54.54,0,1,1,.62-.88c.7.48,1.39,1,2.06,1.5a.54.54,0,0,1,.1.76A.53.53,0,0,1,137.05,60.5ZM101.72,48.27a.52.52,0,0,1-.36-.53.53.53,0,0,1,.55-.52c.84,0,1.7.07,2.55.14a.54.54,0,0,1,.5.58.53.53,0,0,1-.58.49c-.83-.06-1.68-.1-2.5-.13A.41.41,0,0,1,101.72,48.27Zm31.18,9.35-.12-.06c-.7-.44-1.42-.88-2.15-1.29a.53.53,0,0,1-.2-.73.54.54,0,0,1,.74-.21c.73.42,1.47.87,2.19,1.32a.55.55,0,0,1,.17.74A.55.55,0,0,1,132.9,57.62Zm-26.13-9a.54.54,0,0,1,.24-1c.83.1,1.68.21,2.53.34a.54.54,0,0,1-.17,1.07c-.83-.13-1.66-.24-2.49-.34Zm21.73,6.46-.07,0c-.74-.38-1.5-.75-2.26-1.09a.54.54,0,1,1,.45-1c.77.36,1.55.73,2.3,1.12a.54.54,0,0,1-.42,1Zm-16.72-5.69a.54.54,0,0,1-.36-.61.53.53,0,0,1,.63-.43c.84.16,1.68.34,2.5.53A.54.54,0,1,1,114.3,50c-.81-.19-1.63-.36-2.45-.52ZM123.9,53h0l-1.29-.51-1-.39a.54.54,0,1,1,.36-1l1.08.4c.44.16.87.33,1.31.51a.54.54,0,0,1,.29.7A.54.54,0,0,1,123.9,53Zm-7.19-2.43a.54.54,0,0,1,.31-1c.82.23,1.65.47,2.45.72a.54.54,0,0,1-.32,1c-.79-.25-1.6-.49-2.41-.71Z"/><path class="cls-1" d="M143.7,66.46a.49.49,0,0,1-.21-.14c-.29-.3-.58-.6-.88-.89a.55.55,0,0,1,0-.77.54.54,0,0,1,.77,0c.3.29.59.6.89.9a.54.54,0,0,1-.57.89Z"/><polygon class="cls-1" points="141.86 67.41 143 70.77 175.3 65 141.86 67.41"/><polygon class="cls-1" points="140.72 55.39 142.59 60.33 175.3 65 140.72 55.39"/><polygon class="cls-2" points="140.72 55.39 146.2 49.44 175.3 65 140.72 55.39"/><polygon class="cls-2" points="137.18 59.55 129.21 68.57 175.3 65 137.18 59.55"/><path class="cls-3" d="M479.57,386.09l11-21.67c28-55,62.12-102.46,59.13-167.15C547,137.67,520.26,79.69,470.63,44.9,413.56,4.9,325.82-1.93,269.3,43.2c-24,19.15-39.89,47-62.31,67.86-25.44,23.73-58.61,35.18-91.38,44.71-23.13,6.72-46.18,14.77-66.26,28.06C-23.54,232.1.8,314.1,19.15,384.39Z"/><path class="cls-4" d="M180.19,397.26l27.05-.5,27-.46,54.11-.72,13.53-.21,13.53-.25q13.52-.22,27.05,0l13.53.28c4.51.14,9,.24,13.52.43,9,.34,18,.76,27.06,1.45v.48c-9,.69-18,1.12-27.06,1.45-4.5.19-9,.29-13.52.43l-13.53.28q-13.53.21-27.05,0l-13.53-.25-13.53-.21-54.11-.72-27-.46-27.05-.5Z"/><path class="cls-5" d="M548,127.29a25.06,25.06,0,1,1-32.81,13.4A25.06,25.06,0,0,1,548,127.29Z"/><path class="cls-5" d="M492.16,131a49.75,49.75,0,0,0-3.18,27.7A50.35,50.35,0,0,0,498,180.05a49.32,49.32,0,0,0,20.87,16.46A50,50,0,0,0,577.25,119a49.45,49.45,0,0,0-19.57-14.77A50.12,50.12,0,0,0,492.16,131Zm82.22-10.28a46.72,46.72,0,0,1-54.19,72.73,46,46,0,0,1-16.61-11.84A46.71,46.71,0,0,1,556.4,107.3,46.29,46.29,0,0,1,574.38,120.73Z"/><path class="cls-5" d="M95.17,152.37a25.06,25.06,0,1,1-32.81,13.39A25.06,25.06,0,0,1,95.17,152.37Z"/><path class="cls-5" d="M39.33,156.09a49.74,49.74,0,0,0-3.19,27.7,50.36,50.36,0,0,0,9.07,21.34,49.42,49.42,0,0,0,20.86,16.46,50,50,0,0,0,58.35-77.5,49.45,49.45,0,0,0-19.57-14.77A50.12,50.12,0,0,0,39.33,156.09Zm82.22-10.29a46.73,46.73,0,0,1-54.19,72.74A46.14,46.14,0,0,1,50.74,206.7a46.92,46.92,0,0,1-11.42-24,46.7,46.7,0,0,1,82.23-36.94Z"/><path class="cls-5" d="M486.33,224.85a2.87,2.87,0,1,1,2.37-3.3A2.88,2.88,0,0,1,486.33,224.85Z"/><path class="cls-6" d="M488.34,305.68c.67-.9,1.49-1.61,2.21-2.46a17.9,17.9,0,0,0,1.47-2.36.33.33,0,0,0-.56-.33,12.72,12.72,0,0,1-1.79,2.67,19.26,19.26,0,0,0-1.89,2.15c-.25.34.32.66.56.33Z"/><path class="cls-7" d="M491.25,302.49s-14-5.39,2.58-19.42c0,0,4.73-3.22,7.79-2.54C502.6,280.74,506.28,304.94,491.25,302.49Z"/><path class="cls-1" d="M480.24,322.1s-9.47-11.84-18.07,5a13.09,13.09,0,0,0-.62,10.49c0,.05,0,.1.05.15a2.38,2.38,0,0,1,.11.38,5.47,5.47,0,0,1-.11,2.57.6.6,0,0,0,.48.81c3.87.5,18,1.6,22.06-8.65C487.49,324.39,480.24,322.1,480.24,322.1Z"/><path class="cls-1" d="M495.5,314.91s-5.14-5.23,1.68-8.33c6.33-2.88,8.75,2.12,12.21,1.94a.46.46,0,0,1,.47.64C508.39,312.33,502.43,323.55,495.5,314.91Z"/><path class="cls-6" d="M484.45,311.9s4.51-17.5-26.38-15C458.07,296.85,457.64,323.26,484.45,311.9Z"/><path class="cls-6" d="M487.59,230.85l2.63,115.3a2.11,2.11,0,1,1-4.22,0c.14-15.8.95-111.18,0-115.33Z"/><path class="cls-1" d="M485.9,231.26c-.54.11-.86.14-.86.14s-17.65,2.94-11.77-24.26a16.47,16.47,0,0,0-.42-3.47c-.07-.26-.15-.52-.23-.78,0,0,20.26.4,23.7,13.64C499.24,227.82,489,230.66,485.9,231.26Z"/><path class="cls-7" d="M462.49,218.41s19.36,3.92,17.65,18.14C480.14,236.55,471.8,248.07,462.49,218.41Z"/><path class="cls-6" d="M489.32,320.8a13.24,13.24,0,0,1,3.22-5c1.37-1.19,3.12-1.49,4.5-2.58.32-.26-.14-.71-.46-.46A15.93,15.93,0,0,1,494,314a9.54,9.54,0,0,0-2.24,1.65,14.45,14.45,0,0,0-2.95,4.83c-.16.38.4.71.56.33Z"/><path class="cls-6" d="M479.11,323c1.51-2.1,6.5-3,8.4-1.07.29.29.75-.17.46-.46-2.24-2.28-7.67-1.24-9.42,1.21-.25.34.32.66.56.32Z"/><path class="cls-6" d="M489.11,332.87c3.66-4.34,9.71-4.06,12.81.76.22.35.79,0,.56-.33a8.36,8.36,0,0,0-13.83-.88c-.27.31.19.77.46.45Z"/><path class="cls-7" d="M483.73,284a12.92,12.92,0,0,1,2.14,1.23,10,10,0,0,0,1.54,1.3.33.33,0,0,0,.33-.56,15.59,15.59,0,0,1-1.7-1.44,19.07,19.07,0,0,0-2-1.09.33.33,0,0,0-.33.56Z"/><path class="cls-7" d="M487.88,278.13c1.67-2,4-2.77,6.4-3.6.39-.13.22-.76-.18-.62-2.45.86-4.93,1.72-6.68,3.76-.27.31.19.78.46.46Z"/><path class="cls-8" d="M471.31,247.94c4.95,3.17,13.66,5.7,15.79,11.9.13.4.76.23.62-.17-2.19-6.41-11-9-16.08-12.29-.35-.22-.68.34-.33.56Z"/><path class="cls-9" d="M487.89,255.59c.71-2.49,3.12-5.3,4.81-7.18a24.69,24.69,0,0,1,5.5-5,.33.33,0,0,0-.33-.56,25.68,25.68,0,0,0-6.22,5.73c-1.63,1.94-3.69,4.36-4.39,6.8a.33.33,0,0,0,.63.17Z"/><path class="cls-7" d="M478.34,236.34a27.21,27.21,0,0,0,4,2.8,18.33,18.33,0,0,0,4.21,1.65c.41.06.58-.57.17-.63a19.36,19.36,0,0,1-4.09-1.62,26.1,26.1,0,0,1-4-2.76c-.35-.24-.67.32-.33.56Z"/><path class="cls-7" d="M527.36,259.19a26.19,26.19,0,0,0-18.74-4.43,26.94,26.94,0,0,0-7.74,2.47s6.87-11.77,17.32-7.52c.65.26,1.24.53,1.8.79C528.51,254.58,527.36,259.19,527.36,259.19Z"/><path class="cls-10" d="M472.29,248.57a35.67,35.67,0,0,0-16.73.53,29.89,29.89,0,0,0-15.14,9.76s-5.88-7.84,9.65-16.35c8.6-4.7,14.5-2.33,18,.71A17.77,17.77,0,0,1,472.29,248.57Z"/><path class="cls-2" d="M526.22,288.91a32.89,32.89,0,0,0-7.84-8c-5.75-4.24-14.67-8.1-26.81-5.71a35.2,35.2,0,0,1,11.22-7,16.18,16.18,0,0,1,10.35-.54C523.61,270.93,525.9,280.74,526.22,288.91Z"/><path class="cls-2" d="M485,284.51c-32.69-5.55-49,13.4-49,13.4a23.67,23.67,0,0,1,.06-5.54c.06-.44.12-.87.2-1.29A19.72,19.72,0,0,1,451,275.65c16.41-4.12,25.64.47,30.23,4.43A17,17,0,0,1,485,284.51Z"/><path class="cls-10" d="M484.25,261.22s-9.2.21-15.63-1.5-9.37,5.63,5.09,19.12c0,0,1-3.19,14.22-6.68S500.43,256.6,484.25,261.22Z"/><path class="cls-6" d="M510.63,343.76s-.53.09-1.41.19c-4.18.43-16.28.79-16-9.72a3.7,3.7,0,0,1,2.47-3.39,16.28,16.28,0,0,1,4.19-.84,20.94,20.94,0,0,1,7.15.76C515.53,333.09,505.48,340.08,510.63,343.76Z"/><path class="cls-7" d="M464.73,336.07a.88.88,0,0,1-1.57-.49,10.35,10.35,0,0,1,1.42-6.05c1.55-2.78,3.6-6.13,6.6-7.57,1.72-.83,2.46-.58,3.79.6s2.7.82,4,1.73c1.46,1,1.17,3.43.22,4.68-1.21,1.6-3.69,1.39-5.49,1.81A19,19,0,0,0,464.73,336.07Z"/><path class="cls-1" d="M462.24,301.62a.62.62,0,0,0-.94.78,41.07,41.07,0,0,0,2.47,3.74,14.9,14.9,0,0,0,6.79,5.38c1.81.71,7.68,2.32,7.55-1.19-.11-3.27-4.34-3.65-6.65-4.37C468.28,305,464.91,303.82,462.24,301.62Z"/><path class="cls-7" d="M506.45,309.82a.87.87,0,0,0-1.19-.46c-2.41,1.12-6.53,1.13-6.86,4.54-.23,2.4,2.53,2,4,1.64S507.63,313.27,506.45,309.82Z"/><path class="cls-5" d="M469.78,262.53a31.49,31.49,0,0,0,7.85,1.09c2.86-.15,5.67-.58,8.51-.87,1.62-.16,7.12-.9,5.28,2.46-1.22,2.23-5.95,3-8.23,3.57-1.55.39-3.12.63-4.65,1.14-1.16.39-2.22,1.07-3.36,1.45-.27-1.61-2.19-3.68-3.52-4.57C471.06,266.41,466.88,263.71,469.78,262.53Z"/><path class="cls-8" d="M468.48,225.2c1.29,3,2.26,6.2,4,9,.65,1.05,2.52,3.21,3.73,1.55.94-1.28-.09-3.12-.91-4.16A30.46,30.46,0,0,0,468.48,225.2Z"/><path class="cls-9" d="M485.9,231.26c-.63-2.61,3.3-4.25,4.82-5.5a6.55,6.55,0,0,0,2.35-6.94c-1.44-5.57-7-8.7-11.61-11.48-2.8-1.14-4.92-1.93-7.12-3-.44-.22-.95-.43-1.49-.65-.07-.26-.15-.52-.23-.78,0,0,20.26.4,23.7,13.64C499.24,227.82,489,230.66,485.9,231.26Z"/><path class="cls-8" d="M472.29,248.57a35.67,35.67,0,0,0-16.73.53,5.53,5.53,0,0,0-.77-.47,3.72,3.72,0,0,0-2.32-.17c-1.83.27-3.63.95-5.46,1.4-.63.15-2.17.7-2-.4.1-.55,1.61-1.64,2.05-2,3.62-2.74,8.2-3.8,12.66-4.26a40.69,40.69,0,0,1,6.16-.38,10.17,10.17,0,0,1,2.23.38A17.77,17.77,0,0,1,472.29,248.57Z"/><path class="cls-9" d="M516.29,237c-.88.19-1.84.25-2.47.4a24.07,24.07,0,0,0-8.91,3.87,26.94,26.94,0,0,0-7.74,2.47S504,232,514.5,236.2C515.14,236.46,515.73,236.72,516.29,237Z"/><path class="cls-7" d="M485,284.51c-32.69-5.55-49,13.4-49,13.4a23.67,23.67,0,0,1,.06-5.54,31.71,31.71,0,0,1,4.42-3.35,65.07,65.07,0,0,1,11.33-6.26,31.32,31.32,0,0,1,11.71-1.84,75,75,0,0,1,10.82.57c2.2.33,6.23,1.14,6.91-1.41A17,17,0,0,1,485,284.51Z"/><path class="cls-7" d="M518.38,280.89c-5.75-4.24-14.67-8.1-26.81-5.71a35.2,35.2,0,0,1,11.22-7,2.67,2.67,0,0,0-.85,1.44c-.26,1.31.75,1.6,1.89,2,2.35.81,4.84.68,7.17,1.57s3.53,2.79,5.19,4.57A10.14,10.14,0,0,1,518.38,280.89Z"/><path class="cls-1" d="M510.63,343.76s-.53.09-1.41.19a13.15,13.15,0,0,1-2.87-1.78c-1.45-1.17-2.18-2.65-3.3-4.06-1-1.24-2.11-2.17-1.6-3.84.42-1.35.92-2.75-.51-3.75a4.19,4.19,0,0,0-1.06-.52,20.94,20.94,0,0,1,7.15.76C515.53,333.09,505.48,340.08,510.63,343.76Z"/><path class="cls-6" d="M482.26,311.19c.77.39,1.45.93,2.22,1.33a12.68,12.68,0,0,1,2.45,1.48c.32.27.78-.19.46-.46a11.54,11.54,0,0,0-2.32-1.44c-.86-.44-1.62-1-2.48-1.47-.37-.19-.7.37-.33.56Z"/><polygon class="cls-1" points="506.79 346.13 495.53 385.07 479.11 385.07 475.65 373.1 475.47 372.47 467.85 346.13 506.79 346.13"/><path class="cls-9" d="M506.79,346.13l-11.26,38.94H479.11l-3.46-12c12.05-4.7,17.86-16.56,20.67-27Z"/><rect class="cls-4" x="467.85" y="344.79" width="38.94" height="2.68"/><path class="cls-11" d="M214.25,355.59A12.27,12.27,0,0,1,202,343.33l.15-271.28A12.28,12.28,0,0,1,214.4,59.8l136.89.08a12.27,12.27,0,0,1,12.28,12.26l-.15,271.27a12.28,12.28,0,0,1-12.29,12.25Z"/><rect class="cls-6" x="346.6" y="112.68" width="40.62" height="5.68" rx="2.34" transform="translate(482.44 -251.39) rotate(90)"/><rect class="cls-6" x="178.31" y="112.68" width="40.62" height="5.68" rx="2.34" transform="translate(314.15 -83.1) rotate(90)"/><rect class="cls-6" x="178.31" y="158.99" width="40.62" height="5.68" rx="2.34" transform="translate(360.46 -36.79) rotate(90)"/><path class="cls-12" d="M506.84,70.06a6.41,6.41,0,1,1-8.4,3.43A6.4,6.4,0,0,1,506.84,70.06Z"/><circle class="cls-12" cx="473.09" cy="71.09" r="6.41" transform="translate(226.52 481.05) rotate(-67.52)"/><path class="cls-12" d="M448.55,111.51a3.19,3.19,0,1,1-4.18,1.7A3.19,3.19,0,0,1,448.55,111.51Z"/><path class="cls-12" d="M492.55,71a12.73,12.73,0,0,0-.82,7.09,12.88,12.88,0,0,0,2.32,5.46,12.64,12.64,0,0,0,5.34,4.21,12.8,12.8,0,0,0,14.93-19.83,12.6,12.6,0,0,0-5-3.78A12.82,12.82,0,0,0,492.55,71Zm21-2.63A12,12,0,0,1,499.72,87a11.79,11.79,0,0,1-4.25-3,12,12,0,1,1,18.12-15.58Z"/><path class="cls-12" d="M456.48,93.76a2.29,2.29,0,1,1-3,1.23A2.3,2.3,0,0,1,456.48,93.76Z"/><path class="cls-12" d="M447.31,92.4a8.94,8.94,0,0,0-.58,5,9.13,9.13,0,0,0,1.63,3.83,9,9,0,1,0-1.05-8.8Zm14.75-1.85a8.39,8.39,0,0,1-9.72,13.06,8.32,8.32,0,0,1-3-2.13,8.54,8.54,0,0,1-2.05-4.3,8.38,8.38,0,0,1,14.76-6.63Z"/><circle class="cls-12" cx="486.84" cy="112.8" r="3.19" transform="translate(265.2 560.7) rotate(-76.72)"/><path class="cls-12" d="M135.46,96.77a6.41,6.41,0,1,1-8.4,3.43A6.41,6.41,0,0,1,135.46,96.77Z"/><circle class="cls-12" cx="101.71" cy="97.8" r="6.41" transform="translate(-27.49 154.52) rotate(-67.58)"/><path class="cls-12" d="M77.17,138.22A3.19,3.19,0,1,1,73,139.93,3.19,3.19,0,0,1,77.17,138.22Z"/><path class="cls-12" d="M121.17,97.72a12.79,12.79,0,0,0,1.5,12.55,12.56,12.56,0,0,0,5.34,4.21,12.8,12.8,0,1,0-6.84-16.76Zm21-2.63a12,12,0,0,1-13.87,18.61,11.79,11.79,0,0,1-4.25-3,11.95,11.95,0,0,1,13.51-19A11.81,11.81,0,0,1,142.21,95.09Z"/><path class="cls-12" d="M85.1,120.47a2.31,2.31,0,0,1,1.22,3,2.29,2.29,0,0,1-4.23-1.78A2.3,2.3,0,0,1,85.1,120.47Z"/><path class="cls-12" d="M75.93,119.11a8.84,8.84,0,0,0-.57,5,9,9,0,1,0,.57-5Zm14.75-1.84a8.38,8.38,0,0,1-9.72,13,8.08,8.08,0,0,1-3-2.13,8.38,8.38,0,0,1,9.47-13.33A8.16,8.16,0,0,1,90.68,117.27Z"/><circle class="cls-12" cx="115.46" cy="139.51" r="3.19" transform="translate(-46.75 220.03) rotate(-76.79)"/><rect class="cls-2" x="202.1" y="318.43" width="161.47" height="33.68"/><rect class="cls-2" x="202.03" y="63.35" width="161.47" height="25.71"/><path class="cls-1" d="M282,162.8c-5.43,0-9.83,5.4-9.83,12s4.4,12,9.83,12,9.83-5.4,9.83-12S287.45,162.8,282,162.8Zm0,20.47c-3.46,0-6.27-3.78-6.27-8.43s2.81-8.43,6.27-8.43,6.26,3.78,6.26,8.43S285.48,183.27,282,183.27Z"/><path class="cls-1" d="M282,197.22c-4.88,0-9.44-2.38-12.84-6.7a26.51,26.51,0,0,1,0-31.35c3.4-4.33,8-6.71,12.84-6.71a15.65,15.65,0,0,1,10.76,4.44,1.82,1.82,0,0,1,.1,2.55,1.76,1.76,0,0,1-2.51.11,12.18,12.18,0,0,0-8.35-3.5c-7.95,0-14.41,8.43-14.41,18.78s6.46,18.78,14.41,18.78,14.4-8.43,14.4-18.78a23.55,23.55,0,0,0-1.32-7.84,1.8,1.8,0,0,1,1.07-2.3,1.77,1.77,0,0,1,2.28,1.08,27.14,27.14,0,0,1,1.53,9.06,25.38,25.38,0,0,1-5.13,15.68C291.46,194.84,286.9,197.22,282,197.22Z"/><path class="cls-1" d="M300.11,152.48c-4.8-6.11-11.22-9.47-18.08-9.47a21.49,21.49,0,0,0-10.77,3,24.66,24.66,0,0,0-2.86,2,27.76,27.76,0,0,0-4.46,4.53,32.5,32.5,0,0,0-4.66,8.16,35.06,35.06,0,0,0-1.2,3.54h0c-.27,1-.5,1.95-.7,2.94a40.18,40.18,0,0,0-.75,7.72,36.19,36.19,0,0,0,7.31,22.36,25.31,25.31,0,0,0,9.6,7.67,20.9,20.9,0,0,0,17,0,25.31,25.31,0,0,0,9.6-7.67,37.85,37.85,0,0,0,0-44.72ZM282,203.07c-12,0-21.84-12.66-21.84-28.23A35.09,35.09,0,0,1,262,163.68a30.33,30.33,0,0,1,2.24-5.16,26.84,26.84,0,0,1,3.79-5.3,22.08,22.08,0,0,1,4-3.46,17.87,17.87,0,0,1,10-3.15c12,0,21.83,12.67,21.83,28.23S294.06,203.07,282,203.07Z"/><path class="cls-1" d="M282,217.28a27.28,27.28,0,0,1-7.3-1,1.81,1.81,0,0,1-1.25-2.22,1.78,1.78,0,0,1,2.19-1.26,24,24,0,0,0,6.36.86c16.63,0,30.17-17.42,30.17-38.83S298.66,136,282,136s-30.18,17.42-30.18,38.83a47.21,47.21,0,0,0,4.7,20.81,1.81,1.81,0,0,1-.79,2.42,1.78,1.78,0,0,1-2.39-.81,50.81,50.81,0,0,1-5.08-22.42c0-11.26,3.46-21.86,9.75-29.86s14.9-12.58,24-12.58,17.6,4.47,24,12.58,9.75,18.6,9.75,29.86S312.3,196.71,306,204.7,291.11,217.28,282,217.28Z"/><path class="cls-1" d="M318.19,198.47a1.71,1.71,0,0,1-.62-.12,1.81,1.81,0,0,1-1-2.33,60.29,60.29,0,0,0,3.74-21.18c0-27.07-17.16-49.1-38.24-49.1A31.2,31.2,0,0,0,264.76,131a1.77,1.77,0,0,1-2.46-.54,1.83,1.83,0,0,1,.53-2.5,35.22,35.22,0,0,1,19.2-5.86c11.24,0,21.78,5.54,29.69,15.59s12.11,23.12,12.11,37.12a64,64,0,0,1-4,22.46A1.79,1.79,0,0,1,318.19,198.47Z"/><path class="cls-1" d="M282,227.55c-11.25,0-21.79-5.54-29.7-15.59s-12.11-23.12-12.11-37.12a61.75,61.75,0,0,1,8.33-31.59,1.76,1.76,0,0,1,2.44-.61,1.81,1.81,0,0,1,.61,2.47,58.09,58.09,0,0,0-7.82,29.73c0,27.07,17.16,49.1,38.25,49.1,10.13,0,19.69-5.05,26.9-14.23a1.78,1.78,0,0,1,2.51-.29,1.84,1.84,0,0,1,.28,2.54C303.82,222,293.27,227.55,282,227.55Z"/><path class="cls-1" d="M246.39,216.76a1.78,1.78,0,0,1-1.46-.77c-7.92-11.37-12.28-26-12.28-41.15a73.21,73.21,0,0,1,9.71-37.14,57.51,57.51,0,0,1,10.93-13.57,46.33,46.33,0,0,1,13.93-8.78,1.8,1.8,0,0,1,1.3,3.36c-9.12,3.61-17.32,11-23.1,20.84a69.57,69.57,0,0,0-9.21,35.29c0,14.43,4.13,28.31,11.63,39.07a1.83,1.83,0,0,1-.43,2.52A1.77,1.77,0,0,1,246.39,216.76Z"/><path class="cls-1" d="M282,237.17a40.07,40.07,0,0,1-14.59-2.76,1.82,1.82,0,0,1-1-2.33,1.79,1.79,0,0,1,2.31-1A36.37,36.37,0,0,0,282,233.57c25.25,0,45.81-26.35,45.81-58.73,0-13.71-3.78-27.06-10.62-37.58-6.7-10.29-16-17.4-26.18-20a1.8,1.8,0,0,1-1.29-2.19,1.77,1.77,0,0,1,2.16-1.3c11,2.83,21.09,10.47,28.28,21.52s11.21,25.15,11.21,39.56c0,16.57-5.09,32.17-14.33,43.92a50.4,50.4,0,0,1-15.68,13.45A40.59,40.59,0,0,1,282,237.17Z"/><path class="cls-1" d="M313.66,117a1.78,1.78,0,0,1-1.16-.43,50.15,50.15,0,0,0-14.92-9,1.81,1.81,0,0,1-1-2.32,1.77,1.77,0,0,1,2.29-1.06,54,54,0,0,1,16,9.62,1.81,1.81,0,0,1,.2,2.54A1.76,1.76,0,0,1,313.66,117Z"/><path class="cls-1" d="M231.14,208.13a1.79,1.79,0,0,1-1.66-1.15,89.37,89.37,0,0,1-5.81-32.14c0-18,5.19-35.36,14.61-48.84a1.77,1.77,0,0,1,2.48-.43,1.82,1.82,0,0,1,.43,2.52c-9,12.87-14,29.47-14,46.75a85.67,85.67,0,0,0,5.57,30.83,1.81,1.81,0,0,1-1,2.33A1.63,1.63,0,0,1,231.14,208.13Z"/><path class="cls-1" d="M305.93,241.88a1.77,1.77,0,0,1-1.53-.89,1.81,1.81,0,0,1,.63-2.47,55.84,55.84,0,0,0,13.31-11.17,1.77,1.77,0,0,1,2.52-.14,1.82,1.82,0,0,1,.14,2.54,59.26,59.26,0,0,1-14.17,11.88A1.72,1.72,0,0,1,305.93,241.88Z"/><path class="cls-1" d="M324.77,223.78a1.73,1.73,0,0,1-1-.32,1.82,1.82,0,0,1-.45-2.51c8.71-12.77,13.51-29.15,13.51-46.11A85.24,85.24,0,0,0,329,138.62a1.81,1.81,0,0,1,.84-2.4,1.78,1.78,0,0,1,2.38.85,89,89,0,0,1,8.21,37.77c0,17.69-5,34.79-14.14,48.16A1.77,1.77,0,0,1,324.77,223.78Z"/><path class="cls-6" d="M351.29,56.33l-136.88-.08h0a15.73,15.73,0,0,0-15.63,15.8l-.15,271.27a15.73,15.73,0,0,0,15.62,15.82l136.88.07h0a15.71,15.71,0,0,0,15.63-15.79l.15-271.28A15.71,15.71,0,0,0,351.29,56.33Zm8.79,287.08a8.85,8.85,0,0,1-8.95,8.7L214.25,352a9,9,0,0,1-6.44-2.67,8.58,8.58,0,0,1-2.5-6l.15-271.28a8.84,8.84,0,0,1,8.94-8.7H333.06v.06h18.23a9.05,9.05,0,0,1,6.44,2.68,8.56,8.56,0,0,1,2.5,6Z"/><path class="cls-5" d="M383.85,118.9a38.8,38.8,0,0,1-.12-77.59h.13a38.8,38.8,0,0,1,.11,77.59Z"/><path class="cls-6" d="M383.86,43a37.13,37.13,0,0,1,.11,74.26h-.12A37.13,37.13,0,0,1,383.74,43Zm0-3.33h-.13a40.46,40.46,0,0,0,.12,80.92H384a40.46,40.46,0,0,0-.12-80.92Z"/><polygon class="cls-6" points="409.05 106.2 404.42 100.67 409.96 105.29 409.05 106.2"/><path class="cls-1" d="M383.89,80.17c-1.05.72-2.13,1.37-3.23,2s-2.2,1.21-3.32,1.78-2.26,1.09-3.42,1.57-2.32.95-3.48,1.44L367,88.44l-3.47,1.46c-2.32,1-4.63,1.94-7,2.88l-.06-.14c2.22-1.16,4.46-2.29,6.7-3.42l3.36-1.69,3.38-1.67c1.12-.56,2.24-1.14,3.35-1.71s2.26-1.1,3.42-1.58,2.32-.95,3.5-1.38,2.38-.83,3.61-1.16Z"/><path class="cls-1" d="M385.73,80.09a1.88,1.88,0,1,1-1.88-1.87A1.88,1.88,0,0,1,385.73,80.09Z"/><path class="cls-1" d="M372.34,68.75c1,.82,2,1.66,3,2.5l1.47,1.28,1.46,1.28c.49.44,1,.84,1.49,1.26a12.75,12.75,0,0,1,1.39,1.36c.43.48.85,1,1.24,1.52a13.64,13.64,0,0,1,1.06,1.68l-.1.11a13.14,13.14,0,0,1-1.71-1c-.54-.38-1.05-.78-1.55-1.2a13.73,13.73,0,0,1-1.38-1.37c-.43-.49-.84-1-1.28-1.46l-1.32-1.44-1.3-1.45c-.86-1-1.72-1.94-2.56-2.93Z"/><polygon class="cls-6" points="385.18 43.83 383.85 51.02 382.53 43.83 385.18 43.83"/><polygon class="cls-6" points="382.53 116.37 383.85 109.18 385.18 116.37 382.53 116.37"/><polygon class="cls-6" points="420.13 81.42 412.94 80.1 420.13 78.78 420.13 81.42"/><polygon class="cls-6" points="347.58 78.78 354.77 80.1 347.58 81.42 347.58 78.78"/><polygon class="cls-6" points="409.96 54.91 404.42 59.53 409.05 54 409.96 54.91"/><polygon class="cls-6" points="357.75 105.29 363.29 100.67 358.66 106.2 357.75 105.29"/><polygon class="cls-6" points="358.66 54 363.29 59.53 357.75 54.91 358.66 54"/><circle class="cls-6" cx="383.85" cy="39.64" r="2.6"/><rect class="cls-6" x="383.18" width="1.34" height="39.64"/><path class="cls-13" d="M213,197.59l1.08-1.08a7.57,7.57,0,0,0,2.14-6.21l-.09-.82a2.09,2.09,0,0,1,0-.61l.66-3a2.21,2.21,0,0,0-.11-1.32l0-.05a.68.68,0,0,1,.57-.93h0a.71.71,0,0,1,.57.2l.41.41a4,4,0,0,1,1.19,2.62l.12,1.81,3.84-1.51a2.42,2.42,0,0,1,2.11.18l.56.35a.9.9,0,0,1,.45.72h0a.67.67,0,0,0,.27.47h0a1.46,1.46,0,0,1,.6,1.2v.63a1.23,1.23,0,0,0,.32.86,1.51,1.51,0,0,1,.4.92v0a1.88,1.88,0,0,1-.09.66l-.77,2.46a2.17,2.17,0,0,1-1.21,1.34c-1.83.79-5.75,2.41-5.75,2.41l-5,5.06Z"/><path class="cls-14" d="M221.86,187.68l-.59,1.43a1,1,0,0,0,.54,1.3h0a.81.81,0,0,1,.33,1.21h0a.55.55,0,0,0,.12.78l.81.57a1.49,1.49,0,0,1,.58.87l.36,1.5a6.16,6.16,0,0,0-4.42-1.41L219,192.3a2.51,2.51,0,0,1-.06-1.58l.63-2.14Z"/><polygon class="cls-4" points="144.84 155.17 157.54 149.6 160.34 157.75 149.73 164.29 144.84 155.17"/><path class="cls-15" d="M179.92,252.29s9.94,51.29-12,122.4l-4.69.15s-3.54-75.18,0-94.33-1.57-27.25-1.57-27.25Z"/><path class="cls-16" d="M169.62,251.1S167.93,279,147.46,373.88l-6.05-.26s-5.12-103.82,3-122.52Z"/><polygon class="cls-17" points="144.97 374.86 143.76 374.82 146.15 260.1 147.36 260.13 144.97 374.86"/><path class="cls-1" d="M213.63,196.46l3,7.44a229.3,229.3,0,0,1-13.84,18.69c-4.39,5.16-8.65,9.17-10.78,8.36-5.42-2-9.45-18.94-9.45-18.94l.58,19.13c6.69,24.29,1,33.08,1,33.08-3.67-7.67-14.53-11-14.53-11a66.41,66.41,0,0,1-31.24,10.87,63,63,0,0,1,5.65-27l-5.45-31.66c-5.46,6.52-14,12-16.89,13.8l-1,.59c.26.24.54.5.83.8h0c2.88,2.87,7.14,8.06,10.07,11.74.63.79,1.2,1.51,1.68,2.13,1,1.3,1.64,2.11,1.64,2.11l-5.1,7-.95-.65q-1.92-1.32-3.65-2.57c-29.14-21-19.37-26-19.37-26s22.17-24.5,30.37-28.75c.36-.19.73-.38,1.1-.54.6-.28,1.2-.54,1.81-.78a44.42,44.42,0,0,1,14.66-2.92c17-1.51,25,3.06,25,3.06.27.07.55.16.83.25a8.8,8.8,0,0,1,1.13.52c8.55,4.52,14.11,23.23,14.11,23.23s1.91-1.45,10.86-7.15Z"/><path class="cls-4" d="M143.47,168.31a12.94,12.94,0,0,0-.37,4.3,5,5,0,0,0,1.79,3.67,6.17,6.17,0,0,0,4.19.87,20,20,0,0,0,4.42-1,20,20,0,0,1-4.38,1.41,6.69,6.69,0,0,1-4.64-.62,4.89,4.89,0,0,1-1.69-1.81,7.52,7.52,0,0,1-.8-2.32,14.07,14.07,0,0,1,0-4.8Z"/><path class="cls-6" d="M169.63,253.21a66.41,66.41,0,0,1-31.24,10.87,63,63,0,0,1,5.65-27l-5.45-31.66,7.8,18.65a19.44,19.44,0,0,1,1.5,7.86l-.07,4.38,11.72,1.85-.14.56a11.11,11.11,0,0,1-5.67,7.13l-5.28,2.71a4.37,4.37,0,0,0-2.25,2.9l-.65,2.85a2.73,2.73,0,0,0,3.21,3.27Z"/><path class="cls-6" d="M202.78,222.59c-4.39,5.16-8.65,9.17-10.78,8.36-5.42-2-9.45-18.94-9.45-18.94a24.15,24.15,0,0,0,0-11.46s7.48,14,9,20.47,13.18-.75,13.18-.75Z"/><path class="cls-18" d="M159.54,238.18c-1.11,3.77-6,.68-8.41,1.17-2.56.54-3,3.92-5.27,5.44a9.7,9.7,0,0,1-6,1.85,78.55,78.55,0,0,0,0-8.4c0-.11,0-.23,0-.34a4.34,4.34,0,0,0,2.15-2c1.54-2.29,1.75-3.51,4.83-3.9C151.45,231.44,156.54,235.37,159.54,238.18Z"/><path class="cls-5" d="M151.23,182.12a31.44,31.44,0,0,1,15.8,0,2.21,2.21,0,0,1,1.64,1.6c1.14,4.72,4.45,21.48-3.58,28.24,0,0-9.07-6.51-15.35-27.21A2.14,2.14,0,0,1,151.23,182.12Z"/><path class="cls-4" d="M163.3,374.85a52,52,0,0,0-.53,8.55c1.21,2.66,3,2,5.63,2.12l1,0,12.74-.29a.81.81,0,0,0,.65-1.35l-.2-.21a8,8,0,0,0-3.5-2.15L174.25,380a7.06,7.06,0,0,1-3.72-2.62l-2.61-2.71Z"/><path class="cls-4" d="M141.41,373.62l-1.49,2.86c-1.18,1.76-1.89,4.92-.69,6.81.83,1.33,2.94,1.53,4.4,1.76a20.64,20.64,0,0,0,3.77.21,9.62,9.62,0,0,0,3.43-.39c1.11-.52.74-2.42.49-3.28a16.69,16.69,0,0,0-1.7-3.6l-2.16-4.11Z"/><path class="cls-13" d="M167,188.05a8.53,8.53,0,0,1-6.59,2c-2.75-.35-6.1-1.4-8-3.62-1.7-2-.82-4.68-.58-7.29a18.73,18.73,0,0,0-1.22-9.34l8.11.28,2.75.1s.63,2.82.71,3.08a18.94,18.94,0,0,0,1.29,3c1,1.92,2.6,3.41,3.7,5.27.89,1.52,1.63,3.61.73,5.27A4.75,4.75,0,0,1,167,188.05Z"/><path class="cls-14" d="M166.19,180.11a12.52,12.52,0,0,1-12.37-6.19,8.44,8.44,0,0,0,2.19.85,8.72,8.72,0,0,0,6.5-.67,16.11,16.11,0,0,0,3.05,5.27Z"/><path class="cls-4" d="M140.54,155.81a6.23,6.23,0,0,0-4.14,4.34,6,6,0,0,0,1.7,5.68,41.53,41.53,0,0,0,3.72,2.56,8.63,8.63,0,0,1,2.78,3.69,11.08,11.08,0,0,0,1.28,3,3.73,3.73,0,0,0,5.3.29,6,6,0,0,0,1.3-4.17,25.5,25.5,0,0,0-2.27-10.93,10,10,0,0,0-3.53-4.52,4.77,4.77,0,0,0-5.52.15Z"/><path class="cls-13" d="M170.19,159.47c0,.13,0,.25,0,.37a24.28,24.28,0,0,1-2.64,10.55,13.6,13.6,0,0,1-1.85,2.88c-1.91,2.13-6.93,3.32-9.77,2.66a10.39,10.39,0,0,1-6.08-4.53,22.75,22.75,0,0,1-2.79-7.07,3.77,3.77,0,0,1-4.32-3.5c0-2.09,1.33-3.47,4.44-3.06a1.35,1.35,0,0,0,.29-.05c5.86-1,10.21-5,15.63-7,1-.34,3.72-1.64,4.56-1a4.25,4.25,0,0,1,.86,1.27,11.18,11.18,0,0,1,1.11,2.84,18.81,18.81,0,0,1,.54,3.65C170.2,158.2,170.21,158.84,170.19,159.47Z"/><path class="cls-13" d="M169.85,154.9c-2.85.59-6.22.28-10.21-.51a17.21,17.21,0,0,0-3.21-.34,45.39,45.39,0,0,1,6.67-3.29c1-.34,3.72-1.64,4.56-1a4.25,4.25,0,0,1,.86,1.27,11.18,11.18,0,0,1,1.11,2.84C169.72,154.23,169.79,154.56,169.85,154.9Z"/><path class="cls-5" d="M147.07,164.61c1.16,4.65,3.38,10.41,8.69,11.64a9.2,9.2,0,0,0,6.45-.57,11.85,11.85,0,0,0,4.82-3.75c.2-.31-.27-.65-.48-.33a11.34,11.34,0,0,1-4.43,3.48,8.94,8.94,0,0,1-6.57.53c-4.78-1.26-6.84-6.87-7.89-11.09-.09-.36-.68-.27-.59.09Z"/><path class="cls-14" d="M170.19,159.47c-4.37.67-13.15,1.16-17.79.55-2.76-.36-4.19-1.36-4.93-2.3,5.86-1,10.21-5,15.63-7,1-.34,3.72-1.64,4.56-1a4.25,4.25,0,0,1,.86,1.27,11.18,11.18,0,0,1,1.11,2.84,18.81,18.81,0,0,1,.54,3.65C170.2,158.2,170.21,158.84,170.19,159.47Z"/><path class="cls-4" d="M164.89,147.12a.38.38,0,1,0-.12-.76.38.38,0,0,0,.12.76Z"/><path class="cls-5" d="M156.2,167.89l7.54-1.16a.34.34,0,0,1,.4.37c-.17,1.26-1,4.75-4.66,4.89s-3.69-2.91-3.57-3.82A.34.34,0,0,1,156.2,167.89Z"/><path class="cls-13" d="M159.55,238.18c-1.11,3.76-6.06.68-8.42,1.17-2.56.53-3,3.92-5.27,5.44a9.64,9.64,0,0,1-6,1.85,10.24,10.24,0,0,1-2.7-.53l-1.13-.4c0-.06.1-.11.14-.17a6.64,6.64,0,0,0,.88-1.64,7.87,7.87,0,0,0,.24-4.82,1.27,1.27,0,0,0-.06-.18,19.13,19.13,0,0,1,2.63-1,4.26,4.26,0,0,0,2.15-2c1.54-2.29,1.75-3.51,4.83-3.9a11,11,0,0,1,6.43,1.56l.54.3A31.92,31.92,0,0,1,159.55,238.18Z"/><path class="cls-14" d="M159.55,238.18c-1.11,3.76-6.06.68-8.42,1.17-2.56.53-3,3.92-5.27,5.44a9.64,9.64,0,0,1-6,1.85,10.24,10.24,0,0,1-2.7-.53l-1.13-.4c0-.06.1-.11.14-.17a6.64,6.64,0,0,0,.88-1.64,5.16,5.16,0,0,0,1,.32,5.47,5.47,0,0,0,3.68-.3,10,10,0,0,0,4.27-4.23c.69-1.42-.09-6,.83-7.68a11,11,0,0,1,6.43,1.56c.08.37.2.55.45.36l.09-.06A31.92,31.92,0,0,1,159.55,238.18Z"/><path class="cls-13" d="M141.42,237.1l2.38-4.68a3.26,3.26,0,0,0,.34-1.73l-.09-1.15a.49.49,0,0,1,.77-.41l.79.57a2.46,2.46,0,0,1,1,2.15l-.17,2.6Z"/><path class="cls-4" d="M142.44,166.65s-.73,10,6,9.7l-1.35-5.92Z"/><path class="cls-4" d="M139,158c0,.08,0,.05,0,.07h0a.08.08,0,0,0,0,0,.5.5,0,0,0,0-.13.58.58,0,0,0-.06-.3,1.33,1.33,0,0,0-.76-.59,4.47,4.47,0,0,0-1.27-.27,9.63,9.63,0,0,0-1.42,0,10,10,0,0,1,1.28-.74,5.35,5.35,0,0,1,1.51-.49,3.31,3.31,0,0,1,1.9.21,3,3,0,0,1,.95.66,2.59,2.59,0,0,1,.38.48,1.89,1.89,0,0,1,.17.28,1.26,1.26,0,0,1,.07.16,1.62,1.62,0,0,1,.08.24Z"/><path class="cls-4" d="M149.35,156.47a12.76,12.76,0,0,0-.16,1.69,11.12,11.12,0,0,0,.06,1.73,5.4,5.4,0,0,0,1.33,3.2,4.61,4.61,0,0,1-1.42-1.23,7.48,7.48,0,0,1-1-1.66,12.86,12.86,0,0,1-.66-1.83,13.83,13.83,0,0,1-.41-1.94Z"/><path class="cls-4" d="M179.28,145.12c-2.19,6.11-5.24,8.92-9.43,9.78-2.85.59-6.22.28-10.21-.51a17.21,17.21,0,0,0-3.21-.34,11.86,11.86,0,0,0-9,3.67h0a1.26,1.26,0,0,1-.28.05,4.69,4.69,0,0,0-3.13.43l-3.19-2.15c-.74-20.33,13.71-13.42,13.71-13.42l3.12-5.8C167.91,120.65,183,134.89,179.28,145.12Z"/><path class="cls-4" d="M141.61,158.52a15.46,15.46,0,0,1-1-1.66,15.24,15.24,0,0,1-.8-1.74,8.29,8.29,0,0,1-.51-1.83,4.06,4.06,0,0,1,.1-1.87,3.77,3.77,0,0,0,.44,1.7,7.25,7.25,0,0,0,1,1.45,13,13,0,0,0,1.17,1.29,16.38,16.38,0,0,0,1.29,1.12Z"/><path class="cls-4" d="M147.77,156.39a12.88,12.88,0,0,1,2.54-1.23,13,13,0,0,1,2.7-.69,10,10,0,0,1,5.54.71l.64.3.54.27c.36.17.73.33,1.12.47a14.55,14.55,0,0,0,2.37.65,16.78,16.78,0,0,0,4.95.26,15.66,15.66,0,0,0,2.44-.46,13.86,13.86,0,0,0,2.31-.91,12.59,12.59,0,0,0,3.86-3.15,19.87,19.87,0,0,0,3.79-9.37,20.06,20.06,0,0,1-3.35,9.71,13,13,0,0,1-3.9,3.54,13.25,13.25,0,0,1-2.42,1.11,15.31,15.31,0,0,1-2.59.64,17.9,17.9,0,0,1-5.32,0,17.14,17.14,0,0,1-2.63-.57,12.24,12.24,0,0,1-1.28-.46l-.63-.27-.55-.22a8.13,8.13,0,0,0-4.56-.33,11.39,11.39,0,0,0-2.26.71,12.23,12.23,0,0,0-2,1.11l0,0a1.12,1.12,0,0,1-1.3-1.83Z"/><path class="cls-19" d="M172.09,133.48a8.83,8.83,0,0,1,4.54,4.31,10.71,10.71,0,0,1,.71,6.3,9.94,9.94,0,0,1-1,3.07,9.46,9.46,0,0,1-.92,1.35c-.18.2-.35.42-.54.61l-.62.55a12.37,12.37,0,0,1-5.93,2.52,26.74,26.74,0,0,1-6.44.28c-1.06-.1-2.14-.18-3.19-.35s-2.09-.32-3.11-.37l-.77,0-.75,0a12.13,12.13,0,0,0-1.49.19,7.25,7.25,0,0,0-5.75,5.94l-1.45-.36a9.15,9.15,0,0,1,3.79-5.54,9.06,9.06,0,0,1,3.17-1.23,11.8,11.8,0,0,1,1.67-.16c.28,0,.55,0,.83,0l.82,0c1.1.09,2.18.31,3.19.48s2.08.3,3.12.43a26.57,26.57,0,0,0,6.24-.08,11.88,11.88,0,0,0,5.7-2.23l.59-.49c.19-.18.35-.38.53-.57a8.08,8.08,0,0,0,.91-1.24A9.53,9.53,0,0,0,177,144a10.38,10.38,0,0,0-.51-6.16A8.77,8.77,0,0,0,172.09,133.48Z"/><path class="cls-6" d="M135,236.61l-5.1,7c-1.64-1.11-3.17-2.19-4.6-3.22a13.23,13.23,0,0,0,8.06-5.86C134.33,235.8,135,236.61,135,236.61Z"/><path class="cls-1" d="M136.08,247s-6.23-.05-8.57-3.36l6.8-8.7,1.58,1.24.92.73,1.1.86S139.39,243.77,136.08,247Z"/><path class="cls-5" d="M140.86,193.42a13.85,13.85,0,0,1-.85,3.77,13.85,13.85,0,0,0,.48-3.8,24,24,0,0,0-.24-3.8,9.58,9.58,0,0,0-1.07-3.48,2.18,2.18,0,0,0-1.1-1,1.5,1.5,0,0,0-.73-.06c.6-.28,1.2-.54,1.81-.78a3.62,3.62,0,0,1,1,1.33,10.25,10.25,0,0,1,.83,3.94A23.06,23.06,0,0,1,140.86,193.42Z"/><path class="cls-5" d="M180.13,191a18.5,18.5,0,0,1-.82-3.69,6.78,6.78,0,0,1,.08-2,3.73,3.73,0,0,1,.21-.7,8.8,8.8,0,0,1,1.13.52,5,5,0,0,0-.68,2.18A18.26,18.26,0,0,0,180.13,191Z"/><path class="cls-5" d="M166.6,208.34A89.21,89.21,0,0,1,169.5,236a87.9,87.9,0,0,0-5.74-26.75Z"/><path class="cls-5" d="M120.72,219.83c.26.24.54.5.83.8a13,13,0,0,1-1.36-.76,5.84,5.84,0,0,0-.91-.44,8.17,8.17,0,0,0-1-.32,24.9,24.9,0,0,0-4.25-.64,25.54,25.54,0,0,1,4.38-.09,11.11,11.11,0,0,1,1.12.15,6,6,0,0,1,1.12.33c.36.14.71.28,1,.38Z"/><path class="cls-5" d="M136.81,236.9c-.1.38-.23.75-.36,1.11a33.25,33.25,0,0,1-1.69,3.5,29.18,29.18,0,0,0,1-3.7,9.32,9.32,0,0,0,.17-1.64Z"/><polygon class="cls-4" points="210.21 146.37 227.18 224.19 230.84 222.34 210.21 146.37"/><path class="cls-13" d="M222.6,189.34a1.51,1.51,0,0,0,.86-1.05.76.76,0,0,0-.82-.75c-.63.08-2.29.84-2.08,1.54S221.9,189.75,222.6,189.34Z"/><path class="cls-13" d="M224.87,192.23a1.17,1.17,0,0,1-.43,1.42,4,4,0,0,1-1.85.51c-.67.08-1.39.22-1.4-.5a1.83,1.83,0,0,1,1-1.42,2.53,2.53,0,0,1,1.26-.4,1.9,1.9,0,0,1,.72.06C224.41,192,224.57,192.12,224.87,192.23Z"/><path class="cls-13" d="M224.81,190.5c-.05,1.59-2.29,1.45-3.37,1.12-.24-.07-.74-.17-.87-.35s.08-.55.24-.75a2.91,2.91,0,0,1,2.15-.81A2.81,2.81,0,0,1,224.81,190.5Z"/><path class="cls-13" d="M225.09,194.25c.36.19.25.8.08,1.16s-.72.66-1.13.91-1,.68-1.21.29,0-1.12.3-1.52A2,2,0,0,1,225.09,194.25Z"/><path class="cls-1" d="M184.16,264.22l-2.59,2.27s-.7-6.73-.65-6.68A14.54,14.54,0,0,1,184.16,264.22Z"/><path class="cls-2" d="M94.58,285.92a73.16,73.16,0,0,1,2.24,15.46l.54-.5c11.9-10.94,18.18-20.92,21.43-29-14.78,9.79-3.64-.07,1.6-4.56,2.56-8.6,1.56-14.19,1.35-15.15l0-.15s-3.72,5.68-6.52,6.34-5.34,1.32-7.94,3.5-1.62,8-6.08,9.9c0,6.3-.27,19.3-2.94,1.31C94.66,275.39,92.89,280,94.58,285.92Z"/><path class="cls-20" d="M60.86,274.74s2.91,19.78,20.28,27.64C81.14,302.38,96.27,301.27,60.86,274.74Z"/><path class="cls-7" d="M99.23,327.55a17.22,17.22,0,0,0,7.82-13.26s3.07-6.48,8.19-5.61,11.71-8.82,18.09-14.1a16.81,16.81,0,0,1,13.1-3.93s-7.61-2.47-17.59,3.61a129.19,129.19,0,0,0-14.55,9.93l-8.88,6.11S97.59,323.31,99.23,327.55Z"/><path class="cls-2" d="M99.23,327.55l3-6.53c3-6.52,3-11.07,9.6-14.48s16.7-12,17-12.27c-3.31,1.88-9.14,2.55-13.52,3.5-.34,2.67-1.42,8.24-4.31,1.35-.92.5-1.47,1.1-1.49,1.87-.11,3.87-3.84,5.63-3.84,5.63C90.45,316.16,99.23,327.55,99.23,327.55Z"/><path class="cls-21" d="M60.87,274.74A46.76,46.76,0,0,0,68.29,284c15.11,14.86,12.85,18.39,12.85,18.39a18.33,18.33,0,0,0,7.55,11.34s5.29-16.88-9.07-28.85a75.6,75.6,0,0,0-6.08-4.58c.74,4,.91,7.93-4.39-2.86-7.54-4.75-11.62-7.29-12.71-21.41C56.44,256,54.43,264.09,60.87,274.74Z"/><path class="cls-20" d="M54.11,301.22a3,3,0,0,1,0-.33A1.78,1.78,0,0,0,54.11,301.22Z"/><path class="cls-22" d="M73.77,316.41s6.44.67,6.78,6.55,3.86,12.93,6.55,12.93c0,0,18.81-26.2-8.4-26h-.52C81,313,86.11,319,74.43,309.8,55,309.14,54,303,54.11,301.25,53.9,303.43,54.2,312.73,73.77,316.41Z"/><path class="cls-22" d="M87.8,333.58s-.14,9.37,1.85,27a.75.75,0,0,1-.76-.69c-.34-4.08-2.17-24.85-4-26.85C79.33,327.12,87.8,333.58,87.8,333.58Z"/><path class="cls-7" d="M95.57,318.37s-3,11.72-1.85,41a1.12,1.12,0,1,1-2.24,0c.09-5.95.69-34.25,3.36-40.92Z"/><path class="cls-2" d="M99.92,327.1l-2.34,33.48a.7.7,0,1,1-1.39-.11l3-32.92Z"/><path class="cls-5" d="M122.32,251.78a53.65,53.65,0,0,1-6.31,11.9c-3.13,4.3-6.25,8.56-9,13.11a71.43,71.43,0,0,0-7,14.38c-1.7,5.05-2.13,10.37-3.39,15.52a.38.38,0,0,1-.73-.2c1.22-5,1.65-10.17,3.25-15.08A68.1,68.1,0,0,1,105.38,278,145.88,145.88,0,0,1,114,265.22a59.92,59.92,0,0,0,7.64-13.64c.18-.45.91-.25.73.2Z"/><path class="cls-22" d="M87.54,311.71c0-5.15-.5-9.92-3.18-14.44-2.26-3.82-5.42-7-8.47-10.15-.33-.36.2-.89.54-.54,3.27,3.42,6.67,6.83,9,11,2.46,4.43,2.87,9.14,2.89,14.12a.38.38,0,0,1-.76,0Z"/><path class="cls-7" d="M99.25,327.42c.26-5.66,1.37-11.87,5.18-16.29.16-.19.42.08.26.26-3.73,4.34-4.81,10.48-5.06,16,0,.25-.39.25-.38,0Z"/><path class="cls-6" d="M62.37,336.93s5.67-7,10.28-3.61,10.6,15.79,10.6,15.79,2.07-10.75-7-17.13-14.61,3.19-14.61,3.19Z"/><path class="cls-1" d="M43.5,360.7s-.51-17.34,7-17.24a11.71,11.71,0,0,0,4.56-.84c6.22-8.89,5.82-6.48,4.26-2.62a24.75,24.75,0,0,0,3-3.07l0-.05a49.41,49.41,0,0,0,3-4.15c2.1-3.15,8.24-1.56,10.21-1l.61.19c-.4-.42-9.43-9.73-20.53-3.75,5.08,1.14,10.07,2.91-3.07,3.67A19.2,19.2,0,0,1,45,339C38.71,342.06,43.5,360.7,43.5,360.7Z"/><path class="cls-6" d="M82.56,347.75s2.33,9.51,2.67,15.2a.46.46,0,0,0,.47.44.47.47,0,0,0,.47-.54c-.4-2.61-2.19-14-3.61-17.39C81,341.6,82.56,347.75,82.56,347.75Z"/><path class="cls-5" d="M79.63,332.67c-2.19-4.4-12.48-4-16.29-1.8-3.6,2.12-5.84,5.73-10.19,6.52-.47.09-.68-.64-.2-.73,5.41-1,8-6.89,13.48-7.76,3.65-.58,12.08-.17,13.85,3.39.22.43,1.4,2.74,1.18,2.3Z"/><path class="cls-7" d="M96.75,301.16s-4.57,8.16-1.8,20.52a82.52,82.52,0,0,1,14.26-33.85S97.92,294.05,96.75,301.16Z"/><path class="cls-6" d="M105.67,341.93c5.37-2.17,6.51-5,6.51-5s.56-1.2,8.74-4.76a14.69,14.69,0,0,0,1.73-.89c-6.52.3-.09-2.22,3.86-3.6a11,11,0,0,0,1.85-6.55c-1.94,1.71-8.15,3.65-8.15,3.65C104,330.79,105.67,341.93,105.67,341.93Z"/><path class="cls-5" d="M105.63,342.22c.81-3.28,3.34-5.58,5.81-7.71a115.58,115.58,0,0,1,9.75-7c.17-.11.33.16.16.27-3.07,2.13-6.25,4.1-9.13,6.49-2.62,2.17-5.44,4.62-6.28,8,0,.2-.35.11-.31-.08Z"/><path class="cls-23" d="M100.34,350.35l-2.47,10.92a.36.36,0,1,1-.69-.17c.43-1.57,2.3-8.53,2.63-10.93C100.17,347.46,100.34,350.35,100.34,350.35Z"/><path class="cls-6" d="M106.27,341.68s-4,12-4.34,17.83a.32.32,0,0,1-.37.3.32.32,0,0,1-.26-.36c.31-2,2.09-12.65,4.37-17.51Z"/><path class="cls-7" d="M99.58,352.61c1.78-7.94,5.19-6.1,5.19-6.1,11.22.2,14.88-4.31,15.09-4.59-.19.18-3.37,3.17-10,1.47-1.36,1.16-4.86,3.93-2-.61-.37-.14-.75-.28-1.13-.45C97.75,338.53,99.58,352.61,99.58,352.61Z"/><path class="cls-1" d="M113.16,365a20.58,20.58,0,1,1-38.83-9.5c.17-.32.35-.64.54-1H110.3A20.46,20.46,0,0,1,113.16,365Z"/><path class="cls-9" d="M98.8,367.14c0,6.44-9.53,11.67-21.36,11.75a20.58,20.58,0,0,1-3.11-23.42c.92-.06,1.87-.1,2.83-.1C89.11,355.37,98.8,360.63,98.8,367.14Z"/><rect class="cls-4" x="74" y="352.61" width="37.17" height="3.81"/><path class="cls-4" d="M0,385.52l77.86-1,77.85-.72,38.93-.46,19.46-.12,9.74,0,9.73.08,19.46.28c6.49.14,13,.24,19.47.43,13,.34,25.95.76,38.92,1.45V386c-13,.69-25.95,1.12-38.92,1.45-6.49.19-13,.29-19.47.43l-19.46.28-9.73.08-9.74,0-19.46-.12-38.93-.46L77.86,387,0,386Z"/><path class="cls-4" d="M443.76,174.3c.23.5.4.92.57,1.38s.33.91.47,1.36c.29.92.53,1.84.73,2.77a27.83,27.83,0,0,1,.62,5.68,21.6,21.6,0,0,1-2.82,10.93,22.66,22.66,0,0,1-3.41,4.48c-.33.33-.69.64-1,1l-.51.47-.55.44-1.09.86-1.16.78a40,40,0,0,1-10,4.66,39.86,39.86,0,0,0,9.62-5.18l1.08-.83,1-.9.51-.45.47-.48c.31-.33.63-.64.93-1a21.82,21.82,0,0,0,3-4.43,20,20,0,0,0,2-10.28,25.47,25.47,0,0,0-.88-5.2,24.52,24.52,0,0,0-.82-2.51c-.15-.41-.32-.82-.49-1.22s-.37-.81-.55-1.13Z"/><path class="cls-4" d="M386.92,149.3a13.85,13.85,0,0,1,.73,7.22,18.67,18.67,0,0,1-2.45,6.62c-2.4,4.11-6.19,6.79-8.42,10.48a11.26,11.26,0,0,0-1.23,2.91c-.07.26-.09.52-.14.78a4.15,4.15,0,0,0-.09.78l0,.8c0,.26.05.53.07.79a10.22,10.22,0,0,0,2.67,5.76,18.32,18.32,0,0,0,5.3,3.91,27.84,27.84,0,0,0,6.28,2.25,28,28,0,0,1-6.41-2,18.73,18.73,0,0,1-5.63-3.75,10.93,10.93,0,0,1-3.15-6.07c0-.29-.1-.58-.13-.87v-.88a4.29,4.29,0,0,1,0-.88c0-.3.06-.6.12-.88a12.39,12.39,0,0,1,1.21-3.31c2.27-4.11,5.93-7,7.86-10.78a16.73,16.73,0,0,0,1.91-6,11.42,11.42,0,0,0-.87-5.94,1.28,1.28,0,0,1,2.33-1l0,0Z"/><path class="cls-4" d="M407.22,149.88c-2-1.82-4.55-2.82-6.38-5s-3.81-4.64-4.13-7.59c-.82-7.39,5.94-11.43,12.75-10.75s12.36,4,14.18,10.76c1.42,5.35,1.69,10.82,4.89,15.64,1.65,2.5,4.05,4.41,6.3,6.43.75.68,1.48,1.36,2.17,2.09a33.08,33.08,0,0,1,7.21,12.09A24.3,24.3,0,0,1,445,177c1.72,8.41-3.13,16.65-9.45,22a14,14,0,0,1-16,1.45c-8.25-5.35-7.75-15.53-10.43-23.54-.47-1.49-.92-2.93-1.36-4.29a15.78,15.78,0,0,1-.15-3.06c.26-5.49,3.22-10.69,1.55-16.3C408.67,151.62,407.73,150.82,407.22,149.88Z"/><path class="cls-4" d="M409.38,175.66l-1.33-4.29,0-.1v-.08a17.71,17.71,0,0,1-.14-3.1,25.24,25.24,0,0,1,.37-3c.37-2,.91-3.87,1.29-5.75a17.13,17.13,0,0,0,.4-5.54,9.9,9.9,0,0,0-.25-1.34,5.15,5.15,0,0,0-.4-1.24,6.63,6.63,0,0,0-.67-1.12,12.34,12.34,0,0,1-.88-1.31l.17.22c-1.65-1.57-4-2.59-5.87-4.49-.47-.49-.86-1-1.25-1.45s-.78-1-1.15-1.5a14.65,14.65,0,0,1-1.86-3.39,9.75,9.75,0,0,1-.49-1.93,8.43,8.43,0,0,1-.08-1,8,8,0,0,1,0-1,9.56,9.56,0,0,1,.8-3.85,8.52,8.52,0,0,1,2.39-3.15,10.89,10.89,0,0,1,3.43-1.85,17.34,17.34,0,0,1,7.56-.62,20.25,20.25,0,0,1,7.18,2.28,15,15,0,0,1,3.09,2.23c.22.24.46.46.67.7s.41.49.61.75l.52.79.26.4.23.42c.15.28.3.56.44.84l.38.87a9.4,9.4,0,0,1,.34.88c.1.3.21.59.3.89.36,1.2.66,2.41.9,3.62.5,2.42.87,4.84,1.57,7.16a19.72,19.72,0,0,0,1.36,3.33c.13.28.31.52.46.78a8.75,8.75,0,0,0,.49.75l.53.74.57.71c3.09,3.75,7.16,6.68,10.15,10.67a25.17,25.17,0,0,1,3.54,6.5,17.35,17.35,0,0,1,1,7.31,14.57,14.57,0,0,1-2.62,6.87,29.48,29.48,0,0,1-4.93,5.47h0a12.65,12.65,0,0,0-2,3.1,11.1,11.1,0,0,0-.86,3.59,10.77,10.77,0,0,1,.82-3.61,12.61,12.61,0,0,1,2-3.15h0a29.17,29.17,0,0,0,4.84-5.51,14.4,14.4,0,0,0,2.49-6.78,17,17,0,0,0-1.12-7.15,24.65,24.65,0,0,0-3.56-6.35c-3-3.87-7.06-6.73-10.29-10.52l-.59-.73-.56-.74c-.2-.25-.35-.53-.52-.79s-.36-.52-.49-.8a20.2,20.2,0,0,1-1.47-3.46c-.75-2.38-1.16-4.83-1.68-7.21-.26-1.19-.56-2.37-.92-3.52a18.09,18.09,0,0,0-1.43-3.28l-.22-.39c-.08-.13-.17-.24-.25-.37l-.5-.73c-.18-.23-.37-.45-.56-.68l-.62-.62a13.66,13.66,0,0,0-2.89-2,19.09,19.09,0,0,0-6.81-2.06,16,16,0,0,0-7,.65,9.69,9.69,0,0,0-3,1.67,7.08,7.08,0,0,0-2,2.68,8.29,8.29,0,0,0-.64,3.32,6.33,6.33,0,0,0,0,.87,7.5,7.5,0,0,0,.52,2.48,13.15,13.15,0,0,0,1.71,3q.52.72,1.11,1.41c.39.46.78.94,1.17,1.32,1.61,1.62,3.91,2.6,5.89,4.37l.09.09.07.13a26.45,26.45,0,0,1,1.63,2.49,7.34,7.34,0,0,1,.54,1.55,13.09,13.09,0,0,1,.3,1.54,19.22,19.22,0,0,1-.34,6.12c-.37,2-.89,3.85-1.21,5.72a22.42,22.42,0,0,0-.3,2.79,16,16,0,0,0,.16,2.76l0-.18,1.4,4.29Z"/><path class="cls-24" d="M419.8,159a24,24,0,0,1,5.29,6.06,17.89,17.89,0,0,1,2.66,7.71,16.23,16.23,0,0,1-1.46,8.14,25.5,25.5,0,0,1-4.71,6.84,1,1,0,0,1-1.49-1.4l.05,0a24,24,0,0,0,4.78-6.07,15,15,0,0,0,1.82-7.41,17.19,17.19,0,0,0-2.09-7.52A23.74,23.74,0,0,0,419.8,159Z"/><path class="cls-24" d="M431.08,164.22a24.69,24.69,0,0,1,3.24,4c.47.73.9,1.48,1.3,2.25s.78,1.55,1.11,2.36a22.22,22.22,0,0,1,1.35,5.09,23.46,23.46,0,0,1,.09,5.3,23.12,23.12,0,0,1-1.15,5.22,21.49,21.49,0,0,1-2.44,4.83,19.7,19.7,0,0,1-3.68,4.06,19.48,19.48,0,0,1-4.74,2.89,1.53,1.53,0,1,1-1.21-2.81l.1,0h0a17,17,0,0,0,4.2-2.15,17.49,17.49,0,0,0,3.47-3.3,19.41,19.41,0,0,0,2.51-4.18,21.89,21.89,0,0,0,1.42-4.73,22.38,22.38,0,0,0,.28-5,20.91,20.91,0,0,0-.93-4.94c-.26-.8-.58-1.58-.91-2.37a23.2,23.2,0,0,0-1.11-2.3A23.82,23.82,0,0,0,431.08,164.22Z"/><path class="cls-4" d="M399.94,136.91c-6.5-2.08-17.12,2.86-16.22,10.73.64,5.57,5.31,11,3.42,16.76-1.27,3.81-5.25,5.79-7.4,9.07-2.47,3.77-2.47,7.9.52,11.39,4.36,5.83,10.67,1.95,14.41-1.24a14.17,14.17,0,0,1,2-1.12c3.71-1.66,7.51-4.95,8.73-8.93,1.43-4.68.47-8.84-.58-13.46C403.7,155.29,402.85,149.65,399.94,136.91Z"/><path class="cls-10" d="M371.79,264.78c0,.3.1.6.17.9a7.36,7.36,0,0,0,.24.87c1.58,5,6.82,7.6,12,7.7a14.9,14.9,0,0,0,4.64-.61c4.57-1.37,6.85-5.32,8.1-9.72h0a50.34,50.34,0,0,0,1.43-8.41l.06-.55a82.91,82.91,0,0,0,.37-8.76c0-1,0-2.05,0-3.08,0-.14,0-.28,0-.42,0-.57,0-1.13,0-1.71,0-.19,0-.38,0-.57-.08-2.77-.15-5.54-.13-8.31,0-1.14,0-2.29.07-3.42a51.76,51.76,0,0,0-.15-6.38c0-.44-.05-.87-.1-1.3-.25-2.79-.65-5.57-1-8.46-.7-5.65-.68-11.23-1.24-16.91-.12-1.23,2.82-2,3.67-12.08.08-.9.13-1.88.17-3,0-.14,0-.28,0-.44,0,0,0,0,0,0,0-1.23.05-2.58,0-4a3.51,3.51,0,0,1-.5.73,5.22,5.22,0,0,1-.58.57h0l-.19.16h0a8,8,0,0,1-1.18.78,19.14,19.14,0,0,1-4.57,1.72s-.66,1.86-1.7,4.68h0a221.05,221.05,0,0,1-9,21.55h0c-.25.48-.49.93-.73,1.36l-.6,1h0c-1.06,1.74-2,2.88-2.74,3.09,0,.54,2,9.07,3,14,.06.25.11.5.17.73v0c.32,1.49.54,2.53.54,2.71a24.75,24.75,0,0,1-.22,4.39c-.12.86-.27,1.7-.46,2.53a0,0,0,0,0,0,0,32.57,32.57,0,0,1-4.63,10.51,34.85,34.85,0,0,0-2.42,4.14c-.14.28-.27.55-.4.83l-.21.48c-.08.18-.16.36-.23.54A21.09,21.09,0,0,0,371.79,264.78Z"/><path class="cls-10" d="M400,174.88s-18.47,1.46-23.39,21.51-5.06,23.41-5.06,23.41S366.8,216,351.6,206l-7.07,4.37s11.67,22.19,29,24.24c0,0,8.25.71,11.68-14.9S400,174.88,400,174.88Z"/><path class="cls-8" d="M398.72,243.11l-.18-.43c-.28-.69-.53-1.32-.74-1.86a16.78,16.78,0,0,1-.62-1.72c-.05-.54-3-6.75-4.64-10-.57-1.14-1-1.93-1-2s-1.8.07-3.16.33l-.92.19h0l-.88.19s.13.53.32,1.46a58.72,58.72,0,0,1,1.15,9.42h0c.22,5.45-.44,11.66-3.79,15.38-4,4.38-7.49,1.71-9.82-1.43-.11-.14-.21-.29-.31-.43s-.22-.32-.32-.48l-.21.48c-.08.18-.16.36-.23.54a21.09,21.09,0,0,0-1.5,12.07c0,.3.1.6.17.9a7.36,7.36,0,0,0,.24.87c1.58,5,6.82,7.6,12,7.7a14.9,14.9,0,0,0,4.64-.61c4.57-1.37,6.85-5.32,8.1-9.72h0a50.34,50.34,0,0,0,1.43-8.41l.06-.55a82.91,82.91,0,0,0,.37-8.76C398.75,245.16,398.74,244.14,398.72,243.11Z"/><path class="cls-13" d="M398,181.64c1.52,4.3,8.31,1.35,10.27-.87,2.59-3,2.24-5.55,2.66-9.28.24-2.12.41-3.77.48-5,.37-6.49-1.86-3-11.18-2.81a13.52,13.52,0,0,1,.9,8.18c0,.1,0,.21-.06.31C400.48,174.63,397.13,179.24,398,181.64Z"/><path class="cls-17" d="M392.2,239.93s-8,33.06-10.15,54a20.51,20.51,0,0,0,2.66,12.38L421.61,370l5.53-3.27s-9.74-52-24-63.46l17.53-44.07Z"/><path class="cls-14" d="M401.12,171.83a10.13,10.13,0,0,0,10.28-5.37c.37-6.49-1.86-3-11.18-2.81A13.52,13.52,0,0,1,401.12,171.83Z"/><path class="cls-25" d="M392.56,240s3.11,15.69,4.67,67.71c0,0-.37,37.85-3.27,67,0,0,1.23,1.63,5.35,1,0,0,20.39-55.93,13-69.05,0,0,15.45-24,13.47-37.19s-27.18-30.29-27.18-30.29Z"/><path class="cls-13" d="M393.24,150.71c0,.62,0,1.27,0,1.94,0,7.35,5.41,17.08,13.64,14.28a11.52,11.52,0,0,0,2-.69,9.14,9.14,0,0,0,4.53-4.36,13.85,13.85,0,0,0,1.13-2.07,17.15,17.15,0,0,0,1.12-3.5,7.13,7.13,0,0,0-.2-4.08c-1-2.75-4.24-5.44-11.25-9.34-1.94-1.08-4.18-2.26-6.75-3.55-1.68,3.18-3.31,5.31-4,8.43A14.61,14.61,0,0,0,393.24,150.71Z"/><path class="cls-5" d="M410.44,175.36s-11.38,14.42-10.94.47c0,0-16.79,16.73-10.1,60.13a7.34,7.34,0,0,0,4.82,5.87,22.38,22.38,0,0,0,10.9.52Z"/><path class="cls-4" d="M396.46,376.53c1.16-5,2.22-10,3.21-15.08s1.9-10.1,2.7-15.18,1.51-10.17,2-15.27q.38-3.84.59-7.68c.12-2.56.16-5.12.06-7.67,0-.64-.05-1.28-.11-1.91s-.1-1.27-.19-1.9l-.13-.94c-.05-.31-.08-.64-.15-.91a4.23,4.23,0,0,0-.78-1.54,3.92,3.92,0,0,0-.62-.6l-.17-.14-.09-.06,0,0-.14-.11a.7.7,0,0,1,.42-1.15h4.57s0,0,0,0h0l0-.05-1.36-1.37-.17-.17-.18-.19a2.38,2.38,0,0,1-.34-.49,2.55,2.55,0,0,1-.33-1.14,2.67,2.67,0,0,1,.22-1.18c.09-.19.15-.31.23-.46l.21-.42c.15-.28.27-.57.41-.86s.27-.57.4-.87a54.75,54.75,0,0,0,2.57-7.18,59.52,59.52,0,0,0,1.62-7.47l.26-1.9c.08-.63.12-1.27.18-1.91.14-1.27.18-2.54.24-3.82a70.86,70.86,0,0,0-1.2-15.3l.1,0c.27,1.25.54,2.51.8,3.78l.58,3.82L412,271l.09,1c0,.32.07.64.07,1l.07,1.93,0,1c0,.33,0,.65,0,1a60.44,60.44,0,0,1-2,15.36,53.25,53.25,0,0,1-2.58,7.34c-.12.3-.26.6-.4.89s-.28.59-.43.88l-.23.43-.2.4a1.64,1.64,0,0,0,.06,1.41,1.12,1.12,0,0,0,.21.29,1.06,1.06,0,0,0,.15.16l.16.18,1.35,1.38,0,0,.07.09a.76.76,0,0,1,.12.19,1,1,0,0,1,.1.47,1,1,0,0,1-.42.8,1.16,1.16,0,0,1-.43.18H407l-1.92,0h-1.87a.24.24,0,0,0,.15-.4l-.05,0,.06,0,.11.08.21.16a5.25,5.25,0,0,1,.74.75,5,5,0,0,1,.93,1.9,9.53,9.53,0,0,1,.15,1l.13,1c.08.64.11,1.29.17,1.94s.06,1.29.09,1.94c.07,2.59,0,5.17-.14,7.74s-.39,5.14-.67,7.71c-.57,5.11-1.32,10.21-2.18,15.28S401,356.48,400,361.51s-2.18,10.05-3.41,15.05Z"/><path class="cls-10" d="M399.05,254.22c.3,4,2.42,7.9,4.23,11.38,3.52,6.74,9.2,11.26,17,11.3,4.23,0,8.69-.14,11.75-3.53,2.6-2.88,4-7.34,4.36-11.14A40.14,40.14,0,0,0,433,242.88c-.56-1.27-1.14-2.52-1.73-3.79a72.37,72.37,0,0,1-2.83-6.75c-.28-.82-.52-1.65-.73-2.49-.64-2.56-1-5.19-1.72-7.72-1.92-7.11-1.77-29.39-2.12-36.69-.09-1.87-.38-4.81-12.86-10.41-1.63-.74-7.84,16.84-8.47,18.58a34.11,34.11,0,0,0-2.18,11.57c0,7-.37,14.09.27,21.11a65.67,65.67,0,0,1-.41,18.58C399.7,247.84,398.82,251.2,399.05,254.22Z"/><path class="cls-8" d="M411.39,232.94c6.27,8.75,15.81,7.3,19.91,6.15a72.37,72.37,0,0,1-2.83-6.75c-.28-.82-.52-1.65-.73-2.49C419.38,225.9,406,225.48,411.39,232.94Z"/><path class="cls-14" d="M393.54,147.77c1-2.3,2.36-3.31,3.76.08,2.73,6.65,13.5,10.71,17.28,12a17.15,17.15,0,0,0,1.12-3.5,7.13,7.13,0,0,0-.2-4.08l-7.87-3.9-3.38-5.44c-1.94-1.08-4.18-2.26-6.75-3.55C395.82,142.52,394.19,144.65,393.54,147.77Z"/><path class="cls-4" d="M419,168.73c2.41-4.21-1.42-10.87-5-13.38a52,52,0,0,0-5.65-2.93,34.12,34.12,0,0,1-5.71-3.72c-3.76-3.11-8.87-10.67-4.17-15.13,4.28-4.07,12.06,2,15.22,4.9a28.31,28.31,0,0,1,6.84,9.5C422,151.71,421.41,155.12,419,168.73Z"/><path class="cls-5" d="M414.33,161.2c-2.86,7.57-14.83,9.26-18.61,1.46-.25-.52.54-1,.79-.46,3.39,7,14.34,5.65,16.94-1.24.21-.54,1.09-.31.88.24Z"/><path class="cls-5" d="M401.74,160.72l6.52-1.71s.59,3.7-2.84,4.3A2.88,2.88,0,0,1,401.74,160.72Z"/><path class="cls-24" d="M407.35,129.8c-2.68.53-5.48,2.09-6.55,4.67a7.79,7.79,0,0,0-.46,4.16,10.71,10.71,0,0,0,.5,2.1,9.47,9.47,0,0,0,1,1.93,11.58,11.58,0,0,0,3.12,3,33.87,33.87,0,0,0,3.89,2.24,43.8,43.8,0,0,1,3.95,2.22,9.27,9.27,0,0,1,3.12,3.23,9,9,0,0,0-3.22-3.06,39.89,39.89,0,0,0-4-2,35.13,35.13,0,0,1-4-2.11,12.2,12.2,0,0,1-3.44-3.09A10.28,10.28,0,0,1,400,141a11.88,11.88,0,0,1-.64-2.26,10.39,10.39,0,0,1-.16-2.37,8.34,8.34,0,0,1,.49-2.36,8.23,8.23,0,0,1,3-3.78,11.34,11.34,0,0,1,2.08-1.2,11.64,11.64,0,0,1,2.29-.78.77.77,0,0,1,.91.58.75.75,0,0,1-.57.91h-.07Z"/><path class="cls-4" d="M397.73,140.2a2,2,0,0,0-.11.28,2.24,2.24,0,0,0-.1.37,5.31,5.31,0,0,0-.11.8,6.37,6.37,0,0,0,.15,1.68,9.19,9.19,0,0,0,1.49,3.23,15.94,15.94,0,0,0,1.13,1.47c.44.44.85.92,1.32,1.34a28.74,28.74,0,0,0,3,2.39,27.17,27.17,0,0,0,3.26,2c1.13.6,2.31,1.11,3.5,1.65a12.83,12.83,0,0,1,3.38,2,8.67,8.67,0,0,1,2.16,3.23,8.6,8.6,0,0,0-2.32-3,12.86,12.86,0,0,0-3.41-1.72c-1.21-.45-2.45-.89-3.64-1.43a28.37,28.37,0,0,1-3.49-1.85,30,30,0,0,1-3.24-2.28c-.53-.41-1-.89-1.51-1.34a17.75,17.75,0,0,1-1.34-1.52,10.82,10.82,0,0,1-2-3.68,8.2,8.2,0,0,1-.34-2.17,7.24,7.24,0,0,1,.08-1.13,5.72,5.72,0,0,1,.11-.57,4.46,4.46,0,0,1,.22-.64l.06-.12a1,1,0,1,1,1.88.83A.72.72,0,0,1,397.73,140.2Z"/><path class="cls-4" d="M399.31,375.63l-.35,10-20.25,0s1.36-5.34,13.09-5.2l2.39-5.52Z"/><path class="cls-4" d="M426.85,366.85l3,6.53a2.73,2.73,0,0,1-.36,2.86l-8.13,10-11.74,0s.73-6.72,9.2-7.56l3.2-9Z"/><path class="cls-5" d="M388.39,187.21a66.14,66.14,0,0,0-4.82,13.39l-.39,1.73-.19.87-.16.87-.33,1.74-.24,1.76-.13.87c0,.3-.06.59-.09.89l-.15,1.76,0,.45V212l0,.89c0,.59,0,1.18,0,1.77l.08,1.78c0,.59,0,1.18.09,1.78.09,1.19.19,2.39.25,3.59.15,2.39.23,4.79.21,7.2a37.65,37.65,0,0,1-.69,7.18,18.69,18.69,0,0,1-1.12,3.44,26.86,26.86,0,0,1-1.73,3.16l-.11-.06a27.21,27.21,0,0,0,1.59-3.2,18.48,18.48,0,0,0,1-3.41,36.73,36.73,0,0,0,.43-7.11c0-2.38-.18-4.77-.4-7.14-.09-1.19-.22-2.38-.33-3.57s-.19-2.41-.28-3.61a47.83,47.83,0,0,1,1.57-14.39,51.24,51.24,0,0,1,2.44-6.82c.49-1.11,1-2.19,1.6-3.25l.44-.79.46-.77c.32-.52.65-1,1-1.51Z"/><path class="cls-18" d="M369.46,219.46s-1.1-5.78,3.66-1.74S371.59,225.05,369.46,219.46Z"/><path class="cls-26" d="M372,216.85a6.47,6.47,0,0,1,3.73,5,6.21,6.21,0,0,0-3.5-6.17Z"/><path class="cls-5" d="M400.31,244.88c-.13,1.19-.22,2.39-.26,3.58s0,2.38,0,3.56a38.29,38.29,0,0,0,.87,7,27.12,27.12,0,0,0,2.33,6.58l.42.77c.14.25.3.49.46.74l.23.37.25.35c.17.23.33.48.52.7a16,16,0,0,0,1.14,1.31c.21.21.4.43.62.62l.65.59c.21.2.45.36.68.54s.46.37.7.53c.49.33,1,.68,1.48,1a26.72,26.72,0,0,0,3.11,1.69,20.75,20.75,0,0,0,6.77,1.91,16.25,16.25,0,0,0,7-.8,14.74,14.74,0,0,0,3.18-1.58,10.8,10.8,0,0,0,2.62-2.38l.1.07a10.87,10.87,0,0,1-2.57,2.54,15.34,15.34,0,0,1-3.19,1.72,16.69,16.69,0,0,1-7.17,1.06,21.77,21.77,0,0,1-7.06-1.78,30.1,30.1,0,0,1-3.25-1.66c-.53-.3-1-.64-1.55-1-.25-.16-.5-.35-.75-.53s-.5-.35-.73-.56l-.71-.6c-.24-.19-.44-.42-.67-.63-.45-.42-.85-.9-1.26-1.36-.2-.23-.38-.48-.57-.72l-.29-.37c-.09-.13-.17-.26-.26-.38s-.35-.51-.51-.77l-.47-.8a22.77,22.77,0,0,1-2.48-6.92,32.16,32.16,0,0,1-.46-3.63,34.23,34.23,0,0,1,0-3.65,33.38,33.38,0,0,1,.32-3.61,26.55,26.55,0,0,1,.71-3.55Z"/><path class="cls-13" d="M350.66,206.63v-1.89l.94-2.94a3,3,0,0,0-.39-2.59L346.87,193a3.54,3.54,0,0,0,1.08,4.82s-3.25,3.12,0,6.2l1.66,3.29Z"/><path class="cls-1" d="M389.46,197.67l-6.57-.62.79-8.27a21.61,21.61,0,0,0-43-4.11l-.79,8.27-6.57-.63.79-8.27a28.21,28.21,0,0,1,56.17,5.36Z"/><path class="cls-6" d="M398.64,200.27l-5,51.86L318.84,245l5-51.86a5.35,5.35,0,0,1,5.83-4.82l64.2,6.13A5.35,5.35,0,0,1,398.64,200.27Z"/><rect class="cls-1" x="352.24" y="206.54" width="8.89" height="75.18" transform="matrix(0.1, -1, 1, 0.1, 79.76, 576)"/><path class="cls-5" d="M365,217.12A6.66,6.66,0,1,0,354.66,222l-.52,5.48a3.17,3.17,0,1,0,6.32.6l.52-5.48A6.64,6.64,0,0,0,365,217.12Z"/><path class="cls-13" d="M394,222.75l-2.1-2.21-3-3.7a.92.92,0,0,0-1.11-.26h0a.94.94,0,0,0-.51,1.1l1.12,4-10.85-4.94a.61.61,0,0,0-.81.3h0a.62.62,0,0,0,.22.78L383.3,222l-7-2.86a.78.78,0,0,0-1,.39h0a.77.77,0,0,0,.32,1L382.1,224l-7.29-2.2a.67.67,0,0,0-.85.63v0a.67.67,0,0,0,.39.62l6.77,3.09-5.59-1.13a.72.72,0,0,0-.85.83h0a.74.74,0,0,0,.49.56l7.28,2.36,4.45,1.54a5.56,5.56,0,0,0,3.33.09l2.86-.82,4.31-2.06Z"/><path class="cls-1" d="M398.63,200.27l-.28,3-74.85-7.14.29-3a5.35,5.35,0,0,1,5.83-4.82l64.2,6.13A5.34,5.34,0,0,1,398.63,200.27Z"/><path class="cls-10" d="M410.44,176.42c2.92,2,6.65,2.29,9.91,3.31,4.19,1.31,6.35,5.94,7.45,9.87,2.07,7.46,5.19,14.22,6.32,21.88.58,3.92,1,8,1.39,11.91.42,4.38.4,7.29-3.63,9.82-4.46,2.78-9.82,2.08-14.78,1.64-5.38-.49-10.72-1.23-16.05-2.11-3-.5-7.63-.56-8.48-4.27-.35-1.55.18-3.22.37-4.84a1.42,1.42,0,0,1,1.37-1.26c7.09-.25,14.24.25,21.33,0,.34-6.89-2.08-12.93-2.63-19.63-.48-5.77-.92-13,1.83-18.23.93-1.77,2.49-2.52.87-4.27A56.74,56.74,0,0,0,410.44,176.42Z"/><path class="cls-5" d="M419.76,179.76a10.86,10.86,0,0,0-6.38,3.68,10.45,10.45,0,0,0-1.79,3.21,14,14,0,0,0-.72,3.63A19.2,19.2,0,0,0,411,194c0,.32.08.62.12.92l.06.46,0,.22.05.21c.15.61.29,1.22.44,1.83s.3,1.22.47,1.83.34,1.21.52,1.81a16.27,16.27,0,0,0,1.44,3.48l-.09.08a7.55,7.55,0,0,1-1.25-1.51c-.17-.28-.33-.56-.49-.85s-.31-.58-.44-.87a27.06,27.06,0,0,1-1.38-3.63c-.19-.62-.36-1.24-.51-1.88l-.05-.25a2.6,2.6,0,0,1,0-.26l-.06-.49c0-.33-.08-.66-.09-1l0-1v-1c0-.33,0-.65,0-1l0-.49.06-.49a14.47,14.47,0,0,1,1-3.82,10.89,10.89,0,0,1,2.09-3.33,10.06,10.06,0,0,1,1.46-1.31,11.09,11.09,0,0,1,5.38-2.08Z"/><path class="cls-5" d="M409.28,222.37c1.34-.18,2.69-.28,4.05-.36s2.71-.08,4.08,0c.68,0,1.36,0,2,.1a11,11,0,0,1,2,.33,11.56,11.56,0,0,1,2,.73,5.79,5.79,0,0,1,1.72,1.22l-.07.1a27.17,27.17,0,0,0-3.87-.8c-.65-.1-1.3-.21-1.95-.34s-1.3-.24-2-.32-1.33-.15-2-.21-1.33-.11-2-.14c-1.34-.09-2.69-.13-4-.15Z"/><path class="cls-5" d="M420.5,221.61c.3-.06.56-.09.83-.12s.54,0,.81-.05a12.25,12.25,0,0,1,1.6.08,7.85,7.85,0,0,1,1.54.36,6,6,0,0,1,1.39.69,5.87,5.87,0,0,0-1.47-.32,7.23,7.23,0,0,0-1.47,0,11.69,11.69,0,0,0-1.43.29c-.23.07-.46.14-.69.23a4.59,4.59,0,0,0-.63.26Z"/><path class="cls-4" d="M340.66,385.55l26.64-.5,26.65-.47,53.29-.72,13.32-.2,13.33-.25q13.32-.23,26.64,0l13.33.29c4.44.14,8.88.23,13.32.43,8.88.33,17.76.76,26.64,1.45V386c-8.88.68-17.76,1.11-26.64,1.44-4.44.2-8.88.29-13.32.43l-13.33.29q-13.32.21-26.64,0l-13.33-.25-13.32-.2L394,387l-26.65-.46-26.64-.5Z"/><path class="cls-1" d="M355.06,225.45l-1.34-.11.25-3a7.29,7.29,0,0,1-2.19-8.73,6.88,6.88,0,0,1,7.35-4.38l-.24,1.32c-2.76-.5-5,1.51-5.88,3.59a6,6,0,0,0,2.06,7.37.67.67,0,0,1,.26.58Z"/><path class="cls-5" d="M370.91,250.76l-52.14-5.11a.67.67,0,0,1-.6-.73l3.72-38.39,1.33.12-3.65,37.73L371,249.43Z"/><rect class="cls-1" x="342.79" y="177.13" width="1.34" height="24.99" transform="translate(119.97 512.08) rotate(-84.18)"/><path class="cls-1" d="M242.1,286.25l-1-3.63a1.31,1.31,0,0,0-1.66-.91l-3.68,1.13a1.32,1.32,0,0,1-1.32-2.19l2.73-2.73a1.33,1.33,0,0,0,0-1.91l-2.86-2.61a1.31,1.31,0,0,1,1.22-2.24l3.74,1a1.32,1.32,0,0,0,1.62-1l.81-3.66a1.32,1.32,0,0,1,2.56-.06l1,3.62a1.32,1.32,0,0,0,1.66.92l3.68-1.14a1.32,1.32,0,0,1,1.32,2.19l-2.73,2.74a1.32,1.32,0,0,0,0,1.9l2.86,2.61a1.32,1.32,0,0,1-1.22,2.25l-3.74-1a1.31,1.31,0,0,0-1.61,1l-.82,3.67A1.32,1.32,0,0,1,242.1,286.25Z"/><path class="cls-1" d="M282.11,286.25l-1-3.63a1.31,1.31,0,0,0-1.66-.91l-3.68,1.13a1.32,1.32,0,0,1-1.32-2.19l2.73-2.73a1.33,1.33,0,0,0,0-1.91l-2.86-2.61a1.31,1.31,0,0,1,1.22-2.24l3.74,1a1.32,1.32,0,0,0,1.62-1l.81-3.66a1.32,1.32,0,0,1,2.56-.06l1,3.62a1.32,1.32,0,0,0,1.66.92l3.68-1.14a1.32,1.32,0,0,1,1.32,2.19l-2.73,2.74a1.32,1.32,0,0,0,0,1.9l2.86,2.61a1.32,1.32,0,0,1-1.22,2.25l-3.74-1a1.31,1.31,0,0,0-1.61,1l-.82,3.67A1.32,1.32,0,0,1,282.11,286.25Z"/><path class="cls-1" d="M321.3,286.25l-1-3.63a1.32,1.32,0,0,0-1.66-.91L315,282.84a1.31,1.31,0,0,1-1.31-2.19l2.73-2.73a1.32,1.32,0,0,0-.05-1.91l-2.85-2.61a1.31,1.31,0,0,1,1.22-2.24l3.73,1a1.31,1.31,0,0,0,1.62-1l.82-3.66a1.31,1.31,0,0,1,2.55-.06l1,3.62a1.32,1.32,0,0,0,1.66.92l3.69-1.14a1.32,1.32,0,0,1,1.32,2.19l-2.74,2.74a1.31,1.31,0,0,0,.05,1.9l2.85,2.61A1.32,1.32,0,0,1,330,282.5l-3.73-1a1.32,1.32,0,0,0-1.62,1l-.81,3.67A1.32,1.32,0,0,1,321.3,286.25Z"/></svg>