<svg id="Layer_1" data-name="Layer 1" xmlns="http://www.w3.org/2000/svg" viewBox="0 0 99 125"><defs><style>.cls-1{fill:none;}.cls-2{fill:#fff;opacity:0.75;}.cls-3{fill:#06f;}</style></defs><title>Icon Hover</title><rect class="cls-1" x="-13" y="-26.5" width="125" height="178" transform="translate(112 13) rotate(90)"/><rect class="cls-2" width="99" height="125" rx="32.79"/><path class="cls-3" d="M70.86,41.4c-5.69-5.76,5.58,5.66,0,0a30.52,30.52,0,0,0-29.27-7.89A30.19,30.19,0,0,0,20.69,71,30.57,30.57,0,0,0,40,91a30.36,30.36,0,0,0,28.8-5.55A29.85,29.85,0,0,0,74.55,79c.13-.19.26-.39.38-.59a1.19,1.19,0,1,0-2-1.27l-.35.54a26.92,26.92,0,0,1-2.94,3.71L65.2,77a21.37,21.37,0,0,0,5.61-12.93h6.27A27.81,27.81,0,0,1,76.35,69a1.2,1.2,0,1,0,2.33.56A30.26,30.26,0,0,0,70.86,41.4Zm-7,5.28a21.31,21.31,0,0,0-13.29-5.54V34.88A27.35,27.35,0,0,1,68.3,42.25ZM48.19,41.16a21.77,21.77,0,0,0-2.43.28,1.2,1.2,0,0,0,.41,2.36A19.08,19.08,0,0,1,54,44a18.52,18.52,0,0,1,6.1,2.77,19.38,19.38,0,0,1,4.74,4.69A18.92,18.92,0,0,1,37.4,77.1a19.4,19.4,0,0,1-6.12-19.76,19.07,19.07,0,0,1,6.77-10,1.2,1.2,0,0,0-1.44-1.91A20.78,20.78,0,0,0,35,46.78l-4.43-4.42a27.34,27.34,0,0,1,17.62-7.47v6.27Zm0,48.94A27.42,27.42,0,0,1,31,83l4.43-4.43a21.43,21.43,0,0,0,5,3.26,21.12,21.12,0,0,0,4.85,1.62,21.6,21.6,0,0,0,3,.39V90.1Zm-19.29-46,4.43,4.43a21.64,21.64,0,0,0-3,4.59,21.41,21.41,0,0,0-2.16,8.58H21.87A27.53,27.53,0,0,1,28.9,44.07Zm-.72,20a21.52,21.52,0,0,0,1.05,5.27,21.41,21.41,0,0,0,4.45,7.55l-4.43,4.43a27.45,27.45,0,0,1-7.34-17.25Zm22.4,19.79a21.36,21.36,0,0,0,5.49-1,20.83,20.83,0,0,0,5-2.4,21.56,21.56,0,0,0,2.37-1.78l4.43,4.43a27.41,27.41,0,0,1-17.33,7ZM70.85,61.67a21.52,21.52,0,0,0-.92-5.45,21.19,21.19,0,0,0-2.49-5.35,21.63,21.63,0,0,0-1.89-2.48L70,44a27.41,27.41,0,0,1,7.13,17.71Z"/><path class="cls-3" d="M48.39,55.32c0-.55-.66-.71-1.11-.71s-1.11.16-1.11.71v10a2.49,2.49,0,0,1-1.24,2.44,3.12,3.12,0,0,1-3.12-.33,3.58,3.58,0,0,1-.76-2.73c0-3,0-6.09,0-9.14A1.11,1.11,0,0,0,41,55c-.19-.35-.67-.39-1.07-.38s-.86.08-1,.45a.92.92,0,0,0,0,.37c0,3.07,0,6.14,0,9.2a6.13,6.13,0,0,0,.82,3.74c1.18,1.56,3.63,1.85,5.42,1.45a4.23,4.23,0,0,0,2.4-1.39,4.9,4.9,0,0,0,.9-3.11Z"/><path class="cls-3" d="M53.81,62.24s-3.59,6.16-3.61,6.18c-.64,1.1,1.39,2.07,2,1l3-5.55,3.09,5.55c.6,1.1,2.63.09,2-1l-3.61-6.18,3.5-6.14c.71-1.24-1.38-2.14-2-.92l-2.92,5.34-2.89-5.34c-.64-1.2-2.79-.36-2.06.92Z"/><path class="cls-3" d="M40.31,44.38a1.2,1.2,0,1,0,2.2-.94,1.2,1.2,0,1,0-2.2.94Z"/><path class="cls-3" d="M77.15,73.22a1.19,1.19,0,1,0-2.21.9v0a1.2,1.2,0,1,0,2.22-.9Z"/></svg>