<svg id="Layer_1" data-name="Layer 1" xmlns="http://www.w3.org/2000/svg" viewBox="0 0 99 125"><defs><style>.cls-1{fill:#ecf3ff;}.cls-2{fill:#aaa;}</style></defs><title>Icon</title><rect class="cls-1" width="99" height="125" rx="32.79"/><path class="cls-2" d="M49.5,92.5a30,30,0,1,1,21.21-8.79A29.78,29.78,0,0,1,49.5,92.5Zm0-57.65A27.65,27.65,0,1,0,77.15,62.5,27.68,27.68,0,0,0,49.5,34.85Z"/><path class="cls-2" d="M49.5,66.31a3.81,3.81,0,1,1,3.81-3.81A3.82,3.82,0,0,1,49.5,66.31Zm0-5.28A1.47,1.47,0,1,0,51,62.5,1.47,1.47,0,0,0,49.5,61Z"/><path class="cls-2" d="M49.4,60.46a1.18,1.18,0,0,1-1.17-1.18v-10a1.18,1.18,0,1,1,2.35,0v10A1.18,1.18,0,0,1,49.4,60.46Z"/><path class="cls-2" d="M61.41,75.53a1.16,1.16,0,0,1-.83-.34l-9.75-9.65a1.18,1.18,0,0,1,1.66-1.67l9.74,9.65a1.18,1.18,0,0,1,0,1.67A1.16,1.16,0,0,1,61.41,75.53Z"/><circle class="cls-2" cx="49.5" cy="44.54" r="1.23"/><circle class="cls-2" cx="33.49" cy="46.39" r="1.23"/><circle class="cls-2" cx="49.5" cy="80.31" r="1.21"/><circle class="cls-2" cx="31.62" cy="62.5" r="1.23"/><circle class="cls-2" cx="67.34" cy="62.5" r="1.23"/><path class="cls-2" d="M49.5,86.3A23.82,23.82,0,0,1,29.19,50.07a1.18,1.18,0,0,1,2,1.23,21.44,21.44,0,1,0,7.19-7.16,1.17,1.17,0,1,1-1.22-2A23.8,23.8,0,1,1,49.5,86.3Z"/></svg>