<svg id="Layer_1" data-name="Layer 1" xmlns="http://www.w3.org/2000/svg" viewBox="0 0 99 125"><defs><style>.cls-1{fill:#ecf3ff;}.cls-2{fill:#aaa;}</style></defs><title>Icon</title><rect class="cls-1" width="99" height="125" rx="32.79"/><path class="cls-2" d="M77.92,39.64l-5.56-5.56a5.38,5.38,0,0,0-7.62,0L24.84,74h0a1.22,1.22,0,0,0-.3.5L19.55,91A1.2,1.2,0,0,0,20.7,92.5a1.33,1.33,0,0,0,.34,0l16.48-5a1.22,1.22,0,0,0,.5-.3h0l39.9-39.9a5.38,5.38,0,0,0,0-7.62ZM22.49,89.51l1.24-4.11,2.87,2.87Zm6.7-2-4.67-4.67,1.73-5.73,8.67,8.67Zm8-2.85-9.81-9.81L57.24,45,67,54.77ZM68.73,53.07l-9.8-9.8L61.25,41l9.8,9.8Zm7.5-7.5-3.49,3.49-9.8-9.8,3.49-3.49a3,3,0,0,1,4.24,0l5.56,5.56a3,3,0,0,1,0,4.24Z"/><path class="cls-2" d="M55.48,62.61a1.19,1.19,0,0,0-1.69,0l-.47.48a1.2,1.2,0,0,0,.84,2,1.22,1.22,0,0,0,.85-.35l.47-.48A1.19,1.19,0,0,0,55.48,62.61Z"/><path class="cls-2" d="M51.54,66.56a1.19,1.19,0,0,0-1.69,0L36.34,80.06a1.21,1.21,0,0,0,0,1.69,1.18,1.18,0,0,0,.85.35,1.14,1.14,0,0,0,.84-.35l13.51-13.5A1.19,1.19,0,0,0,51.54,66.56Z"/></svg>