<svg id="Layer_1" data-name="Layer 1" xmlns="http://www.w3.org/2000/svg" viewBox="0 0 99 125"><defs><style>.cls-1{fill:#ecf3ff;}.cls-2{fill:#aaa;fill-rule:evenodd;}</style></defs><title>Icon</title><rect class="cls-1" width="99" height="125" rx="32.79"/><path class="cls-2" d="M78.33,56.44H74.22a25.32,25.32,0,0,0-3-7.13l2.91-2.91a1.19,1.19,0,0,0,0-1.66l-6.91-6.91a1.19,1.19,0,0,0-1.66,0l-2.91,2.91a25.32,25.32,0,0,0-7.13-3V33.67a1.17,1.17,0,0,0-1.18-1.17H44.62a1.17,1.17,0,0,0-1.18,1.17v4.11a25.32,25.32,0,0,0-7.13,3L33.4,37.83a1.19,1.19,0,0,0-1.66,0l-6.91,6.91a1.19,1.19,0,0,0,0,1.66l2.91,2.9a25.5,25.5,0,0,0-3,7.14H20.67a1.17,1.17,0,0,0-1.17,1.18v9.76a1.17,1.17,0,0,0,1.17,1.18h4.11a25.32,25.32,0,0,0,3,7.13L24.83,78.6a1.18,1.18,0,0,0,0,1.66l6.91,6.91a1.19,1.19,0,0,0,1.66,0l2.91-2.91a25.32,25.32,0,0,0,7.13,3v4.11a1.17,1.17,0,0,0,1.18,1.17h9.76a1.17,1.17,0,0,0,1.18-1.17V87.22a25.32,25.32,0,0,0,7.13-3l2.91,2.91a1.19,1.19,0,0,0,1.66,0l6.91-6.91a1.19,1.19,0,0,0,0-1.66l-2.91-2.9a25.5,25.5,0,0,0,3-7.14h4.11a1.17,1.17,0,0,0,1.17-1.18V57.62A1.17,1.17,0,0,0,78.33,56.44Zm-1.17,9.77H73.28a1.17,1.17,0,0,0-1.15.94,22.76,22.76,0,0,1-3.34,8.06,1.18,1.18,0,0,0,.15,1.48l2.74,2.74-5.25,5.25-2.74-2.74a1.18,1.18,0,0,0-1.48-.15,22.83,22.83,0,0,1-8.06,3.34,1.17,1.17,0,0,0-.94,1.15v3.88H45.79V86.28a1.17,1.17,0,0,0-.94-1.15,22.83,22.83,0,0,1-8.06-3.34,1.18,1.18,0,0,0-1.48.15l-2.74,2.74-5.25-5.25,2.74-2.74a1.18,1.18,0,0,0,.15-1.48,22.83,22.83,0,0,1-3.34-8.06,1.17,1.17,0,0,0-1.15-.94H21.84V58.79h3.88a1.17,1.17,0,0,0,1.15-.94,22.76,22.76,0,0,1,3.34-8.06,1.18,1.18,0,0,0-.15-1.48l-2.74-2.74,5.25-5.25,2.74,2.74a1.17,1.17,0,0,0,1.48.15,22.83,22.83,0,0,1,8.06-3.34,1.17,1.17,0,0,0,.94-1.15V34.84h7.42v3.88a1.17,1.17,0,0,0,.94,1.15,22.83,22.83,0,0,1,8.06,3.34,1.18,1.18,0,0,0,1.48-.15l2.74-2.74,5.25,5.25-2.74,2.74a1.17,1.17,0,0,0-.15,1.48,22.83,22.83,0,0,1,3.34,8.06,1.17,1.17,0,0,0,1.15.94h3.88Z"/><path class="cls-2" d="M38.47,62.5a11,11,0,0,1,11-11,10.92,10.92,0,0,1,4.15.81,1.18,1.18,0,0,0,.88-2.18A13.37,13.37,0,0,0,37,67.34a1.17,1.17,0,0,0,1.09.74,1.23,1.23,0,0,0,.42-.07,1.17,1.17,0,0,0,.67-1.52A11,11,0,0,1,38.47,62.5Z"/><path class="cls-2" d="M60.21,56.54a1.17,1.17,0,0,0-.6,1.54A11,11,0,0,1,44.92,72.54a1.17,1.17,0,0,0-1,2.13,13.24,13.24,0,0,0,5.55,1.21A13.4,13.4,0,0,0,61.76,57.14,1.18,1.18,0,0,0,60.21,56.54Z"/><path class="cls-2" d="M40.62,69.7a1.18,1.18,0,1,0,1.18,1.18A1.18,1.18,0,0,0,40.62,69.7Z"/><path class="cls-2" d="M58,54.93a1.18,1.18,0,1,0-1.17-1.17A1.17,1.17,0,0,0,58,54.93Z"/></svg>