<svg id="Layer_1" data-name="Layer 1" xmlns="http://www.w3.org/2000/svg" viewBox="0 0 99 125"><defs><style>.cls-1{fill:#ecf3ff;}.cls-2{fill:#aaa;fill-rule:evenodd;}</style></defs><title>Icon</title><rect class="cls-1" width="99" height="125" rx="32.79"/><path class="cls-2" d="M27,92.5H63a1.17,1.17,0,0,0,1.17-1.17V83.42H72a1.17,1.17,0,0,0,1.17-1.18V67.78a1.17,1.17,0,0,0-2.34,0V81.07H64.12V76.86a1.17,1.17,0,0,0-2.34,0v13.3H28.14V43.93H51.51V53a1.17,1.17,0,0,0,1.17,1.18h9.1V67.49a1.17,1.17,0,0,0,2.34,0V53c0-.05,0-.1,0-.15h0s0-.1,0-.15l0,0a.69.69,0,0,0-.05-.13h0a.83.83,0,0,0-.08-.12l0,0-.1-.11h0L53.51,41.93l-.06,0,0,0-.07-.05,0,0-.07,0,0,0-.07,0,0,0-.07,0,0,0H37.22V34.84H60.59v9.1a1.17,1.17,0,0,0,1.17,1.17h9.1v13.3a1.17,1.17,0,0,0,2.34,0V43.86a.77.77,0,0,0,0-.15h0a.57.57,0,0,0,0-.14v0l-.06-.13h0L73,43.26l0,0-.1-.12L62.59,32.84l-.09-.07a.1.1,0,0,0,0,0l0,0-.06,0,0,0-.06,0,0,0-.06,0,0,0h-.05l-.06,0H36.05a1.17,1.17,0,0,0-1.17,1.17v7.91H27a1.17,1.17,0,0,0-1.17,1.18V91.33A1.17,1.17,0,0,0,27,92.5Zm36-56,6.27,6.27H62.93ZM53.85,51.85V45.58l4.73,4.74,1.54,1.53Z"/><path class="cls-2" d="M72,61.92a1.17,1.17,0,0,0,0,2.34,1.17,1.17,0,0,0,0-2.34Z"/><path class="cls-2" d="M63,71a1.18,1.18,0,1,0,1.17,1.18A1.17,1.17,0,0,0,63,71Z"/></svg>