<svg xmlns="http://www.w3.org/2000/svg" viewBox="0 0 516.73 330"><defs><style>.cls-1{isolation:isolate;}.cls-15,.cls-2{fill:#f2f2f2;}.cls-3{fill:#e6e6e6;}.cls-4,.cls-47{fill:#ccc;}.cls-35,.cls-5{fill:#b3b3b3;}.cls-6{fill:#64abbc;}.cls-7{fill:#7eaf38;}.cls-8{fill:#f0c991;}.cls-9{fill:#f6921e;}.cls-10{fill:#dfaa70;}.cls-11{fill:#1a1a1a;}.cls-12{fill:#fff;}.cls-13{fill:#666;}.cls-13,.cls-14,.cls-48{mix-blend-mode:screen;}.cls-14,.cls-24{fill:#333;}.cls-15,.cls-34,.cls-35,.cls-47{mix-blend-mode:multiply;}.cls-16{fill:#f7f7f7;}.cls-17{fill:#e68a00;}.cls-18{fill:#c6532c;}.cls-19{fill:#437862;}.cls-20{fill:#999;}.cls-21{fill:gray;}.cls-22{fill:#1366a6;}.cls-23{fill:#e6c08b;}.cls-25{fill:#1b75bb;}.cls-26{fill:#ffd59a;}.cls-27{fill:#243a55;}.cls-28{fill:#cc9200;}.cls-29{fill:#3b2314;}.cls-30{fill:#e6bb7f;}.cls-31{fill:#d54d36;}.cls-32{fill:#f05a28;}.cls-33{fill:#231f20;}.cls-36{fill:#dfeaf2;}.cls-37{fill:#e36694;}.cls-38{fill:#3a5366;}.cls-39{fill:#d9d9d9;}.cls-40{fill:#bfbfbf;}.cls-41{fill:#f2e5ce;}.cls-42{fill:#603813;}.cls-43{fill:#294261;}.cls-44{fill:#1e3147;}.cls-45{fill:#e6891c;}.cls-46{fill:#d9811a;}.cls-48{fill:#4d4d4d;}</style></defs><title>Icon</title><g class="cls-1"><g id="Layer_1" data-name="Layer 1"><rect class="cls-2" x="116.52" y="79.92" width="152.53" height="215.83" transform="translate(-59.48 93.96) rotate(-23.84)"/><polygon class="cls-3" points="231.65 277.15 169.41 136.34 170.44 135.88 232.68 276.7 231.65 277.15 231.65 277.15"/><polygon class="cls-3" points="101.69 160.94 101.23 159.91 233.77 101.34 234.23 102.36 101.69 160.94 101.69 160.94"/><path class="cls-4" d="M175.44,117.56a0,0,0,0,0,0,0h0s0,0,0,0h0a.37.37,0,0,0,0,.11l.75,2.55,2.28-1.38.08-.08h0l0,0h0s0,0,0,0l1.76-4.54L177.19,113Zm.18,0a.7.7,0,0,1,.72.47,1,1,0,0,1,1.26.49.71.71,0,0,1,.85.13l0,.07s0,.06,0,.07l-1.11.67L176,119l-.37-1.25v-.08Zm4.8-4.46-2.52-1a.34.34,0,0,0-.43.19l-.21.55,3.14,1.22.21-.55A.34.34,0,0,0,180.42,113.09Z"/><path class="cls-4" d="M153,126.69a.24.24,0,0,1,.13-.33l.69-.31a.26.26,0,0,1,.34.13l.06.13,2-3.34a.32.32,0,0,0-.14,0l-6.66,3a.31.31,0,0,0-.11.08l3.79.8Zm3.33-3.68-2,3.48.3.67a.26.26,0,0,1-.13.34l-.69.3a.26.26,0,0,1-.34-.13l-.29-.67-3.94-.83a.23.23,0,0,0,0,.18l2,4.64a.32.32,0,0,0,.42.16l6.66-2.94a.32.32,0,0,0,.16-.42l-2-4.64A.44.44,0,0,0,156.29,123Zm-3.14,3.49a.1.1,0,0,0-.05.13l.44,1a.09.09,0,0,0,.12,0l.7-.31a.09.09,0,0,0,0-.12l-.44-1a.1.1,0,0,0-.12,0Zm-1.9-1.93a.24.24,0,0,1,0-.12.08.08,0,0,1,0-.09s.05-.06.14-.1l2-.89a.3.3,0,0,1,.13,0s.06,0,.09,0a.37.37,0,0,1,.1.14l.12.29.44-.2-.13-.29a1,1,0,0,0-.15-.24.58.58,0,0,0-.37-.19.78.78,0,0,0-.42.07l-2,.9a1,1,0,0,0-.24.15.58.58,0,0,0-.19.37.78.78,0,0,0,.07.42l.13.29.43-.2Z"/><path class="cls-4" d="M141.68,128.14l-.93,2.4,1.66-.74Zm.14-.18.12.28,2.6-1.15,2.54,5.74-4.26,1.89L141,130.64l-.27.13,1.92,4.35,4.82-2.13-2.79-6.3Zm1.1,6.49,3.89-1.72-2.38-5.37-2.4,1.06.61,1.39a.11.11,0,0,1,0,.08.1.1,0,0,1,0,.06l-1.39.61Zm-.27-5.36,1.48-.66a.15.15,0,0,1,.2.08.15.15,0,0,1-.07.2l-1.48.66a.17.17,0,0,1-.21-.08A.16.16,0,0,1,142.65,129.09ZM142,130.6l2.59-1.15a.17.17,0,0,1,.21.08.16.16,0,0,1-.08.2l-2.6,1.15a.16.16,0,0,1-.2-.08A.15.15,0,0,1,142,130.6Zm.45,1,2.59-1.15a.15.15,0,0,1,.2.08.15.15,0,0,1-.07.2l-2.6,1.15a.17.17,0,0,1-.2-.08A.15.15,0,0,1,142.44,131.62Zm.45,1,2.59-1.15a.17.17,0,0,1,.21.08.17.17,0,0,1-.08.2l-2.6,1.14a.15.15,0,0,1-.2-.07A.16.16,0,0,1,142.89,132.64Z"/><path class="cls-4" d="M170.39,117.69l-5.79.2-4,4.14,5.79-.2ZM166.44,122h-.09l-3.62.13.64,1.44s.69,1.58,3.84.19,2.46-3,2.46-3l-.64-1.44L166.5,122ZM163,125a.86.86,0,0,1-.27,0l.31,1.1.78-.34-.6-1A.72.72,0,0,1,163,125Zm-.53-1.18a.55.55,0,0,1,.22-.06L162,122.2h-.47l.74,1.68A.57.57,0,0,1,162.49,123.77Zm.09.19a.43.43,0,1,0,.35.79.43.43,0,1,0-.35-.79Z"/><polygon class="cls-4" points="128.26 107.87 127.22 105.52 158.51 91.69 159.55 94.04 128.26 107.87 128.26 107.87"/><polygon class="cls-5" points="132.24 116.87 130.63 113.24 219.37 74.02 220.97 77.66 132.24 116.87 132.24 116.87"/><polygon class="cls-5" points="135.61 124.5 134 120.87 199.82 91.78 201.43 95.42 135.61 124.5 135.61 124.5"/><rect class="cls-6" x="118.54" y="148.54" width="49.9" height="1.39" transform="translate(-48.08 70.74) rotate(-23.84)"/><rect class="cls-6" x="120.36" y="152.65" width="49.9" height="1.39" transform="translate(-49.59 71.83) rotate(-23.84)"/><rect class="cls-6" x="122.69" y="159.19" width="37.91" height="1.39" transform="translate(-52.54 70.9) rotate(-23.84)"/><rect class="cls-6" x="126.46" y="166.46" width="49.9" height="1.39" transform="translate(-54.65 75.47) rotate(-23.84)"/><rect class="cls-6" x="128.28" y="170.57" width="49.9" height="1.39" transform="translate(-56.16 76.56) rotate(-23.84)"/><rect class="cls-6" x="131.2" y="179.88" width="24.2" height="1.39" transform="translate(-60.76 73.33) rotate(-23.84)"/><rect class="cls-6" x="134.77" y="185.24" width="49.9" height="1.39" transform="translate(-61.53 80.43) rotate(-23.84)"/><rect class="cls-6" x="136.58" y="189.36" width="49.9" height="1.39" transform="translate(-63.04 81.52) rotate(-23.84)"/><rect class="cls-6" x="139.17" y="197.11" width="31.91" height="1.39" transform="translate(-66.72 79.58) rotate(-23.84)"/><rect class="cls-6" x="142.69" y="203.17" width="49.9" height="1.39" transform="translate(-68.1 85.16) rotate(-23.84)"/><rect class="cls-6" x="144.51" y="207.28" width="49.9" height="1.39" transform="translate(-69.61 86.25) rotate(-23.84)"/><rect class="cls-6" x="146.32" y="211.4" width="49.9" height="1.39" transform="translate(-71.12 87.34) rotate(-23.84)"/><rect class="cls-6" x="149.74" y="223.07" width="12.48" height="1.39" transform="translate(-77.14 82.14) rotate(-23.84)"/><rect class="cls-6" x="152.29" y="224.89" width="49.9" height="1.39" transform="translate(-76.06 90.9) rotate(-23.84)"/><rect class="cls-6" x="154.11" y="229" width="49.9" height="1.39" transform="translate(-77.57 91.98) rotate(-23.84)"/><rect class="cls-6" x="156.18" y="234.32" width="43.96" height="1.39" transform="translate(-79.8 92.07) rotate(-23.84)"/><rect class="cls-6" x="160.21" y="242.82" width="49.9" height="1.39" transform="translate(-82.63 95.63) rotate(-23.84)"/><rect class="cls-6" x="162.03" y="246.93" width="49.9" height="1.39" transform="translate(-84.14 96.71) rotate(-23.84)"/><rect class="cls-6" x="165.05" y="256.76" width="21.63" height="1.39" transform="translate(-89.06 93.05) rotate(-23.84)"/><rect class="cls-5" x="177.22" y="121.14" width="55.79" height="1.56" transform="translate(-31.78 93.32) rotate(-23.84)"/><rect class="cls-5" x="179.25" y="125.73" width="55.79" height="1.56" transform="translate(-33.46 94.53) rotate(-23.84)"/><rect class="cls-5" x="181.86" y="133.04" width="42.38" height="1.56" transform="translate(-36.77 93.5) rotate(-23.84)"/><rect class="cls-5" x="196.09" y="163.82" width="55.79" height="1.56" transform="translate(-47.42 104.59) rotate(-23.84)"/><rect class="cls-5" x="198.12" y="168.42" width="55.79" height="1.56" transform="translate(-49.11 105.8) rotate(-23.84)"/><rect class="cls-5" x="201.01" y="177.08" width="35.68" height="1.56" transform="translate(-53.22 103.64) rotate(-23.84)"/><rect class="cls-5" x="204.5" y="182.86" width="55.79" height="1.56" transform="translate(-54.4 109.62) rotate(-23.84)"/><rect class="cls-5" x="206.53" y="187.46" width="55.79" height="1.56" transform="translate(-56.09 110.83) rotate(-23.84)"/><rect class="cls-5" x="208.57" y="192.06" width="55.79" height="1.56" transform="translate(-57.77 112.04) rotate(-23.84)"/><rect class="cls-5" x="212.39" y="205.12" width="13.95" height="1.56" transform="translate(-64.51 106.25) rotate(-23.84)"/><rect class="cls-5" x="214.95" y="206.5" width="55.79" height="1.56" transform="translate(-63.07 115.86) rotate(-23.84)"/><rect class="cls-5" x="216.98" y="211.1" width="55.79" height="1.56" transform="translate(-64.75 117.07) rotate(-23.84)"/><rect class="cls-5" x="219.3" y="217.05" width="49.15" height="1.56" transform="translate(-67.24 117.17) rotate(-23.84)"/><rect class="cls-5" x="185.64" y="140.18" width="55.79" height="1.56" transform="translate(-38.75 98.35) rotate(-23.84)"/><rect class="cls-5" x="187.67" y="144.78" width="55.79" height="1.56" transform="translate(-40.44 99.56) rotate(-23.84)"/><rect class="cls-5" x="189.7" y="149.38" width="55.79" height="1.56" transform="translate(-42.13 100.77) rotate(-23.84)"/><rect class="cls-5" x="192.7" y="158.55" width="33.16" height="1.56" transform="translate(-46.55 98.2) rotate(-23.84)"/><path class="cls-7" d="M167,276.37l-2.41-.93a.61.61,0,0,0-.8.35l-2,5.1a.62.62,0,0,0,.36.8l2.41.93a.61.61,0,0,0,.8-.35l2-5.1A.61.61,0,0,0,167,276.37Zm-1.74,5.16-2.86-1.1,1.74-4.49L167,277Z"/><rect class="cls-7" x="169.55" y="264.71" width="37.88" height="1.17" transform="translate(-91.15 98.83) rotate(-23.84)"/><rect class="cls-7" x="171.39" y="269.66" width="30.42" height="1.17" transform="translate(-93.32 98.49) rotate(-23.84)"/><path class="cls-7" d="M169.63,288.93l-1.19.53a.29.29,0,0,0-.11.11l-1.5,3.16,6.3-2.78-3.34-1A.29.29,0,0,0,169.63,288.93Zm1.74-3-1.54,2.8a0,0,0,0,0,0,0s0,0,0,0l3.22,1-1.7-3.83Zm-3.2,3.56s0,0,0,0l-3.12-.74,1.7,3.83,1.44-3Zm.25-.17,1.11-.49a.32.32,0,0,0,.12-.11l1.57-2.85-6.13,2.71,3.16.76A.32.32,0,0,0,168.42,289.3Z"/><rect class="cls-7" x="174.56" y="276.06" width="37.88" height="1.17" transform="translate(-95.31 101.83) rotate(-23.84)"/><rect class="cls-7" x="177.06" y="284.11" width="15.05" height="1.17" transform="translate(-99.34 98.92) rotate(-23.85)"/><path class="cls-7" d="M170.9,300h0v0h0Zm0,0h0s0,0,0,0h0a0,0,0,0,0,0,0v0Zm.05.07v0h0Zm-.13-.18h0v0h0s0,0,0,0Zm.07.05h0s0,0,0,0,0,0,0,0,0,0,0,0Zm-.05,0h0v0Zm0,0h0v0Zm0,.2h0Zm.13.24h0a0,0,0,0,0,0,0h0Zm.06-.15h0s0,0,0,0h0Zm-.84-.74s0-.07,0-.09v0h0s0,0,0,0v.19s0,.07,0,.13h0a.76.76,0,0,0,0-.26.67.67,0,0,1,0-.24.52.52,0,0,1,.06-.16.49.49,0,0,1,0-.11h0c.09-.24.11-.3.12-.34h0a1.07,1.07,0,0,0,.16-.27.83.83,0,0,1,.22-.34h0l.08-.08,0,0c-.06.08-.07.08-.08.13h0l.19-.22h0a.15.15,0,0,1,0-.09.25.25,0,0,0,0-.07h0v0h0l-.1.1a.82.82,0,0,1,.09-.11l.29-.21-.06.07a1.18,1.18,0,0,0-.13.18h0l.06,0,.06,0h.05l0-.06h0s0,0,0-.08h0l0,0h0s0,0,.05-.09l0,0,0-.05h0v0h0s0,0,.09-.15h0l-.06.05a.18.18,0,0,1-.07.05l0-.05,0-.06h0a3,3,0,0,0-.62.65,1.44,1.44,0,0,1,.14-.19h0s0,0,0,0h0l.08-.08.11-.11h0l-.11.1,0,.06a3.37,3.37,0,0,0-.36.45,4.18,4.18,0,0,0-.28.49,4,4,0,0,0-.19.52h0v0l-.07.32,0,.19a1,1,0,0,1,0,.13.75.75,0,0,1,0,.11h0v-.1h0A.13.13,0,0,0,170.2,299.34Zm.76.74h0s0,0,0,0h0v0Zm0,.06h0s0,0,0,0h0Zm.38-3.1.11-.09h0l.06-.05h0l0,0,.05,0,.17-.12h0l-.17.11,0,0h0l-.19.15h0Zm1.08-.61h0l.08,0h0l-.08,0h0Zm-.43.18s-.06.07-.06.09h0l0,0h0l0,0,0,0,0,0,0,0h0l0,0,0,0h0a0,0,0,0,0,0,0l0,0h0s0,0,.1-.06h0l.09-.05h0l-.09,0h0l-.06,0h0l-.08,0h0l-.05,0A.28.28,0,0,0,172,296.61Zm-.39.23h0l0,0h0s0,0,0,0h0s0,0,.06,0h0l.11-.09s0,0,0,0,0,0,0,0h0l.08-.06,0,0h0l.07-.05h0l-.12.07h0A2,2,0,0,0,171.62,296.84Zm-1.29,2.69h0v0a.06.06,0,0,0,0,.05h0v0A.2.2,0,0,0,170.33,299.53Zm0,0h0s0,0,0,0h0s0,0,0,0Zm0,0h0Zm4.55,3.36h0a2.42,2.42,0,0,1-.89,0h0v0l-.11,0,0,0c0-.06-.17-.09-.25-.1h.07v0h0l-.1-.09-.08-.07h0c0-.06-.08-.09-.12-.13a.23.23,0,0,1-.13-.14,0,0,0,0,1,0,0,.2.2,0,0,1,.11-.15v0c0-.07-.05-.2-.35-.63a.11.11,0,0,0,0-.06.07.07,0,0,0,0-.05v-.08h0v-.05a.45.45,0,0,0,0-.16.33.33,0,0,0-.15-.18.09.09,0,0,0-.07,0h-.05l-.06,0,0,0c-.09,0-.11,0-.16,0h-.08a.09.09,0,0,0-.11,0s0,0-.24,0l0,0c-.06,0-.06,0-.09,0a.52.52,0,0,1-.18-.15.56.56,0,0,0-.21-.16s0,0-.22.08l0,0h0l-.05,0a.11.11,0,0,0-.11,0c0-.06,0-.06-.05-.07s0-.07,0-.09h0s0,0,0,0a.11.11,0,0,0,0,.05h0s0,0,0,0v0h0s0,.05-.06.07l0,0a.08.08,0,0,1-.07,0h0l0,0h0l0,0h0s0,.05,0,.08v0l0,0a.08.08,0,0,0,0,0,.11.11,0,0,0,0-.05h0a1.23,1.23,0,0,0-.05.21v0s0,.08,0,.13a.14.14,0,0,1,0,.07s0,0-.06,0h0v.08h0s0,0-.18-.48l0,0h0s0,0,0,.06,0,0,0-.18h0l0-.29h0s0,0,0,.06,0,.14,0,.27h0v.07l.05.19v0h0s0,0,0,0l0,0h0a.75.75,0,0,0,.1.14h0v0a.64.64,0,0,1,.08.14l.05.09h0s0,0,.06,0h0l0,0a.14.14,0,0,1,0-.07s.05,0,.17.23l.12.26a1.6,1.6,0,0,0,.1.23s.07.11.11.11c.15.22.15.22.48.39l.34.19a.39.39,0,0,0,.15,0l.14,0a2.14,2.14,0,0,1,.43.21,2.26,2.26,0,0,0,.35.17l.5.15a3.61,3.61,0,0,0,1.31,0h0l.11,0ZM170.48,300h0s0,0,0,.06h0a.07.07,0,0,0,.09-.06l0,0v0h0s0,0,0,0,0,0,0,0,0-.05,0-.05h-.05l0,0s0,0,0,0l0,0h0v0h0s0,0,0,0,0,0,0,0h0Zm.19-.13h0s0,0,0,.07h0a.08.08,0,0,0,0-.05l0,0Zm-.31.09a.11.11,0,0,0,0,0h0v0l0,0,0,0v0a0,0,0,0,0,0,0h-.07l0,0,0,0h0l0,0s0,0,0,0h0a.31.31,0,0,0,0,.17h0s0,0,0,0,0,0,0-.05a0,0,0,0,0,0,0h0a0,0,0,0,0,0,0h0l0,0h0Zm.4-.16h0s0,0,0,0h0v0Zm4.05-3h0Zm0,0Zm0,.09h0a.13.13,0,0,0,.12,0h-.11Zm.36,0h0l0,0h0l0,0a0,0,0,0,0,0,0h0Zm1.73,3.4h0l0,.1,0,.09c0,.08-.07.1-.08.1l-.05.09,0,.11v.06l-.08.17a1.15,1.15,0,0,0-.1.24.56.56,0,0,0,0,.07h0c.1,0,.35-.66.35-.66v-.06l0,0a1.81,1.81,0,0,0,.05-.29h0Zm-2.1-3.48Zm1.86,3.79,0-.09a2.13,2.13,0,0,0,.07-.37h0a.07.07,0,0,1,0-.05v-.09a.34.34,0,0,0,0-.1.3.3,0,0,0,0-.1v-.07h0a3.24,3.24,0,0,0,.15-.89,1,1,0,0,0-.13-.49h0s0,0,0,0h0s0,0,0,0l0,0v0a3.94,3.94,0,0,1-.36-.46,3,3,0,0,0-.74-.74l0,0h0l.56.49a.74.74,0,0,1,.19.27.89.89,0,0,0,.22.29h0s0,0,0,0h0l0,0h0v0l0,0h0v0l0,0h0s0-.1-.14-.28l-.07-.09,0,0h0l-.14-.16h0L176,297l-.15-.12h0l-.27-.19a2.8,2.8,0,0,0-.49-.25,3.29,3.29,0,0,0-.53-.18,3.49,3.49,0,0,0-.57-.09,3.84,3.84,0,0,0-.58,0h0l-.25,0-.17,0H173a0,0,0,0,0,0,0h0a.26.26,0,0,0,.19,0l0,0h0v0h0l.11.05,0,0,0,0h0s0,0,0,0l0,0h0s0,0-.05,0h-.11l-.08,0h-.17s0,0,0,0h0l0,0h.06l0,0,.05,0h0a.05.05,0,0,0,0,0v0h0a0,0,0,0,0,0,0h.07s0,0,0,0h0l0,0h0s0,0,.05,0h0s0,0,0,0h0l0,0h0l.06,0,.07,0-.08.05h0l0,0,0,0h0s0,0,.09,0a.16.16,0,0,1,.18.12l-.11,0-.15,0h0s0,0,0,0l0,0h0a.27.27,0,0,1,.08.17v0h0s0,0,.07.08h0c.23,0,.3,0,.4-.15h0v0a0,0,0,0,0,0,0h0s0,0,0,0a.14.14,0,0,1,0-.06s0,0,0-.07a.06.06,0,0,0,0,0s0,0,.08,0h.06v0l0,0s.44,0,.53.14l-.07,0h0v0h0a.56.56,0,0,0,.16,0h0v0l0,0h0s0,0-.06-.11h.07a.44.44,0,0,0-.25-.06.67.67,0,0,1-.23-.08h0l.19,0a.57.57,0,0,1,.18,0l.18.09a.93.93,0,0,0,.2.1h.07s0,0-.07,0h0l-.14-.09v0h.08s0,0,.12.07v0h0c.18.08.18.08.26.06h.12v0h0c.06,0,.13.07.17.11h0l.05.06.06.06v0h-.13a0,0,0,0,0,0,0h0c-.36-.07-.43-.05-.45,0v0l0,0,0,0v0l-.55-.07h0s0,0,0,0a0,0,0,0,1,0,0s0,0-.05,0h0s0,0,0,0h-.08l-.07,0c-.06,0-.08,0-.09,0a.46.46,0,0,0-.22.08s0,0,0,.05l0,0s0,0,0,0l0,0-.08,0h-.08s0,0,0,.13h0a.24.24,0,0,0-.08.17.08.08,0,0,0,0,.06.14.14,0,0,1,0,.06c0,.07-.08.14-.14.18h0v.05c0,.07-.06.1-.06.13a.2.2,0,0,0,0,.08.28.28,0,0,0-.06.2.5.5,0,0,0,0,.12h0a.4.4,0,0,1,.08.16.8.8,0,0,1,0,.29h0a.2.2,0,0,1,.09.11.28.28,0,0,0,.08.11h0l0,0,.31.25h0a.14.14,0,0,1,.15.06h0a.28.28,0,0,1,.12,0,.18.18,0,0,0,.23,0,.23.23,0,0,1,.25-.09h0c.3-.25.3-.25.35-.24s.05,0,.07.06a.1.1,0,0,0,.07.07s0,0,.08,0,0,0,.07,0l.08.05,0,.31s0,0,0,.06a.36.36,0,0,0,0,.07l.1.1.09.09.11.31v0a.29.29,0,0,0,0,.1h0a.2.2,0,0,1,0,.07h0a.12.12,0,0,1,0,.09,1.43,1.43,0,0,0-.07.36h0a1.9,1.9,0,0,1,.05.23.64.64,0,0,1,0,.15v.09a2,2,0,0,0,0,.26.2.2,0,0,0,0,.05v0a.6.6,0,0,1-.08.3h0s0,0,.07,0h0l0,0s.13,0,.32-.28l0-.07.09-.13,0-.06a.24.24,0,0,1,.06-.11.15.15,0,0,0,.08-.08.55.55,0,0,0,0-.17,1,1,0,0,1,0-.14.58.58,0,0,1,.11-.15A.83.83,0,0,0,176.71,300.54Zm-.46-3.21h0l0,0,0,.06,0,0s0,0-.09-.1h0l0,0v0h0l-.17-.16A2.43,2.43,0,0,1,176.25,297.33Zm-2.95-.84h0Zm.1-.19Zm.18,0a.14.14,0,0,0-.11,0l0,0h0v0h0s0,0-.09,0,0,0-.16,0h.25l.06,0h0s0,0,.1,0h0Zm1,.07Zm0,0Zm.15.2h0Zm.29-.05s0,0-.07,0h-.12l-.05,0v0h-.05l0,0h-.08l0,0a.1.1,0,0,0-.05,0h0l0,0h.06l.11,0h.11l.1,0,.16.06Zm-1.12.12,0,0h0l.07,0v0h0l0,0a.15.15,0,0,0,.06.05h0v0l0,0h0a.13.13,0,0,0-.07,0h0l0-.06Zm.85.07h0s0,0,0,0h0s0,0,0,0h0Z"/><rect class="cls-7" x="178.65" y="285.32" width="37.88" height="1.17" transform="translate(-98.71 104.28) rotate(-23.84)"/><rect class="cls-7" x="180.83" y="291.88" width="22.44" height="1.17" transform="translate(-101.83 102.6) rotate(-23.84)"/><path class="cls-8" d="M119.19,139.56c-1-1.86-2.21-3.48-2.18-4.26l-6.8,3c.59.5,1,2.49,1.68,4.47a.4.4,0,0,1-.15.43c-.53.35-.44.55-.44.55s1.71,1.79,5.44.14,3.57-4.12,3.57-4.12-.1-.2-.71,0A.39.39,0,0,1,119.19,139.56Z"/><path class="cls-9" d="M132.32,140.67c-.93-1.86-2.41-3.28-3.38-3.37-2.78-.27-7.86,1.94-9.1,2.23a.39.39,0,0,0-.27.3,5.6,5.6,0,0,1-7.75,3.43.4.4,0,0,0-.41,0c-1,.72-6.09,3-7.76,5.22-.59.78-.54,2.83.22,4.77Z"/><path class="cls-8" d="M116.72,124.54c.94,2.13,3.45,7,2.67,10.69s-2.65,5-4,5.59-3.55,1.15-6.84-.79-5.15-7.05-6.09-9.18l-2.2-5,14.27-6.3Z"/><path d="M106.08,119.77c4.08-1.8,7.47-3.31,9.51,1.31a24.16,24.16,0,0,1,1.23,3.69c-.79-1.77-2.74-3.45-4.78-2.55-2.38,1-1.39,1.46-3.77,2.51s-2,0-4.39,1.1c-2,.9-2.11,3.48-1.33,5.25a23.89,23.89,0,0,1-1.91-3.4C98.6,123.07,102,121.57,106.08,119.77Z"/><path d="M113.15,135.77a15.92,15.92,0,0,0-2.54,1.45c-2.7.79-5.16-.9-5.82-1.4a11.53,11.53,0,0,0,3.85,4.44c3.29,1.94,5.49,1.39,6.84.79s3.22-1.85,4-5.58a11.83,11.83,0,0,0-.67-5.83c-.09.87-.51,3.78-2.89,5.23A15.85,15.85,0,0,0,113.15,135.77Z"/><path class="cls-10" d="M111.54,134.89c-.08.72.38.86.72.71s.47.14.81,0,.21-.44.55-.59.56-.59,0-1c0,0,.26.57-.76,1S111.54,134.89,111.54,134.89Z"/><path class="cls-10" d="M111,138.27a10,10,0,0,0,2.87-.85,9.73,9.73,0,0,0,2.56-1.56,5.41,5.41,0,0,0-.7,1.16c-.19.51-.87.81-1.55,1.11s-1.36.6-1.85.4A5.1,5.1,0,0,0,111,138.27Z"/><path class="cls-2" d="M114.12,138c-.64.28-1.29.57-1.72.4l-.29-.1a12.72,12.72,0,0,0,1.85-.65,11.23,11.23,0,0,0,1.72-.93c0,.1-.09.19-.12.28-.16.43-.81.72-1.44,1Z"/><path class="cls-11" d="M108.3,130.28a1,1,0,1,1-1.34-.52A1,1,0,0,1,108.3,130.28Z"/><path class="cls-12" d="M108.26,129.61a.46.46,0,0,1-.24.62.47.47,0,0,1-.38-.86A.47.47,0,0,1,108.26,129.61Z"/><path class="cls-11" d="M114.21,127.66a1,1,0,1,1-1.86.82,1,1,0,1,1,1.86-.82Z"/><path class="cls-12" d="M114.17,127a.47.47,0,0,1-.85.38.46.46,0,0,1,.24-.62A.45.45,0,0,1,114.17,127Z"/><path d="M115.77,125.07a.32.32,0,0,1-.44,0,.89.89,0,0,0-.94,0l-3.32,1.47a1,1,0,0,0-.58.75.73.73,0,0,1-.15.36,1.78,1.78,0,0,1-.6.39,1.86,1.86,0,0,1-.69.18.78.78,0,0,1-.36-.13,1,1,0,0,0-1-.08l-3.32,1.47c-.34.15-.62.32-.66.68a.32.32,0,0,1-.28.32l-1.13.27.17.38,1.33.15a.78.78,0,0,1,.42.38l.33.73A1,1,0,0,0,106,133l3.33-1.47a1,1,0,0,0,.49-1.37l-.3-.68a.75.75,0,0,1,0-.57,1,1,0,0,1,.44-.43,1,1,0,0,1,.61,0,.71.71,0,0,1,.42.38l.3.67a1,1,0,0,0,1.35.56l3.33-1.47a1,1,0,0,0,.49-1.37l-.32-.74a.75.75,0,0,1,0-.57l.78-1.08-.17-.39Zm-6.54,5.2a.65.65,0,0,1-.31.87l-3,1.32a.65.65,0,0,1-.85-.35l-.61-1.39a.64.64,0,0,1,.31-.86l3-1.33a.66.66,0,0,1,.85.35Zm6.65-2.94a.65.65,0,0,1-.31.87l-3,1.32a.64.64,0,0,1-.85-.35l-.62-1.39a.64.64,0,0,1,.31-.86l3-1.33a.65.65,0,0,1,.85.36Z"/><path class="cls-13" d="M109.23,130.27a.65.65,0,0,1-.31.87l-3,1.32a.65.65,0,0,1-.85-.35l-.61-1.39a.64.64,0,0,1,.31-.86l3-1.33a.66.66,0,0,1,.85.35Z"/><path class="cls-14" d="M106.08,129.28l-1,2.8v0a.67.67,0,0,0,.41.37l1.27-3.5Zm1.69-.75h0l-1.34,3.7,1.35-.6.93-2.56-.08-.2A.66.66,0,0,0,107.77,128.53Z"/><path class="cls-13" d="M115.88,127.33a.65.65,0,0,1-.31.87l-3,1.32a.64.64,0,0,1-.85-.35l-.62-1.39a.64.64,0,0,1,.31-.86l3-1.33a.65.65,0,0,1,.85.36Z"/><path class="cls-14" d="M114.72,125.54l-1.31,3.61.68-.3,1.1-3A.71.71,0,0,0,114.72,125.54Zm-2.18.88-.91,2.53.1.22a.65.65,0,0,0,.52.4l1.3-3.59Z"/><path class="cls-11" d="M103.73,129.64a22.53,22.53,0,0,1,2-1.72,2.23,2.23,0,0,1,.86-.49l.85,0c.52,0,.89,0,.89,0l-.85.21-.84.18-.67.49A23.24,23.24,0,0,1,103.73,129.64Z"/><path class="cls-11" d="M115,124.66a22.32,22.32,0,0,0-2.64.35,2.32,2.32,0,0,0-.94.3l-.6.61c-.36.38-.6.66-.6.66l.73-.49.7-.5c.33-.07.56-.1.81-.17A22.39,22.39,0,0,0,115,124.66Z"/><path class="cls-8" d="M102.85,131.21c-.81-1-1.46-.4-1.18,1.17s3.38,5.63,2.81,1.75Z"/><path class="cls-10" d="M103.23,132.87a2.28,2.28,0,0,0-.85-.54,4.56,4.56,0,0,1,.75.62,1.75,1.75,0,0,0,0,1.11,1.7,1.7,0,0,0,.26.58,1.93,1.93,0,0,1-.2-.59,1.75,1.75,0,0,1,.1-1,6.39,6.39,0,0,1,.58.7A3.34,3.34,0,0,0,103.23,132.87Z"/><path class="cls-8" d="M116.66,125.11c-.21-1.29.69-1.35,1.66-.08s1.89,6.28-.6,3.25Z"/><path class="cls-10" d="M117.63,126.5a2.34,2.34,0,0,1,.17-1,5,5,0,0,0,0,1,1.71,1.71,0,0,1,.85.7,2.53,2.53,0,0,1,.26.59,2.44,2.44,0,0,0-.31-.55,1.79,1.79,0,0,0-.8-.59,4.63,4.63,0,0,0,.14.9A2.74,2.74,0,0,1,117.63,126.5Z"/><path class="cls-15" d="M128.94,137.3c-2.78-.27-7.86,1.94-9.1,2.23a.4.4,0,0,0-.24.2h0a.39.39,0,0,1-.41-.18c-.23-.43-.48-.85-.71-1.25a10.25,10.25,0,0,0,1-2.84,11.83,11.83,0,0,0-.67-5.83h0c-.06-.17-.11-.33-.17-.49,1.27.67.48-3.06-.33-4.13s-1.38-1.15-1.61-.69a23.57,23.57,0,0,0-1.12-3.26c-2-4.62-5.43-3.11-9.51-1.31h0l12,27.19,14.23-6.29C131.39,138.81,129.91,137.39,128.94,137.3Z"/><path class="cls-6" d="M105.55,165.24l3.46,7.84,7.84-3.47-3.47-7.83ZM115,168.9l-5.29,2.34L107.38,166l5.29-2.34Z"/><path class="cls-6" d="M105.23,167.49c4.06.16,5.84.91,7.79,3.2a19,19,0,0,1,1.39-13s-3.88,4.13-3.51,8.93C110.9,166.66,109.09,166.05,105.23,167.49Z"/><path class="cls-6" d="M121.77,202l3.47,7.84,7.83-3.47-3.46-7.83Zm9.46,3.66L126,208l-2.34-5.29,5.29-2.34Z"/><path class="cls-6" d="M121.46,204.22c4.06.16,5.84.91,7.79,3.2a19,19,0,0,1,1.39-13s-3.88,4.13-3.5,8.93C127.14,203.39,125.32,202.78,121.46,204.22Z"/><path class="cls-6" d="M139.29,241.6l3.47,7.83,7.83-3.46-3.46-7.84Zm9.47,3.66-5.29,2.33-2.34-5.28,5.29-2.34Z"/><path class="cls-6" d="M139,243.89c4.07.16,5.84.91,7.8,3.2a19,19,0,0,1,1.38-13s-3.88,4.13-3.5,8.93C144.67,243.06,142.86,242.45,139,243.89Z"/><rect class="cls-16" x="148.28" y="3.04" width="152.53" height="215.84" transform="translate(-4.36 9.31) rotate(-2.35)"/><polygon class="cls-3" points="227.98 208.3 221.66 54.47 222.79 54.42 229.11 208.25 227.98 208.3 227.98 208.3"/><polygon class="cls-3" points="149.63 52.55 149.59 51.43 294.37 45.48 294.42 46.6 149.63 52.55 149.63 52.55"/><path class="cls-17" d="M233,143.89l0,0h0l0,0h0a.42.42,0,0,0,0,.15l-.33,3.64,3.6-.62a.47.47,0,0,0,.15-.06h0l0,0h0l0,0,4.53-4.91L237.5,139Zm.24.07a1,1,0,0,1,.69,1,1.41,1.41,0,0,1,1.36,1.25,1,1,0,0,1,1,.6l-.08.08a.24.24,0,0,1-.1.06l-1.76.3-1.4-1.29.16-1.78a.21.21,0,0,1,0-.11Zm8.37-3.27-2.72-2.51a.47.47,0,0,0-.66,0l-.54.59,3.4,3.13.54-.59A.45.45,0,0,0,241.58,140.69Z"/><path class="cls-18" d="M234.48,101a.36.36,0,0,1,.34-.36l1-.05a.36.36,0,0,1,.36.34v.19l4.19-3.28a.65.65,0,0,0-.19,0l-10,.41a.6.6,0,0,0-.19.06l4.44,2.93Zm6.11-3-4.35,3.41,0,1a.35.35,0,0,1-.33.37l-1,0a.35.35,0,0,1-.37-.33l0-1-4.61-3a.43.43,0,0,0-.07.25l.28,7a.44.44,0,0,0,.46.41l10-.41a.43.43,0,0,0,.41-.45l-.28-6.95A.5.5,0,0,0,240.59,98Zm-5.76,2.87a.14.14,0,0,0-.13.14l.06,1.48a.13.13,0,0,0,.14.12l1,0a.12.12,0,0,0,.12-.14L236,101a.13.13,0,0,0-.13-.13Zm-1.47-3.42a.87.87,0,0,1,0-.18.16.16,0,0,1,.07-.1.49.49,0,0,1,.23,0l3-.13a.44.44,0,0,1,.18,0,.15.15,0,0,1,.11.07.41.41,0,0,1,.05.22l0,.44.65,0,0-.43a1,1,0,0,0-.07-.39.88.88,0,0,0-.37-.44,1.14,1.14,0,0,0-.58-.11l-3,.12a1.23,1.23,0,0,0-.38.08.8.8,0,0,0-.44.37,1.1,1.1,0,0,0-.11.57v.43l.66,0Z"/><path class="cls-7" d="M232.48,54.9l-2.39,2.6,2.5-.1Zm.28-.15v.41l3.89-.16.36,8.62-6.39.26-.26-6.11H230l.27,6.53,7.22-.29-.39-9.45Zm-1.87,8.84,5.84-.24-.33-8.06-3.62.15.09,2.08a.12.12,0,0,1,0,.1.12.12,0,0,1-.09.05l-2.09.08Zm2.36-7,2.22-.09a.22.22,0,0,1,.22.2.21.21,0,0,1-.2.22l-2.22.09a.2.2,0,0,1-.22-.2A.22.22,0,0,1,233.25,56.6Zm-1.61,1.6,3.9-.16a.21.21,0,0,1,.21.2.21.21,0,0,1-.2.22l-3.89.16a.21.21,0,0,1-.21-.2A.2.2,0,0,1,231.64,58.2Zm.07,1.53,3.89-.16a.2.2,0,0,1,.21.2.21.21,0,0,1-.19.22l-3.89.16a.21.21,0,0,1-.22-.2A.2.2,0,0,1,231.71,59.73Zm.06,1.53,3.89-.16a.21.21,0,0,1,.22.2.21.21,0,0,1-.2.21l-3.89.16a.21.21,0,0,1-.22-.2A.21.21,0,0,1,231.77,61.26Z"/><path class="cls-19" d="M243.43,117.68l-7.5-2.65-7.26,3.25,7.5,2.65Zm-7.25,3.57-.11,0-4.69-1.66.09,2.17s.1,2.36,4.82,2.16,4.63-2.55,4.63-2.55l-.09-2.16-4.54,2Zm-5.83,2a.77.77,0,0,1-.37-.07l-.16,1.57,1.18,0-.28-1.55A.79.79,0,0,1,230.35,123.24Zm-.07-1.77a.78.78,0,0,1,.3,0l-.1-2.27-.6-.22.1,2.51A1,1,0,0,1,230.28,121.47Zm0,.29a.6.6,0,0,0,.05,1.19.6.6,0,0,0-.05-1.19Z"/><path class="cls-20" d="M186.34,63.93l-.28.18-.2.13-.11-.21-.15-.3-.31.11-.22.09,0-.11a7.32,7.32,0,0,1-1.31,1.93,8.24,8.24,0,0,0,1.72,0,10.24,10.24,0,0,1,.19,1.83,10.16,10.16,0,0,0,1.53-2.13,11.28,11.28,0,0,1-.72-1.38Zm2.83-.41,0,.24-.23-.06-.32-.1-.13.32-.08.22-.21-.11-.3-.16-.18.28-.14.2-.18-.15L187.1,64l-.24.24-.08.07a10.19,10.19,0,0,0,2.35,3.15,10.27,10.27,0,0,1,0-1.84,8.9,8.9,0,0,0,1.71-.14,7.46,7.46,0,0,1-1.67-2.21Zm-5.38-2-.19.49.51.14-.09.52.53,0v.53l.53-.08.13.51.49-.18.23.47.45-.28.32.41.38-.37.41.34.29-.44.46.25.2-.49.51.14L189,63l.53,0,0-.52.52-.08-.13-.51.49-.18-.23-.47.44-.29-.32-.41.37-.37-.4-.33.29-.44-.47-.25.2-.48-.51-.15.09-.52-.53,0,0-.53-.52.08-.13-.51-.49.19-.24-.48-.44.29-.33-.42-.37.37-.41-.34-.29.44-.47-.24-.19.49-.51-.14-.09.52-.52,0,0,.53-.52.07.13.51-.5.19.24.47-.45.28.33.41-.38.37.41.34-.29.44Zm0-1.14.22-.22-.2-.24-.09-.12.13-.08.26-.16-.14-.27-.07-.14.15-.05.28-.1-.07-.3,0-.15.15,0,.3,0V58h.15l.31,0,0-.3,0-.15.15,0,.29.09.11-.29.06-.14.13.07.27.15.17-.26.08-.12.12.09.23.2.22-.22.11-.1.09.12.19.24.26-.17.13-.08.06.14.14.27.28-.11.14,0,0,.15.08.29.3,0,.15,0V58l0,.3.3,0h.15l0,.15-.06.3.3.08.14,0,0,.14-.12.28.27.15.14.06-.09.13-.17.25.24.2.12.09-.11.11-.22.21.19.24.09.12L190,61l-.26.16.13.28.07.13-.14,0-.29.11.08.29,0,.15-.15,0-.3,0v.45h-.14l-.31,0,0,.3,0,.15-.14,0-.29-.08-.12.28,0,.14-.13-.07-.28-.14-.17.25-.08.13-.11-.1-.24-.19-.22.21-.1.11-.1-.12-.18-.24-.26.16-.13.08-.07-.13-.13-.28-.29.11-.14,0,0-.14-.07-.3-.3,0-.15,0v-.46l-.3,0h-.15l0-.15.05-.3-.29-.09-.15,0,.06-.14.11-.28L184,61.2l-.13-.07.08-.12.17-.26-.24-.19-.11-.1Zm.34.27.06,0,0,0,0,.05,0,.07-.15.22h0l.23.13.12.06,0,.06,0,.07-.09.25h0l.26.07.08,0,0,0v.06l0,.07,0,.26v0H185v.42h0l.27,0h.13l0,.06,0,.07.06.26v0h0l.24-.1.08,0,0,0,0,.06,0,.07.11.24h0l.22-.14.07,0,.05,0,0,0,0,.06.17.21v0h0l.19-.19.05-.06,0,0,.11.09.2.17h0l.15-.23,0-.06,0,0,.06,0,.07,0,.23.13h0v0l.09-.25,0-.07,0-.06.06,0,.08,0,.25.07h0v0l0-.26v-.14h.14l.27,0h0v-.43h.13l.27,0h0l-.07-.26v-.08l0-.06.13,0,.25-.1h0v0l-.12-.24,0-.07,0,0,.12-.08.22-.14h0l-.17-.21-.05-.06,0,0,0,0,.05-.06.19-.18,0,0h0l-.2-.17-.06-.05-.05,0,.08-.11.15-.22v0h0l-.24-.12-.12-.06,0-.06,0-.07.1-.25v0h0l-.26-.07-.07,0-.06,0v-.14l.05-.26v0h0l-.26,0h-.14V58h0l-.26,0h-.14V58l0-.07-.07-.26v0h0l-.25.09-.07,0-.06,0,0-.05,0-.07-.12-.24v0h0l-.23.14-.06.05-.05,0,0,0-.05-.06-.16-.21h0l-.19.19-.05,0,0,0-.05,0,0,0-.21-.17h0v0l-.15.22,0,.06,0,.05-.05,0-.07,0-.24-.12h0v0l-.1.24,0,.08,0,0-.06,0-.07,0-.26-.07h0l0,.27,0,.07v.06h-.13l-.27,0h0v.41l-.14,0-.26,0h0v0l.07.26,0,.07v.06l-.05,0-.07,0-.26.09h0l.11.24,0,.07,0,.06-.12.07-.23.14h0v0l.17.21.08.11,0,0-.06,0-.19.19h0Z"/><path class="cls-20" d="M174.89,57.52a.28.28,0,0,0-.48-.28l-.32.56a.27.27,0,0,0,.1.38.27.27,0,0,0,.12,0,.25.25,0,0,0,.24-.12,4.22,4.22,0,0,1,1.87,3.66,4.25,4.25,0,0,1-6.15,3.64.27.27,0,0,0-.1-.36.28.28,0,0,0-.38.1l-.33.55a.29.29,0,0,0,.1.38.33.33,0,0,0,.13,0,.29.29,0,0,0,.25-.14h0a4.83,4.83,0,0,0,2.07.54h0a4.88,4.88,0,0,0,4.39-2.42,4.71,4.71,0,0,0,.67-2.3A4.87,4.87,0,0,0,174.89,57.52Zm-4.65,7.39a3.85,3.85,0,0,0,2.09.52h0a3.84,3.84,0,1,0-3.46-5.77,3.75,3.75,0,0,0-.53,2.09A3.85,3.85,0,0,0,170.24,64.91Zm-.14-2.29a4.76,4.76,0,0,0-.26,1.4,2.58,2.58,0,0,1-.36-1.25,4.26,4.26,0,0,1,0-.5,4.58,4.58,0,0,1,.66.19Zm2.13-.74.82.4a9.85,9.85,0,0,1-.68,1c-.2-.15-.43-.31-.68-.47Zm-.86.73a7.08,7.08,0,0,0-.74-.36,8.76,8.76,0,0,1,.45-.93l.82.4Zm2-.17.82.4a4.6,4.6,0,0,1-1,1.2,4.57,4.57,0,0,0-.54-.54A9.83,9.83,0,0,0,173.38,62.44Zm.18-.32a9,9,0,0,0,.51-1,5.71,5.71,0,0,0,.74.21,4.76,4.76,0,0,1-.43,1.23Zm-.33-.16-.82-.4.57-1a7.38,7.38,0,0,0,.75.37A9.43,9.43,0,0,1,173.23,62Zm-1.15-.56-.82-.4a8.32,8.32,0,0,1,.73-1.07,6.67,6.67,0,0,0,.68.47Zm-1.15-.56-.82-.41,0,0a4.78,4.78,0,0,1,1-1.25,4.58,4.58,0,0,0,.54.55A9.45,9.45,0,0,0,170.93,60.84Zm-.18.31a9.4,9.4,0,0,0-.46,1,4.47,4.47,0,0,0-.74-.21,4.34,4.34,0,0,1,.39-1.15Zm-.47,3.27a1.16,1.16,0,0,1-.07-.37,4.1,4.1,0,0,1,.24-1.31c0-.05,0-.1.05-.15a5.48,5.48,0,0,1,.69.34l-.89,1.52Zm.33.21h0l.89-1.52a5.72,5.72,0,0,1,.63.44l-.38.4a3.77,3.77,0,0,1-.65.51A1.06,1.06,0,0,1,170.61,64.63Zm.59.19.09,0a4.68,4.68,0,0,0,1.12-1,4.5,4.5,0,0,1,.49.48,2.87,2.87,0,0,1-1.51.56Zm1.12.25h-.24a3.67,3.67,0,0,0,1-.52,3.34,3.34,0,0,1,.21.32A3.55,3.55,0,0,1,172.32,65.07Zm2.86-1.72a3.55,3.55,0,0,1-1.5,1.38,2.87,2.87,0,0,0-.26-.4A5,5,0,0,0,174.53,63l.66.33ZM175.6,61a2.91,2.91,0,0,1-.38,0,3.79,3.79,0,0,0,0-.58,2.89,2.89,0,0,0-.08-.59A3.42,3.42,0,0,1,175.6,61Zm-.43.34.48,0v.08a3.46,3.46,0,0,1-.29,1.54l-.65-.32A5.39,5.39,0,0,0,175.17,61.35Zm-.92-.78a4.19,4.19,0,0,0,.26-1.4,2.49,2.49,0,0,1,.36,1.26,4,4,0,0,1,0,.49,5.55,5.55,0,0,1-.66-.18A1.09,1.09,0,0,0,174.25,60.57Zm-.17-1.79a1.09,1.09,0,0,1,.07.36,4.11,4.11,0,0,1-.24,1.32s0,.1,0,.15c-.22-.1-.45-.21-.69-.34l.89-1.52Zm-.34-.22h0l-.9,1.52a6.65,6.65,0,0,1-.62-.43,3.76,3.76,0,0,1,.38-.41,3.53,3.53,0,0,1,.64-.5A1.18,1.18,0,0,1,173.74,58.56Zm-.77-.19h.19l-.09.05a4.9,4.9,0,0,0-1.13,1,5.41,5.41,0,0,1-.48-.48,2.93,2.93,0,0,1,1.5-.56Zm-.93-.24a.88.88,0,0,1,.23,0,3.38,3.38,0,0,0-1,.52,1.73,1.73,0,0,1-.21-.33A3.54,3.54,0,0,1,172,58.13Zm-2.86,1.71a3.41,3.41,0,0,1,1.5-1.37,2.56,2.56,0,0,0,.26.4,5.15,5.15,0,0,0-1.13,1.34l0,.06-.66-.32Zm-.42,2.34.38,0a3.66,3.66,0,0,0,0,.57,3.53,3.53,0,0,0,.07.59A3.54,3.54,0,0,1,168.76,62.18Zm0-.36v-.08a3.52,3.52,0,0,1,.25-1.46l.65.32a5,5,0,0,0-.42,1.25A3,3,0,0,0,168.71,61.82Zm5.61,5.49-3.69.15a.7.7,0,0,0-.67.77l5.09-.21A.7.7,0,0,0,174.32,67.31Zm-1.95-.59h-.2l0,.53.54,0,0-.53Z"/><path class="cls-20" d="M157.82,62.82c.1,0,.18,0,.18,0s-.09-.12-.18-.16a1.25,1.25,0,0,1,.47-2.38,1.24,1.24,0,0,1,1.3,1.19,1.23,1.23,0,0,1-.63,1.14c-.09,0-.17.13-.16.18s.08.07.18,0a1.45,1.45,0,0,0,.8-1.35,1.44,1.44,0,1,0-2,1.39Zm-2.89,5.33.12.69.54-.44,1-2.62-.77,0Zm-.23-2.63v.13l7.61-.31v-.13Zm4.68-3.9,0-.11c0-.09-.21-.11-.37,0l-.06,0c-.16.08-.25.22-.21.31l.25.54A1,1,0,0,0,159.38,61.62Zm-1.65-.09c-.17-.06-.33,0-.37.06l0,.12a1,1,0,0,0,.5.68l.2-.55c0-.1-.07-.23-.23-.29Zm.88-1.66L158.54,58a.19.19,0,0,0-.2-.18H158a.19.19,0,0,0-.18.19l.08,1.91a1.86,1.86,0,0,1,.34,0A1.2,1.2,0,0,1,158.61,59.87Zm-1,3.08a1.56,1.56,0,0,1-.57-.48l-1,2.79.77,0Zm1.58-.06,1,2.2.77,0-1.26-2.7A1.82,1.82,0,0,1,159.19,62.89Zm1.28,2.73,1.18,2.53.58.39.06-.69-1.06-2.27Z"/><polygon class="cls-3" points="193.8 12.91 193.69 10.34 227.88 8.94 227.98 11.5 193.8 12.91 193.8 12.91"/><polygon class="cls-3" points="194.91 39.87 194.8 37.3 291.09 33.35 291.2 35.91 194.91 39.87 194.91 39.87"/><polygon class="cls-3" points="195.12 45.01 195.01 42.44 244.12 40.42 244.23 42.99 195.12 45.01 195.12 45.01"/><polygon class="cls-21" points="194.2 22.74 194.04 18.77 290.98 14.79 291.14 18.76 194.2 22.74 194.2 22.74"/><polygon class="cls-21" points="194.54 31.08 194.38 27.11 266.28 24.15 266.44 28.12 194.54 31.08 194.54 31.08"/><rect class="cls-20" x="155.15" y="75.23" width="60.82" height="1.34" transform="translate(-2.96 7.68) rotate(-2.35)"/><rect class="cls-20" x="155.33" y="79.57" width="60.82" height="1.34" transform="translate(-3.14 7.69) rotate(-2.35)"/><rect class="cls-20" x="155.51" y="84.21" width="46.21" height="1.34" transform="translate(-3.33 7.4) rotate(-2.35)"/><rect class="cls-20" x="155.93" y="94.14" width="60.82" height="1.34" transform="translate(-3.73 7.73) rotate(-2.35)"/><rect class="cls-20" x="156.1" y="98.48" width="60.82" height="1.34" transform="translate(-3.91 7.74) rotate(-2.35)"/><rect class="cls-20" x="156.3" y="103.46" width="29.5" height="1.35" transform="translate(-4.13 7.11) rotate(-2.35)"/><rect class="cls-20" x="156.74" y="113.96" width="60.82" height="1.35" transform="matrix(1, -0.04, 0.04, 1, -4.55, 7.78)"/><rect class="cls-20" x="156.92" y="118.3" width="60.82" height="1.34" transform="translate(-4.73 7.79) rotate(-2.35)"/><rect class="cls-20" x="157.11" y="123.09" width="38.9" height="1.35" transform="translate(-4.93 7.35) rotate(-2.35)"/><rect class="cls-20" x="157.52" y="132.88" width="60.82" height="1.34" transform="translate(-5.32 7.83) rotate(-2.35)"/><rect class="cls-20" x="157.7" y="137.22" width="60.82" height="1.34" transform="translate(-5.5 7.84) rotate(-2.35)"/><rect class="cls-20" x="157.87" y="141.56" width="60.82" height="1.35" transform="translate(-5.68 7.85) rotate(-2.35)"/><rect class="cls-20" x="158.07" y="146.83" width="15.21" height="1.35" transform="translate(-5.91 6.92) rotate(-2.35)"/><rect class="cls-20" x="158.46" y="155.8" width="60.82" height="1.34" transform="translate(-6.26 7.89) rotate(-2.35)"/><rect class="cls-20" x="158.64" y="160.14" width="60.82" height="1.34" transform="translate(-6.44 7.89) rotate(-2.35)"/><rect class="cls-20" x="158.82" y="164.63" width="53.58" height="1.35" transform="translate(-6.63 7.76) rotate(-2.35)"/><rect class="cls-20" x="159.24" y="174.71" width="60.82" height="1.34" transform="translate(-7.04 7.93) rotate(-2.35)"/><rect class="cls-20" x="159.41" y="179.05" width="60.82" height="1.35" transform="translate(-7.22 7.94) rotate(-2.35)"/><rect class="cls-20" x="159.61" y="184.1" width="26.37" height="1.34" transform="translate(-7.43 7.24) rotate(-2.35)"/><rect class="cls-20" x="160.01" y="193.63" width="60.82" height="1.34" transform="translate(-7.81 7.98) rotate(-2.35)"/><rect class="cls-20" x="160.19" y="197.97" width="60.82" height="1.34" transform="translate(-7.99 7.99) rotate(-2.35)"/><rect class="cls-20" x="160.37" y="202.31" width="60.82" height="1.35" transform="matrix(1, -0.04, 0.04, 1, -8.17, 8)"/><rect class="cls-20" x="160.56" y="207.15" width="36.15" height="1.35" transform="translate(-8.38 7.51) rotate(-2.35)"/><rect class="cls-5" x="244.48" y="53.3" width="46.8" height="1.39" transform="matrix(1, -0.04, 0.04, 1, -1.99, 11.04)"/><rect class="cls-5" x="244.67" y="57.8" width="46.8" height="1.39" transform="translate(-2.18 11.05) rotate(-2.35)"/><rect class="cls-5" x="244.86" y="62.52" width="35.55" height="1.39" transform="translate(-2.37 10.83) rotate(-2.35)"/><rect class="cls-5" x="246.2" y="95.01" width="46.8" height="1.39" transform="translate(-3.7 11.15) rotate(-2.35)"/><rect class="cls-5" x="246.38" y="99.5" width="46.8" height="1.39" transform="translate(-3.88 11.16) rotate(-2.35)"/><rect class="cls-5" x="246.57" y="104.34" width="29.93" height="1.39" transform="translate(-4.09 10.82) rotate(-2.35)"/><rect class="cls-5" x="246.96" y="113.61" width="46.8" height="1.39" transform="translate(-4.47 11.2) rotate(-2.35)"/><rect class="cls-5" x="247.15" y="118.11" width="46.8" height="1.39" transform="translate(-4.65 11.21) rotate(-2.35)"/><rect class="cls-5" x="247.33" y="122.6" width="46.8" height="1.39" transform="translate(-4.83 11.21) rotate(-2.35)"/><rect class="cls-5" x="247.53" y="127.81" width="11.7" height="1.39" transform="translate(-5.06 10.51) rotate(-2.35)"/><rect class="cls-5" x="247.91" y="136.71" width="46.8" height="1.39" transform="translate(-5.41 11.25) rotate(-2.35)"/><rect class="cls-5" x="248.1" y="141.21" width="46.8" height="1.39" transform="translate(-5.59 11.26) rotate(-2.35)"/><rect class="cls-5" x="248.28" y="145.81" width="41.22" height="1.39" transform="translate(-5.79 11.16) rotate(-2.35)"/><rect class="cls-5" x="245.25" y="71.91" width="46.8" height="1.39" transform="translate(-2.75 11.09) rotate(-2.35)"/><rect class="cls-5" x="245.43" y="76.4" width="46.8" height="1.39" transform="translate(-2.94 11.1) rotate(-2.35)"/><rect class="cls-5" x="245.62" y="80.9" width="46.8" height="1.39" transform="translate(-3.12 11.11) rotate(-2.35)"/><rect class="cls-5" x="245.81" y="85.78" width="27.82" height="1.39" transform="translate(-3.33 10.73) rotate(-2.35)"/><path class="cls-21" d="M245,181.05l-1.81-1.66a.59.59,0,0,0-.83,0l-3.53,3.83a.6.6,0,0,0,0,.84l1.81,1.66a.59.59,0,0,0,.83,0l3.52-3.83A.59.59,0,0,0,245,181.05Zm-3.34,4-2.14-2,3.1-3.37,2.14,2Z"/><rect class="cls-21" x="249.94" y="178.2" width="36.07" height="1.11" transform="translate(-7.11 11.15) rotate(-2.35)"/><rect class="cls-21" x="250.09" y="181.93" width="28.97" height="1.11" transform="translate(-7.26 11.01) rotate(-2.35)"/><path class="cls-21" d="M243,193.12l-1.24,0a.25.25,0,0,0-.14.06l-2.43,2.28,6.56-.27-2.61-2.07A.24.24,0,0,0,243,193.12Zm2.59-2.08-2.34,2s0,0,0,0l0,0,2.51,2-.17-4Zm-4.08,2.05a0,0,0,0,0,0,0l-2.5-1.74.16,4,2.34-2.2Zm.28-.07L243,193a.3.3,0,0,0,.15-.05l2.38-2-6.37.26,2.53,1.78A.42.42,0,0,0,241.82,193Z"/><rect class="cls-21" x="250.43" y="190" width="36.07" height="1.11" transform="translate(-7.59 11.18) rotate(-2.35)"/><rect class="cls-21" x="250.59" y="194.03" width="14.33" height="1.11" transform="translate(-7.76 10.73) rotate(-2.35)"/><path class="cls-21" d="M240.31,203.33h0v0h0Zm0,0h0s0,0,0,0h0a0,0,0,0,0,0,0Zm0,.08v0h0A0,0,0,0,0,240.34,203.39Zm-.05-.2h0a0,0,0,0,0,0,0h0s0,0,0,0h0Zm0,.06h0s0,0,0,0h0s0,0,0,0h0Zm0,0v0h0v0Zm0-.06a0,0,0,0,0,0,0h0v0Zm0,.19Zm0,.26h0v0h0Zm.11-.11s0,0,0,0h0s0,0,0,0h0Zm-.49-1a.12.12,0,0,1,.06-.06v0h0s0,0,0,0v0l0,.05,0,.06v0a.68.68,0,0,0,0,.12h0c.05-.05.06-.07.11-.23a.83.83,0,0,1,.1-.2,1.47,1.47,0,0,1,.1-.13l.08-.08h0l.23-.27h0a1.37,1.37,0,0,0,.23-.19.77.77,0,0,1,.31-.22h0l.1,0,0,0-.12.08h0l.25-.13h-.05a.2.2,0,0,1,.07-.06s.05,0,.06-.05h0v0h0a.26.26,0,0,0-.13,0l.12-.06.33-.09-.08,0a1,1,0,0,0-.17.12h.13l0,0h0l.06,0h0s0,0,.06-.06h0s0,0,.07-.07l0,0,0,0h0v0h0l.14-.1h0l-.06,0-.09,0,.06,0a.09.09,0,0,0,.06,0h0a2.73,2.73,0,0,0-.78.36s.06,0,.19-.12h0l0,0h0l.1,0,.13-.06h0l-.13.06-.07,0a2.91,2.91,0,0,0-.47.27,3.35,3.35,0,0,0-.77.73h0c-.05.08-.13.18-.17.26l-.09.16a1.1,1.1,0,0,0-.06.12l-.05.09h0s0-.09.05-.09h0S239.89,202.55,239.9,202.53Zm.42.93h0v0h0Zm0,.06h0A0,0,0,0,0,240.31,203.52Zm1.42-2.62.13,0h0l.06,0H242l.05,0,.2,0h0l-.18.05H242l-.22.07Zm1.17-.16h.18s0,0,0,0h-.14Zm-.44,0a.17.17,0,0,0-.09.06h0s0,0,0,0h.05l0,0h.18s0,0,.11,0h.14s0,0,0,0h-.34Zm-.43.06h0l.07,0h0l.13,0h0l.09,0h.13l-.13,0h0ZM240,202.75h0a0,0,0,0,0,0,0,.13.13,0,0,0,0,.06h0a.05.05,0,0,0,0,0A.11.11,0,0,0,240,202.75Zm0,0h0s0,0,0,0h0s0,0,0,0Zm0,0Zm2.87,4.57h0a2.24,2.24,0,0,1-.8-.32h0v0l-.09-.06,0,0c0-.06-.12-.14-.19-.17h.09l-.06-.1a.47.47,0,0,0-.05-.1h0a.26.26,0,0,0-.07-.15.33.33,0,0,1-.07-.17v0c0-.07.11-.09.15-.1v0c0-.06,0-.19-.08-.67a.09.09,0,0,0,0-.06s0,0,0,0,0,0,0-.05v0h0v0a.32.32,0,0,0,0-.16.4.4,0,0,0-.06-.21.1.1,0,0,0-.07,0h0l-.05,0,0,0a.13.13,0,0,0-.15,0h0l-.06,0s-.07,0-.12,0,0,0-.19-.12h0s0,0-.07,0a.51.51,0,0,1-.12-.2.63.63,0,0,0-.12-.21s0,0-.22,0l0,0h0l0,0a.13.13,0,0,0-.09-.07c0-.06,0-.06,0-.08s0-.06,0-.08h0a.07.07,0,0,0,0,0h0s0,0,0,0h0v0h0a.18.18,0,0,0-.07.05l-.05,0s0,0-.06,0l-.05,0,0,0h0a0,0,0,0,0,0,0h0a.16.16,0,0,0,0,.07l0,0v0l0,0v-.05h0a.59.59,0,0,0-.12.17h0a.53.53,0,0,0,0,.12.17.17,0,0,1,0,.07.07.07,0,0,0,0-.06h0l0,.07h0a2.28,2.28,0,0,1,0-.49s0,0,0,0v0h0l0,0a.44.44,0,0,1,0-.18h0l.07-.28h0a.07.07,0,0,0,0,0s0,.13-.08.24h0v.07l0,.18v0h0v.08h0a.48.48,0,0,0,0,.16h0v0a.78.78,0,0,1,0,.14s0,.07,0,.1h0s0,0,0,0h0v-.05a.17.17,0,0,1,0-.07s0,0,.07.26a2.44,2.44,0,0,1,0,.27,2.11,2.11,0,0,0,0,.25s0,.12.06.13a.9.9,0,0,0,.28.52l.24.28.13.07a.41.41,0,0,1,.11.07,2.38,2.38,0,0,1,.31.33,2.26,2.26,0,0,0,.25.28l.39.3a3.33,3.33,0,0,0,1.15.47h0l.1,0Zm-2.9-4.13h0s0,0,0,0h0a.07.07,0,0,0,.11,0h0v0h0s0,0,0-.06l0,0h0v0h-.08a.06.06,0,0,0,0,0v0h0Zm.21-.06h0a.06.06,0,0,0,0,.07h0l0,0a0,0,0,0,0,0,0Zm-.3,0s0,0,0,.05h0v0h0s0,0,0,0a0,0,0,0,0,0,0s0,0,0,0h0s0,0,0,0h0a0,0,0,0,1,0,0,0,0,0,0,0,0,0h0s0,0,0,0,0,0,0,0h0a.31.31,0,0,0-.08.15h0s0,0,0,0a.11.11,0,0,1,0-.05v0h0v0h0s0,0,0,0h0Zm.4,0h0a0,0,0,0,0,0,0h0Zm4.63-1.24,0,0h0Zm0,0h0s0,0,0,0h0Zm0,.08h0s.09.05.11,0h0Zm.31.13s0,0,0,0h0s0,0,0,0h-.06Zm.35,3.63h0l-.06.07-.06.07a.25.25,0,0,1-.1.07s0,0-.08.06l-.06.08,0,.05s0,0-.13.12a1.59,1.59,0,0,0-.17.18s0,0,0,.06h0c.1,0,.53-.46.54-.46l0-.05h0a1.84,1.84,0,0,0,.15-.24h0Zm-.65-3.82H245v0h0s0,0,0,0h0Zm.33,4s0,0,.06-.06a3.3,3.3,0,0,0,.19-.31h0a.06.06,0,0,1,0,0,.36.36,0,0,1,0-.09.59.59,0,0,1,0-.08s0-.06,0-.09a.09.09,0,0,1,0-.05v0h0a2.82,2.82,0,0,0,.44-.73,1,1,0,0,0,.05-.49h0l0,0h0a0,0,0,0,1,0,0h0c0-.06-.15-.53-.16-.53a2.92,2.92,0,0,0-.39-.92l0,0h0v0l.32.63a.71.71,0,0,1,.08.31.78.78,0,0,0,.09.33h0v0h0a0,0,0,0,1,0,0h0l0,0h0s0,0,0,0v-.06h0v0s0-.09,0-.29l0-.11v0h0a1.62,1.62,0,0,0-.06-.19h0c-.05-.14-.13-.32-.19-.45l-.09-.16h0a2.94,2.94,0,0,0-.17-.26,2.75,2.75,0,0,0-.35-.4,2.85,2.85,0,0,0-.41-.34,2.41,2.41,0,0,0-.47-.28,4.09,4.09,0,0,0-.52-.2h0l-.23-.06-.16,0h0l.08,0h0l0,0h0a.27.27,0,0,0,.16.09s0,0,0,0l.07,0h0v0h0l.09.08h-.07s0,0,0,0,0,0,0,0h0s0,0,0,0,0,0,0,0h0l0,0h0l-.06,0h0l0,0h-.11l0,0h0v0h-.1s0,0,0,0h0s0,0,0,0h0a.07.07,0,0,0,0,0h.1a.09.09,0,0,0,0,0s0,0,0,0h.06l0,0h0l0,0h0a.05.05,0,0,0,0,0v0h.21l-.09,0h0v0h-.09s0,0,.07.05a.15.15,0,0,1,.12.17h-.12l-.14,0h0l0,0h0a.28.28,0,0,1,0,.18,0,0,0,0,1,0,0h0s0,0,0,.09h0c.2.07.27.1.41,0h0v0l0,0h0a.09.09,0,0,1,0,0l0-.05s0,0,0-.05a0,0,0,0,0,0,0s.05,0,.08,0H244v0s0,0,0,0,.38.19.42.31a.09.09,0,0,1-.07,0h0v0h0a.42.42,0,0,0,.14.08h0v0l0,0h0a.45.45,0,0,0,0-.11h0l0,0h0a.4.4,0,0,0-.2-.14.74.74,0,0,1-.18-.15h0a.46.46,0,0,0,.15.09l.15.1a.93.93,0,0,1,.13.15.66.66,0,0,0,.14.15l0,0h0l0-.08h0s0,0-.09-.14h0l0,0h0s0,0,.08.11h0c.13.13.13.13.21.15h0l.06,0,0,0h0v0c.06,0,.1.11.12.16h0a.14.14,0,0,0,0,.07l0,.08h0l0,0-.06,0h0l0,0h0c-.3-.19-.37-.2-.39-.19s0,0,0,0v0s0,0,0,0,0,0,0,0h0l-.47-.25h0a0,0,0,0,1,0,0v0a.1.1,0,0,0,0-.05h0s0,0,0-.05h0s0,0,0,0h-.11c-.05,0-.08,0-.1,0a.4.4,0,0,0-.22,0s0,0,0,0h0l-.05,0h-.12l0,0s0,0,0,0h0s0,0-.06.11h0a.31.31,0,0,0-.13.12.08.08,0,0,0,0,.07v0c0,.07-.12.1-.19.12h0v.06c-.05,0-.08.06-.09.09s0,0,0,.08a.3.3,0,0,0-.13.16.36.36,0,0,0,0,.11h0l0,0a.28.28,0,0,1,0,.17,1,1,0,0,1-.08.27h0a.22.22,0,0,1,0,.13.28.28,0,0,0,0,.13h0a2.57,2.57,0,0,1,.18.33h0a.14.14,0,0,1,.11.11h0a.23.23,0,0,1,.1.07c0,.05.11.11.2.07a.21.21,0,0,1,.26,0h0c.36-.11.36-.11.4-.09s0,.05,0,.08,0,.06,0,.08a.11.11,0,0,0,.08,0s.05,0,.07,0l.06.08-.06.28s0,0,0,.06,0,0,0,.06a.5.5,0,0,0,0,.13.25.25,0,0,1,0,.11v.34a.25.25,0,0,0,0,.09h0a.15.15,0,0,1,0,.07h0a.14.14,0,0,1-.06.08,1,1,0,0,0-.18.29h0s0,0,0,.22a1,1,0,0,1,0,.15l0,.07a2.45,2.45,0,0,0-.1.23.13.13,0,0,0,0,.05s0,0,0,0h0a.51.51,0,0,1-.17.24h0s0,0,.06,0h0s.12,0,.38-.14l.07,0a1,1,0,0,0,.13-.09s0,0,0,0,.05-.06.09-.07a.14.14,0,0,0,.1,0,.41.41,0,0,0,.11-.12.44.44,0,0,1,.08-.11.36.36,0,0,1,.15-.1Zm.71-3h0v0a.14.14,0,0,1,0,.06s0,0,0,0,0,0,0-.11h0v0h0s-.08-.18-.09-.21A3.15,3.15,0,0,1,246,202.87Zm-2.31-1.77Zm.15-.14h0l0,0,.05,0Zm.16,0a.14.14,0,0,0-.11,0,0,0,0,0,0,0,0h0l0,0h0v0h0s0,0-.06-.06,0,0-.14-.09l.26.09h0l0,0h0l.08.06h0Zm.87.42Zm0,0h0l0,0h0l0,0h0s0,0,0,0l0,0h0Zm.07.22a0,0,0,0,1,0,0h0Zm.27.06-.06,0,0,0a.1.1,0,0,0-.07,0h-.05v0h-.05l0,0,0,0h0l0-.05,0-.05h0l0,0v0h0l.06,0h0a.24.24,0,0,0,.09.08h0l0,0,.08.06.12.11Zm-1-.28h0s0,0,0,.05l0,0h0l0,.05,0,.06h0s0,0,0,0,0,0,0,0h0a.21.21,0,0,0-.05-.07h0a.13.13,0,0,0,0-.06h0Zm.73.35h0l0,0h0l0,0h0Z"/><rect class="cls-21" x="250.83" y="199.63" width="36.07" height="1.11" transform="translate(-7.99 11.2) rotate(-2.35)"/><rect class="cls-21" x="250.98" y="203.51" width="21.37" height="1.11" transform="translate(-8.16 10.91) rotate(-2.35)"/><path class="cls-22" d="M186,44.9c-.14-1.12-.23-1.95-.24-2.29-.06-1.53-.48-4.27-3-5.09s-4.35-1.35-4.35-1.35l-15.91.65s-1.81.69-4.22,1.71-2.6,3.79-2.54,5.32c0,.33,0,1.17-.05,2.29Z"/><polygon class="cls-3" points="166.13 36.06 168.66 45.49 172.95 45.31 174.7 35.71 166.13 36.06"/><path class="cls-23" d="M168.07,31.08a4.16,4.16,0,0,1-.46,3.69l2.87,2.65,2.64-2.87a4.17,4.17,0,0,1-.77-3.65Z"/><polygon class="cls-11" points="172.28 45.46 171.15 38.92 169.93 38.97 169.34 45.58 172.28 45.46"/><polygon class="cls-24" points="170.58 39.86 169.32 39 169.87 37.44 171.09 37.39 171.76 38.9 170.58 39.86"/><polygon class="cls-15" points="167.61 34.77 170.48 37.42 169.34 39.61 166.11 35.45 167.61 34.77"/><polygon class="cls-2" points="167.61 34.77 170.48 37.42 169.33 39.3 166.11 35.45 167.61 34.77"/><polygon class="cls-15" points="173.12 34.55 170.48 37.42 171.79 39.51 174.67 35.1 173.12 34.55"/><polygon class="cls-2" points="173.12 34.55 170.48 37.42 171.78 39.2 174.67 35.1 173.12 34.55"/><path class="cls-25" d="M162.18,36.84l4.79,4.7-1.46,1.9,1.63,2.23,3.22-.13-3.65-10.42Zm16.52-.68-4.65-1.34L171.26,45.5l3.22-.13L175.92,43l-1.61-1.78Z"/><path class="cls-26" d="M176.13,25.68A18.11,18.11,0,0,1,174,32.51a4.22,4.22,0,0,1-7.34.31,18.19,18.19,0,0,1-2.72-6.63l-.36-8.57,12.24-.5Z"/><path class="cls-11" d="M170.61,18.3c0,.61-1.47,1.59-3.59,2s-3.31,1.61-2.27,4.63a1.12,1.12,0,0,0-.94-.57l-.61,0a8.61,8.61,0,0,0-.21-2.8c-.37-1.52-2.27-5.33,1.36-6.4s5.18-.74,6.44.13c0,0,.27-1,3-.83s3.24,2.14,3,4c-.34,2.73-.58,2.93-.52,4.46l0,.91-.31,0a1.12,1.12,0,0,0-.89.65c.5-2.78.13-4.25-.8-4.51S171.62,20.41,170.61,18.3Z"/><path class="cls-10" d="M170.14,29.22c.61,0,.38-.23.91-.26.31,0,.6-.34.28-.63,0,0,0,.46-1.21.51s-1.24-.41-1.24-.41c-.29.32,0,.61.33.6C169.72,29,169.53,29.25,170.14,29.22Z"/><path class="cls-10" d="M170.21,30.88a10.38,10.38,0,0,0,2.53-.61s-1.47,1.59-2.49,1.63-2.61-1.42-2.61-1.42A10.57,10.57,0,0,0,170.21,30.88Z"/><path class="cls-12" d="M170.22,31.14a6.53,6.53,0,0,0,1.52-.37s-.88.95-1.5,1-1.56-.86-1.56-.86A6.36,6.36,0,0,0,170.22,31.14Z"/><path class="cls-26" d="M175.76,24.14c.33-.8,1-1.61,1.76-1.25s-.3,1.58-.25,2.76-.66,1.6-1.4,1.24Z"/><path class="cls-10" d="M177,24.11a2.08,2.08,0,0,0-.6.85,3.91,3.91,0,0,0-.24,1,2.28,2.28,0,0,1,.13-1.07A1.58,1.58,0,0,1,177,24.11Z"/><path class="cls-10" d="M176,26.94l.11,0a3.48,3.48,0,0,0,0-.47C176,26.64,176,26.78,176,26.94Z"/><path class="cls-26" d="M164.13,24.62c-.4-.77-1.16-1.53-1.87-1.1s.43,1.55.48,2.73.79,1.54,1.5,1.11Z"/><path class="cls-10" d="M162.91,24.69a1.6,1.6,0,0,1,.77.74,2.65,2.65,0,0,1,.22,1.06,4.27,4.27,0,0,0-.33-1A2,2,0,0,0,162.91,24.69Z"/><path class="cls-10" d="M164,27a4,4,0,0,0,0,.48l.1,0C164.09,27.27,164.05,27.13,164,27Z"/><path class="cls-11" d="M174.77,22.8l-.3-.09a8,8,0,0,0-3.67.15l-.21.08,0,.09a1.34,1.34,0,0,1-.67.15,1.35,1.35,0,0,1-.68-.09l0-.09-.22-.06a8,8,0,0,0-3.67.15l-.29.11a2.52,2.52,0,0,1-.93-.09l0,.62,1.18.52c.28.78.87,1.8,2,1.76a2.11,2.11,0,0,0,1.71-.94,2.42,2.42,0,0,0,.37-1,.92.92,0,0,1,.59-.25,1,1,0,0,1,.61.2,2.29,2.29,0,0,0,.45,1,2.08,2.08,0,0,0,1.78.8c1.11,0,1.61-1.11,1.83-1.91l1.13-.62,0-.61A2.51,2.51,0,0,1,174.77,22.8Zm-7.53,2.94c-1.53.06-1.94-2.37-1.94-2.37a7.37,7.37,0,0,1,3.67-.15A1.91,1.91,0,0,1,167.24,25.74Zm5.51-.23a1.92,1.92,0,0,1-1.94-2.37,7.48,7.48,0,0,1,3.67-.15S174.28,25.45,172.75,25.51Z"/><path d="M168.24,24.2a.76.76,0,1,1-.79-.72A.75.75,0,0,1,168.24,24.2Z"/><path class="cls-12" d="M168.41,23.74a.33.33,0,0,1-.33.35.34.34,0,0,1,0-.68A.35.35,0,0,1,168.41,23.74Z"/><path class="cls-13" d="M165.3,23.37a7.37,7.37,0,0,1,3.67-.15,1.91,1.91,0,0,1-1.73,2.52C165.71,25.8,165.3,23.37,165.3,23.37Z"/><path class="cls-14" d="M166.7,23.09l-1.12,1.22a4.59,4.59,0,0,0,.24.5l1.62-1.75Zm2.27.13-.21,0-2.22,2.4a1.24,1.24,0,0,0,.7.17h0l1.79-1.95A1.48,1.48,0,0,0,169,23.22Zm-1.09-.16-1.87,2a1.63,1.63,0,0,0,.17.2l2-2.2Z"/><path d="M173.13,24a.75.75,0,1,1-.78-.72A.74.74,0,0,1,173.13,24Z"/><path class="cls-12" d="M173.3,23.54a.34.34,0,1,1-.67,0,.34.34,0,1,1,.67,0Z"/><path class="cls-13" d="M174.48,23a7.48,7.48,0,0,0-3.67.15,1.92,1.92,0,0,0,1.94,2.37C174.28,25.45,174.48,23,174.48,23Z"/><path class="cls-14" d="M173.05,22.83l-1.84,2,.17.19,2-2.19Zm-1.22.08-1,1.11a1.89,1.89,0,0,0,.21.54l1.58-1.72A6.48,6.48,0,0,0,171.83,22.91Zm2.14,0-2.21,2.41a1.86,1.86,0,0,0,.69.21l2-2.15a3.65,3.65,0,0,0,0-.37A3.29,3.29,0,0,0,174,22.89Z"/><path class="cls-11" d="M165.27,22.47a17.08,17.08,0,0,1,1.92-.62,1.69,1.69,0,0,1,.74-.11l.62.2c.37.13.63.24.63.24l-.67-.09-.64-.1c-.25.06-.42.12-.61.15A16.48,16.48,0,0,1,165.27,22.47Z"/><path class="cls-11" d="M174.45,22.09a17.72,17.72,0,0,0-2-.46,1.79,1.79,0,0,0-.75-.05l-.6.26-.61.28.66-.14.63-.15c.26,0,.43.08.62.1A17.74,17.74,0,0,0,174.45,22.09Z"/><path class="cls-15" d="M185.71,42.61c-.06-1.53-.48-4.27-3-5.09-2-.64-3.54-1.11-4.11-1.28l.07-.08-4.65-1.34,0,0-.91-.32a2.34,2.34,0,0,1-.44-.58A5.19,5.19,0,0,0,174,32.51a19.59,19.59,0,0,0,2-5.57h0l0,0h.05c.65.19,1.23-.26,1.18-1.32s1-2.4.25-2.76a1,1,0,0,0-1.19.34v-.31c-.06-1.53.18-1.73.52-4.46.23-1.85-.25-3.79-3-4s-3,.83-3,.83a4.16,4.16,0,0,0-1.25-.61l1.27,30.83L186,44.9C185.81,43.78,185.72,43,185.71,42.61Z"/><rect class="cls-12" x="184.42" y="81.2" width="215.84" height="152.53" transform="translate(117.52 439.77) rotate(-86.54)"/><polygon class="cls-3" points="285.9 254.66 295.19 100.98 296.31 101.05 287.02 254.73 285.9 254.66 285.9 254.66"/><polygon class="cls-3" points="223.72 91.78 223.79 90.66 368.43 99.4 368.36 100.52 223.72 91.78 223.72 91.78"/><path class="cls-17" d="M352.54,110.68l0,0h0l0,0h0a.47.47,0,0,0-.06.15l-.69,3.58,3.64-.25a.53.53,0,0,0,.16,0h0l0,0h0l0,0,5-4.43-3.07-3.46Zm.24.1a1,1,0,0,1,.58,1,1.4,1.4,0,0,1,1.22,1.38,1,1,0,0,1,1,.7l-.09.08a.3.3,0,0,1-.1,0l-1.79.12-1.26-1.42.34-1.76a.19.19,0,0,1,.05-.1Zm8.65-2.42L359,105.6a.45.45,0,0,0-.65,0l-.6.53,3.06,3.46.61-.53A.47.47,0,0,0,361.43,108.36Z"/><path class="cls-18" d="M319.36,107.66a.35.35,0,0,1,.37-.33l1,.07a.33.33,0,0,1,.32.36v.2l4.5-2.84a.55.55,0,0,0-.18-.06l-10-.6a.63.63,0,0,0-.19,0l4.13,3.37Zm6.38-2.39-4.67,3-.06,1a.36.36,0,0,1-.37.33l-1.05-.07a.34.34,0,0,1-.32-.36l.06-1-4.28-3.49a.4.4,0,0,0-.1.24l-.42,6.94a.44.44,0,0,0,.41.46l10,.6a.42.42,0,0,0,.46-.4l.42-7A.37.37,0,0,0,325.74,105.27Zm-6,2.28a.12.12,0,0,0-.13.12l-.09,1.48a.13.13,0,0,0,.12.14l1,.06a.14.14,0,0,0,.14-.12l.09-1.48a.14.14,0,0,0-.13-.14ZM318.6,104a.6.6,0,0,1,0-.18.2.2,0,0,1,.07-.1.86.86,0,0,1,.24,0l3,.19a.66.66,0,0,1,.18,0c.06,0,.08,0,.1.08a.43.43,0,0,1,0,.23l0,.44.65,0,0-.43a1.29,1.29,0,0,0,0-.39.83.83,0,0,0-.33-.47,1.08,1.08,0,0,0-.56-.17l-3-.19a1,1,0,0,0-.39,0,.8.8,0,0,0-.47.32,1.11,1.11,0,0,0-.17.56l0,.43.65,0Z"/><path class="cls-7" d="M304.68,102.32,302,104.66l2.5.16Zm.29-.12,0,.41,3.89.24-.52,8.6-6.39-.38.37-6.11-.41,0-.4,6.53,7.22.43.57-9.43Zm-2.75,8.6,5.83.36.48-8-3.6-.22L304.8,105a.14.14,0,0,1-.05.1.15.15,0,0,1-.1,0l-2.08-.12Zm3-6.71,2.22.14a.21.21,0,0,1,.2.22.23.23,0,0,1-.22.2l-2.22-.14a.21.21,0,0,1-.2-.22A.22.22,0,0,1,305.27,104.09Zm-1.76,1.43,3.89.24a.21.21,0,0,1,.2.22.21.21,0,0,1-.23.19l-3.88-.23a.22.22,0,0,1-.2-.22A.21.21,0,0,1,303.51,105.52Zm-.09,1.53,3.89.23a.21.21,0,0,1,.19.22.2.2,0,0,1-.22.2l-3.88-.24a.2.2,0,0,1-.2-.22A.21.21,0,0,1,303.42,107.05Zm-.09,1.52,3.89.24a.21.21,0,0,1,.19.22.22.22,0,0,1-.22.2L303.3,109a.21.21,0,0,1,0-.42Z"/><path class="cls-27" d="M225,188.3l-.29.15-.22.11-.08-.22-.12-.32-.32.09-.23.06,0-.11a7.26,7.26,0,0,1-1.5,1.79,8.93,8.93,0,0,0,1.71.17,9.43,9.43,0,0,1,0,1.84,9.62,9.62,0,0,0,1.75-2,10.07,10.07,0,0,1-.58-1.44Zm2.86-.12-.06.23-.23-.08-.31-.13-.15.3-.11.21-.2-.13-.28-.18-.21.25-.15.19-.17-.17-.23-.24-.26.21-.09.07a10,10,0,0,0,2,3.37,10.17,10.17,0,0,1,.22-1.83,9,9,0,0,0,1.72,0,7.5,7.5,0,0,1-1.44-2.36Zm-5.14-2.56-.25.47.5.19-.15.51.53.09,0,.52.53,0,.08.52.51-.13.18.49L225,188l.28.44.42-.33.37.38.33-.41.44.29.24-.47.49.2.14-.51.52.09,0-.53.53,0-.08-.52.51-.14-.18-.49.47-.23-.29-.45.42-.33-.37-.37.33-.41-.44-.29.24-.47-.49-.19.14-.5-.52-.09,0-.53-.53,0-.08-.52-.51.13-.18-.49-.47.23-.29-.44-.41.33-.37-.38-.33.41-.44-.29-.24.47-.49-.2-.14.51-.52-.09,0,.53-.53,0,.08.52-.51.13.18.5-.47.23.29.44-.42.33.37.38-.33.4Zm.15-1.13.24-.19-.17-.26-.08-.12.13-.07.28-.14-.11-.28-.05-.14.14,0,.3-.08,0-.3,0-.15h.15l.31,0v-.45l.15,0,.3,0,.08-.29,0-.15.14.06.29.11.14-.27.07-.13.12.08.26.17.19-.24.1-.11.1.1.22.22.23-.19.12-.09.08.12.17.26.27-.14.13-.06.06.14.1.28.3-.07.14,0,0,.15,0,.3h.46v.15l0,.3.3,0,.15,0,0,.14-.08.3.28.11.14,0-.07.14-.14.27.25.17.13.08-.1.11-.19.24.21.22.11.1-.12.1-.24.19.17.26.08.12-.14.07-.27.13.11.29.05.14-.14,0-.3.07,0,.31,0,.15h-.15l-.31,0v.45l-.15,0-.3-.06-.08.3,0,.14-.14,0-.29-.11-.14.27-.07.13-.12-.08-.26-.17-.19.24-.1.11-.1-.11-.22-.21-.24.19-.11.09-.08-.13-.17-.25-.27.13-.14.07-.05-.14-.1-.29-.3.08-.14,0,0-.15,0-.3h-.46v-.15l0-.31-.3-.05-.15,0,0-.15.08-.29-.28-.11-.14-.06.07-.13.14-.27-.26-.17-.12-.08.09-.12.2-.23-.22-.22-.1-.11Zm.31.31.05.06.05,0,0,0,0,.05-.17.21v0h0l.22.14.12.08,0,0,0,.07-.13.24h0l.25.1.07,0,.06,0,0,.06,0,.07-.07.26v0h0l.27,0,.13,0v.42h.42V187l0,.26v0h0l.26-.06.07,0,.06,0,0,.06,0,.07.09.25v0h0l.24-.12.06,0,.06,0,0,.05,0,.06.14.23v0l0,0,.21-.16.06,0,.05,0,.09.1.19.19h0l.17-.21.05-.06,0,0,0,0,.07,0,.22.15h0v0l.13-.23,0-.07,0-.06.06,0,.07,0,.25.1h0v0l.07-.26,0-.07,0-.06h.13l.26,0h0v0l0-.26v-.14h.42v0l0-.26v-.14l.13,0,.26-.07h0v0l-.09-.25,0-.07,0-.06.12-.06.24-.12h0v0l-.15-.22,0-.07,0-.05,0,0,.06-.05.21-.17h0l-.19-.19-.05-.06-.05,0,.09-.11.17-.2v0h0l-.23-.15-.11-.07,0,0,0-.07.13-.24v0h0l-.25-.1-.07,0-.06,0,0-.06,0-.07.07-.26v0h0l-.27,0h-.13v-.42h-.42v-.14l0-.26v0h0l-.26.07-.07,0-.06,0,0-.06,0-.07-.09-.25v0h0l-.24.12-.06,0-.06,0,0,0,0-.07-.15-.22v0h0l-.21.17-.06,0-.05,0,0-.05L226,182l-.19-.19v0l0,0-.17.2,0,.06,0,0,0,0-.07,0-.22-.14h0l-.13.24,0,.07,0,.05-.06,0-.07,0-.25-.1h0v0l-.07.25,0,.08,0,.06h-.06l-.07,0-.27,0h0v.41h-.14l-.26,0h0v0l0,.26v.14h-.06l-.07,0-.26.07h0v0l.09.25,0,.07,0,.06-.12.06-.24.12h0l.14.23.08.11-.05,0-.06,0-.21.17h0Z"/><path class="cls-19" d="M346.3,107.65l-7.19-3.39-7.55,2.5,7.19,3.4Zm-7.57,2.83-.1-.06-4.5-2.12-.13,2.16s-.15,2.36,4.57,2.65,4.87-2.08,4.87-2.08l.13-2.16-4.72,1.57Zm-6,1.39a.89.89,0,0,1-.36-.11l-.32,1.54,1.18.08-.13-1.57A1.1,1.1,0,0,1,332.73,111.87Zm.11-1.77a.73.73,0,0,1,.29.07l.13-2.28-.57-.27-.15,2.51A.73.73,0,0,1,332.84,110.1Zm0,.29a.59.59,0,1,0,.55.63A.59.59,0,0,0,332.82,110.39Z"/><path class="cls-28" d="M231.1,138.36A.28.28,0,0,0,231,138a.26.26,0,0,0-.38.06l-.38.52a.27.27,0,0,0,.06.38.21.21,0,0,0,.12.05.29.29,0,0,0,.26-.1,4.24,4.24,0,0,1-3.3,7.45,4.17,4.17,0,0,1-1.7-.62.29.29,0,0,0-.07-.37.28.28,0,0,0-.39.06l-.38.52a.28.28,0,0,0,.06.39l.13.05a.31.31,0,0,0,.26-.11h0a4.82,4.82,0,0,0,2,.74h0a4.9,4.9,0,0,0,3.78-8.63Zm-5.38,6.88a3.77,3.77,0,0,0,2,.73h0a3.83,3.83,0,0,0,3.33-1.56,3.83,3.83,0,0,0-.83-5.37,3.77,3.77,0,0,0-2-.73,3.83,3.83,0,0,0-3.33,1.56,3.93,3.93,0,0,0-.74,2A3.86,3.86,0,0,0,225.72,145.24Zm.1-2.29a4.28,4.28,0,0,0-.4,1.37,2.53,2.53,0,0,1-.23-1.29,4.36,4.36,0,0,1,.06-.49,4.9,4.9,0,0,1,.64.25Zm2.19-.52.77.48a8.84,8.84,0,0,1-.78.91c-.18-.17-.39-.35-.62-.54Zm-.93.64a7.19,7.19,0,0,0-.7-.44c.15-.28.34-.58.54-.88l.77.48Zm2,0,.78.49a4.75,4.75,0,0,1-1.12,1.08,5.63,5.63,0,0,0-.49-.59A10.4,10.4,0,0,0,229.09,143.1Zm.22-.3a9.73,9.73,0,0,0,.61-1,6.87,6.87,0,0,0,.71.28,4.5,4.5,0,0,1-.55,1.18Zm-.31-.19-.78-.48.67-.91c.25.17.48.31.7.43A9.23,9.23,0,0,1,229,142.61Zm-1.09-.68-.78-.48a9.46,9.46,0,0,1,.84-1,6.86,6.86,0,0,0,.62.54Zm-1.09-.67-.78-.49,0,0a4.59,4.59,0,0,1,1.16-1.13,4.46,4.46,0,0,0,.48.59A10.81,10.81,0,0,0,226.82,141.26Zm-.21.3a7.35,7.35,0,0,0-.55.91,6,6,0,0,0-.72-.29,4.68,4.68,0,0,1,.5-1.1Zm-.8,3.19a1,1,0,0,1,0-.36,4,4,0,0,1,.37-1.29.91.91,0,0,1,.07-.14c.2.11.42.25.65.4l-1.05,1.43A.08.08,0,0,0,225.81,144.75Zm.31.25h0l1-1.42c.22.17.41.34.58.5q-.21.19-.42.36a4.53,4.53,0,0,1-.69.44A1.18,1.18,0,0,1,226.12,145Zm.57.25.09,0a4.72,4.72,0,0,0,1.22-.87,3.71,3.71,0,0,1,.43.53,2.93,2.93,0,0,1-1.56.4Zm1.08.36-.23,0a3.77,3.77,0,0,0,1.09-.42,3,3,0,0,1,.18.34A3.32,3.32,0,0,1,227.77,145.61Zm3-1.42a3.53,3.53,0,0,1-1.63,1.22,2.51,2.51,0,0,0-.22-.43,4.85,4.85,0,0,0,1.24-1.2l.63.39Zm.66-2.28c-.09,0-.22,0-.38-.07a3.72,3.72,0,0,0,.08-.57,3.85,3.85,0,0,0,0-.59A3.43,3.43,0,0,1,231.45,141.91Zm-.47.29a4.25,4.25,0,0,0,.48.07v.08a3.56,3.56,0,0,1-.44,1.51l-.62-.38A4.74,4.74,0,0,0,231,142.2Zm-.83-.87a4.21,4.21,0,0,0,.4-1.37,2.53,2.53,0,0,1,.23,1.29,2.73,2.73,0,0,1-.06.49,5.52,5.52,0,0,1-.64-.25A.77.77,0,0,0,230.15,141.33Zm0-1.8a1,1,0,0,1,0,.37,3.8,3.8,0,0,1-.37,1.28l-.06.14a5.2,5.2,0,0,1-.65-.4l1-1.43Zm-.31-.25h0l-1,1.42a6,6,0,0,1-.58-.49,4.64,4.64,0,0,1,.42-.37,3.49,3.49,0,0,1,.7-.43A1,1,0,0,1,229.85,139.28Zm-.75-.27.19,0-.1,0A5.25,5.25,0,0,0,228,140a5.59,5.59,0,0,1-.43-.53,2.85,2.85,0,0,1,1.55-.41Zm-.9-.33.23,0a3.73,3.73,0,0,0-1.09.41c-.08-.14-.14-.26-.18-.34A3,3,0,0,1,228.2,138.68Zm-3,1.41a3.53,3.53,0,0,1,1.63-1.22,2.19,2.19,0,0,0,.22.43,5.18,5.18,0,0,0-1.26,1.22l0,.06-.62-.39A.86.86,0,0,0,225.18,140.09Zm-.66,2.29.38.06a3.72,3.72,0,0,0-.08.57,3,3,0,0,0,0,.6A3.55,3.55,0,0,1,224.52,142.38Zm0-.37v-.08a3.45,3.45,0,0,1,.4-1.42l.61.38a4.93,4.93,0,0,0-.54,1.2A3,3,0,0,0,224.52,142Zm5,6-3.69-.22a.69.69,0,0,0-.74.69l5.08.31A.69.69,0,0,0,229.54,148Zm-1.88-.78h0l-.19,0,0,.53.55,0,0-.54Z"/><path class="cls-6" d="M230.32,102.71c.09.05.18,0,.18,0s-.07-.13-.16-.18a1.25,1.25,0,1,1,1.14.07c-.09,0-.18.11-.18.16s.08.08.18,0a1.44,1.44,0,1,0-1.16-.07Zm-3.41,5,.05.7.58-.39,1.23-2.51-.76,0Zm0-2.64v.13l7.61.46v-.13Zm5.06-3.4,0-.12c0-.1-.2-.13-.37-.07l-.06,0c-.17.06-.27.19-.24.28l.2.56A1,1,0,0,0,232,101.68Zm-1.64-.27c-.16-.07-.32-.06-.37,0l-.05.11a1,1,0,0,0,.42.73l.26-.53c0-.09,0-.23-.2-.31Zm1-1.56.12-1.91a.19.19,0,0,0-.18-.19l-.3,0a.19.19,0,0,0-.2.17l-.11,1.91a1.9,1.9,0,0,1,.34,0A1.26,1.26,0,0,1,231.41,99.85Zm-1.31,3a1.64,1.64,0,0,1-.52-.53L228.27,105l.76,0Zm1.58.1.8,2.29.77.05-1-2.81A1.81,1.81,0,0,1,231.68,102.92Zm1,2.84.92,2.64.54.45.13-.68-.82-2.36Z"/><path class="cls-29" d="M248.69,56.71c-1.92-.83-6.85-.89-9,2.29s-2.14,6.74-2,9.12c.07,1.69,2.47,11.49-3.85,7.78.11,2.54,2.79,4.53,2.79,4.53l17,1s3.7-1.42,3.73-4.2c-5.83,3.62-3.63-6.39-3.33-8.16a23.06,23.06,0,0,0,.16-8C253.51,58.66,250.69,56.35,248.69,56.71Z"/><path class="cls-30" d="M231.91,86.11c.33-4,.32-5,1.68-6.46s3.65-1,4-1.05a3.71,3.71,0,0,0,1.61-.59c.56-.38,2.5-1.1,3.17-1.43s.52-1.5.54-2.62l5,.3c-.11,1.12-.4,2.27.22,2.67s2.47,1.36,3,1.8a3.57,3.57,0,0,0,1.53.78c.38.07,2.7-.05,3.88,1.53s1.05,2.59.89,6.61Z"/><path class="cls-31" d="M256.58,81c-1.18-1.58-3.5-1.46-3.88-1.53l-.12,0L244.9,83.6l-7.14-5h-.13c-.39,0-2.68-.38-4,1.05s-1.35,2.44-1.68,6.46l25.56,1.54C257.63,83.63,257.75,82.62,256.58,81Z"/><path class="cls-8" d="M245.29,76.51c-1.48-.09-2.42-.86-4-2.85a8.18,8.18,0,0,1-2.16-5,20,20,0,0,1,0-3.7s0-4.39,6.66-4.47a18.43,18.43,0,0,0,7.13,5,23.1,23.1,0,0,1-.48,4,8.26,8.26,0,0,1-2.76,4.68c-1.83,1.79-2.86,2.44-4.33,2.35"/><path class="cls-10" d="M246.56,70.73c.15.54,0,.7-.23.69-.36,0-.38.16-.74.14s-.36-.2-.73-.23c-.19,0-.36-.2-.14-.71,0,0,0,.53.89.58S246.56,70.73,246.56,70.73Z"/><path class="cls-32" d="M242.3,71.9c1.2-.21,1.15.64,3.22.76s2.12-.72,3.28-.37c-1.2.21-1.58,1.61-3.35,1.51S243.47,72.25,242.3,71.9Z"/><path class="cls-2" d="M243.75,72.56a4.39,4.39,0,0,0,1.75.39,4.44,4.44,0,0,0,1.79-.18,2.28,2.28,0,0,1-3.54-.21Z"/><path class="cls-33" d="M244.51,65.43c-.49-.23-2.74-1.51-4.25-.45.8-.88,2.44-.67,3-.57a3.05,3.05,0,0,1,1.57.69C245,65.33,245.19,65.73,244.51,65.43Z"/><path class="cls-33" d="M247.39,65.6c.51-.16,2.9-1.16,4.28.07-.7-1-2.35-1-2.88-.93a3.05,3.05,0,0,0-1.64.5C246.93,65.45,246.68,65.82,247.39,65.6Z"/><path d="M243.47,66.89a.88.88,0,0,1-.93.82.86.86,0,0,1-.82-.93.88.88,0,1,1,1.75.11Z"/><path class="cls-2" d="M243.64,66.37a.36.36,0,0,1-.37.32.35.35,0,0,1,0-.69A.35.35,0,0,1,243.64,66.37Z"/><path d="M249.94,67.28a.88.88,0,1,1-.82-.93A.88.88,0,0,1,249.94,67.28Z"/><path class="cls-2" d="M250.11,66.76a.34.34,0,0,1-.36.32.35.35,0,0,1-.33-.37.36.36,0,0,1,.37-.32A.35.35,0,0,1,250.11,66.76Z"/><path d="M253,66.33l.08-.21-1.29,0a1,1,0,0,0-.64-.28l-3.31-.2a1.19,1.19,0,0,0-1.07.58,1.52,1.52,0,0,0-.82-.28,1.48,1.48,0,0,0-.85.18,1.18,1.18,0,0,0-1-.7l-3.32-.2a1,1,0,0,0-.67.19l-1.27-.2.05.22.83.47a1.59,1.59,0,0,0-.14.57,1.25,1.25,0,0,0,.33.91,3.37,3.37,0,0,0,2.43.88h.05a3.17,3.17,0,0,0,2.2-.55,1.53,1.53,0,0,0,.59-1.06,1.1,1.1,0,0,0,0-.32h0a1.32,1.32,0,0,1,.75-.16,1.51,1.51,0,0,1,.6.16l.14.09h0a1.14,1.14,0,0,0-.07.32,1.52,1.52,0,0,0,.46,1.12,3.13,3.13,0,0,0,2.12.81h.05a3.4,3.4,0,0,0,2.52-.58,1.27,1.27,0,0,0,.44-.87,1.63,1.63,0,0,0-.08-.58Zm-10.59,1.76h0c-2.37-.17-2.57-1.14-2.55-1.55a1,1,0,0,1,1-1l3.3.2a.94.94,0,0,1,.88,1C244.89,67.27,244.3,68.2,242.38,68.09Zm6.84.41h0c-1.92-.13-2.39-1.12-2.37-1.69a1,1,0,0,1,1-.89l3.3.2a1,1,0,0,1,.83,1.14C251.91,67.67,251.59,68.62,249.22,68.5Z"/><path class="cls-14" d="M242.38,68.09h0c-2.37-.17-2.57-1.14-2.55-1.55a1,1,0,0,1,1-1l3.3.2a.94.94,0,0,1,.88,1C244.89,67.27,244.3,68.2,242.38,68.09Z"/><path class="cls-14" d="M244.64,66l-2.4,2.13h.14a5.14,5.14,0,0,0,.8,0l1.74-1.55A.94.94,0,0,0,244.64,66Zm-2.07-.34-2.2,2a3.13,3.13,0,0,0,1,.39l2.55-2.26Zm-1.27-.08-1.48,1.31a1.38,1.38,0,0,0,.12.29l1.78-1.57Z"/><path class="cls-14" d="M249.22,68.5h0c-1.92-.13-2.39-1.12-2.37-1.69a1,1,0,0,1,1-.89l3.3.2a1,1,0,0,1,.83,1.14C251.91,67.67,251.59,68.62,249.22,68.5Z"/><path class="cls-14" d="M251.71,66.45l-2.32,2.06a5.75,5.75,0,0,0,1-.05l1.56-1.38A1.09,1.09,0,0,0,251.71,66.45ZM248.45,66l-1.54,1.36a1.82,1.82,0,0,0,.15.27l1.8-1.6Zm1.27.08-2.22,2a2.81,2.81,0,0,0,1,.39l2.58-2.28Z"/><path class="cls-8" d="M239.18,65.88c0-.54-.72-1.17-.78-.21-.08,1.38.26,4.21.71,3.41C239.67,68.08,239.18,65.88,239.18,65.88Z"/><path class="cls-10" d="M238.78,66.37c.13.1.17.24.13.6s0,.58.11.65-.26,0-.24-.59C238.8,66.68,238.91,66.56,238.78,66.37Z"/><path class="cls-8" d="M252.6,66.69c.07-.54.85-1.08.79-.12-.08,1.38-.77,4.15-1.12,3.3C251.84,68.81,252.6,66.69,252.6,66.69Z"/><path class="cls-10" d="M252.93,67.23c-.15.07-.2.21-.2.57s0,.58-.19.63.26,0,.31-.55C252.88,67.53,252.78,67.4,252.93,67.23Z"/><path class="cls-29" d="M248.69,56.71c-1.92-.83-6.85-.89-9,2.29s-2.14,6.74-2,9.12c.07,1.69,2.47,11.49-3.85,7.78.11,2.54,2.79,4.53,2.79,4.53l17,1s3.7-1.42,3.73-4.2c-5.83,3.62-3.63-6.39-3.33-8.16a23.06,23.06,0,0,0,.16-8C253.51,58.66,250.69,56.35,248.69,56.71Z"/><path class="cls-30" d="M231.91,86.11c.33-4,.32-5,1.68-6.46s3.65-1,4-1.05a3.71,3.71,0,0,0,1.61-.59c.56-.38,2.5-1.1,3.17-1.43s.52-1.5.54-2.62l5,.3c-.11,1.12-.4,2.27.22,2.67s2.47,1.36,3,1.8a3.57,3.57,0,0,0,1.53.78c.38.07,2.7-.05,3.88,1.53s1.05,2.59.89,6.61Z"/><path class="cls-31" d="M256.58,81c-1.18-1.58-3.5-1.46-3.88-1.53l-.12,0L244.9,83.6l-7.14-5h-.13c-.39,0-2.68-.38-4,1.05s-1.35,2.44-1.68,6.46l25.56,1.54C257.63,83.63,257.75,82.62,256.58,81Z"/><path class="cls-8" d="M245.29,76.51c-1.48-.09-2.42-.86-4-2.85a8.18,8.18,0,0,1-2.16-5,20,20,0,0,1,0-3.7s-.15-4.81,7.2-4.51a13.06,13.06,0,0,0,6.59,5,23.1,23.1,0,0,1-.48,4,8.26,8.26,0,0,1-2.76,4.68c-1.83,1.79-2.86,2.44-4.33,2.35"/><path class="cls-10" d="M246.56,70.73c.15.54,0,.7-.23.69-.36,0-.38.16-.74.14s-.36-.2-.73-.23c-.19,0-.36-.2-.14-.71,0,0,0,.53.89.58S246.56,70.73,246.56,70.73Z"/><path class="cls-32" d="M242.3,71.9c1.2-.21,1.15.64,3.22.76s2.12-.72,3.28-.37c-1.2.21-1.58,1.61-3.35,1.51S243.47,72.25,242.3,71.9Z"/><path class="cls-2" d="M243.75,72.56a4.39,4.39,0,0,0,1.75.39,4.44,4.44,0,0,0,1.79-.18,2.28,2.28,0,0,1-3.54-.21Z"/><path class="cls-33" d="M244.51,65.43c-.49-.23-2.74-1.51-4.25-.45.8-.88,2.44-.67,3-.57a3.05,3.05,0,0,1,1.57.69C245,65.33,245.19,65.73,244.51,65.43Z"/><path class="cls-33" d="M247.39,65.6c.51-.16,2.9-1.16,4.28.07-.7-1-2.35-1-2.88-.93a3.05,3.05,0,0,0-1.64.5C246.93,65.45,246.68,65.82,247.39,65.6Z"/><path d="M243.47,66.89a.88.88,0,0,1-.93.82.86.86,0,0,1-.82-.93.88.88,0,1,1,1.75.11Z"/><path class="cls-2" d="M243.64,66.37a.36.36,0,0,1-.37.32.35.35,0,0,1,0-.69A.35.35,0,0,1,243.64,66.37Z"/><path d="M249.94,67.28a.88.88,0,1,1-.82-.93A.88.88,0,0,1,249.94,67.28Z"/><path class="cls-2" d="M250.11,66.76a.34.34,0,0,1-.36.32.35.35,0,0,1-.33-.37.36.36,0,0,1,.37-.32A.35.35,0,0,1,250.11,66.76Z"/><path d="M253,66.33l.08-.21-1.29,0a1,1,0,0,0-.64-.28l-3.31-.2a1.19,1.19,0,0,0-1.07.58,1.52,1.52,0,0,0-.82-.28,1.48,1.48,0,0,0-.85.18,1.18,1.18,0,0,0-1-.7l-3.32-.2a1,1,0,0,0-.67.19l-1.27-.2.05.22.83.47a1.59,1.59,0,0,0-.14.57,1.25,1.25,0,0,0,.33.91,3.37,3.37,0,0,0,2.43.88h.05a3.17,3.17,0,0,0,2.2-.55,1.53,1.53,0,0,0,.59-1.06,1.1,1.1,0,0,0,0-.32h0a1.32,1.32,0,0,1,.75-.16,1.51,1.51,0,0,1,.6.16l.14.09h0a1.14,1.14,0,0,0-.07.32,1.52,1.52,0,0,0,.46,1.12,3.13,3.13,0,0,0,2.12.81h.05a3.4,3.4,0,0,0,2.52-.58,1.27,1.27,0,0,0,.44-.87,1.63,1.63,0,0,0-.08-.58Zm-10.59,1.76h0c-2.37-.17-2.57-1.14-2.55-1.55a1,1,0,0,1,1-1l3.3.2a.94.94,0,0,1,.88,1C244.89,67.27,244.3,68.2,242.38,68.09Zm6.84.41h0c-1.92-.13-2.39-1.12-2.37-1.69a1,1,0,0,1,1-.89l3.3.2a1,1,0,0,1,.83,1.14C251.91,67.67,251.59,68.62,249.22,68.5Z"/><path class="cls-14" d="M242.38,68.09h0c-2.37-.17-2.57-1.14-2.55-1.55a1,1,0,0,1,1-1l3.3.2a.94.94,0,0,1,.88,1C244.89,67.27,244.3,68.2,242.38,68.09Z"/><path class="cls-14" d="M244.64,66l-2.4,2.13h.14a5.14,5.14,0,0,0,.8,0l1.74-1.55A.94.94,0,0,0,244.64,66Zm-2.07-.34-2.2,2a3.13,3.13,0,0,0,1,.39l2.55-2.26Zm-1.27-.08-1.48,1.31a1.38,1.38,0,0,0,.12.29l1.78-1.57Z"/><path class="cls-14" d="M249.22,68.5h0c-1.92-.13-2.39-1.12-2.37-1.69a1,1,0,0,1,1-.89l3.3.2a1,1,0,0,1,.83,1.14C251.91,67.67,251.59,68.62,249.22,68.5Z"/><path class="cls-14" d="M251.71,66.45l-2.32,2.06a5.75,5.75,0,0,0,1-.05l1.56-1.38A1.09,1.09,0,0,0,251.71,66.45ZM248.45,66l-1.54,1.36a1.82,1.82,0,0,0,.15.27l1.8-1.6Zm1.27.08-2.22,2a2.81,2.81,0,0,0,1,.39l2.58-2.28Z"/><path class="cls-8" d="M239.18,65.88c0-.54-.72-1.17-.78-.21-.08,1.38.26,4.21.71,3.41C239.67,68.08,239.18,65.88,239.18,65.88Z"/><path class="cls-10" d="M238.78,66.37c.13.1.17.24.13.6s0,.58.11.65-.26,0-.24-.59C238.8,66.68,238.91,66.56,238.78,66.37Z"/><path class="cls-8" d="M252.6,66.69c.07-.54.85-1.08.79-.12-.08,1.38-.77,4.15-1.12,3.3C251.84,68.81,252.6,66.69,252.6,66.69Z"/><path class="cls-10" d="M252.93,67.23c-.15.07-.2.21-.2.57s0,.58-.19.63.26,0,.31-.55C252.88,67.53,252.78,67.4,252.93,67.23Z"/><path class="cls-15" d="M256.58,81a3.2,3.2,0,0,0-.94-.83,3.94,3.94,0,0,0,1.64-2.95c-5.83,3.62-3.63-6.39-3.33-8.16a23.06,23.06,0,0,0,.16-8c-.6-2.4-3.42-4.71-5.42-4.35a6.76,6.76,0,0,0-2.15-.46l-1.85,30.63,12.78.77C257.63,83.63,257.75,82.62,256.58,81Z"/><polygon class="cls-3" points="271.67 56.81 271.83 54.24 305.98 56.31 305.82 58.87 271.67 56.81 271.67 56.81"/><polygon class="cls-3" points="270.04 83.75 270.2 81.18 366.4 87 366.25 89.56 270.04 83.75 270.04 83.75"/><polygon class="cls-3" points="269.73 88.88 269.89 86.31 318.95 89.28 318.8 91.84 269.73 88.88 269.73 88.88"/><polygon class="cls-5" points="271.08 66.63 271.32 62.67 368.16 68.52 367.92 72.49 271.08 66.63 271.08 66.63"/><polygon class="cls-5" points="270.57 74.96 270.81 71 342.64 75.34 342.4 79.3 270.57 74.96 270.57 74.96"/><rect class="cls-6" x="265.54" y="75.6" width="1.39" height="49.9" transform="translate(149.81 360.24) rotate(-86.54)"/><rect class="cls-6" x="265.27" y="80.09" width="1.39" height="49.9" transform="translate(145.07 364.19) rotate(-86.54)"/><rect class="cls-6" x="259.01" y="90.21" width="1.39" height="37.91" transform="translate(135.07 361.82) rotate(-86.54)"/><rect class="cls-6" x="264.36" y="95.16" width="1.39" height="49.9" transform="translate(129.17 377.44) rotate(-86.54)"/><rect class="cls-6" x="264.09" y="99.65" width="1.39" height="49.9" transform="translate(124.44 381.39) rotate(-86.54)"/><rect class="cls-6" x="250.99" y="116.22" width="1.39" height="24.2" transform="translate(108.42 371.8) rotate(-86.54)"/><rect class="cls-28" x="263.12" y="115.66" width="1.39" height="49.9" transform="translate(107.55 395.47) rotate(-86.54)"/><rect class="cls-28" x="262.85" y="120.15" width="1.39" height="49.9" transform="translate(102.81 399.42) rotate(-86.54)"/><rect class="cls-28" x="253.6" y="133.09" width="1.39" height="31.91" transform="translate(90.18 393.89) rotate(-86.54)"/><rect class="cls-28" x="261.94" y="135.22" width="1.39" height="49.9" transform="translate(86.91 412.66) rotate(-86.54)"/><rect class="cls-28" x="261.67" y="139.71" width="1.39" height="49.9" transform="translate(82.18 416.62) rotate(-86.54)"/><rect class="cls-28" x="261.4" y="144.2" width="1.39" height="49.9" transform="translate(77.44 420.56) rotate(-86.54)"/><rect class="cls-28" x="242.45" y="166.27" width="1.39" height="12.48" transform="translate(56.27 404.8) rotate(-86.54)"/><rect class="cls-27" x="260.51" y="158.93" width="1.39" height="49.9" transform="translate(61.9 433.51) rotate(-86.54)"/><rect class="cls-27" x="260.24" y="163.42" width="1.39" height="49.9" transform="translate(57.16 437.46) rotate(-86.54)"/><rect class="cls-27" x="257" y="170.7" width="1.39" height="43.96" transform="translate(49.82 438.27) rotate(-86.54)"/><rect class="cls-27" x="259.32" y="178.49" width="1.39" height="49.9" transform="translate(41.26 450.71) rotate(-86.54)"/><rect class="cls-27" x="259.05" y="182.98" width="1.39" height="49.9" transform="translate(36.53 454.66) rotate(-86.54)"/><rect class="cls-27" x="244.67" y="200.75" width="1.39" height="21.63" transform="translate(19.39 443.73) rotate(-86.54)"/><rect class="cls-27" x="258.14" y="198.05" width="1.39" height="49.9" transform="translate(20.63 467.91) rotate(-86.54)"/><rect class="cls-27" x="257.87" y="202.54" width="1.39" height="49.9" transform="translate(15.89 471.86) rotate(-86.54)"/><rect class="cls-27" x="257.6" y="207.03" width="1.39" height="49.9" transform="translate(11.16 475.81) rotate(-86.54)"/><rect class="cls-27" x="247.23" y="221.03" width="1.39" height="29.66" transform="translate(-2.46 469.1) rotate(-86.54)"/><rect class="cls-5" x="334.91" y="99.43" width="1.39" height="49.9" transform="translate(191.21 451.87) rotate(-86.54)"/><rect class="cls-5" x="334.64" y="103.92" width="1.39" height="49.9" transform="translate(186.47 455.81) rotate(-86.54)"/><rect class="cls-5" x="328.38" y="114.04" width="1.39" height="37.91" transform="translate(176.46 453.44) rotate(-86.54)"/><rect class="cls-5" x="332.39" y="141.09" width="1.39" height="49.9" transform="translate(147.25 488.5) rotate(-86.54)"/><rect class="cls-5" x="332.12" y="145.58" width="1.39" height="49.9" transform="translate(142.52 492.45) rotate(-86.54)"/><rect class="cls-5" x="322.87" y="158.52" width="1.39" height="31.91" transform="translate(129.89 486.92) rotate(-86.54)"/><rect class="cls-5" x="331.27" y="159.68" width="1.39" height="49.9" transform="translate(127.64 504.84) rotate(-86.54)"/><rect class="cls-5" x="330.99" y="164.17" width="1.39" height="49.9" transform="translate(122.91 508.8) rotate(-86.54)"/><rect class="cls-5" x="330.72" y="168.66" width="1.39" height="49.9" transform="translate(118.17 512.74) rotate(-86.54)"/><rect class="cls-5" x="311.77" y="190.73" width="1.39" height="12.48" transform="translate(97.01 496.98) rotate(-86.54)"/><rect class="cls-5" x="329.87" y="182.75" width="1.39" height="49.9" transform="translate(103.29 525.14) rotate(-86.54)"/><rect class="cls-5" x="329.6" y="187.24" width="1.39" height="49.9" transform="translate(98.56 529.09) rotate(-86.54)"/><rect class="cls-5" x="326.36" y="194.52" width="1.39" height="43.96" transform="translate(91.21 529.9) rotate(-86.54)"/><rect class="cls-5" x="333.78" y="118.01" width="1.39" height="49.9" transform="translate(171.6 468.21) rotate(-86.54)"/><rect class="cls-5" x="333.51" y="122.5" width="1.39" height="49.9" transform="translate(166.86 472.16) rotate(-86.54)"/><rect class="cls-5" x="333.24" y="126.99" width="1.39" height="49.9" transform="translate(162.12 476.1) rotate(-86.54)"/><rect class="cls-5" x="322.87" y="140.99" width="1.39" height="29.66" transform="translate(148.5 469.39) rotate(-86.54)"/><path class="cls-7" d="M300.06,227.28l-1.41-1.6a.51.51,0,0,0-.72,0l-3.38,3a.52.52,0,0,0,0,.73l1.41,1.59a.51.51,0,0,0,.72,0l3.38-3A.51.51,0,0,0,300.06,227.28Zm-3.23,3.13-1.67-1.89,3-2.64,1.67,1.89Z"/><rect class="cls-7" x="319.57" y="211.68" width="0.96" height="31.27" transform="translate(73.85 533.06) rotate(-86.54)"/><rect class="cls-7" x="316.31" y="217.67" width="0.96" height="25.11" transform="translate(67.87 532.55) rotate(-86.54)"/><path class="cls-7" d="M297.27,237.51l-1.07-.06a.19.19,0,0,0-.13,0l-2.29,1.76,5.67.34-2.06-2A.31.31,0,0,0,297.27,237.51Zm2.42-1.56-2.2,1.47s0,0,0,0,0,0,0,0l2,1.94.21-3.45Zm-3.7,1.4v0l-2-1.73-.21,3.46,2.21-1.69S296,237.36,296,237.35Zm.25,0,1,.06a.2.2,0,0,0,.13,0l2.23-1.49-5.52-.34,2,1.76A.29.29,0,0,0,296.24,237.32Z"/><rect class="cls-7" x="318.95" y="221.89" width="0.96" height="31.27" transform="translate(63.06 542.05) rotate(-86.54)"/><rect class="cls-7" x="309.36" y="233.85" width="0.96" height="12.42" transform="translate(51.53 534.86) rotate(-86.54)"/><path class="cls-7" d="M294,246.07v0h0v0h0Zm0,0h0v0Zm0,.07v0h0Zm0-.18h0a0,0,0,0,0,0,0h0Zm0,.06h0l0,0h0s0,0,0,0Zm0,0h0Zm0-.05h0v0Zm0,.16Zm0,.23h0v0h0Zm.1-.09h0v0h0Zm-.34-.86s0-.05.06-.06v0h0v0a.08.08,0,0,1,0,0l0,.05s0,0,0,0a.62.62,0,0,0,0,.1h0a.66.66,0,0,0,.11-.19l.1-.17.11-.1.07-.06h0l.22-.2h0a1.07,1.07,0,0,0,.22-.15,1,1,0,0,1,.29-.16h0l.09,0h0a.36.36,0,0,0-.1.06h0l.23-.09h0s0,0,0,0h0a.12.12,0,0,1,.07,0,.1.1,0,0,0,.05,0h0s-.05,0-.11,0l.1,0,.3,0-.08,0a.55.55,0,0,0-.15.08h.15l.05,0h0l0,0h0s0,0,.07-.05a.05.05,0,0,1,0,0l0,0h0s0,0,0,0h0l.13-.08h-.06l-.07,0,.06,0,0,0h0a2.44,2.44,0,0,0-.7.23l.18-.08h0l0,0h0l.09,0,.12,0h0l-.12,0-.06,0a3.85,3.85,0,0,0-.44.19,2.18,2.18,0,0,0-.38.26,2.28,2.28,0,0,0-.34.31h0v0c-.06.06-.12.14-.17.2l-.1.13-.06.1s0,0,0,.07h0l0-.07h0Zm.28.83h0v0h0v0Zm0,.05h0Zm1.46-2.13.11,0h0l.06,0h.05l0,0,.18,0h0l-.17,0h-.05l-.2,0h0Zm1,0h0l.07,0h0s0,0,0,0h-.08s0,0,0,0Zm-.38,0a.1.1,0,0,0-.08.05h.5s0,0,0,0h-.4Zm-.38,0h0s0,0,.06,0h0l.11,0H296Zm-2,1.49h0v0a0,0,0,0,0,0,.05h0l0,0A.1.1,0,0,0,293.77,245.55Zm0,0h0v0h0s0,0,0,0Zm0,0h0Zm2.07,4.19h0a2,2,0,0,1-.66-.34h0v0s0,0-.07-.06a0,0,0,0,0,0,0s-.09-.13-.14-.16h.07a.3.3,0,0,0,0-.1l0-.09h0a.37.37,0,0,0,0-.14.2.2,0,0,1-.05-.15v0c0-.06.1-.07.14-.08h0c0-.05,0-.16,0-.59,0,0,0,0,0,0a.08.08,0,0,0,0,0,.08.08,0,0,1,0,0s0,0,0,0h0l0,0a.35.35,0,0,0,0-.13.36.36,0,0,0,0-.19s0,0-.05,0h0l0-.05,0,0c0-.06-.07-.06-.13,0h0l-.05,0s-.06,0-.1,0,0,0-.16-.13h0s0,0-.06,0a.58.58,0,0,1-.08-.18.52.52,0,0,0-.09-.2.45.45,0,0,0-.19,0,.08.08,0,0,0,0,0h0l0,0s0-.06-.07-.07,0,0,0-.07a.15.15,0,0,0,0-.08h0a0,0,0,0,1,0,0,.06.06,0,0,1,0,0h0v0h0l-.07,0,0,0-.06,0h0v0h0v0h0l0,.05v0l0,0s0,0,0,0h0s-.11.14-.11.14h0l0,.1s0,0,0,.06a.05.05,0,0,0,0,0h0s0,0,0,0h0s0,0,0-.42v0h0l0,0a.66.66,0,0,1,0-.15h0l.09-.23h0s0,0,0,0,0,.11-.08.21h0v.06l0,.16v0h0v.07h0s0,0,0,.13h0v.12a.28.28,0,0,0,0,.09h0s0,0,0,0h0v0s0,0,0-.05,0,0,0,.23a1.85,1.85,0,0,1,0,.23c0,.07,0,.14,0,.21s0,.11,0,.13a.75.75,0,0,0,.2.46,2.08,2.08,0,0,0,.18.27.41.41,0,0,0,.11.07l.09.07a1.91,1.91,0,0,1,.24.32c.06.08.11.17.19.26l.31.29a3,3,0,0,0,.95.51h0l.09,0Zm-2.14-3.81h0s0,0,0,0h0s.07,0,.1,0h.05a0,0,0,0,0,0,0h0a.07.07,0,0,0,0,0s0,0,0,0h0s0,0,0,0h-.07v0s0,0,0,0h0Zm.19,0h0s0,0,0,.05h0s0,0,0,0v0Zm-.26,0a.1.1,0,0,0,0,0h0s0,0,0,0h0a0,0,0,0,0,0,0s0,0,0,0h0s0,0,0,0h0v-.06h0s0,0,0,0h0a.21.21,0,0,0-.08.12h0s0,0,0,0l0,0h0s0,0,0,0h0s0,0,0,0h0s0,0,0,0h0Zm.35,0h0v0h0Zm4.1-.66v0h0Zm0,0h0l0,0h0Zm0,.07h0s.07.05.09,0h0Zm.26.15h0s0,0,0,0,0,0,0,0h-.05S298.37,245.41,298.38,245.42Zm0,3.15h0l-.06.06-.06.05c-.06,0-.09,0-.09,0s0,0-.07.05a.23.23,0,0,0-.07.07l0,0-.12.09-.16.14a.15.15,0,0,0,0,.06h0c.09,0,.5-.35.5-.36l0,0h0a1.22,1.22,0,0,0,.14-.2h0Zm-.23-3.35h0s0,0,0,0a0,0,0,0,0,0,0h0v0h0Zm-.07,3.48.06,0a1.65,1.65,0,0,0,.19-.25h0l0,0a.16.16,0,0,1,0-.07.25.25,0,0,1,0-.07.24.24,0,0,0,0-.08l0,0v0h0a2.56,2.56,0,0,0,.44-.59.7.7,0,0,0,.09-.42h0l0,0h0v0h0a3.78,3.78,0,0,1-.09-.47,2.53,2.53,0,0,0-.26-.83l0,0h0l.23.57a.86.86,0,0,1,0,.28.61.61,0,0,0,0,.29h0v0h0l0,0h0s0,0,0,0v0h0s0-.08,0-.26c0,0,0-.06,0-.09v0h0a1.47,1.47,0,0,1,0-.17h0a2.34,2.34,0,0,0-.13-.4l-.06-.15h0l-.13-.24a3.27,3.27,0,0,0-.26-.38,3.35,3.35,0,0,0-.33-.33,3.64,3.64,0,0,0-.38-.28,2.47,2.47,0,0,0-.43-.21h0l-.19-.07-.14,0h0c.05,0,.06,0,.07,0h0l0,0h0a.22.22,0,0,0,.13.09s0,0,0,0l.06,0h0l.06.07h-.06v0l0,0h0s0,0,0,0a0,0,0,0,0,0,0h0s0,0,0,0l0,0h0l0,0h0l-.05,0h0l0,0h0l0,0h0v0h0l-.05,0h-.06s0,0,0,0h0l0,0h0a.07.07,0,0,0,0,0h.09s0,0,0,0h0v0h0s0,0,0,0h0s0,0,0,0h0l0,0H297v0s0,0,0,0h0s0,0,.06.05a.12.12,0,0,1,.08.16l-.09,0-.12,0h-.05a.24.24,0,0,1,0,.15v0h0a.14.14,0,0,1,0,.09h0c.17.08.22.11.35,0h0s0,0,0,0l0,0h0a0,0,0,0,1,0,0l0,0s0,0,0-.05,0,0,0,0,.05,0,.07,0h.1s.31.19.33.3h-.1v0h0a.8.8,0,0,0,.12.08h0v0h0V245h0l0,0h0s-.09-.1-.16-.14a.46.46,0,0,1-.14-.14h0a.94.94,0,0,0,.12.09.4.4,0,0,1,.12.1.71.71,0,0,1,.1.14l.11.15h.06s0,0,0-.07h0L298,245H298l0,0s0,0,.06.09h0c.1.13.1.13.16.15h0l0,0s0,0,0,0h0s.07.1.08.14h0s0,0,0,.06a.14.14,0,0,1,0,.07h0l0,0-.05,0h0a0,0,0,0,0,0,0h0c-.24-.19-.29-.21-.32-.2s0,0,0,0,0,0,0,0,0,0,0,0a0,0,0,0,1,0,0h0l-.39-.25h0s0,0,0,0a0,0,0,0,0,0,0l0,0h0s0,0,0,0h0l0,0h0a.08.08,0,0,1-.07,0s-.06,0-.08,0a.34.34,0,0,0-.19,0l0,0H297l0,0,0,0h0l-.06.09h0a.19.19,0,0,0-.12.09.15.15,0,0,0,0,.06.11.11,0,0,1,0,0c0,.05-.1.07-.17.08h0v0a.25.25,0,0,0-.09.07v.07a.25.25,0,0,0-.13.12l0,.1h0a0,0,0,0,1,0,0,.37.37,0,0,1,0,.15.73.73,0,0,1-.09.22h0a.2.2,0,0,1,0,.11.2.2,0,0,0,0,.11h0l.13.29h0a.12.12,0,0,1,.08.1h0a.27.27,0,0,1,.08.07.16.16,0,0,0,.17.08.17.17,0,0,1,.22,0h0c.31-.07.31-.07.35,0a.08.08,0,0,1,0,.07.11.11,0,0,0,0,.07s0,0,.07,0a0,0,0,0,1,.06,0l0,.07-.08.24s0,0,0,0a.11.11,0,0,0,0,.06.35.35,0,0,0,0,.11.45.45,0,0,1,0,.11l0,.27a0,0,0,0,0,0,0s0,.06,0,.08h0a.35.35,0,0,1,0,.06h0s0,0-.06.06a.85.85,0,0,0-.18.24h0a.93.93,0,0,0,0,.19c0,.06,0,.09,0,.11a.13.13,0,0,1,0,.07.89.89,0,0,0-.11.19s0,0,0,0h0v0a.65.65,0,0,1-.17.19h0s0,0,0,0h0s.1,0,.34-.09l.06,0,.12-.06,0,0s.05-.05.09-.05l.09,0a.47.47,0,0,0,.1-.1l.08-.09a.61.61,0,0,1,.14-.07Zm.88-2.52h0v0s0,0,0,.06l0,0a.3.3,0,0,0,0-.1h0v0h0l-.06-.18A1.79,1.79,0,0,1,298.94,246.18Zm-1.84-1.74Zm.14-.1h0l0,0,.05,0Zm.14.06a.14.14,0,0,0-.09,0,0,0,0,0,0,0,0h0l0,0h0s0,0-.05-.05,0,0-.11-.09l.22.1h0a.08.08,0,0,0,0,0h0s0,0,.06.06h0Zm.71.43Zm0,0h0v0h0l0,0h0Zm0,.2s0,0,0,0h0Zm.23.07,0,0s0,0,0,0l-.06,0h-.1l0,0,0,0h0l0,0a.08.08,0,0,0,0,0h0l0,0v0h0l.05,0h0a.23.23,0,0,0,.07.07h0l.05,0,.06.06.1.11Zm-.87-.33h0l0,0s0,0,0,0h0a.06.06,0,0,1,0,0l0,.06h0v-.05s0,0,0,0h0a.09.09,0,0,0,0,0,0,0,0,0,0,0,0h0Zm.6.37h0l0,0h0l0,0h0Z"/><rect class="cls-7" x="318.45" y="230.24" width="0.96" height="31.27" transform="translate(54.26 549.38) rotate(-86.54)"/><rect class="cls-7" x="311.9" y="239.33" width="0.96" height="18.53" transform="translate(45.39 545.4) rotate(-86.54)"/><g class="cls-34"><path class="cls-5" d="M479.43,290.89l.74-3.09a6,6,0,0,1,2-2.85h0l13.62-11.59a.35.35,0,0,1,.5,0h0a.35.35,0,0,1,0,.5h0l-13.61,11.59a5.46,5.46,0,0,0-1.76,2.46h0l-.75,3.1a1.29,1.29,0,0,0,.36,1h0a1.3,1.3,0,0,0,1.06.53h0l3-.11a6.66,6.66,0,0,0,2.79-1.41h0L501,279.49a1.6,1.6,0,0,0,.54-1h0a1.16,1.16,0,0,0-.26-.92h0l-2.61-3.07a1.16,1.16,0,0,0-.87-.4h0a1.52,1.52,0,0,0-1,.38h0l-11.51,9.8a6,6,0,0,0-1.66,2.64h0l-.48,1.55a1.31,1.31,0,0,0,.36,1.06h0a1.32,1.32,0,0,0,1,.53h0l1.6-.22h0a6.08,6.08,0,0,0,2.88-1.22h0l10.83-9.22h0a.35.35,0,0,1,.5,0h0a.36.36,0,0,1,0,.51h0l-10.84,9.22a6.7,6.7,0,0,1-3.27,1.38h0l-1.6.22h0a2,2,0,0,1-1.61-.77h0a2,2,0,0,1-.51-1.72h0l.47-1.54a6.69,6.69,0,0,1,1.88-3h0L496.3,274a2.06,2.06,0,0,1,2.91.11h0l2.61,3.06a2.07,2.07,0,0,1-.36,2.89h0l-13.62,11.59a7.18,7.18,0,0,1-3.17,1.57h0l-3,.12a2,2,0,0,1-1.68-.78h0a1.93,1.93,0,0,1-.5-1.64Z"/></g><path class="cls-11" d="M479.15,290.27l.75-3.09a6.05,6.05,0,0,1,2-2.85h0l13.62-11.59a.35.35,0,0,1,.5,0h0a.35.35,0,0,1,0,.5h0l-13.62,11.59a5.64,5.64,0,0,0-1.76,2.47h0l-.74,3.09a1.28,1.28,0,0,0,.35,1h0a1.33,1.33,0,0,0,1.06.53h0l3-.11a6.72,6.72,0,0,0,2.78-1.4h0l13.62-11.59a1.51,1.51,0,0,0,.53-1h0A1.12,1.12,0,0,0,501,277h0l-2.61-3.07a1.19,1.19,0,0,0-.87-.4h0a1.5,1.5,0,0,0-1,.38h0L485,283.7a6,6,0,0,0-1.65,2.64h0l-.48,1.55a1.34,1.34,0,0,0,.36,1.07h0a1.32,1.32,0,0,0,1,.52h0l1.61-.22h0a6,6,0,0,0,2.87-1.22h0l10.84-9.22h0a.36.36,0,0,1,.5,0h0a.36.36,0,0,1,0,.51h0l-10.83,9.22a6.64,6.64,0,0,1-3.28,1.38h0l-1.6.22h0a2,2,0,0,1-1.62-.77h0a2,2,0,0,1-.5-1.71h0l.47-1.55a6.79,6.79,0,0,1,1.89-3h0l11.52-9.8a2.06,2.06,0,0,1,2.91.11h0l2.6,3.06a2.07,2.07,0,0,1-.36,2.89h0L487.57,291a7.21,7.21,0,0,1-3.18,1.57h0l-3,.12a2,2,0,0,1-1.68-.78h0a2,2,0,0,1-.51-1.64Z"/><g class="cls-34"><path class="cls-5" d="M493.14,255.24l3.12-.59a6.12,6.12,0,0,1,3.42.66h0l16.13,7.7a.36.36,0,0,1,.17.48h0a.36.36,0,0,1-.48.17h0L499.37,256a5.59,5.59,0,0,0-3-.6h0l-3.12.59a1.23,1.23,0,0,0-.79.74h0a1.27,1.27,0,0,0-.05,1.18h0v0l1.34,2.72a6.65,6.65,0,0,0,2.42,2h0l16.14,7.7a1.49,1.49,0,0,0,1.09.1h0a1.19,1.19,0,0,0,.74-.61h0l1.73-3.63a1.19,1.19,0,0,0,0-1h0a1.57,1.57,0,0,0-.76-.79h0l-13.65-6.51a6.11,6.11,0,0,0-3.09-.44h0l-1.61.21a1.28,1.28,0,0,0-.82.76h0a1.28,1.28,0,0,0-.07,1.12h0l.85,1.38h0a6,6,0,0,0,2.29,2.13h0l12.84,6.13h0a.38.38,0,0,1,.17.48h0a.37.37,0,0,1-.48.17h0l-12.84-6.13a6.69,6.69,0,0,1-2.6-2.43h0l-.85-1.37h0a2,2,0,0,1,.05-1.78h0a2,2,0,0,1,1.36-1.16h0l1.6-.2a6.69,6.69,0,0,1,3.52.49h0l13.65,6.52a2.06,2.06,0,0,1,1.08,2.7h0l-1.73,3.63a2.07,2.07,0,0,1-2.78.85h0l-16.14-7.7a7.3,7.3,0,0,1-2.73-2.26h0v0l-1.34-2.72a2,2,0,0,1,0-1.85h0a2,2,0,0,1,1.3-1.13Z"/></g><path class="cls-11" d="M492.86,254.62,496,254a6.09,6.09,0,0,1,3.41.66h0l16.14,7.7a.37.37,0,0,1,.17.48h0a.37.37,0,0,1-.48.17h0l-16.14-7.7a5.47,5.47,0,0,0-3-.6h0l-3.13.58a1.3,1.3,0,0,0-.79.74h0a1.3,1.3,0,0,0,0,1.18h0v0l1.35,2.72a6.57,6.57,0,0,0,2.42,2h0l16.13,7.7a1.5,1.5,0,0,0,1.09.1h0a1.17,1.17,0,0,0,.74-.61h0l1.74-3.63a1.19,1.19,0,0,0,0-1h0a1.59,1.59,0,0,0-.77-.79h0l-13.64-6.51a6.14,6.14,0,0,0-3.09-.44h0l-1.61.2a1.32,1.32,0,0,0-.83.76h0a1.32,1.32,0,0,0-.07,1.12h0l.86,1.38h0a6,6,0,0,0,2.28,2.12h0l12.84,6.13h0a.36.36,0,0,1,.17.48h0a.36.36,0,0,1-.48.17h0l-12.84-6.13a6.66,6.66,0,0,1-2.59-2.43h0l-.85-1.37h0a2,2,0,0,1,.05-1.79h0a2,2,0,0,1,1.36-1.16h0l1.6-.2a6.69,6.69,0,0,1,3.52.49h0l13.64,6.52a2.06,2.06,0,0,1,1.09,2.7h0l-1.73,3.63a2.08,2.08,0,0,1-2.79.85h0l-16.13-7.7a7.3,7.3,0,0,1-2.73-2.26h0v0l-1.34-2.72a2,2,0,0,1,0-1.85h0a1.94,1.94,0,0,1,1.29-1.13Z"/><g class="cls-34"><path class="cls-5" d="M97.41,263.35l-3-1.16a6,6,0,0,1-2.55-2.36h0l-9.63-15.06a.35.35,0,0,1,.11-.49h0a.36.36,0,0,1,.49.1h0l9.63,15.07a5.48,5.48,0,0,0,2.2,2.07h0l3,1.16a1.25,1.25,0,0,0,1.06-.21h0a1.29,1.29,0,0,0,.66-1h0v0l.3-3a6.63,6.63,0,0,0-1-2.95h0l-9.63-15.07a1.51,1.51,0,0,0-.88-.65h0a1.13,1.13,0,0,0-1,.12h0l-3.39,2.17a1.19,1.19,0,0,0-.52.81h0a1.57,1.57,0,0,0,.24,1.07h0l8.14,12.74a6,6,0,0,0,2.4,2h0l1.48.68a1.26,1.26,0,0,0,1.1-.21h0a1.3,1.3,0,0,0,.66-.91h0v-1.62h0a6,6,0,0,0-.82-3h0l-7.66-12h0a.35.35,0,0,1,.11-.49h0a.35.35,0,0,1,.49.11h0l7.67,12a6.64,6.64,0,0,1,.92,3.43h0v1.62h0a2,2,0,0,1-1,1.49h0a2,2,0,0,1-1.77.26h0l-1.46-.68a6.73,6.73,0,0,1-2.73-2.27h0l-8.15-12.74a2.07,2.07,0,0,1,.51-2.87h0l3.39-2.17a2.06,2.06,0,0,1,2.81.75h0l9.63,15.06a7.35,7.35,0,0,1,1.13,3.36h0v0l-.3,3a2,2,0,0,1-1,1.55h0a2,2,0,0,1-1.7.28Z"/></g><path class="cls-11" d="M96.94,262.87l-3-1.16a6,6,0,0,1-2.55-2.36h0l-9.63-15.06a.35.35,0,0,1,.11-.49h0a.35.35,0,0,1,.49.11h0L92,259a5.48,5.48,0,0,0,2.2,2.07h0l3,1.16a1.24,1.24,0,0,0,1.06-.21h0a1.33,1.33,0,0,0,.67-1h0v0l.3-3a6.51,6.51,0,0,0-1-3h0L88.57,240a1.49,1.49,0,0,0-.88-.66h0a1.17,1.17,0,0,0-1,.13h0l-3.39,2.16a1.14,1.14,0,0,0-.51.81h0a1.51,1.51,0,0,0,.23,1.07h0l8.15,12.74a6,6,0,0,0,2.39,2h0l1.47.68a1.33,1.33,0,0,0,1.1-.21h0a1.33,1.33,0,0,0,.66-.92h0v-1.62h0a6.12,6.12,0,0,0-.81-3h0l-7.67-12h0a.35.35,0,0,1,.11-.49h0a.35.35,0,0,1,.49.11h0l7.67,12a6.69,6.69,0,0,1,.92,3.43h0v1.62h0a2,2,0,0,1-1,1.49h0a2,2,0,0,1-1.77.27h0l-1.46-.67a6.84,6.84,0,0,1-2.73-2.28h0l-8.14-12.74A2.06,2.06,0,0,1,83,241h0l3.39-2.17a2.07,2.07,0,0,1,2.81.75h0l9.63,15.06A7.23,7.23,0,0,1,99.93,258h0v0l-.3,3a2,2,0,0,1-1,1.55h0a1.92,1.92,0,0,1-1.69.28Z"/><g class="cls-34"><path class="cls-5" d="M114.67,278.07l-.43-3.15a6.12,6.12,0,0,1,.83-3.38h0l8.52-15.72a.36.36,0,0,1,.49-.14h0a.36.36,0,0,1,.14.48h0l-8.52,15.72a5.52,5.52,0,0,0-.75,2.93h0l.42,3.15a1.28,1.28,0,0,0,.7.83h0a1.31,1.31,0,0,0,1.18.11h0l2.79-1.2a6.72,6.72,0,0,0,2.09-2.32h0l8.52-15.72a1.54,1.54,0,0,0,.15-1.08h0a1.16,1.16,0,0,0-.57-.77h0l-3.54-1.92a1.19,1.19,0,0,0-1-.06h0a1.55,1.55,0,0,0-.82.72h0l-7.21,13.3a6.19,6.19,0,0,0-.59,3.06h0l.12,1.62a1.33,1.33,0,0,0,.72.86h0a1.28,1.28,0,0,0,1.12.13h0l1.41-.78h0a6,6,0,0,0,2.24-2.17h0l6.78-12.51h0a.36.36,0,0,1,.49-.15h0a.37.37,0,0,1,.14.49h0l-6.78,12.51a6.64,6.64,0,0,1-2.55,2.47h0l-1.41.78h0a2,2,0,0,1-1.78-.14h0a2,2,0,0,1-1.09-1.41h0l-.12-1.61a6.74,6.74,0,0,1,.67-3.49h0l7.21-13.3a2.07,2.07,0,0,1,2.75-.95h0l3.54,1.92a2.06,2.06,0,0,1,.7,2.82h0l-8.51,15.73a7.24,7.24,0,0,1-2.4,2.61h0l-2.8,1.21a2,2,0,0,1-1.84-.12h0a1.94,1.94,0,0,1-1.06-1.35Z"/></g><path class="cls-11" d="M114.19,277.59l-.42-3.15a6,6,0,0,1,.83-3.38h0l8.51-15.72a.36.36,0,0,1,.49-.14h0a.36.36,0,0,1,.14.48h0l-8.52,15.72a5.52,5.52,0,0,0-.75,2.93h0l.42,3.16a1.27,1.27,0,0,0,.7.82h0a1.31,1.31,0,0,0,1.18.11h0l2.79-1.2a6.68,6.68,0,0,0,2.09-2.31h0l8.52-15.73a1.54,1.54,0,0,0,.15-1.08h0a1.18,1.18,0,0,0-.57-.77h0l-3.54-1.92a1.18,1.18,0,0,0-1-.05h0a1.5,1.5,0,0,0-.82.72h0l-7.2,13.29a6.11,6.11,0,0,0-.6,3.06h0l.12,1.62a1.33,1.33,0,0,0,.72.87h0a1.31,1.31,0,0,0,1.12.12h0l1.42-.78h0a6.08,6.08,0,0,0,2.25-2.17h0l6.77-12.51h0a.36.36,0,0,1,.49-.15h0a.36.36,0,0,1,.14.49h0l-6.77,12.51a6.74,6.74,0,0,1-2.56,2.47h0l-1.41.78h0a2,2,0,0,1-1.78-.14h0a2,2,0,0,1-1.09-1.41h0l-.12-1.61a6.75,6.75,0,0,1,.68-3.49h0l7.2-13.3a2.06,2.06,0,0,1,2.75-.94h0l3.54,1.91a2.07,2.07,0,0,1,.71,2.82h0l-8.52,15.73a7.24,7.24,0,0,1-2.4,2.61h0l-2.79,1.2a2,2,0,0,1-1.85-.12h0a2,2,0,0,1-1.06-1.35Z"/><g class="cls-34"><path class="cls-5" d="M99.11,294.18l2.71-1.68a6.14,6.14,0,0,1,3.42-.62h0l17.83,1.36a.37.37,0,0,1,.33.39h0a.37.37,0,0,1-.39.33h0l-17.82-1.36a5.5,5.5,0,0,0-3,.51h0l-2.7,1.67a1.26,1.26,0,0,0-.47,1h0a1.31,1.31,0,0,0,.38,1.13h0l2.23,2.05a6.78,6.78,0,0,0,3,1h0l17.83,1.36a1.56,1.56,0,0,0,1.05-.3h0a1.22,1.22,0,0,0,.47-.84h0l.3-4a1.17,1.17,0,0,0-.33-.9h0a1.54,1.54,0,0,0-1-.46h0l-15.08-1.15a5.92,5.92,0,0,0-3,.71h0l-1.43.77a1.33,1.33,0,0,0-.5,1h0a1.36,1.36,0,0,0,.34,1.07h0l1.3,1h0a6,6,0,0,0,2.9,1.16h0l14.19,1.09h0a.34.34,0,0,1,.32.38h0a.35.35,0,0,1-.38.33h0L107.39,300a6.59,6.59,0,0,1-3.3-1.33h0l-1.29-1h0a2,2,0,0,1-.6-1.69h0a2,2,0,0,1,.85-1.57h0l1.42-.77a6.64,6.64,0,0,1,3.46-.8h0L123,294.05a2.07,2.07,0,0,1,2,2.12h0l-.31,4a2.06,2.06,0,0,1-2.29,1.8h0l-17.83-1.36a7.33,7.33,0,0,1-3.36-1.12h0L99,297.43a2,2,0,0,1-.65-1.73h0a2,2,0,0,1,.8-1.52Z"/></g><path class="cls-11" d="M98.64,293.7l2.7-1.67a6.06,6.06,0,0,1,3.42-.62h0l17.83,1.36a.35.35,0,0,1,.33.38h0a.36.36,0,0,1-.38.33h0l-17.83-1.36a5.44,5.44,0,0,0-3,.51h0L99,294.3a1.28,1.28,0,0,0-.47,1h0a1.3,1.3,0,0,0,.38,1.12h0l2.23,2a6.65,6.65,0,0,0,3,1h0L122,300.79a1.54,1.54,0,0,0,1-.3h0a1.2,1.2,0,0,0,.47-.84h0l.3-4a1.13,1.13,0,0,0-.33-.9h0a1.54,1.54,0,0,0-1-.46h0l-15.07-1.15a6,6,0,0,0-3,.71h0l-1.43.77a1.33,1.33,0,0,0-.49,1h0a1.31,1.31,0,0,0,.33,1.07h0l1.3,1h0a6.09,6.09,0,0,0,2.9,1.17h0l14.19,1.08h0a.36.36,0,0,1,.33.38h0a.36.36,0,0,1-.39.33h0l-14.18-1.08a6.71,6.71,0,0,1-3.3-1.32h0l-1.29-1h0a2,2,0,0,1-.6-1.68h0a2,2,0,0,1,.85-1.57h0l1.42-.76a6.55,6.55,0,0,1,3.46-.81h0l15.08,1.15a2.07,2.07,0,0,1,2,2.12h0l-.31,4a2.06,2.06,0,0,1-2.29,1.8h0l-17.83-1.36a7.11,7.11,0,0,1-3.36-1.12h0L98.48,297a2,2,0,0,1-.64-1.73h0a1.92,1.92,0,0,1,.8-1.52Z"/><g class="cls-34"><path class="cls-5" d="M101.26,274.58l-2,2.46a6.15,6.15,0,0,1-3,1.69h0l-17.3,4.51a.35.35,0,0,1-.44-.25h0a.36.36,0,0,1,.26-.44h0L96,278a5.39,5.39,0,0,0,2.65-1.45h0l2-2.46a1.26,1.26,0,0,0,.12-1.07h0a1.3,1.3,0,0,0-.72-.94h0l-2.78-1.21a6.6,6.6,0,0,0-3.12.05h0l-17.3,4.51a1.54,1.54,0,0,0-.9.62h0a1.16,1.16,0,0,0-.17.95h0l1,3.89a1.19,1.19,0,0,0,.61.74h0a1.5,1.5,0,0,0,1.09.11h0L93.17,278a6.17,6.17,0,0,0,2.64-1.66h0l1.1-1.2a1.3,1.3,0,0,0,.15-1.11h0a1.35,1.35,0,0,0-.67-.91h0l-1.54-.5h0a6.09,6.09,0,0,0-3.12-.16h0L78,276h0a.35.35,0,0,1-.43-.25h0a.35.35,0,0,1,.25-.44h0l13.77-3.59a6.67,6.67,0,0,1,3.55.18h0l1.53.5h0a2,2,0,0,1,1.12,1.4h0a2,2,0,0,1-.29,1.76h0l-1.1,1.18a6.61,6.61,0,0,1-3,1.89h0l-14.64,3.82a2.07,2.07,0,0,1-2.57-1.37h0l-1-3.89a2.06,2.06,0,0,1,1.58-2.44h0L94,270.26a7.31,7.31,0,0,1,3.54,0h0l2.78,1.22a2,2,0,0,1,1.18,1.42h0a2,2,0,0,1-.27,1.71Z"/></g><path class="cls-11" d="M100.79,274.1l-2,2.46a6.12,6.12,0,0,1-3,1.7h0l-17.3,4.51a.37.37,0,0,1-.44-.26h0a.37.37,0,0,1,.26-.44h0l17.3-4.51a5.39,5.39,0,0,0,2.65-1.45h0l2-2.46a1.3,1.3,0,0,0,.13-1.07h0a1.31,1.31,0,0,0-.73-.94h0l-2.78-1.21a6.6,6.6,0,0,0-3.12.05h0L76.41,275a1.51,1.51,0,0,0-.9.63h0a1.13,1.13,0,0,0-.17.94h0l1,3.89a1.19,1.19,0,0,0,.62.75h0a1.46,1.46,0,0,0,1.08.1h0l14.64-3.81a6,6,0,0,0,2.64-1.66h0l1.11-1.19a1.37,1.37,0,0,0,.14-1.12h0a1.3,1.3,0,0,0-.67-.9h0l-1.54-.5h0a6.09,6.09,0,0,0-3.12-.16h0l-13.76,3.59h0a.35.35,0,0,1-.44-.25h0a.36.36,0,0,1,.26-.44h0l13.76-3.59a6.77,6.77,0,0,1,3.55.18h0l1.54.5h0a2,2,0,0,1,1.12,1.4h0a2,2,0,0,1-.29,1.76h0l-1.09,1.18a6.7,6.7,0,0,1-3,1.89h0L78.23,282a2.07,2.07,0,0,1-2.57-1.36h0l-1-3.9a2.06,2.06,0,0,1,1.58-2.44h0l17.3-4.51a7.31,7.31,0,0,1,3.54,0h0L99.87,271a2,2,0,0,1,1.18,1.43h0a2,2,0,0,1-.26,1.7Z"/><path class="cls-35" d="M52.93,97.15l-5.74,5.57A8,8,0,0,0,47,114l22.27,23a8,8,0,0,0,11.31.18l5.74-5.57a8,8,0,0,0,.18-11.31l-22.28-23A8,8,0,0,0,52.93,97.15Z"/><path class="cls-18" d="M82.74,129.63,77,135.2A8,8,0,0,1,65.69,135l-22.27-23a8,8,0,0,1,.17-11.3l5.74-5.57a8,8,0,0,1,11.31.17l22.27,23A8,8,0,0,1,82.74,129.63Z"/><path class="cls-36" d="M82.74,129.63,77,135.2A8,8,0,0,1,65.69,135L54.55,123.55l17.23-16.71,11.13,11.48A8,8,0,0,1,82.74,129.63Z"/><path class="cls-35" d="M320.61,127.9a.1.1,0,0,0-.1-.08.1.1,0,0,0-.08.1h0l-.81.12a.09.09,0,0,0-.1-.08.08.08,0,0,0-.08.1l-.81.11h0a.1.1,0,0,0-.1-.08.1.1,0,0,0-.08.11h0l-1.35.18-92.74,12.74-9.07,3.71-4.35,1.75,0,0,0,0,4.66.51,9.74,1.13,92.74-12.73,1.35-.19a.09.09,0,0,0,.18,0h0l.81-.11h0a.08.08,0,0,0,.1.07.08.08,0,0,0,.08-.1l.81-.11a.1.1,0,0,0,.1.08.09.09,0,0,0,.08-.1h0l1-.14a.17.17,0,0,0,.15-.2,1.77,1.77,0,0,0,1.57-2l-.47-3.42a1.77,1.77,0,0,0-2-1.46.18.18,0,0,0-.2-.16Z"/><path class="cls-2" d="M320.75,133.26a.18.18,0,0,0,.16-.21l-.94-6.83a.2.2,0,0,0-.21-.16l-4.5.62,1,7.2Z"/><path class="cls-37" d="M322.47,131.1l-.47-3.42a1.77,1.77,0,0,0-2-1.46l.94,6.83A1.76,1.76,0,0,0,322.47,131.1Z"/><path class="cls-38" d="M318.59,126.22a.1.1,0,0,1,.08-.1h0a.08.08,0,0,1,.1.08h0l1,7.2a.1.1,0,0,1-.08.1h0a.1.1,0,0,1-.1-.08h0l-1-7.2Z"/><path class="cls-38" d="M317.6,126.36a.09.09,0,0,1,.08-.1h0a.08.08,0,0,1,.1.08h0l1,7.19a.08.08,0,0,1-.08.1h0a.08.08,0,0,1-.1-.07h0l-1-7.2Z"/><path class="cls-38" d="M316.61,126.5a.11.11,0,0,1,.08-.11h0a.09.09,0,0,1,.1.08h0l1,7.2a.09.09,0,0,1-.07.1h0a.1.1,0,0,1-.11-.08h0l-1-7.19Z"/><path class="cls-4" d="M315.54,128.66,222.8,141.4a3.45,3.45,0,0,1,.44,3.23L316,131.9Z"/><path class="cls-39" d="M222.52,139.42a2,2,0,0,1,.28,2l92.74-12.74-.28-2Z"/><path class="cls-40" d="M316,131.9l-92.74,12.73a2,2,0,0,1,.27,2l92.74-12.73Z"/><path class="cls-41" d="M223.24,144.63a3.45,3.45,0,0,0-.44-3.23,2,2,0,0,0-.28-2l-9.07,3.71a2.94,2.94,0,0,1,.33,2.35l9.73,1.13A2,2,0,0,0,223.24,144.63Z"/><path class="cls-11" d="M209.11,145l4.67.51a2.94,2.94,0,0,0-.33-2.35l-4.35,1.75,0,.05Z"/><path class="cls-35" d="M436.47,249.66A54.24,54.24,0,1,0,415,323.3,54.23,54.23,0,0,0,436.47,249.66Z"/><path class="cls-39" d="M432.08,246.18a54.24,54.24,0,1,1-73.65-21.45A54.25,54.25,0,0,1,432.08,246.18Z"/><path class="cls-2" d="M409.83,318.39A52.6,52.6,0,1,1,430.64,247a52.66,52.66,0,0,1-20.81,71.42Z"/><path class="cls-35" d="M408.83,298.61a29.95,29.95,0,1,0-9.29,5.1l5.59,10.19a5.3,5.3,0,1,0,9.3-5.1Z"/><path class="cls-3" d="M410.75,257.89a29.91,29.91,0,1,1-40.62-11.84A29.92,29.92,0,0,1,410.75,257.89Z"/><path class="cls-3" d="M398.92,298.51a29.91,29.91,0,0,1-4.81,2.11l5.61,10.24a5.24,5.24,0,0,0,9.18-5l-5.61-10.23A30.79,30.79,0,0,1,398.92,298.51Z"/><path class="cls-42" d="M406.26,285.47a25.43,25.43,0,1,1-8.54-34.93,25.46,25.46,0,0,1,8.54,34.93Z"/><path class="cls-29" d="M367.9,262.19a25.46,25.46,0,0,1,32.28-9.94A25.43,25.43,0,1,0,371.33,294a26.83,26.83,0,0,0,2.65,1.39A25.46,25.46,0,0,1,367.9,262.19Z"/><path class="cls-35" d="M1.86,201.9l0,.06,1.81,4.24,3.73,8.88L63,288.4l.81,1.07a.08.08,0,0,0,0,.12.08.08,0,0,0,.12,0l.49.64a.08.08,0,0,0,0,.12.08.08,0,0,0,.12,0L65,291a.09.09,0,0,0,0,.13.09.09,0,0,0,.13,0l.59.79a.19.19,0,0,0,.25,0,1.75,1.75,0,0,0,2.43.4l2.7-2.05a1.75,1.75,0,0,0,.28-2.45.18.18,0,0,0,0-.25l-.59-.78a.09.09,0,0,0,0-.13.08.08,0,0,0-.12,0h0l-.49-.64a.09.09,0,1,0-.1-.14l-.49-.64a.08.08,0,0,0,0-.12.09.09,0,0,0-.13,0h0l-.81-1.07L13.07,210.77l-7.56-6-3.6-2.88Z"/><path class="cls-3" d="M63.87,290.51a.18.18,0,0,0,.25,0l5.41-4.1a.19.19,0,0,0,0-.25l-2.7-3.56L61.17,287Z"/><path class="cls-37" d="M66.55,290.94l2.7-2.05a1.74,1.74,0,0,0,.28-2.44l-5.41,4.1A1.74,1.74,0,0,0,66.55,290.94Z"/><path class="cls-38" d="M68.86,285.27a.08.08,0,0,1,.12,0h0a.08.08,0,0,1,0,.12h0l-5.69,4.32a.09.09,0,0,1-.13,0h0a.08.08,0,0,1,0-.12h0l5.69-4.32Z"/><path class="cls-38" d="M68.26,284.49a.09.09,0,0,1,.13,0h0a.08.08,0,0,1,0,.12h0L62.68,289a.08.08,0,0,1-.12,0h0a.08.08,0,0,1,0-.12h0l5.68-4.32Z"/><path class="cls-38" d="M67.67,283.71a.09.09,0,0,1,.13,0h0a.09.09,0,0,1,0,.13h0l-5.69,4.32a.09.09,0,0,1-.13,0h0a.11.11,0,0,1,0-.13h0l5.69-4.31Z"/><path class="cls-27" d="M65.3,283.83,9.66,210.51a3.39,3.39,0,0,1-2.56,1.94l55.64,73.32Z"/><path class="cls-43" d="M11.23,209.32a1.93,1.93,0,0,1-1.57,1.19L65.3,283.83l1.56-1.19Z"/><path class="cls-44" d="M62.74,285.77,7.1,212.45a1.93,1.93,0,0,1-1.56,1.19L61.17,287Z"/><path class="cls-41" d="M7.1,212.45a3.39,3.39,0,0,0,2.56-1.94,1.93,1.93,0,0,0,1.57-1.19l-7.56-6a2.91,2.91,0,0,1-1.86,1.42l3.73,8.88A1.93,1.93,0,0,0,7.1,212.45Z"/><path class="cls-11" d="M0,200.51l1.81,4.25a2.91,2.91,0,0,0,1.86-1.42l-3.6-2.88H0Z"/><path class="cls-12" d="M499.26,202.45a2,2,0,0,0-.1-2.78l-45.09-42.13a2,2,0,0,0-2.77.09l-41.94,44.88a2,2,0,0,0,.1,2.77l34.7,32.43,22.87-.78Z"/><path class="cls-4" d="M467,236.93l-9.39-8.77a3.31,3.31,0,0,0-4.68.14l-8.79,9.41Z"/><rect class="cls-4" x="470.26" y="157.26" width="2.36" height="52.91" transform="translate(15.38 402.85) rotate(-46.95)"/><rect class="cls-4" x="465.83" y="162.02" width="2.36" height="52.91" transform="translate(10.5 401.12) rotate(-46.95)"/><rect class="cls-4" x="454.29" y="169.85" width="2.36" height="33.5" transform="translate(8.21 392.1) rotate(-46.95)"/><rect class="cls-4" x="453.85" y="174.83" width="2.36" height="52.91" transform="translate(-2.67 396.44) rotate(-46.95)"/><rect class="cls-4" x="437.25" y="184.87" width="2.36" height="19.61" transform="translate(-3.11 382.2) rotate(-46.95)"/><rect class="cls-4" x="434.41" y="192.35" width="2.36" height="38.72" transform="translate(-16.46 385.53) rotate(-46.95)"/><path class="cls-35" d="M76.36,247.76a.18.18,0,0,0,.09-.24l-.37-.9h0a.09.09,0,1,0-.07-.17h0l-.3-.74h0a.09.09,0,0,0,0-.12s-.07-.06-.11-.05l-.31-.74a.09.09,0,0,0,0-.12.09.09,0,0,0-.12,0h0l-.51-1.24L39.69,158.3l-5.77-7.71-2.75-3.71h-.05l0,0,.66,4.56L33.09,161l35.06,85.1.51,1.24a.08.08,0,0,0,0,.11.09.09,0,0,0,.12.05l.3.74a.12.12,0,0,0,0,.12.09.09,0,0,0,.12.05l.31.74a.09.09,0,0,0,0,.12.1.1,0,0,0,.12.05h0l.37.91a.17.17,0,0,0,.23.09,1.76,1.76,0,0,0,2.25,1l3.14-1.29A1.76,1.76,0,0,0,76.36,247.76Z"/><path class="cls-3" d="M68.14,248.54a.17.17,0,0,0,.23.09l6.28-2.58a.18.18,0,0,0,.09-.24L73,241.69l-6.6,2.72Z"/><path class="cls-37" d="M70.62,249.64l3.14-1.29a1.76,1.76,0,0,0,.89-2.3l-6.28,2.58A1.76,1.76,0,0,0,70.62,249.64Z"/><path class="cls-38" d="M74.3,244.74a.09.09,0,0,1,.12,0h0a.09.09,0,0,1,0,.12h0l-6.6,2.72a.09.09,0,0,1-.12,0h0a.09.09,0,0,1,0-.12h0l6.6-2.72Z"/><path class="cls-38" d="M73.93,243.83s.1,0,.11,0h0a.09.09,0,0,1,0,.12h0l-6.61,2.72a.08.08,0,0,1-.11-.05h0a.1.1,0,0,1,0-.12h0l6.61-2.72Z"/><path class="cls-38" d="M73.55,242.93a.09.09,0,0,1,.12,0h0a.09.09,0,0,1,0,.12h0L67,245.81a.09.09,0,0,1-.12-.05h0a.08.08,0,0,1,0-.11h0l6.6-2.72Z"/><path class="cls-45" d="M71.23,242.44l-35.06-85.1a3.44,3.44,0,0,1-3,1.23l35.06,85.09Z"/><path class="cls-9" d="M38,156.59a1.91,1.91,0,0,1-1.81.75l35.06,85.1,1.81-.75Z"/><path class="cls-46" d="M68.26,243.66,33.2,158.57a2,2,0,0,1-1.82.74l35.06,85.1Z"/><path class="cls-41" d="M33.2,158.57a3.44,3.44,0,0,0,3-1.23,1.91,1.91,0,0,0,1.81-.75l-5.77-7.71a2.94,2.94,0,0,1-2.17.89l1.34,9.54A2,2,0,0,0,33.2,158.57Z"/><path class="cls-11" d="M29.38,145.21l.66,4.56a2.94,2.94,0,0,0,2.17-.89l-2.75-3.71h-.05Z"/><path class="cls-35" d="M443.54,178.91l-21.76-62.63a1.15,1.15,0,0,0-1.47-.72l-8.92,3.09a1.16,1.16,0,0,0-.71,1.48l21.75,62.63a2.69,2.69,0,0,0,3.41,1.65l6.05-2.1A2.68,2.68,0,0,0,443.54,178.91ZM420,115.66,418,109.73l-.06,0a38.67,38.67,0,1,0-8.27,2.85l2.05,5.94Zm-50.9-29.61a34,34,0,1,1,43.24,21A34,34,0,0,1,369.11,86.05Z"/><path class="cls-47" d="M410,105.84A34,34,0,1,1,431,62.6,34,34,0,0,1,410,105.84Z"/><path class="cls-18" d="M435.35,61.08a38.62,38.62,0,1,0-23.84,49.15A38.62,38.62,0,0,0,435.35,61.08ZM410,105.84A34,34,0,1,1,431,62.6,34,34,0,0,1,410,105.84Z"/><path class="cls-18" d="M430.07,181.58l-21.76-62.64a1.15,1.15,0,0,1,.72-1.47l8.91-3.09a1.16,1.16,0,0,1,1.48.72l21.75,62.63a2.67,2.67,0,0,1-1.65,3.4l-6,2.1A2.68,2.68,0,0,1,430.07,181.58Z"/><path class="cls-11" d="M417.65,114.48l-2.06-5.93a41,41,0,0,1-4.08,1.68,41.51,41.51,0,0,1-4.25,1.2l2.06,5.94Z"/><path class="cls-48" d="M397.32,42.73h0A31.53,31.53,0,0,0,367.62,76h0a2.1,2.1,0,0,0,4.2-.24,27.33,27.33,0,0,1,25.74-28.83,2.1,2.1,0,1,0-.24-4.19Z"/></g></g></svg>