<svg id="Layer_1" data-name="Layer 1" xmlns="http://www.w3.org/2000/svg" xmlns:xlink="http://www.w3.org/1999/xlink" viewBox="0 0 595.9 400"><defs><style>.cls-1{fill:url(#linear-gradient);}.cls-2{fill:#fff;}.cls-3{fill:#a4c8ff;}.cls-4{fill:#1f1440;}.cls-5{fill:#fdabac;}.cls-6{fill:#fd9193;}.cls-7{fill:#6da8ff;}.cls-8{fill:#bbaefd;}.cls-9{fill:#a292fd;}.cls-10{fill:#06f;}.cls-11{fill:#4992ff;}.cls-12{fill:#03cdfd;}.cls-13{fill:#0057db;}.cls-14{fill:#352364;}.cls-15{fill:#452b94;}.cls-16{fill:#d5d2fd;}.cls-17{fill:#2c2c75;}.cls-18{fill:#2e1c66;}.cls-19{fill:#231f3f;}.cls-20{fill:#5752e3;}.cls-21{fill:#0050c8;}.cls-22{fill:#fd2e57;}.cls-23{fill:#514b66;}.cls-24{fill:#7447fb;}.cls-25{fill:#8a6dfb;}.cls-26{fill:#6737bd;}</style><linearGradient id="linear-gradient" x1="-1235.94" y1="435.83" x2="-1536.68" y2="60.61" gradientTransform="matrix(-1, 0, 0, 1, -1080.83, 0)" gradientUnits="userSpaceOnUse"><stop offset="0" stop-color="#fff"/><stop offset="1" stop-color="#dbe9ff"/></linearGradient></defs><title>Icon</title><path class="cls-1" d="M491.33,387.42l10.95-21.48c27.8-54.59,61.6-101.62,58.64-165.78-2.73-59.1-29.23-116.61-78.45-151.1C425.87,9.38,338.85,2.62,282.8,47.37,259,66.36,243.24,94,221,114.67c-25.24,23.53-58.13,34.89-90.63,44.34-22.93,6.66-45.8,14.65-65.71,27.83C-7.62,234.71,16.52,316,34.72,385.74Z"/><polygon class="cls-2" points="297.36 124.67 361.68 107.54 398.88 186.74 325.18 212.4 297.36 124.67"/><rect class="cls-3" x="348.46" y="126.71" width="13.49" height="2.92" transform="matrix(0.96, -0.28, 0.28, 0.96, -21.7, 104.94)"/><rect class="cls-3" x="334.32" y="131.32" width="10.25" height="2.92" transform="translate(-23.63 100.69) rotate(-16.31)"/><rect class="cls-3" x="316.56" y="147.01" width="52.37" height="2.92" transform="translate(-29.12 113.36) rotate(-18.03)"/><rect class="cls-3" x="342.01" y="154.24" width="30.03" height="2.92" transform="translate(-30.66 118.14) rotate(-18.03)"/><rect class="cls-3" x="321.16" y="163.68" width="13.7" height="2.92" transform="translate(-35.01 109.62) rotate(-18.03)"/><rect class="cls-3" x="358.21" y="162.94" width="17.16" height="2.92" transform="translate(-32.87 121.59) rotate(-18.03)"/><rect class="cls-3" x="324.47" y="172.15" width="28.03" height="2.92" transform="translate(-37.11 113.28) rotate(-18.03)"/><path class="cls-3" d="M108,202.24s-3.84-9.92-2.83-16.5,2.73-8.58,6-9.55,5.72,4.06,5.07,7.64S113.76,193.35,108,202.24Z"/><path class="cls-3" d="M101.11,196.55S91.62,191.76,88,186.2s-3.72-8.2-2-11.11,7-.81,8.89,2.27S99.44,186.08,101.11,196.55Z"/><path class="cls-3" d="M115,212.56s-1.11-11.87,2-18.67,5.56-8.43,9.38-8.48,4.93,6.13,3.14,9.79S123.9,204.73,115,212.56Z"/><path class="cls-3" d="M120.74,215.7s3.71-11.33,9.25-16.34,8.45-5.52,12-4.05,2.09,7.59-1,10.24S132.07,212.08,120.74,215.7Z"/><path class="cls-3" d="M121.14,220.45s6.19-3.65,10.7-3.7,6,.88,7,2.95-2.08,4.26-4.54,4.22S127.7,223.33,121.14,220.45Z"/><path class="cls-3" d="M104.86,204.33s-7.38-7.66-13.78-9.52-8.93-1.14-11.18,1.4,1.27,6.9,4.79,7.82S94.36,205.83,104.86,204.33Z"/><path class="cls-3" d="M111.27,215s-10.3-6-17.77-6.08-10,1.49-11.64,4.92,3.48,7.06,7.55,7S100.39,219.82,111.27,215Z"/><path class="cls-3" d="M111.67,221.58s-11.84-1.42-18.71,1.5-8.57,5.34-8.73,9.15,6,5.09,9.71,3.39S103.61,230.32,111.67,221.58Z"/><path class="cls-3" d="M115.81,223.94s-5.92,4.09-7.86,8.15-1.75,5.83-.3,7.61,4.74-.09,5.75-2.33S115.65,231.11,115.81,223.94Z"/><path class="cls-3" d="M98.6,192.93c.52.82,1.29,2,2.28,3.5,1.4,2.11,3.23,4.83,5.38,8l.83,1.24.26.38.3.44c1.69,2.5,3.55,5.23,5.53,8.13l.43.63.24.35h0l.15.22,2.92,4.27.16.23v0l.27.39.31.45.06.1c10.35,15.11,22.85,33.21,32.64,47.25l.5.71c7.11,10.2,12.73,18.16,14.92,21.08l.76-.66c-2.14-2.86-7.57-10.55-14.48-20.45l-.51-.72c-9.82-14.09-22.5-32.44-33-47.73l-.22-.32L118,220l-.15-.22,0-.09-.38-.55-2.72-4-.65-1-5.72-8.41-.92-1.36c-2.87-4.24-5.18-7.69-6.7-10-.51-.78-.93-1.42-1.25-1.94S98.25,192.38,98.6,192.93Z"/><path class="cls-3" d="M102.36,203.67c1.29.87,2.83,1.22,4.13,2.06.55.35,1.11-.49.57-.84-1.31-.84-2.85-1.19-4.14-2.06a.51.51,0,0,0-.56.84Z"/><path class="cls-3" d="M107.76,199.54c-.14,2.16-.27,4.32-.41,6.48a.5.5,0,0,0,1,.06l.42-6.48a.51.51,0,0,0-1-.06Z"/><path class="cls-3" d="M114.67,210.86a7.63,7.63,0,0,1-1,4.06.5.5,0,0,0,.83.56,8.4,8.4,0,0,0,1.15-4.56c0-.64-1-.71-1-.06Z"/><path class="cls-3" d="M109,215.25a15.47,15.47,0,0,0,2.24.23c.45,0,1.92,0,2.11.26.41.5,1.16-.17.76-.67s-1.41-.48-2-.53a23.85,23.85,0,0,1-2.8-.24c-.63-.13-1,.82-.33.95Z"/><path class="cls-3" d="M122.15,213.78a27.3,27.3,0,0,0-2.89,2.8,34.92,34.92,0,0,1-2.18,2.94c-.47.45.19,1.21.66.76a17.73,17.73,0,0,0,2-2.61,19.71,19.71,0,0,1,3.13-3.13c.49-.43-.18-1.18-.67-.76Z"/><path class="cls-3" d="M109.85,222.77c1.39-.7,3.09-.72,4.54-1.08a17.92,17.92,0,0,1,3.26-.39c.68,0,.47-1.05-.18-1-2.56.27-5.74.38-8.07,1.56a.5.5,0,0,0,.45.9Z"/><path class="cls-3" d="M122.47,219.71c-1.68,0-3.37.11-5,0a.51.51,0,0,0-.06,1c1.68.09,3.36,0,5,0,.64,0,.71-1,.06-1Z"/><path class="cls-3" d="M115.41,225.72a6.93,6.93,0,0,1,1.14-2.85,9,9,0,0,1,1.74-2.33.51.51,0,0,0-.67-.76,10.27,10.27,0,0,0-2.05,2.79,7.36,7.36,0,0,0-1.16,3.09.5.5,0,0,0,1,.06Z"/><path class="cls-3" d="M95.58,268.57S88,267,84.44,263.73s-4.12-5.07-3.41-7.44,4.74-1.85,6.65,0S92.48,261.53,95.58,268.57Z"/><path class="cls-3" d="M89.4,270.47s-6.68,3.86-11.52,3.87-6.45-1-7.51-3.22,2.27-4.55,4.91-4.49S82.38,267.32,89.4,270.47Z"/><path class="cls-3" d="M104.61,268.44s-7.64-4-10.54-8.62-2.9-6.73-1.42-9.06,5.68-.56,7.19,2S103.42,259.9,104.61,268.44Z"/><path class="cls-3" d="M108.82,266.18s-5.41-6.76-6.24-12.11,0-7.32,2.3-8.88,5.43,1.75,5.81,4.69S111.12,257.86,108.82,266.18Z"/><path class="cls-3" d="M111.86,267.82s.25-5.21,2-8,2.92-3.3,4.58-3.09,1.76,3,.76,4.43S116.21,265,111.86,267.82Z"/><path class="cls-3" d="M95.61,271.29s-7.58,1.44-11.26,4.58-4.24,5-3.59,7.34,4.69,2,6.65.2S92.34,278.26,95.61,271.29Z"/><path class="cls-3" d="M104.64,271.65S96.89,275.5,93.88,280s-3.06,6.65-1.64,9,5.67.7,7.24-1.8S103.23,280.16,104.64,271.65Z"/><path class="cls-3" d="M108.79,274s-5.57,6.61-6.54,12-.16,7.32,2.09,8.93,5.47-1.62,5.92-4.54S110.88,282.38,108.79,274Z"/><path class="cls-3" d="M111.86,272.44s.13,5.22,1.82,8,2.84,3.38,4.5,3.21,1.83-2.92.87-4.42S116.15,275.39,111.86,272.44Z"/><path class="cls-3" d="M86.2,270.56h3c1.84,0,4.21,0,7-.08l1.08,0H98l7.13-.12h1.06l3.75-.08h1c7.3-.15,15.4-.33,23.28-.53,5.78-.14,11.44-.29,16.57-.44l1.2,0-.51-.72-1.19,0c-5.32.15-11.19.3-17.16.45-7.52.19-15.21.36-22.17.5h-1.46l-3.48.07-.84,0h0l-7.37.13-1.2,0c-3.7.05-6.72.08-8.74.09h0l-1.67,0C85.82,269.82,85.73,270.55,86.2,270.56Z"/><path class="cls-3" d="M94.21,272.55c1-.44,1.87-1.24,2.9-1.69a.37.37,0,0,0-.29-.68c-1,.46-1.85,1.26-2.89,1.69a.37.37,0,0,0,.28.68Z"/><path class="cls-3" d="M93.85,267.63l3.77,2.82a.36.36,0,0,0,.44-.58L94.29,267a.37.37,0,0,0-.44.59Z"/><path class="cls-3" d="M103.47,267.93a5.52,5.52,0,0,1,2.08,2.21c.17.44.85.15.67-.29a6.18,6.18,0,0,0-2.31-2.5c-.39-.26-.84.33-.44.58Z"/><path class="cls-3" d="M103.9,273.1a13.93,13.93,0,0,0,1-1.27c.19-.26.77-1.16,1-1.18.47,0,.36-.77-.1-.72s-.85.66-1.11,1a17.86,17.86,0,0,1-1.26,1.61c-.33.33.12.91.45.58Z"/><path class="cls-3" d="M108.22,264.56a19.75,19.75,0,0,0,.54,2.86,22.72,22.72,0,0,1,.92,2.5c.09.46.81.36.72-.11a12.45,12.45,0,0,0-.81-2.21,14.7,14.7,0,0,1-.65-3.15.36.36,0,0,0-.72.11Z"/><path class="cls-3" d="M108.78,275.59a15.28,15.28,0,0,1,1.15-3.18,12.81,12.81,0,0,1,1.06-2.13c.24-.43-.45-.71-.67-.29-.86,1.66-2.06,3.64-2.26,5.52a.36.36,0,0,0,.72.08Z"/><path class="cls-3" d="M111.94,266.72c-.68,1-1.27,2.09-2,3.07a.36.36,0,0,0,.58.44c.72-1,1.31-2.06,2-3.07.26-.39-.32-.83-.59-.44Z"/><path class="cls-3" d="M112.78,273.39a5,5,0,0,1-1.27-1.82,6.75,6.75,0,0,1-.73-2,.37.37,0,0,0-.73.1,7.74,7.74,0,0,0,.88,2.36,5.51,5.51,0,0,0,1.41,1.93c.38.27.82-.31.44-.59Z"/><path class="cls-3" d="M513.51,95s-.41-10.63-3.95-16.28-5.91-6.79-9.29-6.39-3.63,6-1.62,9S504.68,89.14,513.51,95Z"/><path class="cls-3" d="M517.55,87.06s6.82-8.17,8-14.73.17-9-2.61-11-6.72,2-7.25,5.61S514.93,76.78,517.55,87.06Z"/><path class="cls-3" d="M511.2,107.24S507.51,95.9,502,90.89s-8.45-5.53-12-4.07-2.1,7.58,1,10.24S499.88,103.6,511.2,107.24Z"/><path class="cls-3" d="M507.13,112.42s-7.89-8.93-15-11.33-10-1.71-12.6,1,1.1,7.79,5,9S495.3,113.59,507.13,112.42Z"/><path class="cls-3" d="M508.65,116.94s-7.13-.89-11.29.85-5.18,3.19-5.28,5.49,3.6,3.09,5.84,2.08S503.77,122.19,508.65,116.94Z"/><path class="cls-3" d="M517.2,95.69s3.74-10,8.87-14.21,7.75-4.59,10.83-3.15,1.56,6.84-1.3,9.08S527.44,92.89,517.2,95.69Z"/><path class="cls-3" d="M515.56,108s7.06-9.6,13.89-12.63,9.76-2.59,12.64-.1-.39,7.86-4.16,9.41S527.45,108.13,515.56,108Z"/><path class="cls-3" d="M517.79,114.23s10.3-6,17.77-6.06,10,1.51,11.64,4.94-3.49,7.06-7.56,7S528.66,119.05,517.79,114.23Z"/><path class="cls-3" d="M514.93,118s7.05,1.39,10.45,4.35,3.91,4.66,3.29,6.88-4.39,1.79-6.2.13S517.92,124.55,514.93,118Z"/><path class="cls-3" d="M518.43,82.74c-.15,1-.39,2.36-.71,4.12-.45,2.49-1,5.71-1.76,9.48q-.13.72-.27,1.47l-.09.45c0,.17-.07.35-.1.53-.56,3-1.19,6.2-1.85,9.65l-.15.75c0,.14,0,.28-.08.42h0c0,.09,0,.18,0,.26q-.48,2.47-1,5.07l-.06.28v0l-.09.46c0,.17-.07.35-.11.53a.5.5,0,0,1,0,.12c-3.51,18-7.8,39.55-11.22,56.32-.06.28-.12.57-.17.85-2.49,12.19-4.49,21.72-5.34,25.27l-1-.31c.83-3.47,2.77-12.68,5.18-24.52l.18-.85c3.43-16.83,7.79-38.7,11.34-56.89,0-.13.05-.26.07-.39s.08-.38.11-.57a2.38,2.38,0,0,0,.05-.26.36.36,0,0,0,0-.1c.05-.22.09-.44.13-.66.31-1.6.62-3.18.92-4.71.07-.38.14-.76.22-1.14.69-3.58,1.33-6.94,1.91-10,.11-.55.21-1.09.31-1.61.95-5,1.71-9.12,2.18-11.85.16-.92.29-1.68.38-2.27S518.53,82.09,518.43,82.74Z"/><path class="cls-3" d="M519.23,94.09c-.84,1.31-2.11,2.24-3,3.53a.51.51,0,0,1-.85-.55c.86-1.29,2.14-2.22,3-3.52a.5.5,0,0,1,.84.54Z"/><path class="cls-3" d="M512.64,92.44q1.47,2.9,3,5.78a.51.51,0,0,1-.9.46q-1.49-2.9-3-5.79a.5.5,0,0,1,.9-.45Z"/><path class="cls-3" d="M510.78,105.57a7.59,7.59,0,0,0,2.51,3.34c.55.34,0,1.19-.55.85a8.44,8.44,0,0,1-2.85-3.73c-.26-.59.64-1.06.89-.46Z"/><path class="cls-3" d="M517.7,107.37a15.91,15.91,0,0,1-2,1.1c-.4.21-1.75.78-1.83,1.07-.18.63-1.14.31-1-.31s1.09-1,1.6-1.27a25.66,25.66,0,0,0,2.48-1.33c.52-.37,1.2.37.68.74Z"/><path class="cls-3" d="M505.08,111.22a27.92,27.92,0,0,1,3.76,1.42,33.47,33.47,0,0,0,3.17,1.84c.61.22.3,1.18-.31,1a17.22,17.22,0,0,1-2.82-1.63,19.86,19.86,0,0,0-4.12-1.63.51.51,0,0,1,.32-1Z"/><path class="cls-3" d="M519.93,114.6c-1.55-.1-3.12.56-4.6.8a18.27,18.27,0,0,0-3.14.94c-.64.23-.85-.78-.23-1,2.46-.77,5.43-1.93,8-1.77a.51.51,0,0,1-.06,1Z"/><path class="cls-3" d="M507.14,116.79c1.53-.69,3.13-1.23,4.64-2,.58-.29,1,.61.46.89-1.51.75-3.11,1.3-4.65,2-.59.27-1-.63-.45-.9Z"/><path class="cls-3" d="M516,119.51a7,7,0,0,0-2.17-2.17,9.24,9.24,0,0,0-2.53-1.45.5.5,0,0,1,.31-1,10.6,10.6,0,0,1,3,1.74,7.76,7.76,0,0,1,2.29,2.38.51.51,0,0,1-.9.46Z"/><path class="cls-3" d="M551.2,151s6.28-4.48,8.3-8.87,1.78-6.28.19-8.17-5.09.17-6.12,2.6S551.25,143.29,551.2,151Z"/><path class="cls-3" d="M557.63,150.27s7.66.89,12.1-1,5.53-3.48,5.62-5.94-3.89-3.28-6.28-2.18S562.82,144.6,557.63,150.27Z"/><path class="cls-3" d="M542.86,154.44s5.41-6.74,6.25-12.1,0-7.32-2.29-8.88-5.43,1.74-5.81,4.68S540.57,146.12,542.86,154.44Z"/><path class="cls-3" d="M538.1,154s2.28-8.34.92-13.59-2.92-6.72-5.63-7.23-4.29,3.76-3.48,6.6S532.69,147.31,538.1,154Z"/><path class="cls-3" d="M536,156.75s-2.3-4.69-5-6.52-4-1.87-5.44-1-.44,3.41,1.07,4.37S530.83,155.87,536,156.75Z"/><path class="cls-3" d="M552.25,153.49s7.53-1.69,12.15-.27,5.86,2.88,6.21,5.32-3.52,3.67-6,2.82S558,158.59,552.25,153.49Z"/><path class="cls-3" d="M544.11,157.4s8.63.46,13.18,3.41,5.46,4.89,5.09,7.63-4.92,2.88-7.36,1.21S548.77,164.65,544.11,157.4Z"/><path class="cls-3" d="M541.24,161.21s7.73,3.87,10.73,8.38,3.06,6.66,1.63,9-5.66.68-7.23-1.82S542.63,169.73,541.24,161.21Z"/><path class="cls-3" d="M537.79,161s2,4.84,1.51,8.07-1.27,4.23-2.86,4.73-2.84-1.95-2.55-3.71S535,165.4,537.79,161Z"/><path class="cls-3" d="M560.6,149.08l-2.78,1.21c-1.69.72-3.88,1.64-6.46,2.71l-1,.41h0l-.3.13h0l-.36.15h0l-6.6,2.71-.51.21h0l-.28.12-.19.07-3.47,1.42h0l-.18.07h0l-.32.13-.36.15h0l-.09,0c-6.76,2.75-14.27,5.8-21.58,8.74l-15.38,6.17-1.12.44.18-.85,1.11-.44c4.94-2,10.39-4.16,15.93-6.39,7-2.82,14.11-5.7,20.55-8.33l.27-.11.39-.16.17-.07h0l.06,0h0l.45-.18h0l3.23-1.32.77-.32h0l6.82-2.81,1.1-.45c3.42-1.42,6.2-2.59,8.05-3.39h0l1.53-.67C560.66,148.26,561,148.89,560.6,149.08Z"/><path class="cls-3" d="M554,154.09c-1.13,0-2.2-.4-3.32-.41a.37.37,0,0,1,0-.73c1.12,0,2.2.42,3.32.4a.37.37,0,0,1,0,.74Z"/><path class="cls-3" d="M552.41,149.43l-2.34,4.09a.37.37,0,0,1-.63-.37l2.34-4.09a.37.37,0,0,1,.63.37Z"/><path class="cls-3" d="M543.7,153.52a5.61,5.61,0,0,0-1,2.85.37.37,0,0,1-.73,0,6.17,6.17,0,0,1,1.13-3.22c.26-.39.9,0,.63.36Z"/><path class="cls-3" d="M545.36,158.43a11.1,11.1,0,0,1-1.45-.76c-.28-.15-1.17-.75-1.38-.68-.45.14-.64-.56-.19-.71s1,.27,1.41.47a15.47,15.47,0,0,0,1.79,1c.43.17.26.88-.18.71Z"/><path class="cls-3" d="M538,152.3a18.86,18.86,0,0,1,.63,2.85,26.18,26.18,0,0,0,.15,2.66c.1.45-.6.65-.71.19a13.3,13.3,0,0,1-.13-2.36,14.14,14.14,0,0,0-.65-3.14.37.37,0,0,1,.71-.2Z"/><path class="cls-3" d="M541.87,162.66a15.53,15.53,0,0,0-2.32-2.47,12.09,12.09,0,0,0-1.82-1.53c-.39-.3.14-.83.5-.53,1.45,1.18,3.33,2.52,4.27,4.17a.36.36,0,0,1-.63.36Z"/><path class="cls-3" d="M535.45,155.77c1,.66,2,1.41,3,2a.37.37,0,0,1-.37.63c-1-.62-2-1.37-3-2-.39-.25,0-.88.37-.63Z"/><path class="cls-3" d="M537.32,162.22a5,5,0,0,0,.45-2.17,6.49,6.49,0,0,0-.12-2.11.37.37,0,0,1,.71-.19,7.51,7.51,0,0,1,.13,2.5,5.68,5.68,0,0,1-.53,2.34.37.37,0,0,1-.64-.37Z"/><path class="cls-2" d="M406.83,56.32A28.16,28.16,0,1,1,435,28.16,28.19,28.19,0,0,1,406.83,56.32Zm0-53.53a25.37,25.37,0,1,0,25.36,25.37A25.4,25.4,0,0,0,406.83,2.79Z"/><path class="cls-2" d="M28.16,292.31a28.16,28.16,0,1,1,28.16-28.16A28.19,28.19,0,0,1,28.16,292.31Zm0-53.53a25.37,25.37,0,1,0,25.37,25.37A25.4,25.4,0,0,0,28.16,238.78Z"/><path class="cls-2" d="M567.74,268.63a28.16,28.16,0,1,1,28.16-28.16A28.19,28.19,0,0,1,567.74,268.63Zm0-53.53a25.37,25.37,0,1,0,25.36,25.37A25.4,25.4,0,0,0,567.74,215.1Z"/><circle class="cls-2" cx="406.83" cy="28.16" r="14.84" transform="translate(285.95 417.63) rotate(-76.72)"/><path class="cls-2" d="M346.48,323.87a6.25,6.25,0,1,1,4.93-7.34A6.25,6.25,0,0,1,346.48,323.87Z"/><circle class="cls-2" cx="373.24" cy="304.68" r="6.25" transform="translate(-34.92 48.67) rotate(-7.13)"/><path class="cls-2" d="M371.12,258.6a3.11,3.11,0,1,1,2.45-3.65A3.1,3.1,0,0,1,371.12,258.6Z"/><path class="cls-2" d="M357.53,315.33a12.37,12.37,0,0,0-3.19-6.18,12.52,12.52,0,0,0-4.85-3.16,12.32,12.32,0,0,0-6.62-.51,12.49,12.49,0,1,0,14.66,9.85Zm-15.6,13.57a11.66,11.66,0,0,1,1.1-22.61,11.46,11.46,0,0,1,5.09.14,11.66,11.66,0,0,1-.59,22.75A11.47,11.47,0,0,1,341.93,328.9Z"/><path class="cls-2" d="M374.36,277.28a2.24,2.24,0,1,1,1.76-2.62A2.24,2.24,0,0,1,374.36,277.28Z"/><path class="cls-2" d="M382.52,273.4a8.76,8.76,0,1,0-6.9,10.28A8.71,8.71,0,0,0,382.52,273.4Zm-10.94,9.52a8.18,8.18,0,0,1,.78-15.86,8,8,0,0,1,3.56.1,8.16,8.16,0,0,1,4,2.37,8,8,0,0,1,2,4,8.18,8.18,0,0,1-10.37,9.41Z"/><circle class="cls-2" cx="339.42" cy="278.39" r="3.11" transform="translate(-98.55 248.64) rotate(-35.47)"/><path class="cls-2" d="M289.3,44.46A6.25,6.25,0,1,1,297,48.74,6.26,6.26,0,0,1,289.3,44.46Z"/><path class="cls-2" d="M272.62,121.23a2.67,2.67,0,1,1,3.3,1.83A2.67,2.67,0,0,1,272.62,121.23Z"/><path class="cls-2" d="M356.45,63.38a3.11,3.11,0,1,1,3.85,2.13A3.1,3.1,0,0,1,356.45,63.38Z"/><path class="cls-2" d="M298.77,54.73a12.51,12.51,0,0,0,8.61-8.82,12.25,12.25,0,0,0-.07-6.63,12.48,12.48,0,0,0-24.19.79,12.33,12.33,0,0,0,.19,6.11A12.52,12.52,0,0,0,298.77,54.73ZM283.9,40.36a11.66,11.66,0,0,1,22.62-.85,11.41,11.41,0,0,1,.3,5.08,11.72,11.72,0,0,1-2.87,6,11.56,11.56,0,0,1-5.41,3.37,11.68,11.68,0,0,1-14.44-8A11.55,11.55,0,0,1,283.9,40.36Z"/><path class="cls-2" d="M338.12,68.22a2.24,2.24,0,1,1,2.77,1.53A2.23,2.23,0,0,1,338.12,68.22Z"/><path class="cls-2" d="M342.69,76a8.76,8.76,0,0,0,4.13-2.61,8.88,8.88,0,0,0,1.91-3.58,8.65,8.65,0,0,0,0-4.65,8.79,8.79,0,0,0-5.52-5.84,8.74,8.74,0,0,0-11.45,6.39,8.57,8.57,0,0,0,.13,4.29A8.78,8.78,0,0,0,342.69,76ZM332.26,65.94a8.19,8.19,0,0,1,5.75-6.2,8.1,8.1,0,0,1,5.71.45,8.17,8.17,0,1,1-11.46,5.75Z"/><path class="cls-2" d="M336,35.93a3.11,3.11,0,1,1,.47-4.38A3.11,3.11,0,0,1,336,35.93Z"/><path class="cls-4" d="M231.06,397.54l24.25-.44,24.26-.42,48.5-.64,12.12-.19,12.13-.22q12.12-.21,24.25,0l12.13.25c4,.13,8.08.21,12.12.39,8.09.29,16.17.68,24.26,1.29V398c-8.09.62-16.17,1-24.26,1.3-4,.18-8.08.26-12.12.39l-12.13.25q-12.12.19-24.25,0l-12.13-.22-12.12-.19-48.5-.64-24.26-.42L231.06,398Z"/><path class="cls-5" d="M237.72,193.61l1.12-1.13a7.8,7.8,0,0,0,2.21-6.41l-.1-.85a1.91,1.91,0,0,1,0-.63l.68-3.13a2.38,2.38,0,0,0-.11-1.37l0-.05a.7.7,0,0,1,.59-1h0a.74.74,0,0,1,.58.21l.43.43a4.23,4.23,0,0,1,1.23,2.7l.12,1.87,4-1.56a2.47,2.47,0,0,1,2.18.19l.58.36a1,1,0,0,1,.47.74h0a.63.63,0,0,0,.27.49h0a1.49,1.49,0,0,1,.62,1.24v.65a1.36,1.36,0,0,0,.33.89,1.49,1.49,0,0,1,.41,1v0a2.24,2.24,0,0,1-.1.68l-.79,2.55a2.22,2.22,0,0,1-1.25,1.38c-1.89.81-5.94,2.5-5.94,2.5l-5.12,5.23Z"/><path class="cls-6" d="M246.85,183.37l-.6,1.47a1,1,0,0,0,.55,1.35h0a.82.82,0,0,1,.34,1.25h0a.57.57,0,0,0,.13.8l.84.59a1.51,1.51,0,0,1,.6.9l.37,1.55a6.31,6.31,0,0,0-4.56-1.45l-.64-1.71a2.53,2.53,0,0,1-.06-1.63l.65-2.21Z"/><polygon class="cls-2" points="318.49 286.54 314.19 289.26 318.49 289.26 316 321.62 309.44 323.43 316 323.65 313.06 358.96 308.54 360.09 307.18 372.76 298.58 377.51 308.54 377.29 306.05 385.89 258.16 385.46 177.93 384.74 176.4 348.67 185.65 347.59 176.57 347.59 175.05 330.1 181.43 328.84 174.07 328.84 172.28 307.39 180.56 304.88 171.71 304.88 169.36 281.54 256.03 280.64 319.63 279.98 318.49 286.54"/><polygon class="cls-3" points="318.49 286.54 314.19 289.26 318.49 289.26 316 321.62 309.44 323.43 316 323.65 313.06 358.96 308.54 360.09 307.18 372.76 298.58 377.51 308.54 377.29 306.05 385.89 258.16 385.46 256.03 280.64 319.63 279.98 318.49 286.54"/><polygon class="cls-7" points="171.71 304.88 212.17 304.88 172.28 307.39 171.71 304.88"/><polygon class="cls-7" points="174.07 328.84 205.2 328.14 175.05 330.1 174.07 328.84"/><polygon class="cls-7" points="176.57 347.59 201.2 346.87 176.4 348.67 176.57 347.59"/><path class="cls-7" d="M257.54,354.77c-2.91.43-33.7,3.71-33.7,3.71l36.68-1.86Z"/><path class="cls-7" d="M264.67,332.93s-32.53-1.31-31.88-1.31,25.55,5,25.55,5Z"/><polygon class="cls-7" points="262.05 307.39 242.18 310.45 263.58 312.19 262.05 307.39"/><polygon class="cls-7" points="185.01 379.16 214.57 379.16 191.94 382.29 185.01 379.16"/><polygon class="cls-7" points="204 337.86 237.07 337.86 213 342.75 204 337.86"/><polygon class="cls-7" points="181.68 289.31 223.84 289.31 204 294.21 181.68 289.31"/><polygon class="cls-7" points="257.09 332.63 274.25 330.1 257.09 336.64 257.09 332.63"/><polygon class="cls-7" points="257.54 354.77 277.33 350.96 257.54 356.77 257.54 354.77"/><polygon class="cls-7" points="256.59 308.23 273.3 306.14 256.59 311.62 256.59 308.23"/><path class="cls-7" d="M286.53,316.94c.49-.12,21.66-3.49,21.66-3.49l-8.06,6.14Z"/><path class="cls-7" d="M281.48,343.28c.48,0,28.51-4.09,28.51-4.09L303,344Z"/><polygon class="cls-7" points="313.35 355.58 276.67 364.94 313.03 359.56 313.35 355.58"/><polygon class="cls-3" points="504.82 270.5 501.49 272.6 504.82 272.6 502.89 297.66 497.81 299.06 502.89 299.23 500.61 326.57 497.11 327.45 496.05 337.26 489.4 340.94 497.11 340.76 495.18 347.42 458.1 347.09 395.98 346.54 394.79 318.61 401.95 317.77 394.92 317.77 393.75 304.22 398.68 303.25 392.99 303.25 391.6 286.64 398.01 284.7 391.16 284.7 389.34 266.62 456.45 265.93 505.69 265.42 504.82 270.5"/><polygon class="cls-3" points="504.82 270.5 501.49 272.6 504.82 272.6 502.89 297.66 497.81 299.06 502.89 299.23 500.61 326.57 497.11 327.45 496.05 337.26 489.4 340.94 497.11 340.76 495.18 347.42 458.1 347.09 456.45 265.93 505.69 265.42 504.82 270.5"/><polygon class="cls-7" points="391.16 284.7 422.49 284.7 391.6 286.64 391.16 284.7"/><polygon class="cls-7" points="392.99 303.25 417.09 302.71 393.75 304.22 392.99 303.25"/><polygon class="cls-7" points="394.92 317.77 414 317.21 394.79 318.61 394.92 317.77"/><path class="cls-8" d="M457.62,323.33c-2.26.33-26.09,2.87-26.09,2.87l28.4-1.44Z"/><path class="cls-8" d="M463.14,306.42s-25.19-1-24.68-1,19.78,3.89,19.78,3.89Z"/><polygon class="cls-8" points="461.11 286.64 445.73 289.01 462.29 290.36 461.11 286.64"/><polygon class="cls-7" points="401.46 342.21 424.34 342.21 406.83 344.64 401.46 342.21"/><polygon class="cls-7" points="416.16 310.23 441.77 310.23 423.13 314.02 416.16 310.23"/><polygon class="cls-7" points="398.88 272.64 431.53 272.64 416.16 276.43 398.88 272.64"/><polygon class="cls-7" points="457.27 306.18 470.56 304.22 457.27 309.29 457.27 306.18"/><polygon class="cls-7" points="457.62 323.33 472.94 320.38 457.62 324.88 457.62 323.33"/><polygon class="cls-9" points="456.89 287.29 469.82 285.67 456.89 289.92 456.89 287.29"/><path class="cls-7" d="M480.07,294c.37-.1,16.77-2.71,16.77-2.71l-6.24,4.75Z"/><path class="cls-7" d="M476.16,314.43c.37,0,22.07-3.16,22.07-3.16l-5.4,3.72Z"/><polygon class="cls-7" points="500.83 323.96 472.43 331.2 500.58 327.04 500.83 323.96"/><polygon class="cls-3" points="486.24 365.94 503.51 370.41 501.97 385.89 429.06 386.43 429.06 346.87 503.51 346.87 502.28 365.94 486.24 365.94"/><polygon class="cls-7" points="429.06 353.87 398.15 356.77 433.74 356.77 429.06 353.87"/><polygon class="cls-7" points="431.52 371.55 390.59 372.86 434.42 376.28 431.52 371.55"/><polygon class="cls-7" points="348.7 354.57 366.77 354.57 348.7 359.7 348.7 354.57"/><polygon class="cls-7" points="358.87 376.28 388.35 376.28 371.51 381.29 358.87 376.28"/><polygon class="cls-7" points="429.06 371.63 454.77 370.87 429.06 375.87 429.06 371.63"/><polygon class="cls-7" points="429.06 353.87 452.53 353.45 429.06 356.77 429.06 353.87"/><path class="cls-7" d="M456.58,361.56c.95,0,27.6-.44,27.6-.44l-9.66,5.53Z"/><polygon class="cls-7" points="503.51 370.41 484.87 378.37 502.72 378.37 503.51 370.41"/><path class="cls-2" d="M190.39,237.15s24.43-18.74,33.48-41.86L259,225.9s-15.24,31.87-43.77,39.37C215.23,265.27,196,254,190.39,237.15Z"/><path class="cls-2" d="M469.6,175.61s24.41-1.15,37.34-17.06l18.21,51.71s-16.92,12.83-38.37,6.47C486.78,216.73,470.23,198.22,469.6,175.61Z"/><path class="cls-3" d="M451.32,100.58s-11.71-5.82-16.4-13.4c0,0-17.2,4.4-28,.06,0,0,5.46,8.8,21.18,15.22A56.44,56.44,0,0,0,451.32,100.58Z"/><path class="cls-3" d="M236.74,170.43s14.88-4,24.94-1c0,0,11.73-17.33,24.69-22,0,0-11.7-3.49-30.58,3.14C255.79,150.59,244.08,158.06,236.74,170.43Z"/><path class="cls-3" d="M276.67,232.1s21.74,12.91,46.76,8.48a25.39,25.39,0,0,1,13.31-20.85s-23,2.69-44-6.59C292.76,213.14,288.42,228.07,276.67,232.1Z"/><path class="cls-10" d="M114.59,145a.72.72,0,0,1-.49-.66c0-.57,0-1.13,0-1.69a.71.71,0,0,1,.72-.71.72.72,0,0,1,.71.72c0,.55,0,1.1,0,1.64a.71.71,0,0,1-.7.73A.63.63,0,0,1,114.59,145Z"/><path class="cls-10" d="M114.73,140a.72.72,0,0,1-.49-.73c.09-1.12.22-2.25.39-3.38a.71.71,0,1,1,1.41.21c-.16,1.09-.28,2.2-.37,3.28a.72.72,0,0,1-.77.66Zm1-6.62a.71.71,0,0,1-.47-.83c.23-1.09.51-2.2.82-3.29a.71.71,0,1,1,1.37.39c-.3,1.06-.56,2.14-.79,3.2a.72.72,0,0,1-.85.55Zm1.82-6.44a.73.73,0,0,1-.45-.92c.37-1.06.78-2.12,1.22-3.16a.7.7,0,0,1,.93-.39.72.72,0,0,1,.39.94c-.43,1-.83,2-1.19,3.08A.72.72,0,0,1,117.53,126.92Zm2.58-6.18a.2.2,0,0,1-.08,0,.7.7,0,0,1-.33-1c.49-1,1-2,1.58-3a.71.71,0,0,1,1-.28.73.73,0,0,1,.27,1c-.54,1-1.06,1.94-1.54,2.93A.72.72,0,0,1,120.11,120.74Zm3.29-5.84-.16-.07a.71.71,0,0,1-.21-1c.6-1,1.25-1.89,1.91-2.8a.72.72,0,1,1,1.16.84c-.65.89-1.28,1.81-1.87,2.73A.72.72,0,0,1,123.4,114.9Zm3.94-5.42a1,1,0,0,1-.23-.12.72.72,0,0,1-.1-1c.72-.87,1.47-1.73,2.23-2.56a.71.71,0,1,1,1,1c-.74.81-1.48,1.65-2.17,2.5A.73.73,0,0,1,127.34,109.48Zm4.54-4.92a.84.84,0,0,1-.28-.18.7.7,0,0,1,0-1c.81-.79,1.66-1.56,2.52-2.28a.7.7,0,0,1,1,.08.71.71,0,0,1-.08,1c-.83.71-1.66,1.45-2.45,2.22A.73.73,0,0,1,131.88,104.56Zm36.77,12a5.71,5.71,0,0,1-.58-.21,15.51,15.51,0,0,1-1.8-.83.71.71,0,1,1,.68-1.25,14.4,14.4,0,0,0,1.64.75,12.36,12.36,0,0,0,1.3.43.7.7,0,0,1,.51.87.71.71,0,0,1-.87.51C169.23,116.71,168.94,116.62,168.65,116.52Zm4.15.7a.72.72,0,0,1-.49-.69.71.71,0,0,1,.72-.7,13.36,13.36,0,0,0,3.15-.37.72.72,0,0,1,.86.53.71.71,0,0,1-.53.86,14.11,14.11,0,0,1-3.49.4A.78.78,0,0,1,172.8,117.22Zm-9.13-3.63a.68.68,0,0,1-.26-.15,14,14,0,0,1-2.26-2.7.72.72,0,0,1,.21-1,.71.71,0,0,1,1,.22,12.78,12.78,0,0,0,2,2.42.71.71,0,0,1-.71,1.2Zm15.57,2a.64.64,0,0,1-.4-.34.7.7,0,0,1,.29-1,12,12,0,0,0,2.54-1.85.72.72,0,0,1,1,0,.7.7,0,0,1,0,1,13,13,0,0,1-2.86,2.08A.73.73,0,0,1,179.24,115.64ZM160.06,108a.75.75,0,0,1-.45-.44,17.68,17.68,0,0,1-.83-3.39.72.72,0,0,1,1.42-.2,15.71,15.71,0,0,0,.76,3.11.71.71,0,0,1-.44.91A.66.66,0,0,1,160.06,108ZM137,100.22a.69.69,0,0,1-.34-.25.71.71,0,0,1,.15-1c.91-.67,1.85-1.33,2.79-1.93a.71.71,0,1,1,.77,1.2c-.91.59-1.83,1.22-2.71,1.88A.69.69,0,0,1,137,100.22Zm47,10.84-.13-.07a.7.7,0,0,1-.26-1,12,12,0,0,0,1-2.22c.07-.23.14-.45.2-.68a.71.71,0,1,1,1.38.36c-.07.26-.14.52-.23.78a14.07,14.07,0,0,1-1.14,2.48A.73.73,0,0,1,184,111.06ZM142.62,96.59a.7.7,0,0,1-.39-.33.71.71,0,0,1,.28-1c1-.55,2-1.07,3-1.54a.71.71,0,0,1,1,.35.72.72,0,0,1-.35,1c-1,.45-2,1-2.94,1.49A.74.74,0,0,1,142.62,96.59Zm16.45,4.85a.72.72,0,0,1-.48-.7A22.33,22.33,0,0,1,159,97.3a.72.72,0,0,1,1.41.27,20.73,20.73,0,0,0-.35,3.21.72.72,0,0,1-.74.7ZM148.7,93.78a.73.73,0,0,1-.44-.42.71.71,0,0,1,.42-.92c1.06-.4,2.15-.77,3.23-1.08a.71.71,0,1,1,.39,1.37c-1,.31-2.09.66-3.12,1A.72.72,0,0,1,148.7,93.78Zm36.91,10.88a.7.7,0,0,1-.48-.62,9.57,9.57,0,0,0-.75-3,.72.72,0,1,1,1.32-.56,11,11,0,0,1,.85,3.46.71.71,0,0,1-.66.77A.68.68,0,0,1,185.61,104.66Zm-25.3-9.78a.73.73,0,0,1-.45-.92,22.49,22.49,0,0,1,1.41-3.16l.06-.09a.7.7,0,0,1-.05-.25.71.71,0,0,1,.68-.74c1.13,0,2.28,0,3.41,0a.71.71,0,0,1,.68.74.72.72,0,0,1-.75.69c-.89,0-1.79,0-2.69,0a.68.68,0,0,1-.08.36,19.62,19.62,0,0,0-1.32,3A.72.72,0,0,1,160.31,94.88Zm-5.18-3a.73.73,0,0,1-.48-.53.72.72,0,0,1,.56-.85c1.11-.23,2.24-.41,3.36-.55a.72.72,0,0,1,.17,1.42c-1.08.13-2.17.31-3.24.53A.66.66,0,0,1,155.13,91.92Zm28,6.64a.67.67,0,0,1-.34-.24A15.43,15.43,0,0,0,180.53,96a.71.71,0,0,1-.09-1,.7.7,0,0,1,1-.1,17.47,17.47,0,0,1,2.45,2.5.72.72,0,0,1-.79,1.12Zm-14.66-7.15a.73.73,0,0,1-.48-.77.72.72,0,0,1,.8-.62c1.12.14,2.25.33,3.36.57a.72.72,0,1,1-.3,1.4c-1.07-.23-2.16-.41-3.24-.55ZM178,94.27a.67.67,0,0,1-.12-.06A19.49,19.49,0,0,0,175,92.85a.71.71,0,1,1,.49-1.34A21.42,21.42,0,0,1,178.59,93a.72.72,0,0,1-.59,1.3ZM163.41,89a.65.65,0,0,1-.17-.08.71.71,0,0,1-.2-1c.63-1,1.3-1.88,2-2.76a.71.71,0,1,1,1.12.88c-.66.85-1.31,1.75-1.92,2.67A.7.7,0,0,1,163.41,89Zm4.11-5.27a1,1,0,0,1-.26-.15.71.71,0,0,1,0-1c.76-.84,1.56-1.65,2.39-2.42a.71.71,0,1,1,1,1c-.79.74-1.57,1.53-2.31,2.34A.71.71,0,0,1,167.52,83.69Zm4.88-4.58a.69.69,0,0,1-.33-.23.71.71,0,0,1,.11-1c.88-.7,1.8-1.38,2.74-2a.71.71,0,0,1,.8,1.18c-.9.62-1.8,1.27-2.65,2A.71.71,0,0,1,172.4,79.11Zm5.53-3.77a.68.68,0,0,1-.39-.32.71.71,0,0,1,.26-1c1-.56,2-1.1,3-1.59a.71.71,0,0,1,1,.33.72.72,0,0,1-.33.95c-1,.48-2,1-2.91,1.55A.72.72,0,0,1,177.93,75.34Zm6-2.92a.72.72,0,0,1-.43-.41.71.71,0,0,1,.39-.93c1-.42,2.11-.82,3.19-1.18a.72.72,0,0,1,.45,1.36c-1,.35-2.09.73-3.1,1.14A.72.72,0,0,1,183.94,72.42Zm6.35-2.12a.74.74,0,0,1-.47-.49.72.72,0,0,1,.51-.88c1.08-.29,2.18-.55,3.29-.78a.71.71,0,1,1,.29,1.4c-1.08.22-2.16.48-3.21.76A.71.71,0,0,1,190.29,70.3Zm6.54-1.37a.71.71,0,0,1,.12-1.38c1.1-.17,2.23-.31,3.36-.43a.71.71,0,1,1,.14,1.42c-1.1.11-2.21.26-3.28.42A.65.65,0,0,1,196.83,68.93Zm65.26,19.74a.64.64,0,0,1-.25-.15c-.82-.75-1.66-1.48-2.5-2.19a.71.71,0,1,1,.92-1.09c.85.72,1.71,1.46,2.54,2.22a.72.72,0,0,1,.05,1A.73.73,0,0,1,262.09,88.67Zm-58.6-20.42a.73.73,0,0,1-.49-.64.71.71,0,0,1,.68-.75c1.11-.07,2.25-.1,3.38-.11a.71.71,0,0,1,.72.7.73.73,0,0,1-.71.73c-1.11,0-2.22,0-3.31.1A.77.77,0,0,1,203.49,68.25ZM257,84.37a.56.56,0,0,1-.2-.11c-.87-.67-1.78-1.32-2.68-2a.72.72,0,0,1,.81-1.18c.93.65,1.85,1.32,2.74,2a.71.71,0,0,1-.67,1.24ZM210.18,68.18a.72.72,0,0,1-.48-.7.7.7,0,0,1,.74-.69c1.11,0,2.25.09,3.37.18a.71.71,0,1,1-.11,1.42c-1.1-.08-2.22-.14-3.31-.18A.76.76,0,0,1,210.18,68.18Zm41.27,12.37a.55.55,0,0,1-.15-.08c-.93-.58-1.89-1.16-2.85-1.7a.72.72,0,0,1-.26-1,.7.7,0,0,1,1-.26c1,.55,2,1.14,2.9,1.74a.71.71,0,0,1,.23,1A.72.72,0,0,1,251.45,80.55ZM216.87,68.67a.71.71,0,0,1,.31-1.38c1.11.13,2.23.28,3.35.45a.71.71,0,0,1-.22,1.41c-1.1-.17-2.21-.32-3.3-.44Zm28.76,8.56-.1,0c-1-.5-2-1-3-1.45a.7.7,0,0,1-.35-.94.71.71,0,0,1,.94-.36c1,.47,2.05,1,3.05,1.48a.71.71,0,0,1,.31,1A.73.73,0,0,1,245.63,77.23ZM223.5,69.7a.71.71,0,0,1-.48-.81.72.72,0,0,1,.84-.57c1.1.21,2.21.45,3.3.71a.71.71,0,1,1-.32,1.39c-1.07-.25-2.17-.49-3.25-.7Zm16,4.74,0,0c-.56-.22-1.13-.45-1.7-.66l-1.4-.52a.72.72,0,0,1,.48-1.35l1.43.53,1.73.68a.72.72,0,0,1-.5,1.34ZM230,71.22a.71.71,0,0,1,.42-1.36c1.08.3,2.18.62,3.24,1a.72.72,0,0,1-.43,1.37c-1.05-.33-2.12-.65-3.19-.94Z"/><path class="cls-10" d="M265.76,92.25a.59.59,0,0,1-.29-.18c-.38-.4-.76-.79-1.15-1.18a.71.71,0,1,1,1-1c.39.4.79.8,1.17,1.2a.7.7,0,0,1,0,1A.7.7,0,0,1,265.76,92.25Z"/><polygon class="cls-10" points="263.31 93.52 264.83 97.96 307.58 90.32 263.31 93.52"/><polygon class="cls-10" points="261.82 77.6 264.28 84.14 307.58 90.32 261.82 77.6"/><polygon class="cls-3" points="261.82 77.6 269.06 69.73 307.58 90.32 261.82 77.6"/><polygon class="cls-3" points="257.13 83.11 246.57 95.05 307.58 90.32 257.13 83.11"/><path class="cls-7" d="M524.33,339.56c-3.48.42-9.49-3.31-12.54-5.75-1.86-1.48-4.1-3.62-4.87-6s0-4.81-.36-7.22c-.46-2.81-3.3-13.94,3.17-12.5,2,.45,5.77,4.12,7.42,5.52a28.25,28.25,0,0,1,4.88,6.18C524.17,323.16,531.69,336.28,524.33,339.56Z"/><path class="cls-7" d="M531.49,354.16c.3-2.48-2.09-6.68-3.17-9.45-1.19-3.06-1.22-5.89-1.42-9.1-.45-7.21,2.83-14.15,11.45-13.82,6.93.26,12,9.86,12,15.9.05,5.71-.77,12.94-3.72,17.68-2.65,4.25-3.9,4.35-8.54,3.67C534.72,358.54,531.88,357.5,531.49,354.16Z"/><path class="cls-7" d="M542.37,322.66c0-5.19-.52-10.3.25-15.49.48-3.19,1-6.94,4.26-8.37,2.26-1,5.75-.8,7.64.66,3.22,2.47,4,8.85,3.89,12.62-.18,5.05-3.73,8.65-7.38,12-1.53,1.41-4.78,4.79-7.16,4S542.3,324,542.37,322.66Z"/><path class="cls-7" d="M552.4,299.46c-2.57-3.78-12.55-16.7-2.64-17.47,4.11-.33,8.41.64,11.23,3.71,2.15,2.36,5.17,7.61,2.53,10.55C561.51,298.48,553.49,301.9,552.4,299.46Z"/><path class="cls-11" d="M533.78,325c-1.42-2.88-15.77-16.52-4.94-16.9,4.21-.14,6.64,4.76,8.16,8.08C538.44,319.29,539.64,325,533.78,325Z"/><path class="cls-11" d="M557.55,315.21c2.43-1.79,6.59-4.83,9.74-4.3,4.66.77,3.82,6.34.79,8.61-2.74,2.05-8.49,3.09-11.39.92C552,316.93,558.24,314,557.55,315.21Z"/><path class="cls-3" d="M573.33,306.45a13.38,13.38,0,0,1-1.22,1.16c-1.37,1.21-3.12,3.38-2.55,4.76,1,2.48,5.18.2,6.62-.6,1.71-.95,5.34-3.59,4-6.09C579.07,303.54,574.74,304.87,573.33,306.45Z"/><path class="cls-7" d="M511.15,310.06a50.93,50.93,0,0,1-3.14-10.9c-.27-1.83-1.26-12.78,3.44-9.46,1.91,1.35,2.81,9.22,3.15,11.48s1.73,11.11-3.24,8.93C511,310.16,511.07,310.52,511.15,310.06Z"/><path class="cls-11" d="M547.53,284.28c-4.26-.59-15.54-4.59-11.62-11.46,2.13-3.73,7.79.22,9.68,2.36C546.8,276.53,554.25,285.8,547.53,284.28Z"/><path class="cls-7" d="M541.39,261.63c-1,4.62-1.38,12.25,3,12.42,3.4-3.67,4.57-11.33,4.58-16.41,0-8.9-6.22-6.49-6.88-.57C541.91,258.6,541.71,260.13,541.39,261.63Z"/><path class="cls-10" d="M547.43,264.45c2.14.06,10-.09,9.67-3.67C556.62,255.72,547.72,260.93,547.43,264.45Z"/><path class="cls-3" d="M575.52,305.9c.41-1.67,1.69-7.3-1.58-6.74-1.48.26-2.38,2.93-2.08,4.18C572.3,305.21,574.74,305.72,575.52,305.9Z"/><path class="cls-3" d="M529.48,308.34c-.66-2.4-2.28-8.85,2.07-6.52C536.38,304.41,532,308.09,529.48,308.34Z"/><path class="cls-10" d="M549.79,286.17c1.2,2.13,1.35,5.7,3.43,7.08,2.24,1.49,7.25.72,7.74-2.07C562,285.17,549.69,280.73,549.79,286.17Z"/><path class="cls-10" d="M539.83,273.34a3.91,3.91,0,0,0,.58,3.48c1.28,1.8,3.21,4.43,4.82,3.07,2.8-2.37-1.91-6.22-4.29-7.23a.75.75,0,0,0-1,.37A2.88,2.88,0,0,0,539.83,273.34Z"/><path class="cls-10" d="M544.35,258.1a29.54,29.54,0,0,0-.86,6.32c.1,3.54,2.24,4.54,3.59.7a17.2,17.2,0,0,0,.71-7C547.48,255.44,544.78,253.24,544.35,258.1Z"/><path class="cls-10" d="M546.73,321.54a4.26,4.26,0,0,0,1.67-2.28c1.1-4.47-1.88-9.52-.48-13.76,1.53-4.63,6-1.79,6.67,1.59.59,2.71-.18,6.33-1.14,8.87s-3.66,7.93-6.77,6.54C546.47,322.05,546.5,321.72,546.73,321.54Z"/><path class="cls-10" d="M534.32,344.6a19.39,19.39,0,0,1-3.43-9.74c-.28-3.72,3.37-9.37,7.73-8.52,3.76.73,6.79,7.09,7.72,10.31,1.23,4.26.12,9.55-1.14,13.75-1,3.22-2.78,3.4-5.72,1.6C537,350.48,535.67,346.56,534.32,344.6Z"/><path class="cls-10" d="M509.46,312.09a2.09,2.09,0,0,0,0,2.16c1.57,2.69.73,5.55,1.39,8.58.61,2.77,5.36,6.85,8.46,6,4.26-1.14-4.59-14.48-8.54-17.06a.91.91,0,0,0-1.27.29Z"/><path class="cls-2" d="M510.42,297.51a3.2,3.2,0,0,0,.42,1.75.56.56,0,0,0,1-.09c.52-1.63,0-3.43-.47-5.11a.71.71,0,0,0-1.4.1,4.36,4.36,0,0,0,.22,1.69A4.86,4.86,0,0,1,510.42,297.51Z"/><path class="cls-10" d="M528.09,311.46a2.94,2.94,0,0,0,.9,2.8c1.32,1.25,3.08,1.81,3-1C532,311.3,528.73,308.92,528.09,311.46Z"/><path class="cls-10" d="M564.4,316.25c0,.05,0,.1,0,.16a.74.74,0,0,0,.81.7c1.35-.16,2.77-1.44,2.33-2.88C567,312.47,564.59,313.53,564.4,316.25Z"/><path class="cls-2" d="M576.22,308.79c0,.07,0,.14-.05.21a.32.32,0,0,0,.48.34,3.35,3.35,0,0,0,1.33-1.73.74.74,0,0,0-.31-.93c-.87-.49-1.2-.06-1.22.7A7.41,7.41,0,0,1,576.22,308.79Z"/><path class="cls-12" d="M575.08,300.42a6.21,6.21,0,0,0,.52-1.34c.13-.54-.7-.77-.83-.23a5.05,5.05,0,0,1-.43,1.14c-.26.49.48.92.74.43Z"/><path class="cls-12" d="M572.43,302.56a2.25,2.25,0,0,1-1.14-.75c-.36-.42-1,.19-.61.61a3.1,3.1,0,0,0,1.53,1,.43.43,0,0,0,.22-.83Z"/><path class="cls-2" d="M575.64,312.42a3.2,3.2,0,0,0,1.55.44.43.43,0,0,0,0-.86,2.22,2.22,0,0,1-1.12-.33.43.43,0,0,0-.43.75Z"/><path class="cls-13" d="M543.93,250.87a6.28,6.28,0,0,0,.33,1.82c.23.5,1,.06.74-.44a6.14,6.14,0,0,1-.24-1.61.43.43,0,0,0-.53-.3.44.44,0,0,0-.3.53Z"/><path class="cls-13" d="M541.17,255.9c.39.2.76.44,1.15.67a.43.43,0,0,0,.43-.75c-.38-.22-.75-.46-1.15-.67s-.92.49-.43.75Z"/><path class="cls-13" d="M549.15,257.81a8.24,8.24,0,0,1,1.05-.58c.49-.25,0-1-.44-.74a11.92,11.92,0,0,0-1,.57c-.46.31,0,1.05.44.75Z"/><path class="cls-13" d="M539.74,268.12a2.25,2.25,0,0,0,1.07.34c.55.05.55-.81,0-.86a1.48,1.48,0,0,1-.64-.22c-.47-.3-.9.44-.43.74Z"/><path class="cls-13" d="M546.16,270.75a5.94,5.94,0,0,0,1.45-.3c.52-.17.3-1-.23-.83a4.68,4.68,0,0,1-1.22.27c-.55.05-.55.91,0,.86Z"/><path class="cls-13" d="M557,261.91a10.68,10.68,0,0,0,1.43-.73.44.44,0,0,0,0-.61.45.45,0,0,0-.61,0,9,9,0,0,1-1.25.6.43.43,0,0,0,.43.74Z"/><path class="cls-13" d="M537.54,279.69c-.52.3-1.08.51-1.62.77s-.07,1,.43.74,1.11-.47,1.63-.77a.43.43,0,0,0-.44-.74Z"/><path class="cls-13" d="M548.28,279.79a8.37,8.37,0,0,0,.83-1.42c.25-.49-.49-.93-.74-.43a7.67,7.67,0,0,1-.7,1.25.44.44,0,0,0,0,.6.43.43,0,0,0,.61,0Z"/><path class="cls-13" d="M560.21,285.33A3,3,0,0,0,561,284c.13-.54-.7-.77-.83-.23a2,2,0,0,1-.56,1c-.38.4.23,1,.61.61Z"/><path class="cls-13" d="M548.74,293.57a5.38,5.38,0,0,1-1.7-.17c-.53-.17-.76.66-.23.82a6,6,0,0,0,1.93.21.43.43,0,0,0,0-.86Z"/><path class="cls-13" d="M562,297.66a7.62,7.62,0,0,0,1.34.29c.54.1.77-.72.22-.83a7.71,7.71,0,0,1-1.33-.29c-.52-.2-.74.64-.23.83Z"/><path class="cls-13" d="M509.52,289.59a1.58,1.58,0,0,1-.36-.94.43.43,0,1,0-.85,0,2.49,2.49,0,0,0,.6,1.55c.39.38,1-.22.61-.61Z"/><path class="cls-13" d="M514.48,298.41a10.49,10.49,0,0,0,.86-.77.43.43,0,0,0-.61-.6c-.27.27-.56.51-.86.76s.19,1,.61.61Z"/><path class="cls-13" d="M509.24,302.8c-.55-.39-1.29-.15-2.1-.58-.49-.25-.93.49-.44.74.67.35,1.49.15,2.1.58.46.31.89-.43.44-.74Z"/><path class="cls-13" d="M530.34,302a3.24,3.24,0,0,1-.08-1,.43.43,0,0,0-.86,0,4.12,4.12,0,0,0,.12,1.26c.17.52,1,.3.82-.23Z"/><path class="cls-13" d="M532.51,307c.47,0,1,.29,1.43.29s.55-1.15,0-1.15h-1.43a.43.43,0,0,0,0,.86Z"/><path class="cls-13" d="M529.26,317.72a9.12,9.12,0,0,1-2.08-.27c-.54-.12-.77.71-.23.83a10,10,0,0,0,2.31.3.43.43,0,0,0,0-.86Z"/><path class="cls-13" d="M536.63,316.36c.35-.35.71-.69,1-1.05s-.23-1-.61-.61-.7.7-1.05,1.05a.43.43,0,0,0,.61.61Z"/><path class="cls-13" d="M508.19,323.22a3.53,3.53,0,0,0-1.36-.25c-.48,0-1.13.08-1.51-.25s-1,.25-.61.61c.91.77,2.05.19,3,.64.5.22.94-.52.44-.75Z"/><path class="cls-13" d="M523.08,322c.17-.47.29-1,.48-1.43a.43.43,0,0,0-.83-.23,12.67,12.67,0,0,0-.48,1.43c-.18.53.65.75.83.23Z"/><path class="cls-13" d="M564.71,311.87c.12-.38.28-.75.39-1.14s-.75-.51-.83-.23-.27.76-.38,1.15a.42.42,0,0,0,.82.22Z"/><path class="cls-13" d="M563.17,320.66c.43.58,1.05,1,1.43,1.63a.43.43,0,0,0,.74-.44c-.39-.62-1-1-1.43-1.62s-1.08,0-.74.43Z"/><path class="cls-13" d="M558.12,309.26a3.07,3.07,0,0,0,.92-.91.43.43,0,0,0-.74-.44,2.21,2.21,0,0,1-.61.61c-.45.32,0,1.07.43.74Z"/><path class="cls-13" d="M543.7,303.72c-.48-.42-1-.82-1.44-1.24s-1,.23-.6.61,1,.82,1.43,1.24,1-.24.61-.61Z"/><path class="cls-13" d="M549.72,334.38a11.9,11.9,0,0,0,1.52-1.12.44.44,0,0,0,0-.61.45.45,0,0,0-.61,0,9.87,9.87,0,0,1-1.35,1c-.48.27,0,1,.44.75Z"/><polygon class="cls-13" points="553.29 356.67 544.95 385.5 532.8 385.5 530.24 376.63 530.1 376.17 524.46 356.67 553.29 356.67"/><path class="cls-10" d="M553.29,356.67,545,385.5H532.8l-2.56-8.87c8.91-3.47,13.21-12.25,15.29-20Z"/><rect class="cls-4" x="524.46" y="355.34" width="28.83" height="2.65"/><path class="cls-4" d="M374.91,387l23.89-.45,23.88-.41,47.77-.64,11.95-.19,11.94-.22q11.94-.21,23.89,0l11.94.25c4,.13,8,.21,11.94.38,8,.3,15.92.69,23.89,1.3v.43c-8,.62-15.93,1-23.89,1.3-4,.17-8,.26-11.94.39l-11.94.25q-12,.19-23.89,0l-11.94-.22L470.45,389l-47.77-.65-23.88-.41-23.89-.45Z"/><path class="cls-5" d="M395,195.9a12,12,0,0,1,.94,2.54c.2.57.52,2.07.64,2.66-1.84.74-3.39,1.2-5.22,1.9a19.26,19.26,0,0,0-2.08-2.45c-.18-.2-.88-.79-.88-1.07,0-.11.29-.34.36-.44a6.93,6.93,0,0,0,.44-.7c.7-1.21,1.63-9.05,3.2-8.26C393.24,190.52,394.09,195.77,395,195.9Z"/><path class="cls-4" d="M490.24,166a15.28,15.28,0,0,1,.6,1.44c.18.47.34.94.49,1.42a26.13,26.13,0,0,1,.76,2.89,28.7,28.7,0,0,1,.65,5.92,22.46,22.46,0,0,1-2.93,11.41,23.32,23.32,0,0,1-3.56,4.68c-.34.35-.71.67-1.06,1l-.54.5-.57.45-1.14.91-1.21.81a42.32,42.32,0,0,1-10.42,4.88,41.93,41.93,0,0,0,10-5.42l1.13-.87,1.06-.94.52-.47.49-.51c.33-.34.67-.66,1-1a21.94,21.94,0,0,0,3.12-4.62,20.79,20.79,0,0,0,2.11-10.73,27.14,27.14,0,0,0-.92-5.44,26.49,26.49,0,0,0-.85-2.61c-.16-.43-.34-.86-.52-1.27a13,13,0,0,0-.58-1.18Z"/><path class="cls-4" d="M430.89,139.91a14.55,14.55,0,0,1,.77,7.54,19.66,19.66,0,0,1-2.56,6.91c-2.5,4.3-6.45,7.1-8.78,10.94a12,12,0,0,0-1.28,3c-.07.26-.09.54-.14.81a3.75,3.75,0,0,0-.09.82l0,.83c0,.27.06.55.08.83a10.63,10.63,0,0,0,2.79,6,19,19,0,0,0,5.54,4.07,28.35,28.35,0,0,0,6.56,2.35,29.39,29.39,0,0,1-6.71-2,19.48,19.48,0,0,1-5.87-3.92,11.42,11.42,0,0,1-3.3-6.33c0-.3-.1-.6-.12-.91l0-.92a4.73,4.73,0,0,1,0-.92c0-.3.06-.62.12-.92a13.45,13.45,0,0,1,1.26-3.45c2.37-4.29,6.19-7.3,8.2-11.26a17.51,17.51,0,0,0,2-6.25,12,12,0,0,0-.91-6.2,1.33,1.33,0,0,1,2.43-1.09.08.08,0,0,0,0,.05Z"/><path class="cls-4" d="M452.08,140.51c-2.06-1.91-4.75-2.95-6.67-5.18s-4-4.85-4.32-7.92c-.85-7.72,6.2-11.94,13.31-11.23s12.9,4.12,14.8,11.22c1.5,5.58,1.78,11.29,5.13,16.32,1.73,2.61,4.23,4.6,6.58,6.71.78.7,1.55,1.42,2.26,2.18a34.46,34.46,0,0,1,7.54,12.61,26.5,26.5,0,0,1,.82,3.55c1.8,8.78-3.26,17.38-9.84,22.95A14.59,14.59,0,0,1,465,193.24c-8.61-5.57-8.1-16.2-10.91-24.56-.49-1.55-1-3.06-1.42-4.47a17.23,17.23,0,0,1-.16-3.19c.27-5.74,3.35-11.17,1.6-17C453.59,142.32,452.61,141.49,452.08,140.51Z"/><path class="cls-4" d="M454.36,167.41,453,162.93l0-.1v-.08a18.38,18.38,0,0,1-.15-3.24,25.42,25.42,0,0,1,.39-3.17c.38-2.07.95-4.05,1.34-6a18.17,18.17,0,0,0,.41-5.8,11,11,0,0,0-.26-1.39,5.57,5.57,0,0,0-.41-1.29,7.61,7.61,0,0,0-.71-1.17,14.49,14.49,0,0,1-.92-1.36l.18.22c-1.72-1.63-4.17-2.7-6.13-4.68-.5-.51-.9-1-1.31-1.51s-.82-1-1.2-1.57a15.56,15.56,0,0,1-1.95-3.54,10.58,10.58,0,0,1-.51-2,9.1,9.1,0,0,1-.08-1,6.78,6.78,0,0,1,0-1,10,10,0,0,1,.83-4,8.72,8.72,0,0,1,2.5-3.29,11.19,11.19,0,0,1,3.57-1.94,18.08,18.08,0,0,1,7.89-.65,21.15,21.15,0,0,1,7.5,2.37A15.7,15.7,0,0,1,467.1,119c.23.24.47.47.69.72s.44.52.64.79l.55.83c.09.14.19.27.27.41l.24.44c.15.29.31.58.46.88l.4.9c.13.3.24.61.35.92s.22.62.32.93c.37,1.25.68,2.51.94,3.78.52,2.52.91,5.05,1.64,7.47a20.7,20.7,0,0,0,1.43,3.48c.13.29.32.54.47.81s.32.54.51.79l.56.76.59.74c3.23,3.91,7.49,7,10.61,11.13a26.19,26.19,0,0,1,3.7,6.79,18,18,0,0,1,1.09,7.63,15.3,15.3,0,0,1-2.72,7.17,30.76,30.76,0,0,1-5.15,5.72h0a13.17,13.17,0,0,0-2.08,3.24,11,11,0,0,0-.89,3.75,11.16,11.16,0,0,1,.84-3.77,13.53,13.53,0,0,1,2.05-3.29h0a30.37,30.37,0,0,0,5.05-5.75,15.11,15.11,0,0,0,2.59-7.09,17.77,17.77,0,0,0-1.17-7.46,25.87,25.87,0,0,0-3.73-6.62c-3.11-4-7.38-7-10.75-11l-.61-.75-.59-.78c-.2-.26-.36-.55-.54-.82a9,9,0,0,1-.52-.84,21.6,21.6,0,0,1-1.53-3.61c-.79-2.48-1.22-5-1.76-7.52-.27-1.25-.59-2.47-1-3.67a18.72,18.72,0,0,0-1.49-3.43l-.23-.4c-.08-.14-.17-.26-.26-.39l-.52-.76c-.19-.24-.39-.47-.59-.71s-.43-.43-.64-.65a14.7,14.7,0,0,0-3-2.12,19.82,19.82,0,0,0-7.1-2.14,16.67,16.67,0,0,0-7.31.69,9.69,9.69,0,0,0-3.13,1.74,7.53,7.53,0,0,0-2.07,2.8,8.61,8.61,0,0,0-.66,3.47,6.85,6.85,0,0,0,0,.9,8.41,8.41,0,0,0,.08.89,9.09,9.09,0,0,0,.46,1.7,14,14,0,0,0,1.79,3.16c.37.49.76,1,1.16,1.47s.82,1,1.23,1.37c1.67,1.69,4.08,2.71,6.15,4.56l.09.09.08.13a26.55,26.55,0,0,1,1.7,2.61,7.35,7.35,0,0,1,.56,1.61,14.78,14.78,0,0,1,.32,1.61,20,20,0,0,1-.35,6.38c-.39,2.06-.93,4-1.26,6a24.42,24.42,0,0,0-.32,2.91,16.39,16.39,0,0,0,.18,2.88l0-.18,1.46,4.48Z"/><path class="cls-14" d="M465.22,150a25.41,25.41,0,0,1,5.53,6.33,18.66,18.66,0,0,1,2.78,8,17,17,0,0,1-1.52,8.5A26.7,26.7,0,0,1,467.1,180a1.07,1.07,0,0,1-1.56-1.46l0,0a24.84,24.84,0,0,0,5-6.34,15.65,15.65,0,0,0,1.89-7.74,17.92,17.92,0,0,0-2.18-7.84A25.12,25.12,0,0,0,465.22,150Z"/><path class="cls-14" d="M477,155.45a25.39,25.39,0,0,1,3.38,4.2,24.77,24.77,0,0,1,1.36,2.35c.4.8.82,1.61,1.16,2.46a22.9,22.9,0,0,1,1.41,5.3,24.43,24.43,0,0,1,.11,5.54,24,24,0,0,1-1.21,5.45,22.24,22.24,0,0,1-2.53,5,20.7,20.7,0,0,1-3.85,4.25,20.46,20.46,0,0,1-4.94,3,1.6,1.6,0,1,1-1.26-2.94l.1,0h0a17.7,17.7,0,0,0,4.39-2.25,18.18,18.18,0,0,0,3.62-3.45,20.82,20.82,0,0,0,2.61-4.36,21.89,21.89,0,0,0,1.76-10.14,21.68,21.68,0,0,0-1-5.15c-.27-.84-.61-1.65-.95-2.48a26.5,26.5,0,0,0-1.16-2.4A25.36,25.36,0,0,0,477,155.45Z"/><path class="cls-4" d="M444.47,127c-6.79-2.17-17.87,3-16.92,11.21.67,5.81,5.55,11.51,3.58,17.5-1.32,4-5.47,6-7.72,9.47-2.57,3.93-2.57,8.25.55,11.89,4.56,6.08,11.14,2,15.05-1.31a14.33,14.33,0,0,1,2.07-1.17c3.86-1.73,7.83-5.17,9.1-9.33,1.49-4.89.49-9.22-.62-14C448.41,146.15,447.52,140.27,444.47,127Z"/><path class="cls-15" d="M415.19,260.47c.06.31.11.63.18.94s.15.61.25.9c1.65,5.24,7.13,7.94,12.49,8a15.55,15.55,0,0,0,4.84-.64c4.77-1.43,7.15-5.55,8.45-10.15h0a53,53,0,0,0,1.49-8.78l.06-.58a87.34,87.34,0,0,0,.38-9.13c0-1.08,0-2.15-.05-3.22,0-.15,0-.29,0-.44,0-.6,0-1.18,0-1.78,0-.2,0-.4,0-.6-.08-2.89-.17-5.78-.15-8.67,0-1.2,0-2.39.08-3.58a54.37,54.37,0,0,0-.16-6.66q0-.67-.12-1.35c-.26-2.91-.68-5.82-1.05-8.83-.74-5.9-.72-11.73-1.31-17.66-.13-1.27,2.94-2.12,3.82-12.6q.12-1.41.18-3.09c0-.15,0-.29,0-.46,0,0,0,0,0,0,0-1.29,0-2.7,0-4.23a4,4,0,0,1-.51.77,5.78,5.78,0,0,1-.61.6h0c-.06.06-.13.1-.2.16h0a8.07,8.07,0,0,1-1.24.82A19.89,19.89,0,0,1,437.2,172s-.68,2-1.77,4.9h0c-2.21,6-6.12,16.13-9.42,22.5a0,0,0,0,0,0,0c-.27.49-.52,1-.76,1.42l-.63,1.06v0c-1.11,1.81-2.09,3-2.86,3.22,0,.57,2.06,9.46,3.19,14.62.06.26.11.52.18.76v0c.33,1.56.56,2.64.56,2.83a26.06,26.06,0,0,1-.22,4.59q-.18,1.34-.48,2.64a0,0,0,0,0,0,0,33.91,33.91,0,0,1-4.83,11,36.49,36.49,0,0,0-2.51,4.33c-.15.29-.29.57-.42.87s-.15.32-.22.49-.17.38-.24.57A22,22,0,0,0,415.19,260.47Z"/><path class="cls-15" d="M444.52,166.61s-19.28,1.54-24.39,22.46-5.26,24.44-5.26,24.44-4.93-4-20.8-14.34l-7.38,4.57s12.2,23.15,30.25,25.27c0,0,8.62.74,12.18-15.56S444.52,166.61,444.52,166.61Z"/><path class="cls-16" d="M415.19,260.47c.06.31.11.63.18.94s.15.61.25.9c1.65,5.24,7.13,7.94,12.49,8a15.55,15.55,0,0,0,4.84-.64c4.77-1.43,7.15-5.55,8.45-10.15h0a53,53,0,0,0,1.49-8.78l.06-.58a87.34,87.34,0,0,0,.38-9.13c0-1.08,0-2.15-.05-3.22-.06-.16-.12-.3-.19-.45-.29-.72-.55-1.38-.77-1.94a16.16,16.16,0,0,1-.65-1.8c-.05-.56-3.14-7-4.85-10.48-.6-1.18-1-2-1.09-2.1s-1.88.07-3.29.34l-1,.2h-.05l-.92.2s.14.56.34,1.53a61.15,61.15,0,0,1,1.21,9.83h0c.23,5.69-.45,12.17-3.95,16.06-4.12,4.58-7.81,1.79-10.24-1.49-.12-.15-.22-.3-.33-.45s-.23-.32-.33-.49c-.08.17-.15.32-.22.49s-.17.38-.24.57A22,22,0,0,0,415.19,260.47Z"/><path class="cls-17" d="M417.45,248.79c2.17,2.66,5.17,4.93,8.68,3.26,3.91-1.87,5.73-6.65,6.45-10.62a38.7,38.7,0,0,0,.56-7.4A51.89,51.89,0,0,0,432,223.9c-.08-.46-.18-.91-.29-1.35l.83-.17c.45-.09.91-.17,1.37-.24a5.26,5.26,0,0,0,1.23-.16,2.27,2.27,0,0,0,.12.26,12.14,12.14,0,0,1,.78,1.26c.84,1.53,1.48,3.31,2.19,4.81.87,1.84,1.79,3.67,2.5,5.59.15.43.3.85.43,1.27.22.69.39,1.37.54,2.05a25.1,25.1,0,0,1,.5,3.43,44.93,44.93,0,0,1,.05,5.82c0,.65-.07,1.34-.11,2.06a58.53,58.53,0,0,1-.88,8h0c-.85,4.39-2.5,8.56-5.94,10.91a12.06,12.06,0,0,1-7,2h0c-5.29-.07-10.66-3.15-12-8.34A22.47,22.47,0,0,1,417.45,248.79Z"/><path class="cls-5" d="M442.47,173.67c1.6,4.48,8.68,1.4,10.72-.93,2.7-3.08,2.34-5.79,2.77-9.69.25-2.21.42-3.93.5-5.25.38-6.77-1.95-3.14-11.68-2.92a14.07,14.07,0,0,1,1,8.54,2.17,2.17,0,0,1-.07.33C445.07,166.34,441.57,171.15,442.47,173.67Z"/><path class="cls-18" d="M436.48,234.51S428.14,269,425.92,290.9a21.44,21.44,0,0,0,2.8,12.92l38.56,66.39,5.78-3.42S462.84,312.54,448,300.57l18.27-46Z"/><path class="cls-6" d="M445.73,163.42a10.57,10.57,0,0,0,10.73-5.62c.38-6.77-1.95-3.14-11.68-2.92A14.07,14.07,0,0,1,445.73,163.42Z"/><path class="cls-15" d="M436.85,234.53s3.26,16.38,4.93,70.68c0,0-.35,39.51-3.35,70,0,0,1.28,1.7,5.57,1,0,0,21.25-58.39,13.54-72.08,0,0,16.1-25,14-38.83s-28.39-31.6-28.39-31.6Z"/><path class="cls-5" d="M437.49,141.38c0,.64,0,1.32,0,2,0,7.68,5.67,17.83,14.25,14.9a11.76,11.76,0,0,0,2.09-.73A9.54,9.54,0,0,0,458.6,153a14.51,14.51,0,0,0,1.17-2.16,17.3,17.3,0,0,0,1.17-3.66,7.37,7.37,0,0,0-.22-4.25c-1.08-2.87-4.42-5.68-11.74-9.74-2-1.13-4.37-2.35-7.05-3.7-1.76,3.32-3.46,5.55-4.13,8.81A14.27,14.27,0,0,0,437.49,141.38Z"/><path class="cls-2" d="M455.46,167.1s-11.86,15.06-11.42.5c0,0-17.51,17.48-10.49,62.77a7.69,7.69,0,0,0,5,6.13A23.28,23.28,0,0,0,450,237Z"/><path class="cls-4" d="M441,377.1c1.22-5.23,2.32-10.48,3.35-15.74s2-10.55,2.8-15.85,1.57-10.62,2.11-15.95q.39-4,.6-8c.12-2.67.17-5.34.07-8,0-.66-.06-1.33-.12-2s-.11-1.33-.2-2l-.14-1c-.05-.32-.09-.67-.16-.95a4.13,4.13,0,0,0-.82-1.6,4.24,4.24,0,0,0-.64-.63l-.18-.14-.09-.06-.05,0a.75.75,0,0,1-.14-.12.73.73,0,0,1-.14-.72.72.72,0,0,1,.58-.47H452c.3,0,.82,0,.68,0a.1.1,0,0,0,0,0h0l0,0-1.41-1.43-.18-.18-.19-.2a2.34,2.34,0,0,1-.36-.51,2.6,2.6,0,0,1-.34-1.19,2.81,2.81,0,0,1,.22-1.22l.24-.49.22-.44c.16-.29.29-.6.43-.9s.29-.59.41-.9a55.31,55.31,0,0,0,2.68-7.5A60.86,60.86,0,0,0,456,281l.27-2c.09-.66.13-1.33.19-2,.14-1.33.18-2.66.25-4a74,74,0,0,0-1.27-16l.1,0c.29,1.31.57,2.63.84,3.94l.61,4,.18,2,.09,1c0,.34.07.67.08,1l.07,2,0,1c0,.34,0,.68,0,1a63.45,63.45,0,0,1-2.12,16,56.7,56.7,0,0,1-2.69,7.67c-.13.31-.27.62-.42.92s-.29.62-.45.92l-.23.45-.21.42a1.71,1.71,0,0,0-.14.74,1.74,1.74,0,0,0,.2.73,1.29,1.29,0,0,0,.22.3,2,2,0,0,0,.15.17l.18.18,1.4,1.45.05,0,.07.09a1.07,1.07,0,0,1,.13.21,1,1,0,0,1,.1.48,1.09,1.09,0,0,1-.44.84,1,1,0,0,1-.45.18l-.12,0H448a.25.25,0,0,0,.16-.42l0,0,.06,0,.11.08a1.84,1.84,0,0,1,.22.17,5.24,5.24,0,0,1,.77.79,5,5,0,0,1,1,2,8.32,8.32,0,0,1,.17,1l.13,1c.09.67.12,1.35.18,2s.06,1.35.09,2c.08,2.7,0,5.4-.14,8.08s-.4,5.37-.69,8c-.59,5.35-1.36,10.67-2.26,16s-1.92,10.57-3,15.83-2.27,10.49-3.55,15.71Z"/><path class="cls-15" d="M443.64,249.42c.31,4.2,2.53,8.25,4.42,11.87,3.68,7,9.62,11.75,17.76,11.79,4.43,0,9.07-.15,12.27-3.69,2.71-3,4.14-7.67,4.54-11.64a41.78,41.78,0,0,0-3.54-20.19c-.57-1.32-1.19-2.64-1.8-3.95a76.14,76.14,0,0,1-3-7.05c-.29-.85-.55-1.72-.77-2.6-.66-2.67-1.08-5.41-1.79-8.05-2-7.42-1.88-30.69-2.25-38.3-.09-2-.4-5-13.43-10.86-1.7-.77-8.17,17.59-8.83,19.41A35.53,35.53,0,0,0,445,198.23c0,7.36-.37,14.72.31,22,.61,6.62.8,12.88-.42,19.39C444.31,242.76,443.4,246.27,443.64,249.42Z"/><path class="cls-18" d="M456.5,227.2c6.56,9.13,16.51,7.6,20.79,6.41a76.14,76.14,0,0,1-3-7.05c-.29-.85-.55-1.72-.77-2.6C464.84,219.85,450.91,219.42,456.5,227.2Z"/><path class="cls-6" d="M437.8,138.32c1.1-2.41,2.46-3.46,3.92.07,2.86,6.94,14.11,11.17,18,12.47a17.3,17.3,0,0,0,1.17-3.66,7.37,7.37,0,0,0-.22-4.25l-8.22-4.07L449,133.21c-2-1.13-4.37-2.35-7.05-3.7C440.17,132.83,438.47,135.06,437.8,138.32Z"/><path class="cls-4" d="M464.34,160.17c2.52-4.4-1.49-11.34-5.24-14a56.74,56.74,0,0,0-5.9-3.06,36,36,0,0,1-6-3.87c-3.93-3.25-9.27-11.13-4.37-15.8,4.46-4.25,12.59,2,15.89,5.11a29.59,29.59,0,0,1,7.15,9.91C467.55,142.4,466.9,146,464.34,160.17Z"/><path class="cls-2" d="M459.51,152.31c-3,7.91-15.47,9.68-19.42,1.55-.27-.55.55-1,.82-.48,3.54,7.28,15,5.88,17.69-1.32.21-.57,1.13-.32.91.25Z"/><path class="cls-2" d="M433.75,213.3l.89-14.25s21.77-5.43,33.72-3.1c0,0-5.22,27.78-.61,45.24,0,0-24.93.41-29.49-3.13C438.26,238.06,434.19,220.48,433.75,213.3Z"/><path class="cls-16" d="M433.75,213.3l.89-14.25s21.77-5.43,33.72-3.1c0,0-5.22,27.78-.61,45.24,0,0-24.93.41-29.49-3.13C438.26,238.06,434.19,220.48,433.75,213.3Z"/><path class="cls-2" d="M436.24,215.52l.89-14.25s21.77-5.44,33.72-3.1c0,0-5.22,27.77-.61,45.23,0,0-24.92.41-29.48-3.12C440.76,240.28,436.68,222.69,436.24,215.52Z"/><path class="cls-5" d="M431.86,223.85c2.11.74,5.46-.53,7-2.09.17-.17.33-.33.46-.49,1.92-2.27-.1-3.4-3-6.45-2.41.62-3.34-3.74-3.92-3.52l-.28,0C426.65,212.37,427,222.14,431.86,223.85Z"/><path class="cls-6" d="M431.86,223.85c2.11.74,5.46-.53,7-2.09.17-.17.33-.33.46-.49a2.28,2.28,0,0,0-.55-1.37s-8.65-2.76-6.68-8.56C426.65,212.37,427,222.14,431.86,223.85Z"/><path class="cls-5" d="M437.2,216.22A10.56,10.56,0,0,1,436,214a12.65,12.65,0,0,1-.5-2.4c-.28-1.37-1.15-.82-1.38.24a15.53,15.53,0,0,0-.27,2.25C433.78,214.69,434,216.34,437.2,216.22Z"/><path class="cls-15" d="M455.46,168.21c3.06,2.07,7,2.38,10.35,3.44,4.37,1.36,6.64,6.2,7.78,10.3,2.17,7.79,5.43,14.83,6.62,22.84.61,4.08,1.06,8.29,1.46,12.42.44,4.57.42,7.61-3.78,10.25-4.65,2.92-10.25,2.19-15.43,1.73-5.62-.51-11.19-1.28-16.75-2.19-3.14-.52-8-.57-8.86-4.45-.37-1.62.18-3.36.38-5.05a1.5,1.5,0,0,1,1.43-1.32c7.4-.27,14.87.25,22.27,0,.35-7.19-2.18-13.49-2.77-20.49-.5-6-1-13.57,1.91-19,1-1.84,2.59-2.63.9-4.45A58.06,58.06,0,0,0,455.46,168.21Z"/><path class="cls-2" d="M446.37,151.82l6.8-1.79s.62,3.86-3,4.49A3,3,0,0,1,446.37,151.82Z"/><path class="cls-2" d="M465.19,171.68a11.29,11.29,0,0,0-6.65,3.85,10.77,10.77,0,0,0-1.87,3.36,14.25,14.25,0,0,0-.75,3.78,20.16,20.16,0,0,0,.14,3.88c0,.32.09.64.13.95l.06.48c0,.08,0,.16,0,.23l0,.22c.15.64.3,1.28.46,1.91s.31,1.28.49,1.91.36,1.27.54,1.89a17,17,0,0,0,1.51,3.63l-.1.09a8.23,8.23,0,0,1-1.3-1.58c-.18-.29-.35-.59-.52-.88l-.46-.91a29.49,29.49,0,0,1-1.44-3.79c-.2-.65-.38-1.3-.53-2l-.06-.27c0-.1,0-.17,0-.26l-.06-.52c0-.34-.08-.69-.09-1l0-1v-1c0-.34,0-.68,0-1l0-.51.07-.51a15.25,15.25,0,0,1,1-4A11.42,11.42,0,0,1,458,175.1a10.48,10.48,0,0,1,1.53-1.37,11.08,11.08,0,0,1,1.74-1.06,11.47,11.47,0,0,1,3.87-1.12Z"/><path class="cls-14" d="M452.2,119.54c-2.79.56-5.72,2.18-6.84,4.88a8.16,8.16,0,0,0-.47,4.34,11.76,11.76,0,0,0,.53,2.2,10.51,10.51,0,0,0,1,2,12.19,12.19,0,0,0,3.27,3.17,34.53,34.53,0,0,0,4.06,2.34,41.65,41.65,0,0,1,4.12,2.31,9.68,9.68,0,0,1,3.27,3.37,9.56,9.56,0,0,0-3.37-3.2,40.27,40.27,0,0,0-4.2-2.12,37.49,37.49,0,0,1-4.21-2.2,12.94,12.94,0,0,1-3.59-3.22,10.68,10.68,0,0,1-1.2-2.14,12,12,0,0,1-.67-2.36,10.7,10.7,0,0,1-.17-2.47,8.5,8.5,0,0,1,.51-2.47,8.69,8.69,0,0,1,3.1-4,13,13,0,0,1,2.17-1.25,12.77,12.77,0,0,1,2.4-.81.79.79,0,0,1,.35,1.55h-.07Z"/><path class="cls-4" d="M442.17,130.4a2,2,0,0,0-.12.29c0,.13-.08.26-.11.39a5.85,5.85,0,0,0-.11.84,7,7,0,0,0,.16,1.76,9.64,9.64,0,0,0,1.56,3.37,16.89,16.89,0,0,0,1.18,1.53c.46.46.89.95,1.38,1.39a30,30,0,0,0,3.1,2.5,28.18,28.18,0,0,0,3.4,2.09c1.19.63,2.42,1.16,3.66,1.72a13.67,13.67,0,0,1,3.53,2.08,9,9,0,0,1,2.26,3.38,8.94,8.94,0,0,0-2.43-3.17,13.11,13.11,0,0,0-3.56-1.8c-1.26-.47-2.55-.93-3.8-1.49a30.24,30.24,0,0,1-3.65-1.92,33.9,33.9,0,0,1-3.38-2.39c-.55-.42-1.05-.92-1.57-1.39a19.51,19.51,0,0,1-1.41-1.59,11.58,11.58,0,0,1-2.07-3.84,9.36,9.36,0,0,1-.36-2.26,9.52,9.52,0,0,1,.09-1.18q0-.3.12-.6a5.05,5.05,0,0,1,.22-.66l.06-.13a1.08,1.08,0,1,1,2,.87A1.05,1.05,0,0,1,442.17,130.4Z"/><path class="cls-16" d="M454.09,195.74s9.87-1.1,14.27.21l-2,21.14-6.9-1.23-4.26-5.53Z"/><path class="cls-2" d="M470.33,198.27,468.1,215l-.16,1.28a10.38,10.38,0,0,1-1.1.57,8.26,8.26,0,0,1,1,.43l-.05.38-7.93-1.43-1.35,0-4.92-4.58.73-13.46S465.93,197,470.33,198.27Z"/><path class="cls-4" d="M444,376.15l-.35,10.44H422.51s1.42-5.57,13.67-5.44l2.48-5.76Z"/><path class="cls-4" d="M472.75,367l3.11,6.81a2.87,2.87,0,0,1-.38,3L467,387.26l-12.25,0s.75-7,9.6-7.89l3.33-9.37Z"/><path class="cls-2" d="M432.45,179.48a69.89,69.89,0,0,0-5,14l-.4,1.81-.2.91-.17.91-.33,1.82-.26,1.83-.13.91c-.05.31-.06.62-.09.93l-.16,1.84,0,.46v.47l0,.92c0,.62,0,1.24,0,1.85l.08,1.86c0,.62.05,1.23.1,1.86.09,1.24.2,2.49.26,3.74q.24,3.75.23,7.52a40.2,40.2,0,0,1-.71,7.5,19.56,19.56,0,0,1-1.17,3.59,28.4,28.4,0,0,1-1.8,3.3l-.12-.07a28.83,28.83,0,0,0,1.66-3.34,20.12,20.12,0,0,0,1-3.56,39.14,39.14,0,0,0,.44-7.42c0-2.49-.19-5-.42-7.46-.09-1.24-.24-2.48-.36-3.72s-.19-2.51-.29-3.77a50.07,50.07,0,0,1,1.63-15A52.46,52.46,0,0,1,428.7,186c.51-1.15,1.06-2.28,1.66-3.39l.46-.82.48-.81c.33-.54.67-1.07,1-1.58Z"/><path class="cls-18" d="M412.72,213.16s-1.16-6,3.82-1.82S415,219,412.72,213.16Z"/><path class="cls-18" d="M415.33,210.44a6.78,6.78,0,0,1,3.9,5.17,6.45,6.45,0,0,0-3.66-6.43Z"/><path class="cls-2" d="M445,239.68c-.14,1.24-.23,2.48-.27,3.73s0,2.48,0,3.72a39.82,39.82,0,0,0,.91,7.32,28.38,28.38,0,0,0,2.44,6.87l.44.8c.15.26.32.51.48.77s.15.26.24.39l.26.37c.18.24.35.49.54.73.39.46.77.95,1.2,1.37.22.21.41.45.64.65l.68.6c.22.21.48.39.71.57s.48.38.74.55c.51.35,1,.71,1.54,1a26.89,26.89,0,0,0,3.25,1.77,22.06,22.06,0,0,0,7.07,2,17,17,0,0,0,7.28-.83,15.38,15.38,0,0,0,3.32-1.66,11.15,11.15,0,0,0,2.73-2.49l.11.08a11.82,11.82,0,0,1-2.68,2.65,15.59,15.59,0,0,1-3.34,1.8,17.46,17.46,0,0,1-7.48,1.11,22.6,22.6,0,0,1-7.36-1.86A28.51,28.51,0,0,1,455,270c-.55-.31-1.08-.67-1.61-1-.27-.17-.53-.37-.79-.56a8.47,8.47,0,0,1-.76-.58l-.74-.62c-.25-.2-.47-.44-.7-.66-.48-.44-.89-.94-1.32-1.42-.21-.24-.4-.5-.6-.76l-.3-.38-.27-.4-.54-.8-.49-.83a23.8,23.8,0,0,1-2.59-7.23,34.45,34.45,0,0,1-.49-3.79,37.1,37.1,0,0,1-.05-3.8,36.59,36.59,0,0,1,.33-3.78,29.19,29.19,0,0,1,.74-3.7Z"/><path class="cls-2" d="M454.29,216.17c1.4-.19,2.81-.29,4.23-.38s2.83-.09,4.25,0c.71,0,1.43,0,2.14.09A11.44,11.44,0,0,1,469.1,217a6.08,6.08,0,0,1,1.79,1.27l-.07.11a29.46,29.46,0,0,0-4.05-.84c-.67-.1-1.35-.21-2-.34s-1.36-.26-2.05-.35-1.39-.15-2.08-.2-1.4-.12-2.1-.16c-1.4-.09-2.8-.13-4.21-.15Z"/><path class="cls-2" d="M466,215.37a7.34,7.34,0,0,1,.87-.13c.28,0,.56,0,.84-.05a11.61,11.61,0,0,1,1.67.08,8.75,8.75,0,0,1,1.61.37,6.16,6.16,0,0,1,1.45.73,5.83,5.83,0,0,0-1.53-.34,7.2,7.2,0,0,0-1.54,0,9.59,9.59,0,0,0-1.49.3l-.71.23a7.13,7.13,0,0,0-.67.28Z"/><path class="cls-18" d="M371.34,96.15a33.27,33.27,0,0,1,20.36,7,33.19,33.19,0,0,1-12.61,58.46,33.05,33.05,0,0,1-28.18-6.07,33.2,33.2,0,0,1,12.61-58.47,33.39,33.39,0,0,1,7.82-.94Zm0-5a38.24,38.24,0,1,0,37.14,29.28,38.17,38.17,0,0,0-37.14-29.28Z"/><rect class="cls-18" x="373.17" y="165.06" width="15.53" height="8.43" transform="translate(-29.07 94.06) rotate(-13.56)"/><polygon class="cls-18" points="407.68 234.25 386.76 239.29 378.79 173.65 384.85 172.19 407.68 234.25"/><path class="cls-5" d="M381.4,196.45a1.48,1.48,0,0,0-.83,1.27,1.15,1.15,0,0,0,1,1.05c.71,0,2.48-.84,2.15-1.77A1.65,1.65,0,0,0,381.4,196.45Z"/><path class="cls-5" d="M379.05,193.47a1.47,1.47,0,0,1,.3-1.8,3.42,3.42,0,0,1,2-.46c.75,0,1.54-.14,1.65.79a1.9,1.9,0,0,1-1,1.73,2.43,2.43,0,0,1-1.38.39,2.26,2.26,0,0,1-.82-.16C379.6,193.85,379.4,193.63,379.05,193.47Z"/><path class="cls-5" d="M379.57,195.28c-.16-2.05,2.39-1.64,3.67-1.1a2.92,2.92,0,0,1,1,.55c.18.26,0,.7-.18.94a2.53,2.53,0,0,1-2.32.83A3.82,3.82,0,0,1,379.57,195.28Z"/><path class="cls-5" d="M379.13,191.57c-.43-.28-.38-1.06-.24-1.5s.73-.78,1.16-1.07,1-.77,1.32-.25a2.48,2.48,0,0,1-.13,1.94A1.74,1.74,0,0,1,379.13,191.57Z"/><path class="cls-5" d="M393.83,191.32c-.09-.7-.62-1-1.11-1.47l-.54-.39c-.53-.4-1-.86-1.53-1.25a4.09,4.09,0,0,0-1.63-1,7.51,7.51,0,0,0-1.95.06,12.45,12.45,0,0,0-2.29.06,2.74,2.74,0,0,0,1.24,2.08,4.17,4.17,0,0,0,1.33.53c.47.1.92-.08,1.27.2a6.31,6.31,0,0,1,.68,1,2.83,2.83,0,0,1,.61.89,12.43,12.43,0,0,1-.08,3.75,2.31,2.31,0,0,0,2.19,2.38,3.26,3.26,0,0,0,.88.05c3-1,1.9-4.41,1-6.58Z"/><rect class="cls-2" x="369.15" y="127.06" width="27.49" height="2.65" transform="translate(10.3 284.17) rotate(-41.23)"/><rect class="cls-2" x="354.06" y="131.48" width="21.11" height="2.65" transform="translate(2.85 273.2) rotate(-41.22)"/><path class="cls-2" d="M378.13,122.72l-1.58-2.13a50.74,50.74,0,0,0,4.81-4.24,46.55,46.55,0,0,1,5.33-4.64l1.54,2.16a44.17,44.17,0,0,0-5,4.39A51.9,51.9,0,0,1,378.13,122.72Z"/><ellipse class="cls-3" cx="319.45" cy="138.25" rx="8.03" ry="9.53" transform="translate(-26.85 103.12) rotate(-17.61)"/><polygon class="cls-19" points="167.25 149.76 180.38 144.01 183.27 152.43 172.31 159.19 167.25 149.76"/><path class="cls-17" d="M203.51,250.14s10.27,53-12.41,126.51l-4.84.15s-3.66-77.7,0-97.5-1.63-28.15-1.63-28.15Z"/><path class="cls-20" d="M192.86,248.91S191.12,277.7,170,375.8l-6.26-.27s-5.28-107.3,3.06-126.62Z"/><polygon class="cls-18" points="167.39 376.81 166.13 376.78 168.6 258.21 169.86 258.24 167.39 376.81"/><path class="cls-10" d="M238.35,192.44l3.09,7.69a236.06,236.06,0,0,1-14.31,19.31c-4.53,5.33-8.93,9.48-11.14,8.64-5.6-2.1-9.77-19.57-9.77-19.57l.61,19.77c6.92,25.1,1.06,34.19,1.06,34.19-3.79-7.93-15-11.38-15-11.38a68.67,68.67,0,0,1-32.29,11.24,64.88,64.88,0,0,1,5.84-27.89l-5.64-32.72c-5.64,6.73-14.47,12.44-17.45,14.26l-1,.61c.27.24.57.52.87.82h0c3,3,7.38,8.33,10.41,12.13l1.74,2.21c1,1.33,1.7,2.17,1.7,2.17l-5.28,7.21-1-.67q-2-1.36-3.77-2.66c-30.12-21.73-20-26.92-20-26.92s22.92-25.31,31.39-29.71c.38-.19.76-.39,1.14-.56.62-.29,1.24-.56,1.87-.81a46,46,0,0,1,15.15-3c17.55-1.56,25.79,3.16,25.79,3.16.28.07.57.16.86.26a12.08,12.08,0,0,1,1.17.53c8.83,4.68,14.58,24,14.58,24s2-1.5,11.23-7.4Z"/><path class="cls-19" d="M165.84,163.34a13.57,13.57,0,0,0-.39,4.45,5.2,5.2,0,0,0,1.86,3.79,6.36,6.36,0,0,0,4.32.9,21,21,0,0,0,4.58-1.07,20.82,20.82,0,0,1-4.53,1.45,6.9,6.9,0,0,1-4.8-.64,5,5,0,0,1-1.75-1.87,7.7,7.7,0,0,1-.82-2.39,14.56,14.56,0,0,1,0-5Z"/><path class="cls-21" d="M192.88,251.09a68.67,68.67,0,0,1-32.29,11.24,64.88,64.88,0,0,1,5.84-27.89l-5.64-32.72L168.85,221a20,20,0,0,1,1.56,8.12l-.08,4.53,12.12,1.92-.14.57a11.45,11.45,0,0,1-5.87,7.37L171,246.31a4.49,4.49,0,0,0-2.33,3l-.67,2.94a2.81,2.81,0,0,0,3.32,3.37Z"/><path class="cls-21" d="M227.13,219.44c-4.53,5.33-8.93,9.48-11.14,8.64-5.6-2.1-9.77-19.57-9.77-19.57a24.89,24.89,0,0,0,0-11.85s7.73,14.47,9.28,21.16,13.62-.78,13.62-.78Z"/><path class="cls-22" d="M182.45,235.55c-1.15,3.9-6.25.71-8.7,1.22-2.64.55-3.12,4-5.44,5.62a10,10,0,0,1-6.16,1.91,81.35,81.35,0,0,0,0-8.69c0-.11,0-.23,0-.35a4.45,4.45,0,0,0,2.22-2c1.59-2.37,1.8-3.63,5-4C174.09,228.59,179.35,232.66,182.45,235.55Z"/><path class="cls-2" d="M173.86,177.62a32.45,32.45,0,0,1,16.33,0,2.27,2.27,0,0,1,1.7,1.65c1.17,4.88,4.6,22.2-3.71,29.19,0,0-9.37-6.73-15.86-28.12A2.21,2.21,0,0,1,173.86,177.62Z"/><path class="cls-4" d="M186.34,376.81a52.19,52.19,0,0,0-.56,8.83c1.25,2.76,3.13,2.07,5.82,2.19l1,0,13.17-.31a.83.83,0,0,0,.67-1.39l-.21-.22a8.28,8.28,0,0,0-3.62-2.22l-5-1.52a7.24,7.24,0,0,1-3.84-2.71l-2.71-2.79Z"/><path class="cls-4" d="M163.7,375.54l-1.53,3c-1.22,1.81-1.95,5.08-.72,7,.87,1.38,3,1.58,4.55,1.82a22.14,22.14,0,0,0,3.9.22,10.54,10.54,0,0,0,3.55-.4c1.14-.54.76-2.51.5-3.4a16.8,16.8,0,0,0-1.76-3.71L170,375.8Z"/><path class="cls-5" d="M190.16,183.75a8.92,8.92,0,0,1-6.81,2.1c-2.85-.37-6.31-1.46-8.23-3.74-1.76-2.1-.85-4.85-.6-7.54a19.41,19.41,0,0,0-1.26-9.66l8.38.29,2.85.1s.64,2.92.73,3.19a18.9,18.9,0,0,0,1.33,3.11c1,2,2.68,3.53,3.82,5.45.93,1.57,1.69,3.73.76,5.44A5.11,5.11,0,0,1,190.16,183.75Z"/><path class="cls-6" d="M189.32,175.54a13,13,0,0,1-12.79-6.4,8.36,8.36,0,0,0,2.27.88,9,9,0,0,0,6.72-.7,16.56,16.56,0,0,0,3.15,5.45Z"/><path class="cls-19" d="M162.81,150.42a6.46,6.46,0,0,0-4.28,4.49,6.21,6.21,0,0,0,1.75,5.87c1.13,1.07,2.62,1.7,3.85,2.65a8.82,8.82,0,0,1,2.87,3.81,11.38,11.38,0,0,0,1.33,3.12,3.86,3.86,0,0,0,5.48.3,6.17,6.17,0,0,0,1.34-4.31,26.21,26.21,0,0,0-2.35-11.29,10.3,10.3,0,0,0-3.65-4.68,4.92,4.92,0,0,0-5.7.15Z"/><path class="cls-5" d="M193.46,154.21v.38a25.25,25.25,0,0,1-2.73,10.9,14.17,14.17,0,0,1-1.92,3c-2,2.2-7.16,3.43-10.09,2.75a10.71,10.71,0,0,1-6.28-4.69,23.08,23.08,0,0,1-2.89-7.3,3.9,3.9,0,0,1-4.46-3.62c0-2.15,1.37-3.59,4.59-3.16l.29,0c6.05-1,10.55-5.19,16.15-7.19,1-.36,3.85-1.7,4.72-1a4.35,4.35,0,0,1,.89,1.3,11.59,11.59,0,0,1,1.15,2.94,20.05,20.05,0,0,1,.55,3.77C193.46,152.89,193.47,153.55,193.46,154.21Z"/><path class="cls-5" d="M193.1,149.49c-2.94.61-6.42.29-10.55-.53a16.75,16.75,0,0,0-3.32-.35,45.92,45.92,0,0,1,6.89-3.4c1-.36,3.85-1.7,4.72-1a4.35,4.35,0,0,1,.89,1.3,11.59,11.59,0,0,1,1.15,2.94C193,148.79,193,149.14,193.1,149.49Z"/><path class="cls-2" d="M169.56,159.52c1.19,4.8,3.49,10.75,9,12a9.53,9.53,0,0,0,6.67-.59,12.31,12.31,0,0,0,5-3.87c.21-.33-.29-.68-.49-.35a11.72,11.72,0,0,1-4.59,3.6,9.2,9.2,0,0,1-6.78.55c-5-1.3-7.08-7.1-8.16-11.46-.09-.37-.7-.28-.61.09Z"/><path class="cls-6" d="M193.46,154.21c-4.52.69-13.59,1.2-18.4.57-2.85-.38-4.33-1.41-5.09-2.38,6.05-1,10.55-5.19,16.15-7.19,1-.36,3.85-1.7,4.72-1a4.35,4.35,0,0,1,.89,1.3,11.59,11.59,0,0,1,1.15,2.94,20.05,20.05,0,0,1,.55,3.77C193.46,152.89,193.47,153.55,193.46,154.21Z"/><path class="cls-19" d="M188,141.45a.4.4,0,0,0-.13-.79.4.4,0,0,0,.13.79Z"/><path class="cls-2" d="M179,162.91l7.78-1.2a.35.35,0,0,1,.42.39c-.18,1.29-1,4.9-4.81,5.05s-3.82-3-3.69-4A.34.34,0,0,1,179,162.91Z"/><path class="cls-5" d="M182.45,235.56c-1.14,3.89-6.25.7-8.7,1.2-2.64.56-3.12,4.05-5.45,5.63a10,10,0,0,1-6.15,1.91,10.45,10.45,0,0,1-2.78-.55l-1.17-.41.14-.18a6.56,6.56,0,0,0,.91-1.69,8.12,8.12,0,0,0,.25-5,1.89,1.89,0,0,0-.06-.18,18.26,18.26,0,0,1,2.72-1,4.45,4.45,0,0,0,2.22-2c1.59-2.37,1.81-3.63,5-4a11.4,11.4,0,0,1,6.65,1.61c.19.1.38.2.56.31A32.42,32.42,0,0,1,182.45,235.56Z"/><path class="cls-6" d="M182.45,235.56c-1.14,3.89-6.25.7-8.7,1.2-2.64.56-3.12,4.05-5.45,5.63a10,10,0,0,1-6.15,1.91,10.45,10.45,0,0,1-2.78-.55l-1.17-.41.14-.18a6.56,6.56,0,0,0,.91-1.69,5.56,5.56,0,0,0,1.05.33,5.69,5.69,0,0,0,3.8-.31,10.17,10.17,0,0,0,4.41-4.37c.72-1.47-.09-6.22.86-7.94a11.4,11.4,0,0,1,6.65,1.61c.08.38.2.57.47.37l.09-.06A32.42,32.42,0,0,1,182.45,235.56Z"/><path class="cls-5" d="M163.72,234.44l2.46-4.84a3.35,3.35,0,0,0,.35-1.79l-.09-1.18a.49.49,0,0,1,.79-.42l.82.58a2.53,2.53,0,0,1,1.07,2.22L169,231.7Z"/><path class="cls-19" d="M164.77,161.63s-.75,10.31,6.17,10l-1.39-6.11Z"/><path class="cls-19" d="M161.18,152.66c0,.09,0,.06,0,.07s0,0,0,0l0,0a.61.61,0,0,0,0-.13.55.55,0,0,0-.06-.32,1.41,1.41,0,0,0-.78-.61,4.48,4.48,0,0,0-1.32-.27,12,12,0,0,0-1.47,0,11.34,11.34,0,0,1,1.32-.76,6.29,6.29,0,0,1,1.57-.51,3.45,3.45,0,0,1,2,.22,3.15,3.15,0,0,1,1,.68,2.76,2.76,0,0,1,.4.49,2.91,2.91,0,0,1,.17.3c0,.05,0,.1.07.16a1,1,0,0,1,.08.25Z"/><path class="cls-19" d="M171.92,151.11a13.53,13.53,0,0,0-.11,3.53,5.56,5.56,0,0,0,1.38,3.31,4.8,4.8,0,0,1-1.47-1.27,8,8,0,0,1-1-1.72,13.71,13.71,0,0,1-.68-1.89,16.56,16.56,0,0,1-.42-2Z"/><path class="cls-19" d="M202.84,139.38c-2.26,6.31-5.41,9.21-9.74,10.11-2.94.61-6.42.29-10.55-.53a16.75,16.75,0,0,0-3.32-.35A12.23,12.23,0,0,0,170,152.4h0l-.28,0a4.86,4.86,0,0,0-3.24.45l-3.3-2.23c-.76-21,14.17-13.87,14.17-13.87l3.23-6C191.1,114.09,206.64,128.81,202.84,139.38Z"/><path class="cls-19" d="M163.91,153.23a16.76,16.76,0,0,1-1-1.72,13.78,13.78,0,0,1-.83-1.79,8.47,8.47,0,0,1-.53-1.91,4.14,4.14,0,0,1,.1-1.92,3.89,3.89,0,0,0,.45,1.76,8.11,8.11,0,0,0,1,1.5,13.71,13.71,0,0,0,1.21,1.32,14.15,14.15,0,0,0,1.33,1.16Z"/><path class="cls-19" d="M170.28,151a13.78,13.78,0,0,1,2.63-1.27,14,14,0,0,1,2.79-.72,10.35,10.35,0,0,1,5.73.74l.66.31.55.28a10.86,10.86,0,0,0,1.16.48,15.88,15.88,0,0,0,2.45.68,17.2,17.2,0,0,0,5.11.27,15.47,15.47,0,0,0,2.53-.48,13.85,13.85,0,0,0,2.38-.94,12.78,12.78,0,0,0,4-3.25,20.47,20.47,0,0,0,3.92-9.69,20.74,20.74,0,0,1-3.46,10,13.45,13.45,0,0,1-4,3.66,15.28,15.28,0,0,1-2.5,1.15,17.48,17.48,0,0,1-2.68.66,18.77,18.77,0,0,1-5.5,0,17.06,17.06,0,0,1-2.71-.6c-.45-.13-.89-.29-1.33-.46l-.65-.29-.56-.22A8.37,8.37,0,0,0,176,151a12,12,0,0,0-2.32.74,11.46,11.46,0,0,0-2.11,1.15l0,0a1.17,1.17,0,0,1-1.62-.28,1.15,1.15,0,0,1,.27-1.61Z"/><path class="cls-23" d="M195.42,127.35a9.11,9.11,0,0,1,4.68,4.45,11,11,0,0,1,.74,6.52,10.4,10.4,0,0,1-1.06,3.17,10,10,0,0,1-.95,1.39c-.19.21-.36.43-.56.63l-.64.56a12.78,12.78,0,0,1-6.13,2.62,28,28,0,0,1-6.65.28c-1.11-.1-2.21-.18-3.31-.36s-2.15-.33-3.21-.38l-.79,0c-.26,0-.52,0-.78,0a11.18,11.18,0,0,0-1.54.2,8.16,8.16,0,0,0-2.78,1.16,8,8,0,0,0-3.16,5l-1.5-.37a8.81,8.81,0,0,1,7.2-7,11,11,0,0,1,1.72-.17c.28,0,.57,0,.86,0l.85.06c1.13.09,2.24.32,3.3.49s2.14.32,3.21.45a27.36,27.36,0,0,0,6.46-.09,12.11,12.11,0,0,0,5.89-2.3l.61-.5c.19-.19.36-.39.54-.59a8.43,8.43,0,0,0,.94-1.28,9.72,9.72,0,0,0,1.1-3,10.66,10.66,0,0,0-.53-6.36A9.09,9.09,0,0,0,195.42,127.35Z"/><path class="cls-21" d="M157,233.93l-5.28,7.21q-2.53-1.72-4.75-3.33a13.73,13.73,0,0,0,8.33-6.05C156.39,233.09,157,233.93,157,233.93Z"/><path class="cls-10" d="M158.2,244.66s-6.44,0-8.86-3.48l7-9,1.64,1.28,1,.75,1.13.89S161.62,241.33,158.2,244.66Z"/><path class="cls-2" d="M163.14,189.3a13.92,13.92,0,0,1-.88,3.89,13.65,13.65,0,0,0,.49-3.92,23.38,23.38,0,0,0-.24-3.93,10.1,10.1,0,0,0-1.11-3.61,2.28,2.28,0,0,0-1.13-1,1.5,1.5,0,0,0-.76-.07c.62-.29,1.24-.56,1.87-.81a3.88,3.88,0,0,1,1,1.38,10.78,10.78,0,0,1,.86,4.07A24.74,24.74,0,0,1,163.14,189.3Z"/><path class="cls-2" d="M203.73,186.83a19.32,19.32,0,0,1-.85-3.81A6.59,6.59,0,0,1,203,181a4.06,4.06,0,0,1,.22-.73,12.08,12.08,0,0,1,1.17.53,5.1,5.1,0,0,0-.7,2.27A18.73,18.73,0,0,0,203.73,186.83Z"/><path class="cls-2" d="M189.74,204.71a92.47,92.47,0,0,1,3,28.6,91,91,0,0,0-5.93-27.65Z"/><path class="cls-2" d="M142.32,216.59c.27.24.57.52.87.82a12.41,12.41,0,0,1-1.42-.78,5.68,5.68,0,0,0-.93-.45,8.83,8.83,0,0,0-1-.33,26.41,26.41,0,0,0-4.39-.67,27.31,27.31,0,0,1,4.53-.09,11.31,11.31,0,0,1,1.15.15,6.81,6.81,0,0,1,1.16.34c.38.15.74.3,1.08.4Z"/><path class="cls-2" d="M159,234.23c-.11.4-.24.78-.38,1.15a32.5,32.5,0,0,1-1.74,3.61,30.64,30.64,0,0,0,1-3.82,11.17,11.17,0,0,0,.18-1.69Z"/><path class="cls-3" d="M133.09,283.87a76.5,76.5,0,0,1,2.35,16.2l.57-.52c12.47-11.46,19.05-21.92,22.46-30.35-15.49,10.26-3.82-.07,1.67-4.79,2.68-9,1.64-14.86,1.42-15.87l0-.15s-3.91,5.94-6.84,6.63-5.6,1.39-8.32,3.68-1.7,8.41-6.37,10.37c0,6.6-.29,20.22-3.08,1.38C133.17,272.84,131.32,277.65,133.09,283.87Z"/><path class="cls-24" d="M97.75,272.15s3,20.73,21.25,29C119,301.12,134.86,300,97.75,272.15Z"/><path class="cls-7" d="M138,327.5a18.06,18.06,0,0,0,8.19-13.89s3.22-6.79,8.59-5.89,12.27-9.24,18.95-14.78a17.63,17.63,0,0,1,13.74-4.11s-8-2.59-18.45,3.78A135.51,135.51,0,0,0,153.75,303l-9.31,6.41S136.25,323.06,138,327.5Z"/><path class="cls-3" d="M138,327.51l3.12-6.85c3.13-6.84,3.11-11.6,10.06-15.18S168.66,292.9,169,292.62c-3.48,2-9.58,2.67-14.18,3.67-.35,2.8-1.48,8.64-4.51,1.42-1,.52-1.54,1.15-1.57,2-.1,4.05-4,5.89-4,5.89C128.76,315.56,138,327.51,138,327.51Z"/><path class="cls-25" d="M97.76,272.16a49.18,49.18,0,0,0,7.77,9.68C121.38,297.42,119,301.12,119,301.12A19.24,19.24,0,0,0,126.92,313s5.55-17.69-9.5-30.23c-2.3-1.91-4.42-3.47-6.38-4.8.78,4.18,1,8.31-4.6-3-7.91-5-12.18-7.65-13.32-22.45C93.12,252.53,91,261,97.76,272.16Z"/><path class="cls-24" d="M90.68,299.91c0-.16,0-.28,0-.35S90.69,299.76,90.68,299.91Z"/><path class="cls-26" d="M111.28,315.82s6.75.71,7.1,6.87,4.05,13.55,6.87,13.55c0,0,19.72-27.46-8.8-27.28h-.54c3,3.29,8.31,9.62-3.94-.07-20.33-.69-21.4-7.12-21.29-8.95C90.45,302.22,90.77,312,111.28,315.82Z"/><path class="cls-26" d="M126,333.82s-.15,9.82,1.93,28.3a.79.79,0,0,1-.79-.73c-.36-4.27-2.27-26-4.23-28.14C117.11,327.05,126,333.82,126,333.82Z"/><path class="cls-7" d="M134.13,317.88s-3.14,12.28-1.94,43a1.18,1.18,0,1,1-2.35,0c.1-6.24.73-35.9,3.53-42.9Z"/><path class="cls-3" d="M138.69,327l-2.45,35.09a.74.74,0,0,1-.78.68.73.73,0,0,1-.68-.8L138,327.5Z"/><path class="cls-2" d="M162.16,248.09a56.24,56.24,0,0,1-6.61,12.47c-3.28,4.51-6.55,9-9.46,13.74a74.39,74.39,0,0,0-7.36,15.08c-1.78,5.29-2.24,10.86-3.56,16.26-.12.5-.88.29-.76-.21,1.28-5.24,1.73-10.66,3.41-15.81a70.94,70.94,0,0,1,6.59-14.06,152.49,152.49,0,0,1,9-13.39,62.12,62.12,0,0,0,8-14.29c.19-.47,1-.26.76.21Z"/><path class="cls-26" d="M125.71,310.9c0-5.4-.52-10.4-3.33-15.14-2.37-4-5.68-7.31-8.87-10.64-.36-.36.2-.93.56-.56,3.43,3.58,7,7.16,9.41,11.54,2.58,4.64,3,9.58,3,14.8a.4.4,0,0,1-.8,0Z"/><path class="cls-7" d="M138,327.37c.27-5.94,1.43-12.44,5.42-17.08.17-.19.45.09.28.28-3.91,4.54-5,11-5.31,16.8,0,.25-.4.25-.39,0Z"/><path class="cls-21" d="M99.33,337.33s6-7.3,10.78-3.78,11.1,16.55,11.1,16.55,2.18-11.27-7.33-18-15.31,3.35-15.31,3.35Z"/><path class="cls-10" d="M79.55,362.25S79,344.07,87,344.18a12.2,12.2,0,0,0,4.77-.89c6.52-9.31,6.1-6.78,4.46-2.74a25.78,25.78,0,0,0,3.15-3.22l0-.05a51.46,51.46,0,0,0,3.16-4.35c2.2-3.3,8.64-1.64,10.7-1l.64.2c-.42-.44-9.88-10.19-21.51-3.92,5.31,1.19,10.55,3.05-3.22,3.84a20.3,20.3,0,0,1-8,7.49C74.54,342.71,79.55,362.25,79.55,362.25Z"/><path class="cls-21" d="M120.49,348.67s2.44,10,2.8,15.93a.5.5,0,0,0,.49.47.49.49,0,0,0,.49-.57c-.42-2.74-2.29-14.65-3.78-18.23C118.81,342.22,120.49,348.67,120.49,348.67Z"/><path class="cls-2" d="M117.42,332.86c-2.29-4.61-13.08-4.23-17.07-1.88-3.78,2.23-6.12,6-10.68,6.83-.49.09-.71-.67-.21-.76,5.67-1,8.42-7.23,14.12-8.14,3.83-.61,12.67-.17,14.53,3.55l1.23,2.42Z"/><path class="cls-7" d="M135.36,299.84s-4.78,8.55-1.88,21.51a86.56,86.56,0,0,1,14.94-35.48S136.59,292.39,135.36,299.84Z"/><path class="cls-21" d="M144.71,342.57c5.63-2.27,6.83-5.26,6.83-5.26s.59-1.26,9.15-5a16.26,16.26,0,0,0,1.82-.93c-6.84.31-.09-2.32,4-3.77a11.48,11.48,0,0,0,1.94-6.87c-2,1.79-8.53,3.83-8.53,3.83C142.92,330.9,144.71,342.57,144.71,342.57Z"/><path class="cls-2" d="M144.68,342.88c.84-3.44,3.49-5.85,6.08-8.09A122.78,122.78,0,0,1,161,327.45c.18-.12.34.17.17.29-3.22,2.22-6.56,4.29-9.57,6.79-2.74,2.28-5.71,4.84-6.59,8.43a.16.16,0,0,1-.31-.08Z"/><path class="cls-7" d="M139.13,351.39l-2.59,11.45a.37.37,0,0,1-.48.27.36.36,0,0,1-.25-.44c.45-1.65,2.42-8.95,2.76-11.46C139,348.37,139.13,351.39,139.13,351.39Z"/><path class="cls-21" d="M145.34,342.31S141.2,354.9,140.79,361a.33.33,0,0,1-.38.31.34.34,0,0,1-.28-.38c.33-2.05,2.19-13.26,4.58-18.35Z"/><path class="cls-7" d="M138.33,353.77c1.87-8.32,5.44-6.4,5.44-6.4,11.76.21,15.59-4.52,15.82-4.81-.2.19-3.53,3.33-10.48,1.55-1.43,1.21-5.1,4.11-2.08-.65-.39-.14-.78-.29-1.19-.47C136.41,339,138.33,353.77,138.33,353.77Z"/><polygon class="cls-13" points="143.96 360.6 136.46 386.51 125.54 386.51 123.4 379.11 118.05 360.6 143.96 360.6"/><path class="cls-10" d="M144,360.6l-7.5,25.91H125.54l-2.14-7.4c7.69-3.81,12.09-11.24,14.6-18.51Z"/><rect class="cls-4" x="118.04" y="359.55" width="25.91" height="2.65"/><path class="cls-4" d="M33.46,387l78.81-.86,78.81-.65,39.41-.41,19.7-.1,9.85,0,9.85.06,19.71.26c6.56.12,13.13.21,19.7.38,13.14.3,26.27.68,39.41,1.3v.43c-13.14.62-26.27,1-39.41,1.3-6.57.17-13.14.26-19.7.39l-19.71.25-9.85.07-9.85,0-19.7-.11L191.08,389l-78.81-.65-78.81-.86Z"/><polygon class="cls-4" points="234.81 140.67 252.36 221.1 256.13 219.18 234.81 140.67"/><path class="cls-5" d="M247.63,185.08a1.58,1.58,0,0,0,.88-1.09.79.79,0,0,0-.85-.77c-.65.08-2.37.87-2.15,1.59S246.9,185.5,247.63,185.08Z"/><path class="cls-5" d="M250,188.06a1.19,1.19,0,0,1-.44,1.47,4,4,0,0,1-1.91.53c-.69.08-1.43.23-1.44-.52a1.89,1.89,0,0,1,1.06-1.47,2.69,2.69,0,0,1,1.3-.41,2.06,2.06,0,0,1,.75.06C249.49,187.79,249.66,188,250,188.06Z"/><path class="cls-5" d="M249.9,186.27c-.05,1.65-2.36,1.5-3.48,1.17-.24-.08-.76-.18-.9-.37s.08-.57.25-.77a3,3,0,0,1,2.22-.84A2.89,2.89,0,0,1,249.9,186.27Z"/><path class="cls-5" d="M250.19,190.15c.38.2.26.83.09,1.2s-.75.68-1.17,1-1,.7-1.25.3,0-1.16.31-1.58A2.05,2.05,0,0,1,250.19,190.15Z"/><path class="cls-21" d="M207.89,262.47l-2.68,2.35s-.72-7-.67-6.91A14.78,14.78,0,0,1,207.89,262.47Z"/></svg>